<svg width="61" height="60" viewBox="0 0 61 60" fill="none" xmlns="http://www.w3.org/2000/svg">
<g clip-path="url(#clip0)">
<path d="M48.2925 59.9388H13.1765C6.32216 59.9388 0.765137 54.3818 0.765137 47.5274V12.4114C0.765137 5.55703 6.32216 0 13.1765 0H48.2939C55.1483 0 60.7053 5.55703 60.7053 12.4114V47.5288C60.7039 54.3818 55.1469 59.9388 48.2925 59.9388Z" fill="#FD2A53"/>
<path d="M42.409 11.0581C28.9003 21.2233 18.4043 34.5917 12.1938 49.5448C14.338 48.193 17.3357 47.9942 19.767 49.0438C20.3497 46.5457 21.7206 44.2845 23.1432 42.1009C27.0285 36.1314 31.4161 30.4396 36.2584 25.0882C37.6511 23.5485 39.0832 22.036 40.6133 20.6066C43.6192 17.7995 47.0049 15.3246 50.6751 13.2472C47.9578 12.5311 45.2406 11.815 42.5233 11.0989" fill="#212321"/>
<path d="M28.8295 21.784C24.3017 17.2983 19.036 13.4185 13.272 10.3228C11.4737 12.3199 9.497 14.1835 7.36377 15.8907C10.0483 16.0758 12.4892 17.4208 14.7722 18.7726C18.3975 20.9195 22.0146 23.2488 24.5644 26.4207" fill="#212321"/>
<path d="M30.9751 32.8994C34.3975 35.0721 37.1461 38.0412 39.3311 41.2594C41.516 44.4776 43.1687 47.9545 44.7125 51.4491C45.3019 50.6241 46.376 50.1667 47.4637 50.0238C48.5515 49.8808 49.6678 50.0115 50.7677 50.1436C51.88 50.277 52.9922 50.4104 54.1044 50.5425C49.356 42.0054 43.0462 34.1423 35.5193 27.3818" fill="#212321"/>
</g>
<defs>
<clipPath id="clip0">
<rect width="59.9388" height="59.9388" fill="white" transform="translate(0.765137)"/>
</clipPath>
</defs>
</svg>
