<svg width="172" height="53" viewBox="0 0 172 53" fill="none" xmlns="http://www.w3.org/2000/svg">
<path d="M15.9444 52.2032H166.967C169.4 52.2032 171.372 50.2105 171.372 47.7515V9.02588C171.372 6.56686 169.4 4.57416 166.967 4.57416H15.9431C14.2688 4.57416 12.7401 5.53307 11.9966 7.04894L1.33344 22.6464C0.765375 23.805 0.0153194 25.0923 2.43055 30.227L11.9966 49.7297C12.7401 51.2443 14.2701 52.2032 15.9444 52.2032Z" fill="#043E44"/>
<path d="M15.4239 48.2626H166.446C168.88 48.2626 170.852 46.2699 170.852 43.8109V5.08526C170.852 2.62624 168.88 0.633545 166.446 0.633545H15.4226C13.7483 0.633545 12.2196 1.59246 11.4761 3.10833L1.91004 22.611C1.34198 23.7696 1.34198 25.1292 1.91004 26.2864L11.4761 45.7891C12.2196 47.3037 13.7496 48.2626 15.4239 48.2626Z" fill="#54DC5A"/>
<path d="M4.10169 30.7512L11.4774 45.7878C12.2209 47.3037 13.7496 48.2626 15.4239 48.2626H166.447C168.88 48.2626 170.852 46.2699 170.852 43.8108V28.3986C146.37 34.4634 115.639 38.0731 82.2705 38.0731C53.4762 38.0731 26.646 35.3855 4.10169 30.7512Z" fill="#46AF4B"/>
<path d="M15.4244 48.788H166.447C169.162 48.788 171.372 46.5549 171.372 43.8108V5.08518C171.372 2.34112 169.162 0.108032 166.447 0.108032H15.4232C13.5383 0.108032 11.8471 1.16809 11.01 2.87443L1.44393 22.3771C0.808269 23.6736 0.808269 25.2224 1.44393 26.5202L11.01 46.0229C11.8484 47.7279 13.5396 48.788 15.4244 48.788ZM166.447 1.1589C168.589 1.1589 170.332 2.92041 170.332 5.08518V43.8108C170.332 45.9756 168.589 47.7371 166.447 47.7371H15.4232C13.9361 47.7371 12.6024 46.9003 11.942 45.5552L2.37595 26.0525C1.88328 25.0476 1.88328 23.8483 2.37595 22.8435L11.942 3.34075C12.6037 1.99565 13.9374 1.1589 15.4244 1.1589H166.447Z" fill="#043E44"/>
<path d="M14.4464 9.03554C14.8982 10.3707 17.1929 11.2962 21.1992 9.9262C25.2056 8.55623 28.1904 7.40672 27.7386 6.07155C27.2869 4.73638 23.5703 2.14036 19.5627 3.51075C15.5552 4.88114 13.9947 7.70037 14.4464 9.03554Z" fill="white"/>
<path d="M11.7676 13.5543C11.7676 14.3123 13.139 15.438 13.9566 15.438C14.7742 15.438 15.4385 14.8232 15.4385 14.0653C15.4385 13.3074 14.1893 11.9478 13.3716 11.9478C12.554 11.9478 11.7676 12.7964 11.7676 13.5543Z" fill="white"/>
</svg>
