<svg width="60" height="58" viewBox="0 0 60 58" fill="none" xmlns="http://www.w3.org/2000/svg">
<path d="M24.161 29.5106H27.1055V41.4354C27.1055 41.6237 27.2976 41.812 27.5536 41.812H32.5466C32.8026 41.812 32.9947 41.6237 32.9947 41.3727V29.5733H36.3873C36.5794 29.5733 36.7714 29.3851 36.8354 29.1968L37.3475 24.8034C37.3475 24.6779 37.3475 24.5523 37.2195 24.4896C37.1555 24.4268 37.0274 24.3641 36.8994 24.3641H32.9947V21.6025C32.9947 20.7866 33.4428 20.3473 34.3389 20.3473C34.4669 20.3473 36.8994 20.3473 36.8994 20.3473C37.1555 20.3473 37.3475 20.159 37.3475 19.9079V15.8911C37.3475 15.6401 37.1555 15.4518 36.8994 15.4518H33.3787C33.3787 15.4518 33.3147 15.4518 33.1867 15.4518C32.5466 15.4518 30.4342 15.5773 28.7699 17.0836C26.9135 18.7782 27.1696 20.7866 27.2336 21.1004V24.3013H24.161C23.9049 24.3013 23.7129 24.4896 23.7129 24.7406V29.0712C23.7129 29.3223 23.9049 29.5106 24.161 29.5106Z" stroke="black" stroke-width="2" stroke-linecap="round" stroke-linejoin="round"/>
<path d="M58.1644 28.6327C58.1644 43.8646 45.4155 56.2654 29.6227 56.2654C13.8299 56.2654 1.08105 43.8646 1.08105 28.6327C1.08105 13.4008 13.8299 1 29.6227 1C45.4155 1 58.1644 13.4008 58.1644 28.6327Z" stroke="black" stroke-width="2"/>
</svg>
