<svg width="681" height="83" viewBox="0 0 681 83" fill="none" xmlns="http://www.w3.org/2000/svg">
<g clip-path="url(#clip0)">
<path d="M474.961 -5.0808C474.242 -5.32634 465.032 -0.282249 466.086 6.2218C466.18 6.81017 465.48 7.10842 465.343 7.38736C461.074 16.1285 450.149 22.6005 446.372 24.5003C443.685 25.8521 417.23 25.6 411.528 35.948C406.145 45.719 408.415 54.5386 414.495 69.061C415.387 71.192 416.18 80.6666 418.404 81.7384C421.875 83.4097 433.827 80.293 437.134 79.744C444.027 78.5975 460.618 77.8323 463.585 66.6003C467.497 51.7928 459.793 37.8259 459.224 35.7229C457.483 29.3018 466.565 14.1102 467.881 12.3452C469.504 10.1692 475.34 8.02582 475.278 7.85911C475.143 7.49772 473.233 8.0121 471.63 8.5177C473.237 6.62868 474.195 2.09747 473.956 2.44386C473.239 3.48026 472.791 4.19765 472.533 4.46102C472.438 4.5592 470.927 5.95023 470.788 5.901C470.72 5.87721 470.57 5.80996 471.023 4.94965C471.446 4.14558 472.042 2.43413 472.637 1.44386C472.874 1.04886 473.369 0.807056 473.337 0.799948C471.668 0.386547 468.689 6.06977 468.693 5.90733C468.908 -1.73656 475.405 -4.92968 474.961 -5.0808Z" fill="#BFFF37"/>
<path d="M462.973 63.7415C465.415 54.673 462.025 47.632 458.629 38.8586C453.327 25.1657 462.319 15.2374 470.887 9.23455C471.041 9.12702 470.886 8.83989 470.716 8.89349C469.356 9.32673 468.032 9.88935 466.759 10.5664C468.299 8.20239 469.338 5.53177 469.232 2.43958C469.221 2.13481 468.872 2.14038 468.778 2.32659C468.653 2.5742 468.543 2.82675 468.428 3.07764C467.52 3.86438 467.071 5.19981 466.343 6.22813C465.505 7.41103 464.523 8.45944 463.484 9.42602C463.815 8.76875 464.101 8.06204 464.392 7.31038C465.424 4.658 466.416 2.42376 468.443 0.633431C468.475 0.606286 468.455 0.526038 468.405 0.533885C468.362 0.543003 468.323 0.558929 468.281 0.568048C468.348 0.530512 468.413 0.49335 468.481 0.455815C468.598 0.38852 468.502 0.136249 468.368 0.157174C465.634 0.614102 463.167 2.73083 461.646 5.43512C462.574 1.02148 463.328 -3.47041 466.988 -6.10213C467.21 -6.21534 467.427 -6.33018 467.663 -6.43568C467.841 -6.51508 467.775 -6.8921 467.556 -6.85533C463.083 -6.10447 460.073 -1.99538 458.426 2.75375C458.406 2.23464 458.368 1.71097 458.3 1.17982C458.26 0.877152 457.853 0.830361 457.832 1.13041C456.121 26.0921 425.193 14.9671 411.985 25.3044C397.064 36.9836 409.305 60.7372 409.566 78.1113C409.575 78.7645 410.493 79.2928 410.66 78.5482C410.728 78.2483 410.776 77.9441 410.834 77.6432C411.606 76.2354 412.11 74.5458 412.445 72.7723C412.429 73.5276 412.385 74.2798 412.295 75.0048C412.133 76.3026 411.754 77.6834 412.008 79.0436C412.047 79.2459 412.276 79.4258 412.428 79.2844C412.692 79.0347 412.893 78.7213 413.063 78.3834C413.077 78.3787 413.091 78.3888 413.102 78.3822C413.2 78.3374 413.291 78.2766 413.386 78.2274C414.449 78.2109 415.468 77.9509 416.441 77.5683C416.289 77.83 416.143 78.1052 416.005 78.3941C415.044 79.4957 414.574 80.5498 414.432 82.1584C414.406 82.4468 414.763 82.7711 414.967 82.5601C415.834 81.6718 416.491 80.7845 417.231 79.752C417.329 79.6164 417.443 79.4662 417.564 79.3149C417.619 79.294 417.675 79.2878 417.73 79.2521C426.295 73.7303 437.222 80.5979 446.662 79.0141C454.336 77.7259 460.717 72.1115 462.973 63.7415ZM449.998 72.9538C452.037 71.1003 453.633 68.5927 454.184 65.9322C454.236 65.6739 453.882 65.5062 453.757 65.6901C452.412 67.6901 451.426 69.8229 449.744 71.5152C448.465 72.8039 447.036 73.7529 445.575 74.7072C444.314 75.0195 443.006 75.202 441.662 75.238C434.985 75.4166 428.003 72.8821 421.933 74.6599C424.2 73.4571 426.784 72.8178 429.927 72.6327C433.746 72.4083 437.113 72.1172 440.077 69.5476C440.114 69.515 440.078 69.425 440.028 69.45C438.37 70.2927 436.507 70.7506 434.57 71.0561C444.069 67.3618 449.426 53.5762 445.711 42.0601C445.621 41.7824 445.281 41.8749 445.307 42.138C445.957 48.7984 445.94 54.8765 443.234 60.5366C440.671 65.8948 436.634 68.7229 432.037 71.3785C427.666 71.8365 423.153 71.9709 419.773 74.0929C418.716 74.317 417.748 75.074 416.79 75.5082C416.644 75.5752 416.494 75.6378 416.345 75.7028C417.153 74.7454 417.887 73.6916 418.61 72.6983C420.397 70.2516 422.297 67.7674 423.56 64.8829C423.58 64.8381 423.52 64.7813 423.485 64.8136C421.503 66.7613 419.858 69.1246 417.989 71.2141C416.655 72.7025 415.076 74.0649 413.858 75.7166C414.473 73.9189 414.985 72.0613 415.762 70.3461C417.058 67.4834 418.954 65.2083 420.447 62.5256C420.552 62.3375 420.354 62.0718 420.175 62.1978C419.157 62.9161 418.164 63.9294 417.251 65.1167C419.005 51.5685 424.754 41.929 433.597 33.4288C433.772 33.2618 433.562 32.9367 433.362 33.0636C423.606 39.2351 417.721 52.4485 416.96 65.498C415.39 67.6534 414.086 70.3508 413.373 73.0881C413.216 72.2545 413.002 71.4495 412.765 70.7462C412.936 69.3047 413.017 67.8528 413.046 66.4852C413.133 62.127 411.608 57.7096 412.036 53.4159C412.07 53.0697 411.578 52.8524 411.487 53.1976C410.591 56.6526 411.272 60.0864 411.548 63.7454C411.696 65.7254 411.502 67.6042 411.239 69.4597C410.83 63.3526 409.179 57.1307 408.243 50.9835C407.39 45.3918 407.075 39.4147 409.127 34.5041C411.595 28.5993 417.165 25.691 422.67 24.3227C423.971 23.9992 425.293 23.7531 426.624 23.5426C418.492 29.014 413.258 38.9873 412.318 50.606C412.306 50.7748 412.533 50.8325 412.553 50.665C414.078 37.8882 420.61 28.3715 429.841 23.1034C436.504 22.3141 443.281 22.0095 449.207 18.695C453.243 16.4359 456.702 12.4111 457.945 7.39899C459.256 4.09995 460.294 0.9367 462.034 -1.6622C459.969 3.19892 459.831 10.3478 457.565 14.2989C457.476 14.4525 457.664 14.7296 457.804 14.5876C459.643 12.6696 460.538 10.1687 461.186 7.51993C461.822 6.20194 462.546 4.96332 463.499 3.89748C464.255 3.05105 465.1 2.42854 465.993 1.87701C463.673 4.19875 462.704 8.81985 461.211 11.4878C461.083 11.7163 461.332 12.0697 461.55 11.8983C461.704 11.776 461.849 11.6481 461.987 11.5161C462.054 11.5522 462.131 11.5574 462.212 11.5152C463.778 10.6819 465.096 9.63734 466.28 8.28277C465.73 9.52359 465.099 10.7206 464.248 11.8097C464.03 12.0891 463.805 12.3524 463.573 12.6092C459.229 15.8898 455.891 20.7195 454.675 26.6933C453.873 30.6411 454.14 34.6349 455.166 38.7529C455.791 41.2662 456.735 43.7175 457.576 46.1872C457.572 46.7518 457.582 47.319 457.604 47.8844C457.302 46.6714 456.914 45.4719 456.42 44.3183C455.035 41.068 451.281 37.4135 452.307 33.8132C452.321 33.762 452.256 33.7036 452.224 33.7526C450.136 37.2149 453.531 40.7639 454.862 44.231C457.365 50.7512 456.271 56.6103 454.915 62.7017C454.825 63.0982 455.238 63.4234 455.494 63.131C458.135 60.0945 458.738 55.4939 458.194 51.0309C458.156 50.7059 458.095 50.382 458.042 50.0569C458.183 49.5518 458.263 49.0122 458.298 48.455C458.787 50.0948 459.183 51.7491 459.348 53.4469C460.21 62.3396 456.181 69.4839 449.998 72.9538Z" fill="#212321"/>
</g>
<g clip-path="url(#clip1)">
<path d="M541.961 -5.0808C541.242 -5.32634 532.032 -0.282249 533.086 6.2218C533.18 6.81017 532.48 7.10842 532.343 7.38736C528.074 16.1285 517.149 22.6005 513.372 24.5003C510.685 25.8521 484.23 25.6 478.528 35.948C473.145 45.719 475.415 54.5386 481.495 69.061C482.387 71.192 483.18 80.6666 485.404 81.7384C488.875 83.4097 500.827 80.293 504.134 79.744C511.027 78.5975 527.618 77.8323 530.585 66.6003C534.497 51.7928 526.793 37.8259 526.224 35.7229C524.483 29.3018 533.565 14.1102 534.881 12.3452C536.504 10.1692 542.34 8.02582 542.278 7.85911C542.143 7.49772 540.233 8.0121 538.63 8.5177C540.237 6.62868 541.195 2.09747 540.956 2.44386C540.239 3.48026 539.791 4.19765 539.533 4.46102C539.438 4.5592 537.927 5.95023 537.788 5.901C537.72 5.87721 537.57 5.80996 538.023 4.94965C538.446 4.14558 539.042 2.43413 539.637 1.44386C539.874 1.04886 540.369 0.807056 540.337 0.799948C538.668 0.386547 535.689 6.06977 535.693 5.90733C535.908 -1.73656 542.405 -4.92968 541.961 -5.0808Z" fill="#BFFF37"/>
<path d="M529.973 63.7415C532.415 54.673 529.025 47.632 525.629 38.8586C520.327 25.1657 529.319 15.2374 537.887 9.23455C538.041 9.12702 537.886 8.83989 537.716 8.89349C536.356 9.32673 535.032 9.88935 533.759 10.5664C535.299 8.20239 536.338 5.53177 536.232 2.43958C536.221 2.13481 535.872 2.14038 535.778 2.32659C535.653 2.5742 535.543 2.82675 535.428 3.07764C534.52 3.86438 534.071 5.19981 533.343 6.22813C532.505 7.41103 531.523 8.45944 530.484 9.42602C530.815 8.76875 531.101 8.06204 531.392 7.31038C532.424 4.658 533.416 2.42376 535.443 0.633431C535.475 0.606286 535.455 0.526038 535.405 0.533885C535.362 0.543003 535.323 0.558929 535.281 0.568048C535.348 0.530512 535.413 0.49335 535.481 0.455815C535.598 0.38852 535.502 0.136249 535.368 0.157174C532.634 0.614102 530.167 2.73083 528.646 5.43512C529.574 1.02148 530.328 -3.47041 533.988 -6.10213C534.21 -6.21534 534.427 -6.33018 534.663 -6.43568C534.841 -6.51508 534.775 -6.8921 534.556 -6.85533C530.083 -6.10447 527.073 -1.99538 525.426 2.75375C525.406 2.23464 525.368 1.71097 525.3 1.17982C525.26 0.877152 524.853 0.830361 524.832 1.13041C523.121 26.0921 492.193 14.9671 478.985 25.3044C464.064 36.9836 476.305 60.7372 476.566 78.1113C476.575 78.7645 477.493 79.2928 477.66 78.5482C477.728 78.2483 477.776 77.9441 477.834 77.6432C478.606 76.2354 479.11 74.5458 479.445 72.7723C479.429 73.5276 479.385 74.2798 479.295 75.0048C479.133 76.3026 478.754 77.6834 479.008 79.0436C479.047 79.2459 479.276 79.4258 479.428 79.2844C479.692 79.0347 479.893 78.7213 480.063 78.3834C480.077 78.3787 480.091 78.3888 480.102 78.3822C480.2 78.3374 480.291 78.2766 480.386 78.2274C481.449 78.2109 482.468 77.9509 483.441 77.5683C483.289 77.83 483.143 78.1052 483.005 78.3941C482.044 79.4957 481.574 80.5498 481.432 82.1584C481.406 82.4468 481.763 82.7711 481.967 82.5601C482.834 81.6718 483.491 80.7845 484.231 79.752C484.329 79.6164 484.443 79.4662 484.564 79.3149C484.619 79.294 484.675 79.2878 484.73 79.2521C493.295 73.7303 504.222 80.5979 513.662 79.0141C521.336 77.7259 527.717 72.1115 529.973 63.7415ZM516.998 72.9538C519.037 71.1003 520.633 68.5927 521.184 65.9322C521.236 65.6739 520.882 65.5062 520.757 65.6901C519.412 67.6901 518.426 69.8229 516.744 71.5152C515.465 72.8039 514.036 73.7529 512.575 74.7072C511.314 75.0195 510.006 75.202 508.662 75.238C501.985 75.4166 495.003 72.8821 488.933 74.6599C491.2 73.4571 493.784 72.8178 496.927 72.6327C500.746 72.4083 504.113 72.1172 507.077 69.5476C507.114 69.515 507.078 69.425 507.028 69.45C505.37 70.2927 503.507 70.7506 501.57 71.0561C511.069 67.3618 516.426 53.5762 512.711 42.0601C512.621 41.7824 512.281 41.8749 512.307 42.138C512.957 48.7984 512.94 54.8765 510.234 60.5366C507.671 65.8948 503.634 68.7229 499.037 71.3785C494.666 71.8365 490.153 71.9709 486.773 74.0929C485.716 74.317 484.748 75.074 483.79 75.5082C483.644 75.5752 483.494 75.6378 483.345 75.7028C484.153 74.7454 484.887 73.6916 485.61 72.6983C487.397 70.2516 489.297 67.7674 490.56 64.8829C490.58 64.8381 490.52 64.7813 490.485 64.8136C488.503 66.7613 486.858 69.1246 484.989 71.2141C483.655 72.7025 482.076 74.0649 480.858 75.7166C481.473 73.9189 481.985 72.0613 482.762 70.3461C484.058 67.4834 485.954 65.2083 487.447 62.5256C487.552 62.3375 487.354 62.0718 487.175 62.1978C486.157 62.9161 485.164 63.9294 484.251 65.1167C486.005 51.5685 491.754 41.929 500.597 33.4288C500.772 33.2618 500.562 32.9367 500.362 33.0636C490.606 39.2351 484.721 52.4485 483.96 65.498C482.39 67.6534 481.086 70.3508 480.373 73.0881C480.216 72.2545 480.002 71.4495 479.765 70.7462C479.936 69.3047 480.017 67.8528 480.046 66.4852C480.133 62.127 478.608 57.7096 479.036 53.4159C479.07 53.0697 478.578 52.8524 478.487 53.1976C477.591 56.6526 478.272 60.0864 478.548 63.7454C478.696 65.7254 478.502 67.6042 478.239 69.4597C477.83 63.3526 476.179 57.1307 475.243 50.9835C474.39 45.3918 474.075 39.4147 476.127 34.5041C478.595 28.5993 484.165 25.691 489.67 24.3227C490.971 23.9992 492.293 23.7531 493.624 23.5426C485.492 29.014 480.258 38.9873 479.318 50.606C479.306 50.7748 479.533 50.8325 479.553 50.665C481.078 37.8882 487.61 28.3715 496.841 23.1034C503.504 22.3141 510.281 22.0095 516.207 18.695C520.243 16.4359 523.702 12.4111 524.945 7.39899C526.256 4.09995 527.294 0.9367 529.034 -1.6622C526.969 3.19892 526.831 10.3478 524.565 14.2989C524.476 14.4525 524.664 14.7296 524.804 14.5876C526.643 12.6696 527.538 10.1687 528.186 7.51993C528.822 6.20194 529.546 4.96332 530.499 3.89748C531.255 3.05105 532.1 2.42854 532.993 1.87701C530.673 4.19875 529.704 8.81985 528.211 11.4878C528.083 11.7163 528.332 12.0697 528.55 11.8983C528.704 11.776 528.849 11.6481 528.987 11.5161C529.054 11.5522 529.131 11.5574 529.212 11.5152C530.778 10.6819 532.096 9.63734 533.28 8.28277C532.73 9.52359 532.099 10.7206 531.248 11.8097C531.03 12.0891 530.805 12.3524 530.573 12.6092C526.229 15.8898 522.891 20.7195 521.675 26.6933C520.873 30.6411 521.14 34.6349 522.166 38.7529C522.791 41.2662 523.735 43.7175 524.576 46.1872C524.572 46.7518 524.582 47.319 524.604 47.8844C524.302 46.6714 523.914 45.4719 523.42 44.3183C522.035 41.068 518.281 37.4135 519.307 33.8132C519.321 33.762 519.256 33.7036 519.224 33.7526C517.136 37.2149 520.531 40.7639 521.862 44.231C524.365 50.7512 523.271 56.6103 521.915 62.7017C521.825 63.0982 522.238 63.4234 522.494 63.131C525.135 60.0945 525.738 55.4939 525.194 51.0309C525.156 50.7059 525.095 50.382 525.042 50.0569C525.183 49.5518 525.263 49.0122 525.298 48.455C525.787 50.0948 526.183 51.7491 526.348 53.4469C527.21 62.3396 523.181 69.4839 516.998 72.9538Z" fill="#212321"/>
</g>
<g clip-path="url(#clip2)">
<path d="M608.961 -5.0808C608.242 -5.32634 599.032 -0.282249 600.086 6.2218C600.18 6.81017 599.48 7.10842 599.343 7.38736C595.074 16.1285 584.149 22.6005 580.372 24.5003C577.685 25.8521 551.23 25.6 545.528 35.948C540.145 45.719 542.415 54.5386 548.495 69.061C549.387 71.192 550.18 80.6666 552.404 81.7384C555.875 83.4097 567.827 80.293 571.134 79.744C578.027 78.5975 594.618 77.8323 597.585 66.6003C601.497 51.7928 593.793 37.8259 593.224 35.7229C591.483 29.3018 600.565 14.1102 601.881 12.3452C603.504 10.1692 609.34 8.02582 609.278 7.85911C609.143 7.49772 607.233 8.0121 605.63 8.5177C607.237 6.62868 608.195 2.09747 607.956 2.44386C607.239 3.48026 606.791 4.19765 606.533 4.46102C606.438 4.5592 604.927 5.95023 604.788 5.901C604.72 5.87721 604.57 5.80996 605.023 4.94965C605.446 4.14558 606.042 2.43413 606.637 1.44386C606.874 1.04886 607.369 0.807056 607.337 0.799948C605.668 0.386547 602.689 6.06977 602.693 5.90733C602.908 -1.73656 609.405 -4.92968 608.961 -5.0808Z" fill="#8DC63F"/>
<path d="M596.973 63.7415C599.415 54.673 596.025 47.632 592.629 38.8586C587.327 25.1657 596.319 15.2374 604.887 9.23455C605.041 9.12702 604.886 8.83989 604.716 8.89349C603.356 9.32673 602.032 9.88935 600.759 10.5664C602.299 8.20239 603.338 5.53177 603.232 2.43958C603.221 2.13481 602.872 2.14038 602.778 2.32659C602.653 2.5742 602.543 2.82675 602.428 3.07764C601.52 3.86438 601.071 5.19981 600.343 6.22813C599.505 7.41103 598.523 8.45944 597.484 9.42602C597.815 8.76875 598.101 8.06204 598.392 7.31038C599.424 4.658 600.416 2.42376 602.443 0.633431C602.475 0.606286 602.455 0.526038 602.405 0.533885C602.362 0.543003 602.323 0.558929 602.281 0.568048C602.348 0.530512 602.413 0.49335 602.481 0.455815C602.598 0.38852 602.502 0.136249 602.368 0.157174C599.634 0.614102 597.167 2.73083 595.646 5.43512C596.574 1.02148 597.328 -3.47041 600.988 -6.10213C601.21 -6.21534 601.427 -6.33018 601.663 -6.43568C601.841 -6.51508 601.775 -6.8921 601.556 -6.85533C597.083 -6.10447 594.073 -1.99538 592.426 2.75375C592.406 2.23464 592.368 1.71097 592.3 1.17982C592.26 0.877152 591.853 0.830361 591.832 1.13041C590.121 26.0921 559.193 14.9671 545.985 25.3044C531.064 36.9836 543.305 60.7372 543.566 78.1113C543.575 78.7645 544.493 79.2928 544.66 78.5482C544.728 78.2483 544.776 77.9441 544.834 77.6432C545.606 76.2354 546.11 74.5458 546.445 72.7723C546.429 73.5276 546.385 74.2798 546.295 75.0048C546.133 76.3026 545.754 77.6834 546.008 79.0436C546.047 79.2459 546.276 79.4258 546.428 79.2844C546.692 79.0347 546.893 78.7213 547.063 78.3834C547.077 78.3787 547.091 78.3888 547.102 78.3822C547.2 78.3374 547.291 78.2766 547.386 78.2274C548.449 78.2109 549.468 77.9509 550.441 77.5683C550.289 77.83 550.143 78.1052 550.005 78.3941C549.044 79.4957 548.574 80.5498 548.432 82.1584C548.406 82.4468 548.763 82.7711 548.967 82.5601C549.834 81.6718 550.491 80.7845 551.231 79.752C551.329 79.6164 551.443 79.4662 551.564 79.3149C551.619 79.294 551.675 79.2878 551.73 79.2521C560.295 73.7303 571.222 80.5979 580.662 79.0141C588.336 77.7259 594.717 72.1115 596.973 63.7415ZM583.998 72.9538C586.037 71.1003 587.633 68.5927 588.184 65.9322C588.236 65.6739 587.882 65.5062 587.757 65.6901C586.412 67.6901 585.426 69.8229 583.744 71.5152C582.465 72.8039 581.036 73.7529 579.575 74.7072C578.314 75.0195 577.006 75.202 575.662 75.238C568.985 75.4166 562.003 72.8821 555.933 74.6599C558.2 73.4571 560.784 72.8178 563.927 72.6327C567.746 72.4083 571.113 72.1172 574.077 69.5476C574.114 69.515 574.078 69.425 574.028 69.45C572.37 70.2927 570.507 70.7506 568.57 71.0561C578.069 67.3618 583.426 53.5762 579.711 42.0601C579.621 41.7824 579.281 41.8749 579.307 42.138C579.957 48.7984 579.94 54.8765 577.234 60.5366C574.671 65.8948 570.634 68.7229 566.037 71.3785C561.666 71.8365 557.153 71.9709 553.773 74.0929C552.716 74.317 551.748 75.074 550.79 75.5082C550.644 75.5752 550.494 75.6378 550.345 75.7028C551.153 74.7454 551.887 73.6916 552.61 72.6983C554.397 70.2516 556.297 67.7674 557.56 64.8829C557.58 64.8381 557.52 64.7813 557.485 64.8136C555.503 66.7613 553.858 69.1246 551.989 71.2141C550.655 72.7025 549.076 74.0649 547.858 75.7166C548.473 73.9189 548.985 72.0613 549.762 70.3461C551.058 67.4834 552.954 65.2083 554.447 62.5256C554.552 62.3375 554.354 62.0718 554.175 62.1978C553.157 62.9161 552.164 63.9294 551.251 65.1167C553.005 51.5685 558.754 41.929 567.597 33.4288C567.772 33.2618 567.562 32.9367 567.362 33.0636C557.606 39.2351 551.721 52.4485 550.96 65.498C549.39 67.6534 548.086 70.3508 547.373 73.0881C547.216 72.2545 547.002 71.4495 546.765 70.7462C546.936 69.3047 547.017 67.8528 547.046 66.4852C547.133 62.127 545.608 57.7096 546.036 53.4159C546.07 53.0697 545.578 52.8524 545.487 53.1976C544.591 56.6526 545.272 60.0864 545.548 63.7454C545.696 65.7254 545.502 67.6042 545.239 69.4597C544.83 63.3526 543.179 57.1307 542.243 50.9835C541.39 45.3918 541.075 39.4147 543.127 34.5041C545.595 28.5993 551.165 25.691 556.67 24.3227C557.971 23.9992 559.293 23.7531 560.624 23.5426C552.492 29.014 547.258 38.9873 546.318 50.606C546.306 50.7748 546.533 50.8325 546.553 50.665C548.078 37.8882 554.61 28.3715 563.841 23.1034C570.504 22.3141 577.281 22.0095 583.207 18.695C587.243 16.4359 590.702 12.4111 591.945 7.39899C593.256 4.09995 594.294 0.9367 596.034 -1.6622C593.969 3.19892 593.831 10.3478 591.565 14.2989C591.476 14.4525 591.664 14.7296 591.804 14.5876C593.643 12.6696 594.538 10.1687 595.186 7.51993C595.822 6.20194 596.546 4.96332 597.499 3.89748C598.255 3.05105 599.1 2.42854 599.993 1.87701C597.673 4.19875 596.704 8.81985 595.211 11.4878C595.083 11.7163 595.332 12.0697 595.55 11.8983C595.704 11.776 595.849 11.6481 595.987 11.5161C596.054 11.5522 596.131 11.5574 596.212 11.5152C597.778 10.6819 599.096 9.63734 600.28 8.28277C599.73 9.52359 599.099 10.7206 598.248 11.8097C598.03 12.0891 597.805 12.3524 597.573 12.6092C593.229 15.8898 589.891 20.7195 588.675 26.6933C587.873 30.6411 588.14 34.6349 589.166 38.7529C589.791 41.2662 590.735 43.7175 591.576 46.1872C591.572 46.7518 591.582 47.319 591.604 47.8844C591.302 46.6714 590.914 45.4719 590.42 44.3183C589.035 41.068 585.281 37.4135 586.307 33.8132C586.321 33.762 586.256 33.7036 586.224 33.7526C584.136 37.2149 587.531 40.7639 588.862 44.231C591.365 50.7512 590.271 56.6103 588.915 62.7017C588.825 63.0982 589.238 63.4234 589.494 63.131C592.135 60.0945 592.738 55.4939 592.194 51.0309C592.156 50.7059 592.095 50.382 592.042 50.0569C592.183 49.5518 592.263 49.0122 592.298 48.455C592.787 50.0948 593.183 51.7491 593.348 53.4469C594.21 62.3396 590.181 69.4839 583.998 72.9538Z" fill="#212321"/>
</g>
<g clip-path="url(#clip3)">
<path d="M675.961 -5.0808C675.242 -5.32634 666.032 -0.282249 667.086 6.2218C667.18 6.81017 666.48 7.10842 666.343 7.38736C662.074 16.1285 651.149 22.6005 647.372 24.5003C644.685 25.8521 618.23 25.6 612.528 35.948C607.145 45.719 609.415 54.5386 615.495 69.061C616.387 71.192 617.18 80.6666 619.404 81.7384C622.875 83.4097 634.827 80.293 638.134 79.744C645.027 78.5975 661.618 77.8323 664.585 66.6003C668.497 51.7928 660.793 37.8259 660.224 35.7229C658.483 29.3018 667.565 14.1102 668.881 12.3452C670.504 10.1692 676.34 8.02582 676.278 7.85911C676.143 7.49772 674.233 8.0121 672.63 8.5177C674.237 6.62868 675.195 2.09747 674.956 2.44386C674.239 3.48026 673.791 4.19765 673.533 4.46102C673.438 4.5592 671.927 5.95023 671.788 5.901C671.72 5.87721 671.57 5.80996 672.023 4.94965C672.446 4.14558 673.042 2.43413 673.637 1.44386C673.874 1.04886 674.369 0.807056 674.337 0.799948C672.668 0.386547 669.689 6.06977 669.693 5.90733C669.908 -1.73656 676.405 -4.92968 675.961 -5.0808Z" fill="#8DC63F"/>
<path d="M663.973 63.7415C666.415 54.673 663.025 47.632 659.629 38.8586C654.327 25.1657 663.319 15.2374 671.887 9.23455C672.041 9.12702 671.886 8.83989 671.716 8.89349C670.356 9.32673 669.032 9.88935 667.759 10.5664C669.299 8.20239 670.338 5.53177 670.232 2.43958C670.221 2.13481 669.872 2.14038 669.778 2.32659C669.653 2.5742 669.543 2.82675 669.428 3.07764C668.52 3.86438 668.071 5.19981 667.343 6.22813C666.505 7.41103 665.523 8.45944 664.484 9.42602C664.815 8.76875 665.101 8.06204 665.392 7.31038C666.424 4.658 667.416 2.42376 669.443 0.633431C669.475 0.606286 669.455 0.526038 669.405 0.533885C669.362 0.543003 669.323 0.558929 669.281 0.568048C669.348 0.530512 669.413 0.49335 669.481 0.455815C669.598 0.38852 669.502 0.136249 669.368 0.157174C666.634 0.614102 664.167 2.73083 662.646 5.43512C663.574 1.02148 664.328 -3.47041 667.988 -6.10213C668.21 -6.21534 668.427 -6.33018 668.663 -6.43568C668.841 -6.51508 668.775 -6.8921 668.556 -6.85533C664.083 -6.10447 661.073 -1.99538 659.426 2.75375C659.406 2.23464 659.368 1.71097 659.3 1.17982C659.26 0.877152 658.853 0.830361 658.832 1.13041C657.121 26.0921 626.193 14.9671 612.985 25.3044C598.064 36.9836 610.305 60.7372 610.566 78.1113C610.575 78.7645 611.493 79.2928 611.66 78.5482C611.728 78.2483 611.776 77.9441 611.834 77.6432C612.606 76.2354 613.11 74.5458 613.445 72.7723C613.429 73.5276 613.385 74.2798 613.295 75.0048C613.133 76.3026 612.754 77.6834 613.008 79.0436C613.047 79.2459 613.276 79.4258 613.428 79.2844C613.692 79.0347 613.893 78.7213 614.063 78.3834C614.077 78.3787 614.091 78.3888 614.102 78.3822C614.2 78.3374 614.291 78.2766 614.386 78.2274C615.449 78.2109 616.468 77.9509 617.441 77.5683C617.289 77.83 617.143 78.1052 617.005 78.3941C616.044 79.4957 615.574 80.5498 615.432 82.1584C615.406 82.4468 615.763 82.7711 615.967 82.5601C616.834 81.6718 617.491 80.7845 618.231 79.752C618.329 79.6164 618.443 79.4662 618.564 79.3149C618.619 79.294 618.675 79.2878 618.73 79.2521C627.295 73.7303 638.222 80.5979 647.662 79.0141C655.336 77.7259 661.717 72.1115 663.973 63.7415ZM650.998 72.9538C653.037 71.1003 654.633 68.5927 655.184 65.9322C655.236 65.6739 654.882 65.5062 654.757 65.6901C653.412 67.6901 652.426 69.8229 650.744 71.5152C649.465 72.8039 648.036 73.7529 646.575 74.7072C645.314 75.0195 644.006 75.202 642.662 75.238C635.985 75.4166 629.003 72.8821 622.933 74.6599C625.2 73.4571 627.784 72.8178 630.927 72.6327C634.746 72.4083 638.113 72.1172 641.077 69.5476C641.114 69.515 641.078 69.425 641.028 69.45C639.37 70.2927 637.507 70.7506 635.57 71.0561C645.069 67.3618 650.426 53.5762 646.711 42.0601C646.621 41.7824 646.281 41.8749 646.307 42.138C646.957 48.7984 646.94 54.8765 644.234 60.5366C641.671 65.8948 637.634 68.7229 633.037 71.3785C628.666 71.8365 624.153 71.9709 620.773 74.0929C619.716 74.317 618.748 75.074 617.79 75.5082C617.644 75.5752 617.494 75.6378 617.345 75.7028C618.153 74.7454 618.887 73.6916 619.61 72.6983C621.397 70.2516 623.297 67.7674 624.56 64.8829C624.58 64.8381 624.52 64.7813 624.485 64.8136C622.503 66.7613 620.858 69.1246 618.989 71.2141C617.655 72.7025 616.076 74.0649 614.858 75.7166C615.473 73.9189 615.985 72.0613 616.762 70.3461C618.058 67.4834 619.954 65.2083 621.447 62.5256C621.552 62.3375 621.354 62.0718 621.175 62.1978C620.157 62.9161 619.164 63.9294 618.251 65.1167C620.005 51.5685 625.754 41.929 634.597 33.4288C634.772 33.2618 634.562 32.9367 634.362 33.0636C624.606 39.2351 618.721 52.4485 617.96 65.498C616.39 67.6534 615.086 70.3508 614.373 73.0881C614.216 72.2545 614.002 71.4495 613.765 70.7462C613.936 69.3047 614.017 67.8528 614.046 66.4852C614.133 62.127 612.608 57.7096 613.036 53.4159C613.07 53.0697 612.578 52.8524 612.487 53.1976C611.591 56.6526 612.272 60.0864 612.548 63.7454C612.696 65.7254 612.502 67.6042 612.239 69.4597C611.83 63.3526 610.179 57.1307 609.243 50.9835C608.39 45.3918 608.075 39.4147 610.127 34.5041C612.595 28.5993 618.165 25.691 623.67 24.3227C624.971 23.9992 626.293 23.7531 627.624 23.5426C619.492 29.014 614.258 38.9873 613.318 50.606C613.306 50.7748 613.533 50.8325 613.553 50.665C615.078 37.8882 621.61 28.3715 630.841 23.1034C637.504 22.3141 644.281 22.0095 650.207 18.695C654.243 16.4359 657.702 12.4111 658.945 7.39899C660.256 4.09995 661.294 0.9367 663.034 -1.6622C660.969 3.19892 660.831 10.3478 658.565 14.2989C658.476 14.4525 658.664 14.7296 658.804 14.5876C660.643 12.6696 661.538 10.1687 662.186 7.51993C662.822 6.20194 663.546 4.96332 664.499 3.89748C665.255 3.05105 666.1 2.42854 666.993 1.87701C664.673 4.19875 663.704 8.81985 662.211 11.4878C662.083 11.7163 662.332 12.0697 662.55 11.8983C662.704 11.776 662.849 11.6481 662.987 11.5161C663.054 11.5522 663.131 11.5574 663.212 11.5152C664.778 10.6819 666.096 9.63734 667.28 8.28277C666.73 9.52359 666.099 10.7206 665.248 11.8097C665.03 12.0891 664.805 12.3524 664.573 12.6092C660.229 15.8898 656.891 20.7195 655.675 26.6933C654.873 30.6411 655.14 34.6349 656.166 38.7529C656.791 41.2662 657.735 43.7175 658.576 46.1872C658.572 46.7518 658.582 47.319 658.604 47.8844C658.302 46.6714 657.914 45.4719 657.42 44.3183C656.035 41.068 652.281 37.4135 653.307 33.8132C653.321 33.762 653.256 33.7036 653.224 33.7526C651.136 37.2149 654.531 40.7639 655.862 44.231C658.365 50.7512 657.271 56.6103 655.915 62.7017C655.825 63.0982 656.238 63.4234 656.494 63.131C659.135 60.0945 659.738 55.4939 659.194 51.0309C659.156 50.7059 659.095 50.382 659.042 50.0569C659.183 49.5518 659.263 49.0122 659.298 48.455C659.787 50.0948 660.183 51.7491 660.348 53.4469C661.21 62.3396 657.181 69.4839 650.998 72.9538Z" fill="#212321"/>
</g>
<g clip-path="url(#clip4)">
<path d="M407.961 -5.0808C407.242 -5.32634 398.032 -0.282249 399.086 6.2218C399.18 6.81017 398.48 7.10842 398.343 7.38736C394.074 16.1285 383.149 22.6005 379.372 24.5003C376.685 25.8521 350.23 25.6 344.528 35.948C339.145 45.719 341.415 54.5386 347.495 69.061C348.387 71.192 349.18 80.6666 351.404 81.7384C354.875 83.4097 366.827 80.293 370.134 79.744C377.027 78.5975 393.618 77.8323 396.585 66.6003C400.497 51.7928 392.793 37.8259 392.224 35.7229C390.483 29.3018 399.565 14.1102 400.881 12.3452C402.504 10.1692 408.34 8.02582 408.278 7.85911C408.143 7.49772 406.233 8.0121 404.63 8.5177C406.237 6.62868 407.195 2.09747 406.956 2.44386C406.239 3.48026 405.791 4.19765 405.533 4.46102C405.438 4.5592 403.927 5.95023 403.788 5.901C403.72 5.87721 403.57 5.80996 404.023 4.94965C404.446 4.14558 405.042 2.43413 405.637 1.44386C405.874 1.04886 406.369 0.807056 406.337 0.799948C404.668 0.386547 401.689 6.06977 401.693 5.90733C401.908 -1.73656 408.405 -4.92968 407.961 -5.0808Z" fill="#BFFF37"/>
<path d="M395.973 63.7415C398.415 54.673 395.025 47.632 391.629 38.8586C386.327 25.1657 395.319 15.2374 403.887 9.23455C404.041 9.12702 403.886 8.83989 403.716 8.89349C402.356 9.32673 401.032 9.88935 399.759 10.5664C401.299 8.20239 402.338 5.53177 402.232 2.43958C402.221 2.13481 401.872 2.14038 401.778 2.32659C401.653 2.5742 401.543 2.82675 401.428 3.07764C400.52 3.86438 400.071 5.19981 399.343 6.22813C398.505 7.41103 397.523 8.45944 396.484 9.42602C396.815 8.76875 397.101 8.06204 397.392 7.31038C398.424 4.658 399.416 2.42376 401.443 0.633431C401.475 0.606286 401.455 0.526038 401.405 0.533885C401.362 0.543003 401.323 0.558929 401.281 0.568048C401.348 0.530512 401.413 0.49335 401.481 0.455815C401.598 0.38852 401.502 0.136249 401.368 0.157174C398.634 0.614102 396.167 2.73083 394.646 5.43512C395.574 1.02148 396.328 -3.47041 399.988 -6.10213C400.21 -6.21534 400.427 -6.33018 400.663 -6.43568C400.841 -6.51508 400.775 -6.8921 400.556 -6.85533C396.083 -6.10447 393.073 -1.99538 391.426 2.75375C391.406 2.23464 391.368 1.71097 391.3 1.17982C391.26 0.877152 390.853 0.830361 390.832 1.13041C389.121 26.0921 358.193 14.9671 344.985 25.3044C330.064 36.9836 342.305 60.7372 342.566 78.1113C342.575 78.7645 343.493 79.2928 343.66 78.5482C343.728 78.2483 343.776 77.9441 343.834 77.6432C344.606 76.2354 345.11 74.5458 345.445 72.7723C345.429 73.5276 345.385 74.2798 345.295 75.0048C345.133 76.3026 344.754 77.6834 345.008 79.0436C345.047 79.2459 345.276 79.4258 345.428 79.2844C345.692 79.0347 345.893 78.7213 346.063 78.3834C346.077 78.3787 346.091 78.3888 346.102 78.3822C346.2 78.3374 346.291 78.2766 346.386 78.2274C347.449 78.2109 348.468 77.9509 349.441 77.5683C349.289 77.83 349.143 78.1052 349.005 78.3941C348.044 79.4957 347.574 80.5498 347.432 82.1584C347.406 82.4468 347.763 82.7711 347.967 82.5601C348.834 81.6718 349.491 80.7845 350.231 79.752C350.329 79.6164 350.443 79.4662 350.564 79.3149C350.619 79.294 350.675 79.2878 350.73 79.2521C359.295 73.7303 370.222 80.5979 379.662 79.0141C387.336 77.7259 393.717 72.1115 395.973 63.7415ZM382.998 72.9538C385.037 71.1003 386.633 68.5927 387.184 65.9322C387.236 65.6739 386.882 65.5062 386.757 65.6901C385.412 67.6901 384.426 69.8229 382.744 71.5152C381.465 72.8039 380.036 73.7529 378.575 74.7072C377.314 75.0195 376.006 75.202 374.662 75.238C367.985 75.4166 361.003 72.8821 354.933 74.6599C357.2 73.4571 359.784 72.8178 362.927 72.6327C366.746 72.4083 370.113 72.1172 373.077 69.5476C373.114 69.515 373.078 69.425 373.028 69.45C371.37 70.2927 369.507 70.7506 367.57 71.0561C377.069 67.3618 382.426 53.5762 378.711 42.0601C378.621 41.7824 378.281 41.8749 378.307 42.138C378.957 48.7984 378.94 54.8765 376.234 60.5366C373.671 65.8948 369.634 68.7229 365.037 71.3785C360.666 71.8365 356.153 71.9709 352.773 74.0929C351.716 74.317 350.748 75.074 349.79 75.5082C349.644 75.5752 349.494 75.6378 349.345 75.7028C350.153 74.7454 350.887 73.6916 351.61 72.6983C353.397 70.2516 355.297 67.7674 356.56 64.8829C356.58 64.8381 356.52 64.7813 356.485 64.8136C354.503 66.7613 352.858 69.1246 350.989 71.2141C349.655 72.7025 348.076 74.0649 346.858 75.7166C347.473 73.9189 347.985 72.0613 348.762 70.3461C350.058 67.4834 351.954 65.2083 353.447 62.5256C353.552 62.3375 353.354 62.0718 353.175 62.1978C352.157 62.9161 351.164 63.9294 350.251 65.1167C352.005 51.5685 357.754 41.929 366.597 33.4288C366.772 33.2618 366.562 32.9367 366.362 33.0636C356.606 39.2351 350.721 52.4485 349.96 65.498C348.39 67.6534 347.086 70.3508 346.373 73.0881C346.216 72.2545 346.002 71.4495 345.765 70.7462C345.936 69.3047 346.017 67.8528 346.046 66.4852C346.133 62.127 344.608 57.7096 345.036 53.4159C345.07 53.0697 344.578 52.8524 344.487 53.1976C343.591 56.6526 344.272 60.0864 344.548 63.7454C344.696 65.7254 344.502 67.6042 344.239 69.4597C343.83 63.3526 342.179 57.1307 341.243 50.9835C340.39 45.3918 340.075 39.4147 342.127 34.5041C344.595 28.5993 350.165 25.691 355.67 24.3227C356.971 23.9992 358.293 23.7531 359.624 23.5426C351.492 29.014 346.258 38.9873 345.318 50.606C345.306 50.7748 345.533 50.8325 345.553 50.665C347.078 37.8882 353.61 28.3715 362.841 23.1034C369.504 22.3141 376.281 22.0095 382.207 18.695C386.243 16.4359 389.702 12.4111 390.945 7.39899C392.256 4.09995 393.294 0.9367 395.034 -1.6622C392.969 3.19892 392.831 10.3478 390.565 14.2989C390.476 14.4525 390.664 14.7296 390.804 14.5876C392.643 12.6696 393.538 10.1687 394.186 7.51993C394.822 6.20194 395.546 4.96332 396.499 3.89748C397.255 3.05105 398.1 2.42854 398.993 1.87701C396.673 4.19875 395.704 8.81985 394.211 11.4878C394.083 11.7163 394.332 12.0697 394.55 11.8983C394.704 11.776 394.849 11.6481 394.987 11.5161C395.054 11.5522 395.131 11.5574 395.212 11.5152C396.778 10.6819 398.096 9.63734 399.28 8.28277C398.73 9.52359 398.099 10.7206 397.248 11.8097C397.03 12.0891 396.805 12.3524 396.573 12.6092C392.229 15.8898 388.891 20.7195 387.675 26.6933C386.873 30.6411 387.14 34.6349 388.166 38.7529C388.791 41.2662 389.735 43.7175 390.576 46.1872C390.572 46.7518 390.582 47.319 390.604 47.8844C390.302 46.6714 389.914 45.4719 389.42 44.3183C388.035 41.068 384.281 37.4135 385.307 33.8132C385.321 33.762 385.256 33.7036 385.224 33.7526C383.136 37.2149 386.531 40.7639 387.862 44.231C390.365 50.7512 389.271 56.6103 387.915 62.7017C387.825 63.0982 388.238 63.4234 388.494 63.131C391.135 60.0945 391.738 55.4939 391.194 51.0309C391.156 50.7059 391.095 50.382 391.042 50.0569C391.183 49.5518 391.263 49.0122 391.298 48.455C391.787 50.0948 392.183 51.7491 392.348 53.4469C393.21 62.3396 389.181 69.4839 382.998 72.9538Z" fill="#212321"/>
</g>
<g clip-path="url(#clip5)">
<path d="M340.961 -5.28295C340.242 -5.52849 331.032 -0.484398 332.086 6.01965C332.18 6.60802 331.48 6.90627 331.343 7.18521C327.074 15.9264 316.149 22.3984 312.372 24.2982C309.685 25.65 283.23 25.3978 277.528 35.7458C272.145 45.5169 274.415 54.3364 280.495 68.8589C281.387 70.9898 282.18 80.4644 284.404 81.5363C287.875 83.2075 299.827 80.0908 303.134 79.5418C310.027 78.3953 326.618 77.6301 329.585 66.3982C333.497 51.5906 325.793 37.6237 325.224 35.5208C323.483 29.0997 332.565 13.908 333.881 12.143C335.504 9.96706 341.34 7.82367 341.278 7.65696C341.143 7.29557 339.233 7.80996 337.63 8.31556C339.237 6.42653 340.195 1.89532 339.956 2.24171C339.239 3.27811 338.791 3.9955 338.533 4.25887C338.438 4.35705 336.927 5.74808 336.788 5.69885C336.72 5.67506 336.57 5.60781 337.023 4.7475C337.446 3.94343 338.042 2.23198 338.637 1.24171C338.874 0.846713 339.369 0.604908 339.337 0.5978C337.668 0.184398 334.689 5.86762 334.693 5.70518C334.908 -1.93871 341.405 -5.13183 340.961 -5.28295Z" fill="#BFFF37"/>
<path d="M328.973 63.5394C331.415 54.4708 328.025 47.4298 324.629 38.6564C319.327 24.9636 328.319 15.0353 336.887 9.0324C337.041 8.92487 336.886 8.63774 336.716 8.69134C335.356 9.12458 334.032 9.6872 332.759 10.3643C334.299 8.00024 335.338 5.32962 335.232 2.23743C335.221 1.93267 334.872 1.93823 334.778 2.12444C334.653 2.37205 334.543 2.6246 334.428 2.8755C333.52 3.66223 333.071 4.99767 332.343 6.02598C331.505 7.20888 330.523 8.25729 329.484 9.22387C329.815 8.5666 330.101 7.85989 330.392 7.10823C331.424 4.45585 332.416 2.22161 334.443 0.431283C334.475 0.404138 334.455 0.323889 334.405 0.331737C334.362 0.340855 334.323 0.356781 334.281 0.365899C334.348 0.328364 334.413 0.291202 334.481 0.253666C334.598 0.186372 334.502 -0.0658998 334.368 -0.0449747C331.634 0.411953 329.167 2.52868 327.646 5.23297C328.574 0.819332 329.328 -3.67256 332.988 -6.30428C333.21 -6.41748 333.427 -6.53233 333.663 -6.63783C333.841 -6.71723 333.775 -7.09425 333.556 -7.05748C329.083 -6.30662 326.073 -2.19753 324.426 2.5516C324.406 2.03249 324.368 1.50883 324.3 0.977674C324.26 0.675003 323.853 0.628213 323.832 0.928259C322.121 25.8899 291.193 14.7649 277.985 25.1022C263.064 36.7815 275.305 60.535 275.566 77.9091C275.575 78.5623 276.493 79.0906 276.66 78.3461C276.728 78.0461 276.776 77.742 276.834 77.4411C277.606 76.0333 278.11 74.3436 278.445 72.5701C278.429 73.3254 278.385 74.0776 278.295 74.8027C278.133 76.1005 277.754 77.4812 278.008 78.8414C278.047 79.0437 278.276 79.2237 278.428 79.0823C278.692 78.8325 278.893 78.5192 279.063 78.1812C279.077 78.1766 279.091 78.1867 279.102 78.18C279.2 78.1353 279.291 78.0745 279.386 78.0253C280.449 78.0087 281.468 77.7488 282.441 77.3661C282.289 77.6278 282.143 77.9031 282.005 78.192C281.044 79.2936 280.574 80.3476 280.432 81.9562C280.406 82.2447 280.763 82.5689 280.967 82.358C281.834 81.4697 282.491 80.5824 283.231 79.5498C283.329 79.4142 283.443 79.2641 283.564 79.1128C283.619 79.0919 283.675 79.0857 283.73 79.05C292.295 73.5282 303.222 80.3958 312.662 78.8119C320.336 77.5237 326.717 71.9094 328.973 63.5394ZM315.998 72.7517C318.037 70.8982 319.633 68.3906 320.184 65.7301C320.236 65.4718 319.882 65.304 319.757 65.4879C318.412 67.488 317.426 69.6207 315.744 71.313C314.465 72.6017 313.036 73.5507 311.575 74.505C310.314 74.8174 309.006 74.9999 307.662 75.0358C300.985 75.2145 294.003 72.68 287.933 74.4578C290.2 73.2549 292.784 72.6157 295.927 72.4306C299.746 72.2062 303.113 71.9151 306.077 69.3455C306.114 69.3128 306.078 69.2228 306.028 69.2478C304.37 70.0906 302.507 70.5485 300.57 70.8539C310.069 67.1596 315.426 53.3741 311.711 41.858C311.621 41.5803 311.281 41.6727 311.307 41.9358C311.957 48.5962 311.94 54.6743 309.234 60.3345C306.671 65.6926 302.634 68.5208 298.037 71.1763C293.666 71.6343 289.153 71.7687 285.773 73.8908C284.716 74.1149 283.748 74.8719 282.79 75.3061C282.644 75.3731 282.494 75.4357 282.345 75.5006C283.153 74.5432 283.887 73.4895 284.61 72.4961C286.397 70.0495 288.297 67.5653 289.56 64.6807C289.58 64.6359 289.52 64.5792 289.485 64.6115C287.503 66.5592 285.858 68.9225 283.989 71.0119C282.655 72.5003 281.076 73.8628 279.858 75.5145C280.473 73.7168 280.985 71.8591 281.762 70.144C283.058 67.2812 284.954 65.0061 286.447 62.3234C286.552 62.1353 286.354 61.8697 286.175 61.9957C285.157 62.714 284.164 63.7272 283.251 64.9145C285.005 51.3663 290.754 41.7268 299.597 33.2267C299.772 33.0596 299.562 32.7345 299.362 32.8615C289.606 39.0329 283.721 52.2463 282.96 65.2958C281.39 67.4512 280.086 70.1486 279.373 72.8859C279.216 72.0524 279.002 71.2473 278.765 70.544C278.936 69.1026 279.017 67.6506 279.046 66.283C279.133 61.9248 277.608 57.5075 278.036 53.2137C278.07 52.8676 277.578 52.6503 277.487 52.9954C276.591 56.4504 277.272 59.8843 277.548 63.5433C277.696 65.5232 277.502 67.4021 277.239 69.2576C276.83 63.1504 275.179 56.9285 274.243 50.7813C273.39 45.1897 273.075 39.2125 275.127 34.3019C277.595 28.3972 283.165 25.4888 288.67 24.1206C289.971 23.797 291.293 23.551 292.624 23.3405C284.492 28.8118 279.258 38.7851 278.318 50.4039C278.306 50.5726 278.533 50.6303 278.553 50.4629C280.078 37.6861 286.61 28.1693 295.841 22.9013C302.504 22.112 309.281 21.8074 315.207 18.4929C319.243 16.2338 322.702 12.209 323.945 7.19684C325.256 3.8978 326.294 0.734552 328.034 -1.86434C325.969 2.99677 325.831 10.1456 323.565 14.0967C323.476 14.2503 323.664 14.5274 323.804 14.3855C325.643 12.4674 326.538 9.96654 327.186 7.31778C327.822 5.9998 328.546 4.76117 329.499 3.69533C330.255 2.8489 331.1 2.22639 331.993 1.67486C329.673 3.9966 328.704 8.6177 327.211 11.2857C327.083 11.5141 327.332 11.8675 327.55 11.6961C327.704 11.5739 327.849 11.4459 327.987 11.3139C328.054 11.3501 328.131 11.3552 328.212 11.3131C329.778 10.4797 331.096 9.43519 332.28 8.08062C331.73 9.32144 331.099 10.5184 330.248 11.6076C330.03 11.8869 329.805 12.1502 329.573 12.4071C325.229 15.6877 321.891 20.5174 320.675 26.4911C319.873 30.4389 320.14 34.4328 321.166 38.5507C321.791 41.064 322.735 43.5153 323.576 45.985C323.572 46.5497 323.582 47.1169 323.604 47.6822C323.302 46.4693 322.914 45.2698 322.42 44.1162C321.035 40.8659 317.281 37.2113 318.307 33.6111C318.321 33.5598 318.256 33.5014 318.224 33.5505C316.136 37.0128 319.531 40.5617 320.862 44.0289C323.365 50.549 322.271 56.4082 320.915 62.4995C320.825 62.8961 321.238 63.2213 321.494 62.9288C324.135 59.8924 324.738 55.2918 324.194 50.8288C324.156 50.5038 324.095 50.1798 324.042 49.8547C324.183 49.3496 324.263 48.81 324.298 48.2529C324.787 49.8926 325.183 51.547 325.348 53.2448C326.21 62.1374 322.181 69.2817 315.998 72.7517Z" fill="#212321"/>
</g>
<g clip-path="url(#clip6)">
<path d="M273.961 -5.0808C273.242 -5.32634 264.032 -0.282249 265.086 6.2218C265.18 6.81017 264.48 7.10842 264.343 7.38736C260.074 16.1285 249.149 22.6005 245.372 24.5003C242.685 25.8521 216.23 25.6 210.528 35.948C205.145 45.719 207.415 54.5386 213.495 69.061C214.387 71.192 215.18 80.6666 217.404 81.7384C220.875 83.4097 232.827 80.293 236.134 79.744C243.027 78.5975 259.618 77.8323 262.585 66.6003C266.497 51.7928 258.793 37.8259 258.224 35.7229C256.483 29.3018 265.565 14.1102 266.881 12.3452C268.504 10.1692 274.34 8.02582 274.278 7.85911C274.143 7.49772 272.233 8.0121 270.63 8.5177C272.237 6.62868 273.195 2.09747 272.956 2.44386C272.239 3.48026 271.791 4.19765 271.533 4.46102C271.438 4.5592 269.927 5.95023 269.788 5.901C269.72 5.87721 269.57 5.80996 270.023 4.94965C270.446 4.14558 271.042 2.43413 271.637 1.44386C271.874 1.04886 272.369 0.807056 272.337 0.799948C270.668 0.386547 267.689 6.06977 267.693 5.90733C267.908 -1.73656 274.405 -4.92968 273.961 -5.0808Z" fill="#FFC737"/>
<path d="M261.973 63.7415C264.415 54.673 261.025 47.632 257.629 38.8586C252.327 25.1657 261.319 15.2374 269.887 9.23455C270.041 9.12702 269.886 8.83989 269.716 8.89349C268.356 9.32673 267.032 9.88935 265.759 10.5664C267.299 8.20239 268.338 5.53177 268.232 2.43958C268.221 2.13481 267.872 2.14038 267.778 2.32659C267.653 2.5742 267.543 2.82675 267.428 3.07764C266.52 3.86438 266.071 5.19981 265.343 6.22813C264.505 7.41103 263.523 8.45944 262.484 9.42602C262.815 8.76875 263.101 8.06204 263.392 7.31038C264.424 4.658 265.416 2.42376 267.443 0.633431C267.475 0.606286 267.455 0.526038 267.405 0.533885C267.362 0.543003 267.323 0.558929 267.281 0.568048C267.348 0.530512 267.413 0.49335 267.481 0.455815C267.598 0.38852 267.502 0.136249 267.368 0.157174C264.634 0.614102 262.167 2.73083 260.646 5.43512C261.574 1.02148 262.328 -3.47041 265.988 -6.10213C266.21 -6.21534 266.427 -6.33018 266.663 -6.43568C266.841 -6.51508 266.775 -6.8921 266.556 -6.85533C262.083 -6.10447 259.073 -1.99538 257.426 2.75375C257.406 2.23464 257.368 1.71097 257.3 1.17982C257.26 0.877152 256.853 0.830361 256.832 1.13041C255.121 26.0921 224.193 14.9671 210.985 25.3044C196.064 36.9836 208.305 60.7372 208.566 78.1113C208.575 78.7645 209.493 79.2928 209.66 78.5482C209.728 78.2483 209.776 77.9441 209.834 77.6432C210.606 76.2354 211.11 74.5458 211.445 72.7723C211.429 73.5276 211.385 74.2798 211.295 75.0048C211.133 76.3026 210.754 77.6834 211.008 79.0436C211.047 79.2459 211.276 79.4258 211.428 79.2844C211.692 79.0347 211.893 78.7213 212.063 78.3834C212.077 78.3787 212.091 78.3888 212.102 78.3822C212.2 78.3374 212.291 78.2766 212.386 78.2274C213.449 78.2109 214.468 77.9509 215.441 77.5683C215.289 77.83 215.143 78.1052 215.005 78.3941C214.044 79.4957 213.574 80.5498 213.432 82.1584C213.406 82.4468 213.763 82.7711 213.967 82.5601C214.834 81.6718 215.491 80.7845 216.231 79.752C216.329 79.6164 216.443 79.4662 216.564 79.3149C216.619 79.294 216.675 79.2878 216.73 79.2521C225.295 73.7303 236.222 80.5979 245.662 79.0141C253.336 77.7259 259.717 72.1115 261.973 63.7415ZM248.998 72.9538C251.037 71.1003 252.633 68.5927 253.184 65.9322C253.236 65.6739 252.882 65.5062 252.757 65.6901C251.412 67.6901 250.426 69.8229 248.744 71.5152C247.465 72.8039 246.036 73.7529 244.575 74.7072C243.314 75.0195 242.006 75.202 240.662 75.238C233.985 75.4166 227.003 72.8821 220.933 74.6599C223.2 73.4571 225.784 72.8178 228.927 72.6327C232.746 72.4083 236.113 72.1172 239.077 69.5476C239.114 69.515 239.078 69.425 239.028 69.45C237.37 70.2927 235.507 70.7506 233.57 71.0561C243.069 67.3618 248.426 53.5762 244.711 42.0601C244.621 41.7824 244.281 41.8749 244.307 42.138C244.957 48.7984 244.94 54.8765 242.234 60.5366C239.671 65.8948 235.634 68.7229 231.037 71.3785C226.666 71.8365 222.153 71.9709 218.773 74.0929C217.716 74.317 216.748 75.074 215.79 75.5082C215.644 75.5752 215.494 75.6378 215.345 75.7028C216.153 74.7454 216.887 73.6916 217.61 72.6983C219.397 70.2516 221.297 67.7674 222.56 64.8829C222.58 64.8381 222.52 64.7813 222.485 64.8136C220.503 66.7613 218.858 69.1246 216.989 71.2141C215.655 72.7025 214.076 74.0649 212.858 75.7166C213.473 73.9189 213.985 72.0613 214.762 70.3461C216.058 67.4834 217.954 65.2083 219.447 62.5256C219.552 62.3375 219.354 62.0718 219.175 62.1978C218.157 62.9161 217.164 63.9294 216.251 65.1167C218.005 51.5685 223.754 41.929 232.597 33.4288C232.772 33.2618 232.562 32.9367 232.362 33.0636C222.606 39.2351 216.721 52.4485 215.96 65.498C214.39 67.6534 213.086 70.3508 212.373 73.0881C212.216 72.2545 212.002 71.4495 211.765 70.7462C211.936 69.3047 212.017 67.8528 212.046 66.4852C212.133 62.127 210.608 57.7096 211.036 53.4159C211.07 53.0697 210.578 52.8524 210.487 53.1976C209.591 56.6526 210.272 60.0864 210.548 63.7454C210.696 65.7254 210.502 67.6042 210.239 69.4597C209.83 63.3526 208.179 57.1307 207.243 50.9835C206.39 45.3918 206.075 39.4147 208.127 34.5041C210.595 28.5993 216.165 25.691 221.67 24.3227C222.971 23.9992 224.293 23.7531 225.624 23.5426C217.492 29.014 212.258 38.9873 211.318 50.606C211.306 50.7748 211.533 50.8325 211.553 50.665C213.078 37.8882 219.61 28.3715 228.841 23.1034C235.504 22.3141 242.281 22.0095 248.207 18.695C252.243 16.4359 255.702 12.4111 256.945 7.39899C258.256 4.09995 259.294 0.9367 261.034 -1.6622C258.969 3.19892 258.831 10.3478 256.565 14.2989C256.476 14.4525 256.664 14.7296 256.804 14.5876C258.643 12.6696 259.538 10.1687 260.186 7.51993C260.822 6.20194 261.546 4.96332 262.499 3.89748C263.255 3.05105 264.1 2.42854 264.993 1.87701C262.673 4.19875 261.704 8.81985 260.211 11.4878C260.083 11.7163 260.332 12.0697 260.55 11.8983C260.704 11.776 260.849 11.6481 260.987 11.5161C261.054 11.5522 261.131 11.5574 261.212 11.5152C262.778 10.6819 264.096 9.63734 265.28 8.28277C264.73 9.52359 264.099 10.7206 263.248 11.8097C263.03 12.0891 262.805 12.3524 262.573 12.6092C258.229 15.8898 254.891 20.7195 253.675 26.6933C252.873 30.6411 253.14 34.6349 254.166 38.7529C254.791 41.2662 255.735 43.7175 256.576 46.1872C256.572 46.7518 256.582 47.319 256.604 47.8844C256.302 46.6714 255.914 45.4719 255.42 44.3183C254.035 41.068 250.281 37.4135 251.307 33.8132C251.321 33.762 251.256 33.7036 251.224 33.7526C249.136 37.2149 252.531 40.7639 253.862 44.231C256.365 50.7512 255.271 56.6103 253.915 62.7017C253.825 63.0982 254.238 63.4234 254.494 63.131C257.135 60.0945 257.738 55.4939 257.194 51.0309C257.156 50.7059 257.095 50.382 257.042 50.0569C257.183 49.5518 257.263 49.0122 257.298 48.455C257.787 50.0948 258.183 51.7491 258.348 53.4469C259.21 62.3396 255.181 69.4839 248.998 72.9538Z" fill="#212321"/>
</g>
<g clip-path="url(#clip7)">
<path d="M206.961 -5.0808C206.242 -5.32634 197.032 -0.282249 198.086 6.2218C198.18 6.81017 197.48 7.10842 197.343 7.38736C193.074 16.1285 182.149 22.6005 178.372 24.5003C175.685 25.8521 149.23 25.6 143.528 35.948C138.145 45.719 140.415 54.5386 146.495 69.061C147.387 71.192 148.18 80.6666 150.404 81.7384C153.875 83.4097 165.827 80.293 169.134 79.744C176.027 78.5975 192.618 77.8323 195.585 66.6003C199.497 51.7928 191.793 37.8259 191.224 35.7229C189.483 29.3018 198.565 14.1102 199.881 12.3452C201.504 10.1692 207.34 8.02582 207.278 7.85911C207.143 7.49772 205.233 8.0121 203.63 8.5177C205.237 6.62868 206.195 2.09747 205.956 2.44386C205.239 3.48026 204.791 4.19765 204.533 4.46102C204.438 4.5592 202.927 5.95023 202.788 5.901C202.72 5.87721 202.57 5.80996 203.023 4.94965C203.446 4.14558 204.042 2.43413 204.637 1.44386C204.874 1.04886 205.369 0.807056 205.337 0.799948C203.668 0.386547 200.689 6.06977 200.693 5.90733C200.908 -1.73656 207.405 -4.92968 206.961 -5.0808Z" fill="#FFC737"/>
<path d="M194.973 63.7415C197.415 54.673 194.025 47.632 190.629 38.8586C185.327 25.1657 194.319 15.2374 202.887 9.23455C203.041 9.12702 202.886 8.83989 202.716 8.89349C201.356 9.32673 200.032 9.88935 198.759 10.5664C200.299 8.20239 201.338 5.53177 201.232 2.43958C201.221 2.13481 200.872 2.14038 200.778 2.32659C200.653 2.5742 200.543 2.82675 200.428 3.07764C199.52 3.86438 199.071 5.19981 198.343 6.22813C197.505 7.41103 196.523 8.45944 195.484 9.42602C195.815 8.76875 196.101 8.06204 196.392 7.31038C197.424 4.658 198.416 2.42376 200.443 0.633431C200.475 0.606286 200.455 0.526038 200.405 0.533885C200.362 0.543003 200.323 0.558929 200.281 0.568048C200.348 0.530512 200.413 0.49335 200.481 0.455815C200.598 0.38852 200.502 0.136249 200.368 0.157174C197.634 0.614102 195.167 2.73083 193.646 5.43512C194.574 1.02148 195.328 -3.47041 198.988 -6.10213C199.21 -6.21534 199.427 -6.33018 199.663 -6.43568C199.841 -6.51508 199.775 -6.8921 199.556 -6.85533C195.083 -6.10447 192.073 -1.99538 190.426 2.75375C190.406 2.23464 190.368 1.71097 190.3 1.17982C190.26 0.877152 189.853 0.830361 189.832 1.13041C188.121 26.0921 157.193 14.9671 143.985 25.3044C129.064 36.9836 141.305 60.7372 141.566 78.1113C141.575 78.7645 142.493 79.2928 142.66 78.5482C142.728 78.2483 142.776 77.9441 142.834 77.6432C143.606 76.2354 144.11 74.5458 144.445 72.7723C144.429 73.5276 144.385 74.2798 144.295 75.0048C144.133 76.3026 143.754 77.6834 144.008 79.0436C144.047 79.2459 144.276 79.4258 144.428 79.2844C144.692 79.0347 144.893 78.7213 145.063 78.3834C145.077 78.3787 145.091 78.3888 145.102 78.3822C145.2 78.3374 145.291 78.2766 145.386 78.2274C146.449 78.2109 147.468 77.9509 148.441 77.5683C148.289 77.83 148.143 78.1052 148.005 78.3941C147.044 79.4957 146.574 80.5498 146.432 82.1584C146.406 82.4468 146.763 82.7711 146.967 82.5601C147.834 81.6718 148.491 80.7845 149.231 79.752C149.329 79.6164 149.443 79.4662 149.564 79.3149C149.619 79.294 149.675 79.2878 149.73 79.2521C158.295 73.7303 169.222 80.5979 178.662 79.0141C186.336 77.7259 192.717 72.1115 194.973 63.7415ZM181.998 72.9538C184.037 71.1003 185.633 68.5927 186.184 65.9322C186.236 65.6739 185.882 65.5062 185.757 65.6901C184.412 67.6901 183.426 69.8229 181.744 71.5152C180.465 72.8039 179.036 73.7529 177.575 74.7072C176.314 75.0195 175.006 75.202 173.662 75.238C166.985 75.4166 160.003 72.8821 153.933 74.6599C156.2 73.4571 158.784 72.8178 161.927 72.6327C165.746 72.4083 169.113 72.1172 172.077 69.5476C172.114 69.515 172.078 69.425 172.028 69.45C170.37 70.2927 168.507 70.7506 166.57 71.0561C176.069 67.3618 181.426 53.5762 177.711 42.0601C177.621 41.7824 177.281 41.8749 177.307 42.138C177.957 48.7984 177.94 54.8765 175.234 60.5366C172.671 65.8948 168.634 68.7229 164.037 71.3785C159.666 71.8365 155.153 71.9709 151.773 74.0929C150.716 74.317 149.748 75.074 148.79 75.5082C148.644 75.5752 148.494 75.6378 148.345 75.7028C149.153 74.7454 149.887 73.6916 150.61 72.6983C152.397 70.2516 154.297 67.7674 155.56 64.8829C155.58 64.8381 155.52 64.7813 155.485 64.8136C153.503 66.7613 151.858 69.1246 149.989 71.2141C148.655 72.7025 147.076 74.0649 145.858 75.7166C146.473 73.9189 146.985 72.0613 147.762 70.3461C149.058 67.4834 150.954 65.2083 152.447 62.5256C152.552 62.3375 152.354 62.0718 152.175 62.1978C151.157 62.9161 150.164 63.9294 149.251 65.1167C151.005 51.5685 156.754 41.929 165.597 33.4288C165.772 33.2618 165.562 32.9367 165.362 33.0636C155.606 39.2351 149.721 52.4485 148.96 65.498C147.39 67.6534 146.086 70.3508 145.373 73.0881C145.216 72.2545 145.002 71.4495 144.765 70.7462C144.936 69.3047 145.017 67.8528 145.046 66.4852C145.133 62.127 143.608 57.7096 144.036 53.4159C144.07 53.0697 143.578 52.8524 143.487 53.1976C142.591 56.6526 143.272 60.0864 143.548 63.7454C143.696 65.7254 143.502 67.6042 143.239 69.4597C142.83 63.3526 141.179 57.1307 140.243 50.9835C139.39 45.3918 139.075 39.4147 141.127 34.5041C143.595 28.5993 149.165 25.691 154.67 24.3227C155.971 23.9992 157.293 23.7531 158.624 23.5426C150.492 29.014 145.258 38.9873 144.318 50.606C144.306 50.7748 144.533 50.8325 144.553 50.665C146.078 37.8882 152.61 28.3715 161.841 23.1034C168.504 22.3141 175.281 22.0095 181.207 18.695C185.243 16.4359 188.702 12.4111 189.945 7.39899C191.256 4.09995 192.294 0.9367 194.034 -1.6622C191.969 3.19892 191.831 10.3478 189.565 14.2989C189.476 14.4525 189.664 14.7296 189.804 14.5876C191.643 12.6696 192.538 10.1687 193.186 7.51993C193.822 6.20194 194.546 4.96332 195.499 3.89748C196.255 3.05105 197.1 2.42854 197.993 1.87701C195.673 4.19875 194.704 8.81985 193.211 11.4878C193.083 11.7163 193.332 12.0697 193.55 11.8983C193.704 11.776 193.849 11.6481 193.987 11.5161C194.054 11.5522 194.131 11.5574 194.212 11.5152C195.778 10.6819 197.096 9.63734 198.28 8.28277C197.73 9.52359 197.099 10.7206 196.248 11.8097C196.03 12.0891 195.805 12.3524 195.573 12.6092C191.229 15.8898 187.891 20.7195 186.675 26.6933C185.873 30.6411 186.14 34.6349 187.166 38.7529C187.791 41.2662 188.735 43.7175 189.576 46.1872C189.572 46.7518 189.582 47.319 189.604 47.8844C189.302 46.6714 188.914 45.4719 188.42 44.3183C187.035 41.068 183.281 37.4135 184.307 33.8132C184.321 33.762 184.256 33.7036 184.224 33.7526C182.136 37.2149 185.531 40.7639 186.862 44.231C189.365 50.7512 188.271 56.6103 186.915 62.7017C186.825 63.0982 187.238 63.4234 187.494 63.131C190.135 60.0945 190.738 55.4939 190.194 51.0309C190.156 50.7059 190.095 50.382 190.042 50.0569C190.183 49.5518 190.263 49.0122 190.298 48.455C190.787 50.0948 191.183 51.7491 191.348 53.4469C192.21 62.3396 188.181 69.4839 181.998 72.9538Z" fill="#212321"/>
</g>
<g clip-path="url(#clip8)">
<path d="M139.961 -5.0808C139.242 -5.32634 130.032 -0.282249 131.086 6.2218C131.18 6.81017 130.48 7.10842 130.343 7.38736C126.074 16.1285 115.149 22.6005 111.372 24.5003C108.685 25.8521 82.2302 25.6 76.5283 35.948C71.145 45.719 73.4152 54.5386 79.4952 69.061C80.3865 71.192 81.1801 80.6666 83.4041 81.7384C86.8749 83.4097 98.8265 80.293 102.134 79.744C109.027 78.5975 125.618 77.8323 128.585 66.6003C132.497 51.7928 124.793 37.8259 124.224 35.7229C122.483 29.3018 131.565 14.1102 132.881 12.3452C134.504 10.1692 140.34 8.02582 140.278 7.85911C140.143 7.49772 138.233 8.0121 136.63 8.5177C138.237 6.62868 139.195 2.09747 138.956 2.44386C138.239 3.48026 137.791 4.19765 137.533 4.46102C137.438 4.5592 135.927 5.95023 135.788 5.901C135.72 5.87721 135.57 5.80996 136.023 4.94965C136.446 4.14558 137.042 2.43413 137.637 1.44386C137.874 1.04886 138.369 0.807056 138.337 0.799948C136.668 0.386547 133.689 6.06977 133.693 5.90733C133.908 -1.73656 140.405 -4.92968 139.961 -5.0808Z" fill="#FFC737"/>
<path d="M127.973 63.7415C130.415 54.673 127.025 47.632 123.629 38.8586C118.327 25.1657 127.319 15.2374 135.887 9.23455C136.041 9.12702 135.886 8.83989 135.716 8.89349C134.356 9.32673 133.032 9.88935 131.759 10.5664C133.299 8.20239 134.338 5.53177 134.232 2.43958C134.221 2.13481 133.872 2.14038 133.778 2.32659C133.653 2.5742 133.543 2.82675 133.428 3.07764C132.52 3.86438 132.071 5.19981 131.343 6.22813C130.505 7.41103 129.523 8.45944 128.484 9.42602C128.815 8.76875 129.101 8.06204 129.392 7.31038C130.424 4.658 131.416 2.42376 133.443 0.633431C133.475 0.606286 133.455 0.526038 133.405 0.533885C133.362 0.543003 133.323 0.558929 133.281 0.568048C133.348 0.530512 133.413 0.49335 133.481 0.455815C133.598 0.38852 133.502 0.136249 133.368 0.157174C130.634 0.614102 128.167 2.73083 126.646 5.43512C127.574 1.02148 128.328 -3.47041 131.988 -6.10213C132.21 -6.21534 132.427 -6.33018 132.663 -6.43568C132.841 -6.51508 132.775 -6.8921 132.556 -6.85533C128.083 -6.10447 125.073 -1.99538 123.426 2.75375C123.406 2.23464 123.368 1.71097 123.3 1.17982C123.26 0.877152 122.853 0.830361 122.832 1.13041C121.121 26.0921 90.1926 14.9671 76.9855 25.3044C62.064 36.9836 74.3049 60.7372 74.5661 78.1113C74.5752 78.7645 75.4926 79.2928 75.6602 78.5482C75.7283 78.2483 75.7763 77.9441 75.8345 77.6432C76.6058 76.2354 77.1104 74.5458 77.4451 72.7723C77.4285 73.5276 77.3846 74.2798 77.2948 75.0048C77.1329 76.3026 76.7539 77.6834 77.0082 79.0436C77.0472 79.2459 77.2761 79.4258 77.4278 79.2844C77.6923 79.0347 77.893 78.7213 78.0629 78.3834C78.0769 78.3787 78.0907 78.3888 78.1019 78.3822C78.2002 78.3374 78.2911 78.2766 78.3862 78.2274C79.4485 78.2109 80.4679 77.9509 81.4412 77.5683C81.2887 77.83 81.1433 78.1052 81.0048 78.3941C80.0436 79.4957 79.5743 80.5498 79.4317 82.1584C79.4058 82.4468 79.7625 82.7711 79.967 82.5601C80.8343 81.6718 81.4912 80.7845 82.2307 79.752C82.3294 79.6164 82.443 79.4662 82.5638 79.3149C82.6193 79.294 82.6747 79.2878 82.7303 79.2521C91.2946 73.7303 102.222 80.5979 111.662 79.0141C119.336 77.7259 125.717 72.1115 127.973 63.7415ZM114.998 72.9538C117.037 71.1003 118.633 68.5927 119.184 65.9322C119.236 65.6739 118.882 65.5062 118.757 65.6901C117.412 67.6901 116.426 69.8229 114.744 71.5152C113.465 72.8039 112.036 73.7529 110.575 74.7072C109.314 75.0195 108.006 75.202 106.662 75.238C99.9848 75.4166 93.003 72.8821 86.933 74.6599C89.2004 73.4571 91.7836 72.8178 94.9274 72.6327C98.7457 72.4083 102.113 72.1172 105.077 69.5476C105.114 69.515 105.078 69.425 105.028 69.45C103.37 70.2927 101.507 70.7506 99.5698 71.0561C109.069 67.3618 114.426 53.5762 110.711 42.0601C110.621 41.7824 110.281 41.8749 110.307 42.138C110.957 48.7984 110.94 54.8765 108.234 60.5366C105.671 65.8948 101.634 68.7229 97.0374 71.3785C92.6657 71.8365 88.1528 71.9709 84.7732 74.0929C83.7164 74.317 82.7478 75.074 81.7899 75.5082C81.6437 75.5752 81.4944 75.6378 81.3454 75.7028C82.1529 74.7454 82.8866 73.6916 83.6102 72.6983C85.3966 70.2516 87.2972 67.7674 88.5599 64.8829C88.5798 64.8381 88.5195 64.7813 88.4854 64.8136C86.5034 66.7613 84.8581 69.1246 82.9888 71.2141C81.6548 72.7025 80.0758 74.0649 78.8578 75.7166C79.4727 73.9189 79.9852 72.0613 80.7624 70.3461C82.0579 67.4834 83.9544 65.2083 85.4469 62.5256C85.5522 62.3375 85.354 62.0718 85.1754 62.1978C84.1566 62.9161 83.1644 63.9294 82.2509 65.1167C84.0054 51.5685 89.7545 41.929 98.5974 33.4288C98.772 33.2618 98.562 32.9367 98.3615 33.0636C88.6061 39.2351 82.7207 52.4485 81.9604 65.498C80.3903 67.6534 79.0862 70.3508 78.3733 73.0881C78.2161 72.2545 78.0021 71.4495 77.7648 70.7462C77.936 69.3047 78.0175 67.8528 78.046 66.4852C78.1332 62.127 76.6077 57.7096 77.0356 53.4159C77.0696 53.0697 76.5778 52.8524 76.4873 53.1976C75.5905 56.6526 76.2719 60.0864 76.5478 63.7454C76.6958 65.7254 76.5024 67.6042 76.2392 69.4597C75.8302 63.3526 74.1792 57.1307 73.2425 50.9835C72.3903 45.3918 72.0751 39.4147 74.1275 34.5041C76.5949 28.5993 82.165 25.691 87.6699 24.3227C88.9707 23.9992 90.2934 23.7531 91.624 23.5426C83.4925 29.014 78.2583 38.9873 77.3184 50.606C77.3056 50.7748 77.5325 50.8325 77.5529 50.665C79.078 37.8882 85.61 28.3715 94.8408 23.1034C101.504 22.3141 108.281 22.0095 114.207 18.695C118.243 16.4359 121.702 12.4111 122.945 7.39899C124.256 4.09995 125.294 0.9367 127.034 -1.6622C124.969 3.19892 124.831 10.3478 122.565 14.2989C122.476 14.4525 122.664 14.7296 122.804 14.5876C124.643 12.6696 125.538 10.1687 126.186 7.51993C126.822 6.20194 127.546 4.96332 128.499 3.89748C129.255 3.05105 130.1 2.42854 130.993 1.87701C128.673 4.19875 127.704 8.81985 126.211 11.4878C126.083 11.7163 126.332 12.0697 126.55 11.8983C126.704 11.776 126.849 11.6481 126.987 11.5161C127.054 11.5522 127.131 11.5574 127.212 11.5152C128.778 10.6819 130.096 9.63734 131.28 8.28277C130.73 9.52359 130.099 10.7206 129.248 11.8097C129.03 12.0891 128.805 12.3524 128.573 12.6092C124.229 15.8898 120.891 20.7195 119.675 26.6933C118.873 30.6411 119.14 34.6349 120.166 38.7529C120.791 41.2662 121.735 43.7175 122.576 46.1872C122.572 46.7518 122.582 47.319 122.604 47.8844C122.302 46.6714 121.914 45.4719 121.42 44.3183C120.035 41.068 116.281 37.4135 117.307 33.8132C117.321 33.762 117.256 33.7036 117.224 33.7526C115.136 37.2149 118.531 40.7639 119.862 44.231C122.365 50.7512 121.271 56.6103 119.915 62.7017C119.825 63.0982 120.238 63.4234 120.494 63.131C123.135 60.0945 123.738 55.4939 123.194 51.0309C123.156 50.7059 123.095 50.382 123.042 50.0569C123.183 49.5518 123.263 49.0122 123.298 48.455C123.787 50.0948 124.183 51.7491 124.348 53.4469C125.21 62.3396 121.181 69.4839 114.998 72.9538Z" fill="#212321"/>
</g>
<g clip-path="url(#clip9)">
<path d="M72.9606 -5.0808C72.2416 -5.32634 63.0322 -0.282249 64.0859 6.2218C64.1803 6.81017 63.4803 7.10842 63.3427 7.38736C59.0739 16.1285 48.1488 22.6005 44.3721 24.5003C41.6849 25.8521 15.2302 25.6 9.52828 35.948C4.14501 45.719 6.41516 54.5386 12.4952 69.061C13.3865 71.192 14.1801 80.6666 16.4041 81.7384C19.8749 83.4097 31.8265 80.293 35.1338 79.744C42.0272 78.5975 58.6185 77.8323 61.5847 66.6003C65.4974 51.7928 57.793 37.8259 57.2243 35.7229C55.4834 29.3018 64.5653 14.1102 65.8806 12.3452C67.5037 10.1692 73.3403 8.02582 73.2775 7.85911C73.1427 7.49772 71.2328 8.0121 69.63 8.5177C71.2368 6.62868 72.1955 2.09747 71.9559 2.44386C71.239 3.48026 70.7906 4.19765 70.5331 4.46102C70.4383 4.5592 68.9274 5.95023 68.7875 5.901C68.7202 5.87721 68.5701 5.80996 69.0231 4.94965C69.4458 4.14558 70.0424 2.43413 70.6367 1.44386C70.8736 1.04886 71.3695 0.807056 71.3365 0.799948C69.6683 0.386547 66.6889 6.06977 66.6929 5.90733C66.9078 -1.73656 73.4053 -4.92968 72.9606 -5.0808Z" fill="#FFC737"/>
<path d="M60.9726 63.7415C63.4154 54.673 60.0254 47.632 56.629 38.8586C51.3274 25.1657 60.3192 15.2374 68.8867 9.23455C69.0412 9.12702 68.8862 8.83989 68.7158 8.89349C67.3563 9.32673 66.0317 9.88935 64.7593 10.5664C66.2992 8.20239 67.3382 5.53177 67.2317 2.43958C67.2208 2.13481 66.8716 2.14038 66.7783 2.32659C66.653 2.5742 66.5432 2.82675 66.4282 3.07764C65.5205 3.86438 65.0708 5.19981 64.3429 6.22813C63.5045 7.41103 62.5227 8.45944 61.4841 9.42602C61.8146 8.76875 62.1007 8.06204 62.392 7.31038C63.4241 4.658 64.4164 2.42376 66.4426 0.633431C66.4751 0.606286 66.4552 0.526038 66.405 0.533885C66.3623 0.543003 66.3232 0.558929 66.2806 0.568048C66.3481 0.530512 66.4133 0.49335 66.4809 0.455815C66.5977 0.38852 66.5019 0.136249 66.3681 0.157174C63.634 0.614102 61.1667 2.73083 59.6458 5.43512C60.5739 1.02148 61.3282 -3.47041 64.9879 -6.10213C65.2101 -6.21534 65.4272 -6.33018 65.6628 -6.43568C65.8414 -6.51508 65.7751 -6.8921 65.5556 -6.85533C61.0828 -6.10447 58.0726 -1.99538 56.4258 2.75375C56.4059 2.23464 56.3681 1.71097 56.2997 1.17982C56.2597 0.877152 55.8534 0.830361 55.8317 1.13041C54.1212 26.0921 23.1926 14.9671 9.98549 25.3044C-4.93601 36.9836 7.30495 60.7372 7.56608 78.1113C7.57519 78.7645 8.49261 79.2928 8.66017 78.5482C8.72833 78.2483 8.77625 77.9441 8.83448 77.6432C9.60585 76.2354 10.1104 74.5458 10.4451 72.7723C10.4285 73.5276 10.3846 74.2798 10.2948 75.0048C10.1329 76.3026 9.7539 77.6834 10.0082 79.0436C10.0472 79.2459 10.2761 79.4258 10.4278 79.2844C10.6923 79.0347 10.893 78.7213 11.0629 78.3834C11.0769 78.3787 11.0907 78.3888 11.1019 78.3822C11.2002 78.3374 11.2911 78.2766 11.3862 78.2274C12.4485 78.2109 13.4679 77.9509 14.4412 77.5683C14.2887 77.83 14.1433 78.1052 14.0048 78.3941C13.0436 79.4957 12.5743 80.5498 12.4317 82.1584C12.4058 82.4468 12.7625 82.7711 12.967 82.5601C13.8343 81.6718 14.4912 80.7845 15.2307 79.752C15.3294 79.6164 15.443 79.4662 15.5638 79.3149C15.6193 79.294 15.6747 79.2878 15.7303 79.2521C24.2946 73.7303 35.2222 80.5979 44.6618 79.0141C52.336 77.7259 58.7169 72.1115 60.9726 63.7415ZM47.9985 72.9538C50.0368 71.1003 51.6326 68.5927 52.1836 65.9322C52.2363 65.6739 51.882 65.5062 51.7565 65.6901C50.4118 67.6901 49.4258 69.8229 47.7441 71.5152C46.4645 72.8039 45.0363 73.7529 43.5746 74.7072C42.3137 75.0195 41.0056 75.202 39.6623 75.238C32.9848 75.4166 26.003 72.8821 19.933 74.6599C22.2004 73.4571 24.7836 72.8178 27.9274 72.6327C31.7457 72.4083 35.1129 72.1172 38.0773 69.5476C38.1138 69.515 38.0777 69.425 38.0277 69.45C36.3699 70.2927 34.5075 70.7506 32.5698 71.0561C42.0687 67.3618 47.4265 53.5762 43.7114 42.0601C43.6215 41.7824 43.2809 41.8749 43.3074 42.138C43.9571 48.7984 43.9405 54.8765 41.2341 60.5366C38.6714 65.8948 34.6335 68.7229 30.0374 71.3785C25.6657 71.8365 21.1528 71.9709 17.7732 74.0929C16.7164 74.317 15.7478 75.074 14.7899 75.5082C14.6437 75.5752 14.4944 75.6378 14.3454 75.7028C15.1529 74.7454 15.8866 73.6916 16.6102 72.6983C18.3966 70.2516 20.2972 67.7674 21.5599 64.8829C21.5798 64.8381 21.5195 64.7813 21.4854 64.8136C19.5034 66.7613 17.8581 69.1246 15.9888 71.2141C14.6548 72.7025 13.0758 74.0649 11.8578 75.7166C12.4727 73.9189 12.9852 72.0613 13.7624 70.3461C15.0579 67.4834 16.9544 65.2083 18.4469 62.5256C18.5522 62.3375 18.354 62.0718 18.1754 62.1978C17.1566 62.9161 16.1644 63.9294 15.2509 65.1167C17.0054 51.5685 22.7545 41.929 31.5974 33.4288C31.772 33.2618 31.562 32.9367 31.3615 33.0636C21.6061 39.2351 15.7207 52.4485 14.9604 65.498C13.3903 67.6534 12.0862 70.3508 11.3733 73.0881C11.2161 72.2545 11.0021 71.4495 10.7648 70.7462C10.936 69.3047 11.0175 67.8528 11.046 66.4852C11.1332 62.127 9.60773 57.7096 10.0356 53.4159C10.0696 53.0697 9.57781 52.8524 9.48733 53.1976C8.59051 56.6526 9.27186 60.0864 9.54776 63.7454C9.69577 65.7254 9.50237 67.6042 9.23921 69.4597C8.83023 63.3526 7.17925 57.1307 6.24255 50.9835C5.39027 45.3918 5.07506 39.4147 7.12748 34.5041C9.59488 28.5993 15.165 25.691 20.6699 24.3227C21.9707 23.9992 23.2934 23.7531 24.624 23.5426C16.4925 29.014 11.2583 38.9873 10.3184 50.606C10.3056 50.7748 10.5325 50.8325 10.5529 50.665C12.078 37.8882 18.61 28.3715 27.8408 23.1034C34.5036 22.3141 41.2813 22.0095 47.2066 18.695C51.2428 16.4359 54.7019 12.4111 55.9452 7.39899C57.2557 4.09995 58.2936 0.9367 60.0343 -1.6622C57.9692 3.19892 57.8311 10.3478 55.565 14.2989C55.4764 14.4525 55.6642 14.7296 55.8036 14.5876C57.6433 12.6696 58.5376 10.1687 59.1859 7.51993C59.822 6.20194 60.5464 4.96332 61.4985 3.89748C62.2548 3.05105 63.1 2.42854 63.993 1.87701C61.6729 4.19875 60.7038 8.81985 59.2114 11.4878C59.0831 11.7163 59.3318 12.0697 59.5498 11.8983C59.7045 11.776 59.8485 11.6481 59.987 11.5161C60.0539 11.5522 60.1306 11.5574 60.2121 11.5152C61.7784 10.6819 63.0962 9.63734 64.2798 8.28277C63.7296 9.52359 63.099 10.7206 62.2485 11.8097C62.0302 12.0891 61.8045 12.3524 61.573 12.6092C57.2288 15.8898 53.8907 20.7195 52.6753 26.6933C51.8727 30.6411 52.1397 34.6349 53.1655 38.7529C53.7911 41.2662 54.735 43.7175 55.5765 46.1872C55.5717 46.7518 55.5821 47.319 55.6044 47.8844C55.3021 46.6714 54.9138 45.4719 54.4201 44.3183C53.0354 41.068 49.2814 37.4135 50.3073 33.8132C50.3214 33.762 50.2559 33.7036 50.2244 33.7526C48.1365 37.2149 51.5312 40.7639 52.8617 44.231C55.3647 50.7512 54.2709 56.6103 52.9148 62.7017C52.825 63.0982 53.2382 63.4234 53.4936 63.131C56.1353 60.0945 56.7379 55.4939 56.1943 51.0309C56.1557 50.7059 56.0953 50.382 56.042 50.0569C56.1834 49.5518 56.263 49.0122 56.2983 48.455C56.7873 50.0948 57.183 51.7491 57.3481 53.4469C58.2098 62.3396 54.1809 69.4839 47.9985 72.9538Z" fill="#212321"/>
</g>
<defs>
<clipPath id="clip0">
<rect width="77.5304" height="81.6109" fill="white" transform="translate(402 0.404297) rotate(-0.149306)"/>
</clipPath>
<clipPath id="clip1">
<rect width="77.5304" height="81.6109" fill="white" transform="translate(469 0.404297) rotate(-0.149306)"/>
</clipPath>
<clipPath id="clip2">
<rect width="77.5304" height="81.6109" fill="white" transform="translate(536 0.404297) rotate(-0.149306)"/>
</clipPath>
<clipPath id="clip3">
<rect width="77.5304" height="81.6109" fill="white" transform="translate(603 0.404297) rotate(-0.149306)"/>
</clipPath>
<clipPath id="clip4">
<rect width="77.5304" height="81.6109" fill="white" transform="translate(335 0.404297) rotate(-0.149306)"/>
</clipPath>
<clipPath id="clip5">
<rect width="77.5304" height="81.6109" fill="white" transform="translate(268 0.202148) rotate(-0.149306)"/>
</clipPath>
<clipPath id="clip6">
<rect width="77.5304" height="81.6109" fill="white" transform="translate(201 0.404297) rotate(-0.149306)"/>
</clipPath>
<clipPath id="clip7">
<rect width="77.5304" height="81.6109" fill="white" transform="translate(134 0.404297) rotate(-0.149306)"/>
</clipPath>
<clipPath id="clip8">
<rect width="77.5304" height="81.6109" fill="white" transform="translate(67 0.404297) rotate(-0.149306)"/>
</clipPath>
<clipPath id="clip9">
<rect width="77.5304" height="81.6109" fill="white" transform="translate(0 0.404297) rotate(-0.149306)"/>
</clipPath>
</defs>
</svg>
