<svg width="59" height="59" viewBox="0 0 59 59" fill="none" xmlns="http://www.w3.org/2000/svg">
<path d="M37.5664 19.8811C37.5664 24.4967 33.8209 28.2404 29.1985 28.241C24.5806 28.235 20.8345 24.4962 20.8281 19.8871C20.8285 15.2714 24.5745 11.5278 29.1972 11.5278C33.8211 11.5278 37.5664 15.266 37.5664 19.8811ZM35.2432 19.8878C35.2432 16.5467 32.5308 13.8468 29.1972 13.8468C25.8637 13.8468 23.1513 16.5467 23.1513 19.8878C23.1513 23.2281 25.8561 25.9288 29.1972 25.9288C32.5384 25.9288 35.2432 23.2281 35.2432 19.8878Z" stroke="black" stroke-width="2"/>
<path d="M37.8231 34.2776L37.8231 34.2776C38.5574 33.7966 39.0008 32.9711 39.0057 32.0853L39.0058 32.0775L39.0058 32.0775C39.0142 31.4517 38.6649 30.8826 38.101 30.6072L38.093 30.6033L38.093 30.6033C37.4995 30.3068 36.7873 30.3727 36.2624 30.7734L36.2531 30.7805L36.2438 30.7873C32.0428 33.843 26.3461 33.843 22.1451 30.7873L22.1378 30.782L22.1306 30.7766C21.6008 30.3764 20.8915 30.3079 20.2932 30.6046L20.2931 30.6046C19.7357 30.881 19.3815 31.4543 19.3898 32.0775L19.39 32.0909H19.3899C19.3899 32.9685 19.8348 33.7944 20.5725 34.2776L20.5799 34.2824L20.5799 34.2825C21.802 35.0985 23.1411 35.7332 24.5473 36.1782L37.8231 34.2776ZM37.8231 34.2776L37.8157 34.2825M37.8231 34.2776L37.8157 34.2825M37.8157 34.2825C36.5924 35.0993 35.2611 35.7328 33.8526 36.1701L33.8526 36.1701L33.8483 36.1715C33.6116 36.2461 33.3677 36.3149 33.1165 36.3776L31.3793 36.8115L32.6599 38.063L37.0077 42.3121C37.0172 42.3215 37.0257 42.3296 37.0327 42.3361L37.0593 42.3635C37.7792 43.1046 37.7607 44.2931 37.013 45.0181C36.2708 45.7376 35.0799 45.7193 34.3538 44.9725C34.3536 44.9723 34.3533 44.972 34.3531 44.9718L29.9099 40.3777L29.191 39.6345L28.4722 40.3777L24.038 44.9627C24.0298 44.9711 24.0227 44.9785 24.0168 44.9847L23.9894 45.0113C23.2439 45.7341 22.0526 45.7162 21.3296 44.9718C20.6067 44.2276 20.6245 43.0392 21.3691 42.3173L21.3714 42.315L25.7284 38.0635L27.0111 36.8119L25.2723 36.3776C25.0082 36.3117 24.7749 36.25 24.5475 36.1783L37.8157 34.2825ZM37.0642 42.365C37.0642 42.365 37.0636 42.3644 37.0627 42.3636L37.0632 42.364L37.0642 42.365ZM23.988 45.0162C23.988 45.0162 23.9885 45.0156 23.9893 45.0147L23.9889 45.0152L23.988 45.0162Z" stroke="black" stroke-width="2"/>
<path d="M57.9605 29.451C57.9605 44.6974 45.4003 57.0837 29.8733 57.0837C14.3463 57.0837 1.78613 44.6974 1.78613 29.451C1.78613 14.2047 14.3463 1.81836 29.8733 1.81836C45.4003 1.81836 57.9605 14.2047 57.9605 29.451Z" stroke="black" stroke-width="2"/>
</svg>
