<svg width="35" height="46" viewBox="0 0 35 46" fill="none" xmlns="http://www.w3.org/2000/svg">
<g clip-path="url(#clip0)">
<path d="M31.3325 44.5618L5.09745 45.9984C4.28657 46.0426 3.59569 45.3703 3.55385 44.4954L1.85391 8.42476C1.81285 7.55071 2.43661 6.80603 3.24828 6.76093L29.4833 5.32433C30.2942 5.28008 30.9851 5.95242 31.0269 6.82731L32.7268 42.8979C32.7679 43.7728 32.1434 44.5175 31.3325 44.5618Z" fill="#8DC63F"/>
<path d="M34.2127 42.3735L6.69627 43.8799C6.23911 43.9045 5.84907 43.5258 5.82617 43.0322L4.06148 5.58114C4.03859 5.08837 4.38994 4.66795 4.84789 4.64327L32.3644 3.13688C32.8215 3.1122 33.2116 3.49093 33.2345 3.98454L34.9992 41.4365C35.0221 41.9284 34.6699 42.3488 34.2127 42.3735Z" fill="#8DC63F"/>
<path d="M34.5793 37.4754C34.5367 36.0617 34.3906 34.6439 34.2943 33.2337C34.1932 31.763 34.0898 30.2924 33.9926 28.8217C33.6105 22.9962 33.267 17.1681 32.8849 11.3417C32.7791 9.72898 32.6693 8.11707 32.5572 6.50515C32.4703 5.25749 32.4143 3.98345 32.2366 2.74004C32.468 1.94515 32.2382 1.0277 31.56 0.550258C31.1494 0.260896 30.6543 0.207279 30.1782 0.153662C29.5647 0.0838748 28.9481 0.046428 28.3322 0.0268535C25.9406 -0.0488912 23.5387 0.0617471 21.1471 0.102598C18.7326 0.1443 16.3189 0.186002 13.9044 0.227705C11.4694 0.269407 9.02252 0.310258 6.59934 0.583449C5.94794 0.656641 5.29734 0.742598 4.64831 0.838768C4.19115 0.906002 3.65424 0.923875 3.28315 1.2609C2.89389 1.61494 2.91836 2.12217 2.94521 2.6243C2.97127 3.10515 2.97916 3.59366 3.03127 4.07451C2.33724 4.17409 1.6519 4.34941 1.04314 4.68643C0.604928 4.92643 0.227514 5.25239 0.0696005 5.76813C-0.0204103 6.0626 -0.0219895 6.36983 0.0917085 6.63026C0.0159098 7.4609 0.0332804 8.31366 0.0166994 9.13834C-0.00619808 10.2703 -0.000671101 11.4005 0.00722459 12.5315C0.023016 14.7937 0.0814441 17.0566 0.130397 19.3179C0.227514 23.8422 0.341212 28.3664 0.470702 32.889C0.543342 35.4337 0.621509 37.9775 0.704414 40.5213C0.706783 40.5971 0.720995 40.6634 0.744682 40.7222C0.713889 41.18 0.722574 41.6583 0.841009 42.0796C0.863907 42.2805 0.906544 42.4762 0.981553 42.6626C1.36686 43.6209 2.40593 43.8073 3.2642 43.9171C5.43077 44.1945 7.68894 43.9869 9.85789 43.8269C14.3205 43.4983 18.7666 42.8617 23.2434 42.786C24.4396 42.7656 25.6374 42.7971 26.8336 42.7562C27.954 42.7179 29.1668 42.6651 30.2532 42.312C30.4404 42.3707 30.6559 42.3162 30.7901 42.0813C31.0491 41.6294 30.9639 41.1145 30.9362 40.6107C30.9252 40.4132 30.9149 40.2158 30.9038 40.0183C31.6073 39.6073 32.4901 39.7868 33.2497 39.5775C34.1916 39.3196 34.6093 38.489 34.5793 37.4754ZM27.1297 41.592C26.1372 41.6371 25.1439 41.6226 24.1515 41.6251C22.0228 41.6311 19.8973 41.7749 17.7765 41.969C13.572 42.3537 9.38336 42.9375 5.15995 43.0243C4.57804 43.0362 3.99534 43.0371 3.415 42.9843C2.94126 42.9417 2.30329 42.9145 1.9164 42.5758C1.83902 42.5077 1.77981 42.4286 1.73401 42.3409C1.72217 42.0303 1.64874 41.7043 1.629 41.4192C1.61637 41.2354 1.60136 41.0524 1.58478 40.8694C1.65427 40.7851 1.6969 40.6703 1.69216 40.5222C1.39608 31.4762 1.17658 22.4286 0.98629 13.38C0.960234 12.1358 0.928651 10.8898 0.865486 9.64728C0.808637 8.52302 0.817322 7.33919 0.630984 6.22345C1.0463 5.17919 4.72806 5.08643 5.31865 5.06941C7.39522 5.00983 9.47179 4.93834 11.5484 4.86941C15.6115 4.73494 19.6856 4.51366 23.7511 4.53068C24.8834 4.53579 26.0156 4.56983 27.1455 4.65068C27.3247 4.66345 27.6524 4.62941 27.7961 4.78515C27.9366 4.93749 27.9548 5.30175 27.9943 5.49324C28.123 6.11707 28.2406 6.74941 28.3148 7.38345C28.3156 7.38856 28.3164 7.39196 28.3172 7.39707C28.3204 7.92132 28.3354 8.44388 28.3496 8.96813C28.382 10.1562 28.4412 11.3434 28.4941 12.5315C28.5999 14.9077 28.7159 17.283 28.8368 19.6583C29.0752 24.3537 29.3334 29.0473 29.5829 33.7417C29.6524 35.0422 29.7195 36.3434 29.7882 37.6439C29.8237 38.3222 29.8592 39.0013 29.8948 39.6796C29.9129 40.0192 29.9303 40.3579 29.9485 40.6975C29.9556 40.8396 29.9919 41.0337 29.9982 41.2141C29.0413 41.3817 28.1048 41.5477 27.1297 41.592ZM33.8402 37.6788C33.8229 38.272 33.5773 38.6413 33.0444 38.7783C32.3172 38.9647 31.5521 38.8583 30.8533 39.1179C30.8462 38.9937 30.8399 38.8703 30.8328 38.746L30.633 35.0983C30.5027 32.723 30.3764 30.3477 30.2477 27.9715C29.9879 23.163 29.7408 18.3545 29.4392 13.5494C29.3539 12.192 29.2876 10.832 29.1786 9.47707C29.1242 8.79877 29.0863 8.11621 29.0105 7.44132C28.9907 7.26345 28.9702 7.08558 28.9512 6.9077C28.9765 6.47281 28.9741 6.03962 28.9276 5.60217C28.8731 5.09324 28.8289 4.43792 28.483 4.04217C28.1554 3.6677 27.6682 3.6226 27.2205 3.57919C26.656 3.52473 26.0906 3.48558 25.5245 3.45834C23.2087 3.34685 20.8882 3.41579 18.5724 3.48983C13.8855 3.63962 9.1907 3.71026 4.50698 3.9443C4.21878 3.95877 3.92349 3.97579 3.62582 4.00302C3.62819 3.73409 3.61792 3.46515 3.60845 3.19111C3.59266 2.74515 3.38737 1.92558 3.86743 1.71792C4.24405 1.55536 4.72964 1.57919 5.12758 1.5477C5.66922 1.50515 6.21087 1.47196 6.7533 1.44558C8.87645 1.3426 11.0004 1.27707 13.1259 1.24898C17.4227 1.19281 21.7196 1.09324 26.0164 1.02941C27.1992 1.01153 28.3835 1.00813 29.5639 1.1043C30.0266 1.14175 30.6954 1.10856 31.0862 1.42175C31.3878 1.66345 31.4652 2.05409 31.5047 2.44898C31.5466 2.87026 31.5466 2.93068 31.6121 3.25494C31.6247 4.14175 31.691 5.03026 31.7455 5.90941C31.8332 7.32387 31.92 8.73834 32.014 10.152C32.2019 12.98 32.3898 15.809 32.5777 18.6371C32.9496 24.2379 33.3578 29.8354 33.7139 35.4379C33.7605 36.1783 33.8616 36.9383 33.8402 37.6788Z" fill="#212321"/>
<path d="M4.51552 15.7402C4.93794 15.7768 5.34536 15.8815 5.77094 15.9011C6.18941 15.9207 6.60788 15.9215 7.02635 15.9138C7.86329 15.8994 8.70182 15.8585 9.53797 15.8143C11.1866 15.7275 12.8352 15.6543 14.4854 15.61C16.123 15.5658 17.7605 15.5598 19.3989 15.5658C21.0341 15.5726 22.6677 15.5258 24.2769 15.1845C25.2022 14.9879 24.8138 13.3751 23.8836 13.6458C23.7573 13.6824 23.6326 13.7224 23.5078 13.7641C22.9322 13.9589 22.8588 14.947 23.5078 15.1028C23.6326 15.1326 23.7573 15.1598 23.8836 15.1845C23.8836 14.6713 23.8836 14.1589 23.8836 13.6458C22.3077 13.9785 20.6954 13.9743 19.0957 13.9641C17.4802 13.9538 15.8656 13.9666 14.2509 14.016C12.6276 14.0662 11.0042 14.1436 9.38243 14.2338C8.54548 14.2807 7.70459 14.3394 6.87081 14.4338C6.44997 14.4815 6.03386 14.5428 5.61539 14.6058C5.20245 14.6679 4.82108 14.8296 4.41367 14.9172C3.9573 15.0151 4.10416 15.7045 4.51552 15.7402Z" fill="#212321"/>
<path d="M5.97701 20.3982C6.38443 20.3922 6.7879 20.439 7.19769 20.4262C7.60589 20.4135 8.0141 20.4135 8.42231 20.3999C9.18977 20.3752 9.95723 20.3828 10.7247 20.3956C12.2904 20.4211 13.8537 20.5079 15.4195 20.5377C16.9883 20.5675 18.5572 20.5224 20.1221 20.3854C21.7044 20.2467 23.3475 20.0901 24.8935 19.6918C25.7383 19.4739 25.3775 18.0348 24.5334 18.285C24.329 18.3454 24.1481 18.4492 24.0139 18.6288C23.8473 18.8526 23.796 19.1828 24.0139 19.4016C24.2263 19.6152 24.4269 19.6807 24.7127 19.7173C24.7127 19.2313 24.7127 18.7445 24.7127 18.2586C23.1272 18.4858 21.5647 18.799 19.9674 18.9403C18.4025 19.0782 16.8344 19.1224 15.2647 19.0952C13.6998 19.0679 12.1356 18.9854 10.5707 18.9726C9.80405 18.9667 9.03422 18.9786 8.26834 19.0296C7.85698 19.0569 7.44798 19.1165 7.04056 19.1769C6.62762 19.2373 6.26205 19.3735 5.86174 19.4824C5.38879 19.6101 5.48748 20.4058 5.97701 20.3982Z" fill="#212321"/>
<path d="M6.27072 26.6015C7.81196 27.0704 9.44873 26.7495 11.0113 26.5827C12.6141 26.4117 14.2169 26.2661 15.8237 26.1529C19.0412 25.9274 22.2658 25.8627 25.488 25.9742C25.488 25.4185 25.488 24.8627 25.488 24.307C25.2962 24.324 25.1319 24.3359 24.9559 24.4329C24.8406 24.4968 24.7522 24.604 24.6282 24.6457C24.1734 24.7972 24.1252 25.5666 24.6282 25.6917C24.944 25.7708 25.1319 25.97 25.488 25.9742C26.4853 25.9878 26.4821 24.3402 25.488 24.307C22.2666 24.1998 19.0381 24.261 15.8237 24.524C14.2059 24.6559 12.5873 24.8474 10.9813 25.0959C9.41241 25.3393 7.83091 25.5351 6.27072 25.8312C5.89725 25.9036 5.94068 26.501 6.27072 26.6015Z" fill="#212321"/>
<path d="M6.82187 32.5248C7.61223 32.7665 8.48628 32.7027 9.29954 32.7087C10.0875 32.7146 10.8747 32.7078 11.6627 32.6831C13.2379 32.6346 14.8131 32.5853 16.3875 32.5019C17.9619 32.4184 19.5363 32.3291 21.1107 32.2321C22.7206 32.1333 24.3211 31.9895 25.9326 32.0431C25.7455 31.5563 25.5583 31.0704 25.372 30.5836C25.2228 30.7282 25.1304 30.8772 25.0791 31.0891C25.0238 31.3172 25.0783 31.5716 25.2378 31.7376C25.3823 31.8882 25.5244 31.9733 25.7218 32.0125C26.1426 32.0976 26.5777 31.8865 26.6977 31.415C26.8058 30.9904 26.565 30.4593 26.1434 30.3631C25.3215 30.1759 24.4592 30.2789 23.6294 30.3359C22.843 30.3895 22.0558 30.4406 21.2686 30.4908C19.6681 30.5929 18.0677 30.6891 16.4672 30.7785C14.8652 30.8678 13.2647 30.9776 11.6635 31.0763C10.8747 31.1248 10.0875 31.1887 9.30033 31.2593C8.48707 31.3325 7.59723 31.3308 6.82266 31.6321C6.43656 31.7827 6.39314 32.3938 6.82187 32.5248Z" fill="#212321"/>
</g>
<defs>
<clipPath id="clip0">
<rect width="35" height="46" fill="white"/>
</clipPath>
</defs>
</svg>
