<svg width="58" height="59" viewBox="0 0 58 59" fill="none" xmlns="http://www.w3.org/2000/svg">
<path d="M56.9804 29.5919C56.9804 44.8825 44.5849 57.2779 29.2944 57.2779C14.0038 57.2779 1.6084 44.8825 1.6084 29.5919C1.6084 14.3014 14.0038 1.90594 29.2944 1.90594C44.5849 1.90594 56.9804 14.3014 56.9804 29.5919Z" stroke="black" stroke-width="2"/>
<path d="M41.9779 19.4721L41.9772 19.4805L41.9766 19.4888C41.9394 20.0093 41.7461 21.2357 41.4754 22.954L41.4681 23.0005C41.1991 24.7074 40.8662 26.829 40.5746 29.0363L38.5863 42.0427L38.5814 42.0748L38.5791 42.1019C38.579 42.1024 38.5789 42.1029 38.5789 42.1036C38.5783 42.1088 38.5769 42.1201 38.5746 42.1366C38.5699 42.1699 38.5614 42.2231 38.5472 42.2902C38.5182 42.4273 38.469 42.6065 38.3901 42.7859C38.2258 43.1593 38.0063 43.388 37.6998 43.4561C37.3025 43.5444 36.6372 43.3907 35.8634 43.029C35.1378 42.6897 34.542 42.2759 34.396 42.1591L34.3838 42.1493L34.3713 42.1399C34.2746 42.0674 33.9289 41.8413 33.4726 41.5427C33.3779 41.4807 33.2784 41.4157 33.1754 41.3482C32.5456 40.9356 31.7179 40.3916 30.8369 39.7991C29.054 38.6001 27.1202 37.2472 26.1412 36.3857L26.1412 36.3856L26.1314 36.3772C25.9175 36.1939 25.8128 36.0166 25.7945 35.9015C25.7881 35.8614 25.7872 35.8061 25.8258 35.7175C25.8685 35.6197 25.9724 35.4543 26.222 35.236L26.2379 35.2221L26.2531 35.2075L34.9584 26.9168L34.9672 26.9084L34.9759 26.8997C35.2918 26.5838 35.5997 26.1738 35.8155 25.772C35.9233 25.5714 36.026 25.34 36.0867 25.099C36.1406 24.8849 36.2002 24.5142 36.0432 24.133C35.8456 23.6531 35.4198 23.4114 35.0036 23.3593C34.6537 23.3154 34.3058 23.3975 34.0132 23.4983C33.4094 23.7061 32.6052 24.1514 31.5512 24.868C31.5511 24.8681 31.551 24.8682 31.5509 24.8683L19.9806 32.7195C19.9634 32.7282 19.9314 32.7435 19.8848 32.7623C19.7811 32.8043 19.6047 32.8641 19.3573 32.908C18.8684 32.9948 18.0743 33.0243 16.983 32.6975L11.7951 31.1012C11.9551 30.955 12.3153 30.7192 13.0564 30.4481L13.098 30.4328L13.1382 30.414C19.3806 27.48 26.7032 24.501 33.8204 21.6056C36.1173 20.6712 38.3928 19.7455 40.6037 18.8328L40.6089 18.8309C40.6217 18.8263 40.6437 18.8187 40.6735 18.809C40.7336 18.7896 40.8225 18.7631 40.9291 18.7381C41.1544 18.6852 41.4037 18.652 41.6127 18.6701C41.8204 18.6882 41.8768 18.7445 41.8901 18.76C41.9008 18.7726 42.0262 18.9246 41.9779 19.4721Z" stroke="black" stroke-width="2"/>
</svg>
