<svg width="58" height="58" viewBox="0 0 58 58" fill="none" xmlns="http://www.w3.org/2000/svg">
<path d="M43.3628 21.7093C42.3118 22.173 41.1952 22.438 40.0129 22.6368C41.1952 21.908 42.1148 20.848 42.5746 19.4567C41.4579 20.1192 40.21 20.583 38.8963 20.848C37.8454 19.7217 36.3346 19.0592 34.6925 19.0592C31.4741 19.0592 28.9124 21.643 28.9124 24.7569C28.9124 25.2206 28.9781 25.6181 29.0438 26.0819C24.3146 25.8169 20.0451 23.5643 17.2208 20.1192C16.6953 20.9805 16.4326 21.908 16.4326 22.9681C16.4326 24.9556 17.4835 26.6782 18.9942 27.7382C18.0746 27.7382 17.1551 27.4732 16.3669 27.0094V27.0757C16.3669 29.8582 18.3374 32.177 20.9647 32.7071C20.5049 32.8396 19.9795 32.9058 19.454 32.9058C19.0599 32.9058 18.7315 32.9058 18.3374 32.8396C19.0599 35.0921 21.2274 36.7484 23.7234 36.8147C21.7529 38.3385 19.2569 39.266 16.5639 39.266C16.1041 39.266 15.6444 39.266 15.1846 39.1997C17.7462 40.856 20.7677 41.7836 24.0518 41.7836C34.6269 41.7836 40.4727 33.0383 40.4727 25.4856C40.4727 25.2206 40.4727 25.0219 40.4727 24.7569C41.5893 23.8956 42.5746 22.9018 43.3628 21.7093Z" stroke="black" stroke-width="2" stroke-linecap="round" stroke-linejoin="round"/>
<circle cx="29.0008" cy="28.6327" r="27.6327" stroke="black" stroke-width="2"/>
</svg>
