<svg width="58" height="59" viewBox="0 0 58 59" fill="none" xmlns="http://www.w3.org/2000/svg">
<path d="M41.9329 33.5437C43.2246 34.6779 44.5163 35.7491 45.6721 37.0093C46.148 37.5764 46.6239 38.1435 47.0318 38.7737C47.5757 39.7188 47.0998 40.727 46.216 40.79H40.6411C39.2134 40.916 38.0577 40.3489 37.1059 39.4668C36.2901 38.7737 35.6102 37.9545 34.8624 37.1984C34.5904 36.8833 34.2505 36.6313 33.8426 36.3792C33.0947 35.9382 32.4149 36.0642 32.007 36.8203C31.599 37.5764 31.4631 38.3956 31.3951 39.2147C31.3271 40.412 30.9192 40.727 29.6275 40.79C26.8401 40.916 24.1206 40.538 21.6731 39.2147C19.4976 38.0805 17.798 36.4422 16.3023 34.5519C13.4469 30.9603 11.2714 26.9905 9.29977 22.9578C8.82387 22.0126 9.1638 21.5716 10.2516 21.5086C12.0872 21.4455 13.8548 21.5086 15.6904 21.5086C16.4383 21.5086 16.9142 21.8866 17.1861 22.5797C18.1379 24.7851 19.3616 26.9275 20.8573 28.9439C21.2652 29.448 21.6731 30.0151 22.217 30.3932C22.8289 30.7712 23.3728 30.6452 23.6447 30.0151C23.8487 29.574 23.9167 29.1329 23.9847 28.6918C24.1206 27.1166 24.1206 25.6043 23.9167 24.029C23.7807 23.0838 23.1688 22.4537 22.149 22.2647C21.6731 22.0757 21.7411 21.8866 22.0131 21.5716C22.421 21.1305 22.8289 20.8154 23.7127 20.8154H29.9674C30.9872 21.0045 31.1911 21.3825 31.3271 22.3277V28.8179C31.3271 29.1959 31.5311 30.2041 32.2109 30.4562C32.7548 30.6452 33.1627 30.2041 33.4347 29.8891C34.9303 28.4398 36.0181 26.6755 36.9699 24.8482C37.3778 24.029 37.7857 23.2099 38.1257 22.3907C38.3976 21.7606 38.8055 21.4455 39.5534 21.5086H45.6041C45.808 21.5086 45.944 21.5086 46.148 21.5086C47.1678 21.6976 47.4397 22.0757 47.1678 23.0208C46.6919 24.4701 45.7401 25.6673 44.7883 26.8645C43.7685 28.1878 42.6807 29.385 41.7289 30.7082C40.7091 31.9054 40.7771 32.5355 41.9329 33.5437Z" stroke="black" stroke-width="2" stroke-linecap="round" stroke-linejoin="round"/>
<circle cx="28.6327" cy="29.451" r="27.6327" stroke="black" stroke-width="2"/>
</svg>
