<svg viewBox="0 0 38 38" xmlns="http://www.w3.org/2000/svg" fill-rule="evenodd" clip-rule="evenodd" stroke-linecap="square" stroke-miterlimit="3"><path d="M18.878 9.774c4.902 0 8.882 3.98 8.882 8.882 0 4.903-3.98 8.883-8.882 8.883a8.835 8.835 0 01-4.229-1.071l-4.654 1.139 1.182-4.523a8.835 8.835 0 01-1.182-4.428c0-4.902 3.98-8.882 8.883-8.882z" fill="none" stroke="#000" stroke-width="1.02" transform="matrix(1.96817 0 0 1.9569 -18.284 -17.439)"/><path d="M14.396 11.325c-.336-.738-.69-.752-1.01-.766-.26-.01-.559-.01-.859-.01-.299 0-.784.111-1.196.553-.41.443-1.57 1.513-1.57 3.69 0 2.175 1.607 4.28 1.831 4.573.224.295 3.104 4.904 7.664 6.676 3.79 1.474 4.561 1.18 5.384 1.107.823-.074 2.655-1.07 3.028-2.103.374-1.032.374-1.918.262-2.103-.112-.184-.41-.295-.86-.516-.448-.22-2.655-1.29-3.065-1.438-.412-.148-.71-.22-1.01.222-.299.442-1.158 1.438-1.42 1.733-.262.296-.524.333-.972.111-.449-.222-1.894-.688-3.608-2.195-1.335-1.172-2.235-2.62-2.497-3.063-.26-.442-.028-.682.197-.903.201-.198.45-.516.673-.774.224-.258.3-.443.448-.738.15-.295.075-.553-.037-.774-.112-.222-.984-2.409-1.383-3.283v.001z" fill="none" stroke="#000" stroke-width="2" stroke-linecap="butt" stroke-linejoin="round" stroke-miterlimit="4"/></svg>