<svg viewBox="0 0 38 38" xmlns="http://www.w3.org/2000/svg" fill-rule="evenodd" clip-rule="evenodd" stroke-linejoin="round" stroke-miterlimit="2"><path d="M20.973 21.43c-.493-.223-1.793-.679-3.311-2.014-1.057-.929-1.817-2.048-2.162-2.6.197-.21.423-.495.629-.733.289-.332.395-.564.586-.942.324-.638.206-1.198-.037-1.677-.11-.219-.971-2.383-1.365-3.247-.292-.64-.628-.938-.925-1.107-.328-.187-.645-.229-.953-.242-.274-.01-.588-.01-.901-.01-.481 0-1.268.161-1.93.871-.486.524-1.837 1.797-1.837 4.37 0 2.457 1.782 4.845 2.035 5.18.238.311 3.296 5.136 8.099 7.003 4.104 1.595 4.944 1.25 5.835 1.17.615-.055 1.695-.49 2.55-1.134.629-.474 1.125-1.057 1.33-1.624.317-.877.402-1.669.384-2.14-.016-.408-.125-.686-.207-.82l-.001-.002a1.496 1.496 0 00-.427-.448c-.185-.132-.47-.26-.846-.447-.463-.228-2.745-1.33-3.17-1.482-.49-.176-.906-.222-1.283-.102-.3.095-.61.286-.892.705-.241.356-.87 1.091-1.201 1.471zm-7.58-10.56c.029.044.072.114.1.176.39.858 1.234 2.962 1.388 3.294-.075.157-.128.278-.261.431-.207.238-.433.534-.62.717-.283.28-.52.607-.588 1-.055.31-.03.681.233 1.125.283.48 1.257 2.04 2.696 3.305 1.82 1.6 3.349 2.105 3.825 2.34v.001c.57.281 1.01.292 1.38.18.276-.084.537-.245.784-.525.249-.28.994-1.147 1.377-1.664.472.182 2.505 1.173 2.928 1.381l.344.171c-.027.29-.093.793-.244 1.211-.094.26-.363.49-.651.706-.52.391-1.153.707-1.526.741-.755.068-1.457.31-4.933-1.043-4.316-1.677-7.017-6.068-7.231-6.35-.2-.263-1.627-2.077-1.627-3.968 0-1.779.966-2.646 1.303-3.008.162-.174.345-.234.464-.234.284 0 .568 0 .817.01l.042.002z"/><path d="M18.878.001C8.675.001.394 8.24.394 18.382c0 3.19.817 6.19 2.256 8.804L0 37.266l10.422-2.534a18.476 18.476 0 008.456 2.033c10.2 0 18.48-8.238 18.48-18.383 0-10.142-8.28-18.381-18.48-18.381zm0 2c9.094 0 16.481 7.338 16.481 16.381 0 9.045-7.387 16.383-16.481 16.383a16.47 16.47 0 01-7.85-1.974l-.338-.182-7.902 1.92 2.003-7.627-.206-.356a16.23 16.23 0 01-2.19-8.164c0-9.043 7.386-16.381 16.483-16.381z"/></svg>