<svg width="59" height="59" viewBox="0 0 59 59" fill="none" xmlns="http://www.w3.org/2000/svg">
<mask id="path-1-inside-1" fill="white">
<path d="M1.05746 29.1405C1.05528 34.1499 2.37088 39.0407 4.87106 43.3534L0.818359 58.0836L15.9614 54.1307C20.1342 56.3946 24.831 57.5891 29.612 57.5902H29.624C45.3675 57.5902 58.1828 44.837 58.1894 29.1623C58.1927 21.5662 55.2241 14.4244 49.8296 9.04989C44.4384 3.67646 37.2665 0.715846 29.624 0.712585C13.8794 0.712585 1.06401 13.4647 1.05746 29.1405ZM29.6251 57.5902C29.624 57.5902 29.624 57.5902 29.6251 57.5902V57.5902Z"/>
</mask>
<path d="M1.05746 29.1405L3.05746 29.1414V29.1414L1.05746 29.1405ZM4.87106 43.3534L6.79941 43.8839L7.0218 43.0756L6.60132 42.3503L4.87106 43.3534ZM0.818359 58.0836L-1.10999 57.5531L-2.02916 60.8939L1.32351 60.0188L0.818359 58.0836ZM15.9614 54.1307L16.9152 52.3728L16.2207 51.996L15.4562 52.1956L15.9614 54.1307ZM29.612 57.5902L29.6115 59.5902H29.612V57.5902ZM58.1894 29.1623L56.1894 29.1614V29.1614L58.1894 29.1623ZM49.8296 9.04989L48.4177 10.4664L48.418 10.4667L49.8296 9.04989ZM29.624 0.712585L29.6248 -1.28741H29.624V0.712585ZM-0.94254 29.1396C-0.944877 34.5011 0.463545 39.7384 3.14079 44.3565L6.60132 42.3503C4.27821 38.3431 3.05543 33.7986 3.05746 29.1414L-0.94254 29.1396ZM2.94271 42.8229L-1.10999 57.5531L2.74671 58.6142L6.79941 43.8839L2.94271 42.8229ZM1.32351 60.0188L16.4665 56.0659L15.4562 52.1956L0.31321 56.1485L1.32351 60.0188ZM15.0076 55.8886C19.4737 58.3117 24.4983 59.589 29.6115 59.5902L29.6124 55.5902C25.1638 55.5892 20.7947 54.4776 16.9152 52.3728L15.0076 55.8886ZM29.612 59.5902H29.624V55.5902H29.612V59.5902ZM29.624 59.5902C46.4634 59.5902 60.1824 45.9504 60.1894 29.1631L56.1894 29.1614C56.1833 43.7236 44.2716 55.5902 29.624 55.5902V59.5902ZM60.1894 29.1631C60.1929 21.0335 57.0115 13.382 51.2412 7.63306L48.418 10.4667C53.4367 15.4668 56.1924 22.0988 56.1894 29.1614L60.1894 29.1631ZM51.2415 7.63335C45.4741 1.88504 37.7943 -1.28393 29.6248 -1.28741L29.6231 2.71259C36.7386 2.71562 43.4026 5.46787 48.4177 10.4664L51.2415 7.63335ZM29.624 -1.28741C12.7836 -1.28741 -0.935524 12.3512 -0.94254 29.1397L3.05746 29.1414C3.06355 14.5782 14.9752 2.71259 29.624 2.71259V-1.28741ZM29.6251 55.5902C29.6251 55.5902 29.6251 55.5902 29.6251 55.5902C29.6251 55.5902 29.6251 55.5902 29.6251 55.5902C29.6251 55.5902 29.625 55.5902 29.625 55.5902C29.625 55.5902 29.625 55.5902 29.625 55.5902C29.625 55.5902 29.625 55.5902 29.625 55.5902C29.625 55.5902 29.625 55.5902 29.625 55.5902C29.625 55.5902 29.625 55.5902 29.625 55.5902C29.625 55.5902 29.625 55.5902 29.625 55.5902C29.625 55.5902 29.625 55.5902 29.625 55.5902C29.625 55.5902 29.625 55.5902 29.625 55.5902C29.625 55.5902 29.625 55.5902 29.625 55.5902C29.625 55.5902 29.625 55.5902 29.625 55.5902C29.625 55.5902 29.625 55.5902 29.625 55.5902C29.625 55.5902 29.625 55.5902 29.625 55.5902C29.625 55.5902 29.625 55.5902 29.625 55.5902C29.625 55.5902 29.625 55.5902 29.625 55.5902C29.625 55.5902 29.625 55.5902 29.625 55.5902C29.625 55.5902 29.625 55.5902 29.625 55.5902C29.625 55.5902 29.625 55.5902 29.6249 55.5902C29.6249 55.5902 29.6249 55.5902 29.6249 55.5902C29.6249 55.5902 29.6249 55.5902 29.6249 55.5902C29.6249 55.5902 29.6249 55.5902 29.6249 55.5902C29.6249 55.5902 29.6249 55.5902 29.6249 55.5902C29.6249 55.5902 29.6249 55.5902 29.6249 55.5902C29.6249 55.5902 29.6249 55.5902 29.6249 55.5902C29.6249 55.5902 29.6249 55.5902 29.6249 55.5902C29.6249 55.5902 29.6249 55.5902 29.6249 55.5902C29.6249 55.5902 29.6249 55.5902 29.6249 55.5902C29.6249 55.5902 29.6249 55.5902 29.6249 55.5902C29.6249 55.5902 29.6249 55.5902 29.6249 55.5902C29.6249 55.5902 29.6249 55.5902 29.6249 55.5902C29.6249 55.5902 29.6249 55.5902 29.6249 55.5902C29.6249 55.5902 29.6249 55.5902 29.6249 55.5902C29.6249 55.5902 29.6249 55.5902 29.6249 55.5902C29.6249 55.5902 29.6249 55.5902 29.6249 55.5902C29.6249 55.5902 29.6249 55.5902 29.6249 55.5902C29.6248 55.5902 29.6248 55.5902 29.6248 55.5902C29.6248 55.5902 29.6248 55.5902 29.6248 55.5902C29.6248 55.5902 29.6248 55.5902 29.6248 55.5902C29.6248 55.5902 29.6248 55.5902 29.6248 55.5902C29.6248 55.5902 29.6248 55.5902 29.6248 55.5902C29.6248 55.5902 29.6248 55.5902 29.6248 55.5902C29.6248 55.5902 29.6248 55.5902 29.6248 55.5902C29.6248 55.5902 29.6248 55.5902 29.6248 55.5902C29.6248 55.5902 29.6248 55.5902 29.6248 55.5902C29.6248 55.5902 29.6248 55.5902 29.6248 55.5902C29.6248 55.5902 29.6248 55.5902 29.6248 55.5902C29.6248 55.5902 29.6248 55.5902 29.6248 55.5902C29.6248 55.5902 29.6248 55.5902 29.6248 55.5902C29.6248 55.5902 29.6248 55.5902 29.6248 55.5902C29.6248 55.5902 29.6248 55.5902 29.6248 55.5902C29.6248 55.5902 29.6248 55.5902 29.6248 55.5902C29.6248 55.5902 29.6248 55.5902 29.6248 55.5902C29.6248 55.5902 29.6248 55.5902 29.6248 55.5902C29.6248 55.5902 29.6248 55.5902 29.6248 55.5902C29.6248 55.5902 29.6247 55.5902 29.6247 55.5902C29.6247 55.5902 29.6247 55.5902 29.6247 55.5902C29.6247 55.5902 29.6247 55.5902 29.6247 55.5902C29.6247 55.5902 29.6247 55.5902 29.6247 55.5902C29.6247 55.5902 29.6247 55.5902 29.6247 55.5902C29.6247 55.5902 29.6247 55.5902 29.6247 55.5902C29.6247 55.5902 29.6247 55.5902 29.6247 55.5902C29.6247 55.5902 29.6247 55.5902 29.6247 55.5902C29.6247 55.5902 29.6247 55.5902 29.6247 55.5902C29.6247 55.5902 29.6247 55.5902 29.6247 55.5902C29.6247 55.5902 29.6247 55.5902 29.6247 55.5902C29.6247 55.5902 29.6247 55.5902 29.6247 55.5902C29.6247 55.5902 29.6247 55.5902 29.6247 55.5902C29.6247 55.5902 29.6247 55.5902 29.6247 55.5902C29.6247 55.5902 29.6247 55.5902 29.6247 55.5902C29.6247 55.5902 29.6247 55.5902 29.6247 55.5902C29.6247 55.5902 29.6247 55.5902 29.6247 55.5902C29.6247 55.5902 29.6247 55.5902 29.6247 55.5902C29.6247 55.5902 29.6247 55.5902 29.6247 55.5902C29.6247 55.5902 29.6247 55.5902 29.6247 55.5902C29.6247 55.5902 29.6247 55.5902 29.6247 55.5902C29.6247 55.5902 29.6246 55.5902 29.6246 55.5902C29.6246 55.5902 29.6246 55.5902 29.6246 55.5902C29.6246 55.5902 29.6246 55.5902 29.6246 55.5902C29.6246 55.5902 29.6246 55.5902 29.6246 55.5902C29.6246 55.5902 29.6246 55.5902 29.6246 55.5902C29.6246 55.5902 29.6246 55.5902 29.6246 55.5902C29.6246 55.5902 29.6246 55.5902 29.6246 55.5902C29.6246 55.5902 29.6246 55.5902 29.6246 55.5902C29.6246 55.5902 29.6246 55.5902 29.6246 55.5902C29.6246 55.5902 29.6246 55.5902 29.6246 55.5902C29.6246 55.5902 29.6246 55.5902 29.6246 55.5902C29.6246 55.5902 29.6246 55.5902 29.6246 55.5902C29.6246 55.5902 29.6246 55.5902 29.6246 55.5902C29.6246 55.5902 29.6246 55.5902 29.6246 55.5902C29.6246 55.5902 29.6246 55.5902 29.6246 55.5902C29.6246 55.5902 29.6246 55.5902 29.6246 55.5902C29.6246 55.5902 29.6246 55.5902 29.6246 55.5902C29.6246 55.5902 29.6246 55.5902 29.6246 55.5902C29.6246 55.5902 29.6246 55.5902 29.6246 55.5902C29.6246 55.5902 29.6246 55.5902 29.6246 55.5902C29.6246 55.5902 29.6246 55.5902 29.6246 55.5902C29.6246 55.5902 29.6246 55.5902 29.6246 55.5902C29.6246 55.5902 29.6246 55.5902 29.6246 55.5902C29.6246 55.5902 29.6246 55.5902 29.6245 55.5902C29.6245 55.5902 29.6245 55.5902 29.6245 55.5902C29.6245 55.5902 29.6245 55.5902 29.6245 55.5902C29.6245 55.5902 29.6245 55.5902 29.6245 55.5902C29.6245 55.5902 29.6245 55.5902 29.6245 55.5902C29.6245 55.5902 29.6245 55.5902 29.6245 55.5902C29.6245 55.5902 29.6245 55.5902 29.6245 55.5902C29.6245 55.5902 29.6245 55.5902 29.6245 55.5902H29.6245C29.6245 55.5902 29.6245 55.5902 29.6245 55.5902C29.6245 55.5902 29.6245 55.5902 29.6245 55.5902C29.6245 55.5902 29.6245 55.5902 29.6245 55.5902C29.6245 55.5902 29.6245 55.5902 29.6245 55.5902C29.6245 55.5902 29.6245 55.5902 29.6245 55.5902C29.6245 55.5902 29.6245 55.5902 29.6245 55.5902C29.6245 55.5902 29.6245 55.5902 29.6245 55.5902C29.6245 55.5902 29.6245 55.5902 29.6245 55.5902H29.6245C29.6245 55.5902 29.6245 55.5902 29.6245 55.5902C29.6245 55.5902 29.6245 55.5902 29.6245 55.5902C29.6245 55.5902 29.6245 55.5902 29.6245 55.5902C29.6245 55.5902 29.6245 55.5902 29.6245 55.5902H29.6245C29.6245 55.5902 29.6245 55.5902 29.6245 55.5902C29.6245 55.5902 29.6245 55.5902 29.6245 55.5902C29.6245 55.5902 29.6245 55.5902 29.6245 55.5902H29.6245C29.6245 55.5902 29.6245 55.5902 29.6245 55.5902C29.6245 55.5902 29.6245 55.5902 29.6245 55.5902H29.6244C29.6244 55.5902 29.6244 55.5902 29.6244 55.5902C29.6244 55.5902 29.6244 55.5902 29.6244 55.5902H29.6244C29.6244 55.5902 29.6244 55.5902 29.6244 55.5902H29.6244C29.6244 55.5902 29.6244 55.5902 29.6244 55.5902C29.6244 55.5902 29.6244 55.5902 29.6244 55.5902H29.6244C29.6244 55.5902 29.6244 55.5902 29.6244 55.5902H29.6244C29.6244 55.5902 29.6244 55.5902 29.6244 55.5902H29.6244C29.6244 55.5902 29.6244 55.5902 29.6244 55.5902H29.6244C29.6244 55.5902 29.6244 55.5902 29.6244 55.5902H29.6244C29.6244 55.5902 29.6244 55.5902 29.6244 55.5902H29.6244C29.6244 55.5902 29.6244 55.5902 29.6244 55.5902C29.6244 55.5902 29.6244 55.5902 29.6244 55.5902H29.6244C29.6244 55.5902 29.6244 55.5902 29.6244 55.5902H29.6244C29.6244 55.5902 29.6244 55.5902 29.6244 55.5902C29.6244 55.5902 29.6244 55.5902 29.6244 55.5902H29.6244C29.6244 55.5902 29.6244 55.5902 29.6244 55.5902C29.6244 55.5902 29.6244 55.5902 29.6244 55.5902H29.6244H29.6244C29.6244 55.5902 29.6244 55.5902 29.6244 55.5902C29.6244 55.5902 29.6244 55.5902 29.6244 55.5902H29.6244H29.6244C29.6244 55.5902 29.6244 55.5902 29.6244 55.5902C29.6244 55.5902 29.6244 55.5902 29.6243 55.5902C29.6243 55.5902 29.6243 55.5902 29.6243 55.5902H29.6243H29.6243C29.6243 55.5902 29.6243 55.5902 29.6243 55.5902C29.6243 55.5902 29.6243 55.5902 29.6243 55.5902C29.6243 55.5902 29.6243 55.5902 29.6243 55.5902C29.6243 55.5902 29.6243 55.5902 29.6243 55.5902C29.6243 55.5902 29.6243 55.5902 29.6243 55.5902H29.6243H29.6243H29.6243H29.6243H29.6243H29.6243H29.6243H29.6243H29.6243H29.6243H29.6243H29.6243H29.6243C29.6243 55.5902 29.6243 55.5902 29.6243 55.5902C29.6243 55.5902 29.6243 55.5902 29.6243 55.5902C29.6243 55.5902 29.6243 55.5902 29.6243 55.5902C29.6243 55.5902 29.6243 55.5902 29.6243 55.5902C29.6243 55.5902 29.6243 55.5902 29.6243 55.5902H29.6243C29.6243 55.5902 29.6243 55.5902 29.6243 55.5902C29.6243 55.5902 29.6243 55.5902 29.6243 55.5902C29.6243 55.5902 29.6243 55.5902 29.6243 55.5902H29.6243C29.6243 55.5902 29.6243 55.5902 29.6243 55.5902C29.6243 55.5902 29.6243 55.5902 29.6243 55.5902H29.6243C29.6243 55.5902 29.6243 55.5902 29.6243 55.5902H29.6243C29.6243 55.5902 29.6243 55.5902 29.6243 55.5902H29.6243C29.6243 55.5902 29.6243 55.5902 29.6243 55.5902C29.6243 55.5902 29.6243 55.5902 29.6243 55.5902H29.6243C29.6243 55.5902 29.6243 55.5902 29.6243 55.5902C29.6243 55.5902 29.6243 55.5902 29.6243 55.5902C29.6243 55.5902 29.6243 55.5902 29.6243 55.5902C29.6243 55.5902 29.6243 55.5902 29.6243 55.5902C29.6243 55.5902 29.6243 55.5902 29.6243 55.5902H29.6243C29.6243 55.5902 29.6243 55.5902 29.6243 55.5902C29.6243 55.5902 29.6243 55.5902 29.6243 55.5902C29.6243 55.5902 29.6243 55.5902 29.6243 55.5902C29.6243 55.5902 29.6243 55.5902 29.6243 55.5902C29.6242 55.5902 29.6242 55.5902 29.6242 55.5902C29.6242 55.5902 29.6242 55.5902 29.6242 55.5902C29.6242 55.5902 29.6242 55.5902 29.6242 57.5902C29.6242 59.5902 29.6242 59.5902 29.6242 59.5902C29.6242 59.5902 29.6242 59.5902 29.6242 59.5902C29.6242 59.5902 29.6242 59.5902 29.6243 59.5902C29.6243 59.5902 29.6243 59.5902 29.6243 59.5902C29.6243 59.5902 29.6243 59.5902 29.6243 59.5902C29.6243 59.5902 29.6243 59.5902 29.6243 59.5902C29.6243 59.5902 29.6243 59.5902 29.6243 59.5902H29.6243C29.6243 59.5902 29.6243 59.5902 29.6243 59.5902C29.6243 59.5902 29.6243 59.5902 29.6243 59.5902C29.6243 59.5902 29.6243 59.5902 29.6243 59.5902C29.6243 59.5902 29.6243 59.5902 29.6243 59.5902C29.6243 59.5902 29.6243 59.5902 29.6243 59.5902H29.6243C29.6243 59.5902 29.6243 59.5902 29.6243 59.5902C29.6243 59.5902 29.6243 59.5902 29.6243 59.5902H29.6243C29.6243 59.5902 29.6243 59.5902 29.6243 59.5902H29.6243C29.6243 59.5902 29.6243 59.5902 29.6243 59.5902H29.6243C29.6243 59.5902 29.6243 59.5902 29.6243 59.5902C29.6243 59.5902 29.6243 59.5902 29.6243 59.5902H29.6243C29.6243 59.5902 29.6243 59.5902 29.6243 59.5902C29.6243 59.5902 29.6243 59.5902 29.6243 59.5902C29.6243 59.5902 29.6243 59.5902 29.6243 59.5902H29.6243C29.6243 59.5902 29.6243 59.5902 29.6243 59.5902C29.6243 59.5902 29.6243 59.5902 29.6243 59.5902C29.6243 59.5902 29.6243 59.5902 29.6243 59.5902C29.6243 59.5902 29.6243 59.5902 29.6243 59.5902C29.6243 59.5902 29.6243 59.5902 29.6243 59.5902H29.6243H29.6243H29.6243H29.6243H29.6243H29.6243H29.6243H29.6243H29.6243H29.6243H29.6243H29.6243H29.6243C29.6243 59.5902 29.6243 59.5902 29.6243 59.5902C29.6243 59.5902 29.6243 59.5902 29.6243 59.5902C29.6243 59.5902 29.6243 59.5902 29.6243 59.5902C29.6243 59.5902 29.6243 59.5902 29.6243 59.5902C29.6243 59.5902 29.6243 59.5902 29.6243 59.5902H29.6243H29.6243C29.6243 59.5902 29.6243 59.5902 29.6243 59.5902C29.6244 59.5902 29.6244 59.5902 29.6244 59.5902C29.6244 59.5902 29.6244 59.5902 29.6244 59.5902H29.6244H29.6244C29.6244 59.5902 29.6244 59.5902 29.6244 59.5902C29.6244 59.5902 29.6244 59.5902 29.6244 59.5902H29.6244H29.6244C29.6244 59.5902 29.6244 59.5902 29.6244 59.5902C29.6244 59.5902 29.6244 59.5902 29.6244 59.5902H29.6244C29.6244 59.5902 29.6244 59.5902 29.6244 59.5902C29.6244 59.5902 29.6244 59.5902 29.6244 59.5902H29.6244C29.6244 59.5902 29.6244 59.5902 29.6244 59.5902H29.6244C29.6244 59.5902 29.6244 59.5902 29.6244 59.5902C29.6244 59.5902 29.6244 59.5902 29.6244 59.5902H29.6244C29.6244 59.5902 29.6244 59.5902 29.6244 59.5902H29.6244C29.6244 59.5902 29.6244 59.5902 29.6244 59.5902H29.6244C29.6244 59.5902 29.6244 59.5902 29.6244 59.5902H29.6244C29.6244 59.5902 29.6244 59.5902 29.6244 59.5902H29.6244C29.6244 59.5902 29.6244 59.5902 29.6244 59.5902H29.6244C29.6244 59.5902 29.6244 59.5902 29.6244 59.5902C29.6244 59.5902 29.6244 59.5902 29.6244 59.5902H29.6244C29.6244 59.5902 29.6244 59.5902 29.6244 59.5902H29.6244C29.6244 59.5902 29.6244 59.5902 29.6244 59.5902C29.6244 59.5902 29.6244 59.5902 29.6244 59.5902H29.6245C29.6245 59.5902 29.6245 59.5902 29.6245 59.5902C29.6245 59.5902 29.6245 59.5902 29.6245 59.5902H29.6245C29.6245 59.5902 29.6245 59.5902 29.6245 59.5902C29.6245 59.5902 29.6245 59.5902 29.6245 59.5902C29.6245 59.5902 29.6245 59.5902 29.6245 59.5902H29.6245C29.6245 59.5902 29.6245 59.5902 29.6245 59.5902C29.6245 59.5902 29.6245 59.5902 29.6245 59.5902C29.6245 59.5902 29.6245 59.5902 29.6245 59.5902C29.6245 59.5902 29.6245 59.5902 29.6245 59.5902H29.6245C29.6245 59.5902 29.6245 59.5902 29.6245 59.5902C29.6245 59.5902 29.6245 59.5902 29.6245 59.5902C29.6245 59.5902 29.6245 59.5902 29.6245 59.5902C29.6245 59.5902 29.6245 59.5902 29.6245 59.5902C29.6245 59.5902 29.6245 59.5902 29.6245 59.5902C29.6245 59.5902 29.6245 59.5902 29.6245 59.5902C29.6245 59.5902 29.6245 59.5902 29.6245 59.5902C29.6245 59.5902 29.6245 59.5902 29.6245 59.5902H29.6245C29.6245 59.5902 29.6245 59.5902 29.6245 59.5902C29.6245 59.5902 29.6245 59.5902 29.6245 59.5902C29.6245 59.5902 29.6245 59.5902 29.6245 59.5902C29.6245 59.5902 29.6245 59.5902 29.6245 59.5902C29.6245 59.5902 29.6245 59.5902 29.6245 59.5902C29.6245 59.5902 29.6245 59.5902 29.6245 59.5902C29.6245 59.5902 29.6245 59.5902 29.6245 59.5902C29.6246 59.5902 29.6246 59.5902 29.6246 59.5902C29.6246 59.5902 29.6246 59.5902 29.6246 59.5902C29.6246 59.5902 29.6246 59.5902 29.6246 59.5902C29.6246 59.5902 29.6246 59.5902 29.6246 59.5902C29.6246 59.5902 29.6246 59.5902 29.6246 59.5902C29.6246 59.5902 29.6246 59.5902 29.6246 59.5902C29.6246 59.5902 29.6246 59.5902 29.6246 59.5902C29.6246 59.5902 29.6246 59.5902 29.6246 59.5902C29.6246 59.5902 29.6246 59.5902 29.6246 59.5902C29.6246 59.5902 29.6246 59.5902 29.6246 59.5902C29.6246 59.5902 29.6246 59.5902 29.6246 59.5902C29.6246 59.5902 29.6246 59.5902 29.6246 59.5902C29.6246 59.5902 29.6246 59.5902 29.6246 59.5902C29.6246 59.5902 29.6246 59.5902 29.6246 59.5902C29.6246 59.5902 29.6246 59.5902 29.6246 59.5902C29.6246 59.5902 29.6246 59.5902 29.6246 59.5902C29.6246 59.5902 29.6246 59.5902 29.6246 59.5902C29.6246 59.5902 29.6246 59.5902 29.6246 59.5902C29.6246 59.5902 29.6246 59.5902 29.6246 59.5902C29.6246 59.5902 29.6246 59.5902 29.6246 59.5902C29.6246 59.5902 29.6246 59.5902 29.6246 59.5902C29.6246 59.5902 29.6246 59.5902 29.6246 59.5902C29.6246 59.5902 29.6246 59.5902 29.6246 59.5902C29.6246 59.5902 29.6247 59.5902 29.6247 59.5902C29.6247 59.5902 29.6247 59.5902 29.6247 59.5902C29.6247 59.5902 29.6247 59.5902 29.6247 59.5902C29.6247 59.5902 29.6247 59.5902 29.6247 59.5902C29.6247 59.5902 29.6247 59.5902 29.6247 59.5902C29.6247 59.5902 29.6247 59.5902 29.6247 59.5902C29.6247 59.5902 29.6247 59.5902 29.6247 59.5902C29.6247 59.5902 29.6247 59.5902 29.6247 59.5902C29.6247 59.5902 29.6247 59.5902 29.6247 59.5902C29.6247 59.5902 29.6247 59.5902 29.6247 59.5902C29.6247 59.5902 29.6247 59.5902 29.6247 59.5902C29.6247 59.5902 29.6247 59.5902 29.6247 59.5902C29.6247 59.5902 29.6247 59.5902 29.6247 59.5902C29.6247 59.5902 29.6247 59.5902 29.6247 59.5902C29.6247 59.5902 29.6247 59.5902 29.6247 59.5902C29.6247 59.5902 29.6247 59.5902 29.6247 59.5902C29.6247 59.5902 29.6247 59.5902 29.6247 59.5902C29.6247 59.5902 29.6247 59.5902 29.6247 59.5902C29.6247 59.5902 29.6247 59.5902 29.6247 59.5902C29.6247 59.5902 29.6247 59.5902 29.6247 59.5902C29.6247 59.5902 29.6247 59.5902 29.6247 59.5902C29.6247 59.5902 29.6248 59.5902 29.6248 59.5902C29.6248 59.5902 29.6248 59.5902 29.6248 59.5902C29.6248 59.5902 29.6248 59.5902 29.6248 59.5902C29.6248 59.5902 29.6248 59.5902 29.6248 59.5902C29.6248 59.5902 29.6248 59.5902 29.6248 59.5902C29.6248 59.5902 29.6248 59.5902 29.6248 59.5902C29.6248 59.5902 29.6248 59.5902 29.6248 59.5902C29.6248 59.5902 29.6248 59.5902 29.6248 59.5902C29.6248 59.5902 29.6248 59.5902 29.6248 59.5902C29.6248 59.5902 29.6248 59.5902 29.6248 59.5902C29.6248 59.5902 29.6248 59.5902 29.6248 59.5902C29.6248 59.5902 29.6248 59.5902 29.6248 59.5902C29.6248 59.5902 29.6248 59.5902 29.6248 59.5902C29.6248 59.5902 29.6248 59.5902 29.6248 59.5902C29.6248 59.5902 29.6248 59.5902 29.6248 59.5902C29.6248 59.5902 29.6248 59.5902 29.6248 59.5902C29.6248 59.5902 29.6248 59.5902 29.6248 59.5902C29.6248 59.5902 29.6248 59.5902 29.6248 59.5902C29.6248 59.5902 29.6248 59.5902 29.6248 59.5902C29.6248 59.5902 29.6248 59.5902 29.6249 59.5902C29.6249 59.5902 29.6249 59.5902 29.6249 59.5902C29.6249 59.5902 29.6249 59.5902 29.6249 59.5902C29.6249 59.5902 29.6249 59.5902 29.6249 59.5902C29.6249 59.5902 29.6249 59.5902 29.6249 59.5902C29.6249 59.5902 29.6249 59.5902 29.6249 59.5902C29.6249 59.5902 29.6249 59.5902 29.6249 59.5902C29.6249 59.5902 29.6249 59.5902 29.6249 59.5902C29.6249 59.5902 29.6249 59.5902 29.6249 59.5902C29.6249 59.5902 29.6249 59.5902 29.6249 59.5902C29.6249 59.5902 29.6249 59.5902 29.6249 59.5902C29.6249 59.5902 29.6249 59.5902 29.6249 59.5902C29.6249 59.5902 29.6249 59.5902 29.6249 59.5902C29.6249 59.5902 29.6249 59.5902 29.6249 59.5902C29.6249 59.5902 29.6249 59.5902 29.6249 59.5902C29.6249 59.5902 29.6249 59.5902 29.6249 59.5902C29.6249 59.5902 29.6249 59.5902 29.6249 59.5902C29.6249 59.5902 29.6249 59.5902 29.6249 59.5902C29.625 59.5902 29.625 59.5902 29.625 59.5902C29.625 59.5902 29.625 59.5902 29.625 59.5902C29.625 59.5902 29.625 59.5902 29.625 59.5902C29.625 59.5902 29.625 59.5902 29.625 59.5902C29.625 59.5902 29.625 59.5902 29.625 59.5902C29.625 59.5902 29.625 59.5902 29.625 59.5902C29.625 59.5902 29.625 59.5902 29.625 59.5902C29.625 59.5902 29.625 59.5902 29.625 59.5902C29.625 59.5902 29.625 59.5902 29.625 59.5902C29.625 59.5902 29.625 59.5902 29.625 59.5902C29.625 59.5902 29.625 59.5902 29.625 59.5902C29.625 59.5902 29.625 59.5902 29.625 59.5902C29.625 59.5902 29.625 59.5902 29.625 59.5902C29.625 59.5902 29.625 59.5902 29.625 59.5902C29.625 59.5902 29.625 59.5902 29.625 59.5902C29.625 59.5902 29.625 59.5902 29.625 59.5902C29.625 59.5902 29.6251 59.5902 29.6251 59.5902C29.6251 59.5902 29.6251 59.5902 29.6251 59.5902C29.6251 59.5902 29.6251 59.5902 29.6251 59.5902V55.5902C29.6251 55.5902 29.6251 55.5902 29.6251 55.5902C29.6251 55.5902 29.6251 55.5902 29.6251 55.5902C29.6251 55.5902 29.625 55.5902 29.625 55.5902C29.625 55.5902 29.625 55.5902 29.625 55.5902C29.625 55.5902 29.625 55.5902 29.625 55.5902C29.625 55.5902 29.625 55.5902 29.625 55.5902C29.625 55.5902 29.625 55.5902 29.625 55.5902C29.625 55.5902 29.625 55.5902 29.625 55.5902C29.625 55.5902 29.625 55.5902 29.625 55.5902C29.625 55.5902 29.625 55.5902 29.625 55.5902C29.625 55.5902 29.625 55.5902 29.625 55.5902C29.625 55.5902 29.625 55.5902 29.625 55.5902C29.625 55.5902 29.625 55.5902 29.625 55.5902C29.625 55.5902 29.625 55.5902 29.625 55.5902C29.625 55.5902 29.625 55.5902 29.625 55.5902C29.625 55.5902 29.625 55.5902 29.625 55.5902C29.625 55.5902 29.625 55.5902 29.625 55.5902C29.625 55.5902 29.625 55.5902 29.625 55.5902C29.625 55.5902 29.625 55.5902 29.6249 55.5902C29.6249 55.5902 29.6249 55.5902 29.6249 55.5902C29.6249 55.5902 29.6249 55.5902 29.6249 55.5902C29.6249 55.5902 29.6249 55.5902 29.6249 55.5902C29.6249 55.5902 29.6249 55.5902 29.6249 55.5902C29.6249 55.5902 29.6249 55.5902 29.6249 55.5902C29.6249 55.5902 29.6249 55.5902 29.6249 55.5902C29.6249 55.5902 29.6249 55.5902 29.6249 55.5902C29.6249 55.5902 29.6249 55.5902 29.6249 55.5902C29.6249 55.5902 29.6249 55.5902 29.6249 55.5902C29.6249 55.5902 29.6249 55.5902 29.6249 55.5902C29.6249 55.5902 29.6249 55.5902 29.6249 55.5902C29.6249 55.5902 29.6249 55.5902 29.6249 55.5902C29.6249 55.5902 29.6249 55.5902 29.6249 55.5902C29.6249 55.5902 29.6249 55.5902 29.6249 55.5902C29.6249 55.5902 29.6249 55.5902 29.6249 55.5902C29.6249 55.5902 29.6249 55.5902 29.6249 55.5902C29.6249 55.5902 29.6249 55.5902 29.6249 55.5902C29.6248 55.5902 29.6248 55.5902 29.6248 55.5902C29.6248 55.5902 29.6248 55.5902 29.6248 55.5902C29.6248 55.5902 29.6248 55.5902 29.6248 55.5902C29.6248 55.5902 29.6248 55.5902 29.6248 55.5902C29.6248 55.5902 29.6248 55.5902 29.6248 55.5902C29.6248 55.5902 29.6248 55.5902 29.6248 55.5902C29.6248 55.5902 29.6248 55.5902 29.6248 55.5902C29.6248 55.5902 29.6248 55.5902 29.6248 55.5902C29.6248 55.5902 29.6248 55.5902 29.6248 55.5902C29.6248 55.5902 29.6248 55.5902 29.6248 55.5902C29.6248 55.5902 29.6248 55.5902 29.6248 55.5902C29.6248 55.5902 29.6248 55.5902 29.6248 55.5902C29.6248 55.5902 29.6248 55.5902 29.6248 55.5902C29.6248 55.5902 29.6248 55.5902 29.6248 55.5902C29.6248 55.5902 29.6248 55.5902 29.6248 55.5902C29.6248 55.5902 29.6248 55.5902 29.6248 55.5902C29.6248 55.5902 29.6248 55.5902 29.6248 55.5902C29.6248 55.5902 29.6248 55.5902 29.6248 55.5902C29.6248 55.5902 29.6248 55.5902 29.6248 55.5902C29.6248 55.5902 29.6247 55.5902 29.6247 55.5902C29.6247 55.5902 29.6247 55.5902 29.6247 55.5902C29.6247 55.5902 29.6247 55.5902 29.6247 55.5902C29.6247 55.5902 29.6247 55.5902 29.6247 55.5902C29.6247 55.5902 29.6247 55.5902 29.6247 55.5902C29.6247 55.5902 29.6247 55.5902 29.6247 55.5902C29.6247 55.5902 29.6247 55.5902 29.6247 55.5902C29.6247 55.5902 29.6247 55.5902 29.6247 55.5902C29.6247 55.5902 29.6247 55.5902 29.6247 55.5902C29.6247 55.5902 29.6247 55.5902 29.6247 55.5902C29.6247 55.5902 29.6247 55.5902 29.6247 55.5902C29.6247 55.5902 29.6247 55.5902 29.6247 55.5902C29.6247 55.5902 29.6247 55.5902 29.6247 55.5902C29.6247 55.5902 29.6247 55.5902 29.6247 55.5902C29.6247 55.5902 29.6247 55.5902 29.6247 55.5902C29.6247 55.5902 29.6247 55.5902 29.6247 55.5902C29.6247 55.5902 29.6247 55.5902 29.6247 55.5902C29.6247 55.5902 29.6247 55.5902 29.6247 55.5902C29.6247 55.5902 29.6247 55.5902 29.6247 55.5902C29.6247 55.5902 29.6247 55.5902 29.6247 55.5902C29.6247 55.5902 29.6247 55.5902 29.6247 55.5902C29.6247 55.5902 29.6246 55.5902 29.6246 55.5902C29.6246 55.5902 29.6246 55.5902 29.6246 55.5902C29.6246 55.5902 29.6246 55.5902 29.6246 55.5902C29.6246 55.5902 29.6246 55.5902 29.6246 55.5902C29.6246 55.5902 29.6246 55.5902 29.6246 55.5902C29.6246 55.5902 29.6246 55.5902 29.6246 55.5902C29.6246 55.5902 29.6246 55.5902 29.6246 55.5902C29.6246 55.5902 29.6246 55.5902 29.6246 55.5902C29.6246 55.5902 29.6246 55.5902 29.6246 55.5902C29.6246 55.5902 29.6246 55.5902 29.6246 55.5902C29.6246 55.5902 29.6246 55.5902 29.6246 55.5902C29.6246 55.5902 29.6246 55.5902 29.6246 55.5902C29.6246 55.5902 29.6246 55.5902 29.6246 55.5902C29.6246 55.5902 29.6246 55.5902 29.6246 55.5902C29.6246 55.5902 29.6246 55.5902 29.6246 55.5902C29.6246 55.5902 29.6246 55.5902 29.6246 55.5902C29.6246 55.5902 29.6246 55.5902 29.6246 55.5902C29.6246 55.5902 29.6246 55.5902 29.6246 55.5902C29.6246 55.5902 29.6246 55.5902 29.6246 55.5902C29.6246 55.5902 29.6246 55.5902 29.6246 55.5902C29.6246 55.5902 29.6246 55.5902 29.6246 55.5902C29.6246 55.5902 29.6246 55.5902 29.6246 55.5902C29.6246 55.5902 29.6246 55.5902 29.6246 55.5902C29.6246 55.5902 29.6246 55.5902 29.6245 55.5902C29.6245 55.5902 29.6245 55.5902 29.6245 55.5902C29.6245 55.5902 29.6245 55.5902 29.6245 55.5902C29.6245 55.5902 29.6245 55.5902 29.6245 55.5902C29.6245 55.5902 29.6245 55.5902 29.6245 55.5902C29.6245 55.5902 29.6245 55.5902 29.6245 55.5902C29.6245 55.5902 29.6245 55.5902 29.6245 55.5902C29.6245 55.5902 29.6245 55.5902 29.6245 55.5902H29.6245C29.6245 55.5902 29.6245 55.5902 29.6245 55.5902C29.6245 55.5902 29.6245 55.5902 29.6245 55.5902C29.6245 55.5902 29.6245 55.5902 29.6245 55.5902C29.6245 55.5902 29.6245 55.5902 29.6245 55.5902C29.6245 55.5902 29.6245 55.5902 29.6245 55.5902C29.6245 55.5902 29.6245 55.5902 29.6245 55.5902C29.6245 55.5902 29.6245 55.5902 29.6245 55.5902C29.6245 55.5902 29.6245 55.5902 29.6245 55.5902H29.6245C29.6245 55.5902 29.6245 55.5902 29.6245 55.5902C29.6245 55.5902 29.6245 55.5902 29.6245 55.5902C29.6245 55.5902 29.6245 55.5902 29.6245 55.5902C29.6245 55.5902 29.6245 55.5902 29.6245 55.5902H29.6245C29.6245 55.5902 29.6245 55.5902 29.6245 55.5902C29.6245 55.5902 29.6245 55.5902 29.6245 55.5902C29.6245 55.5902 29.6245 55.5902 29.6245 55.5902H29.6245C29.6245 55.5902 29.6245 55.5902 29.6245 55.5902C29.6245 55.5902 29.6245 55.5902 29.6245 55.5902H29.6244C29.6244 55.5902 29.6244 55.5902 29.6244 55.5902C29.6244 55.5902 29.6244 55.5902 29.6244 55.5902H29.6244C29.6244 55.5902 29.6244 55.5902 29.6244 55.5902H29.6244C29.6244 55.5902 29.6244 55.5902 29.6244 55.5902C29.6244 55.5902 29.6244 55.5902 29.6244 55.5902H29.6244C29.6244 55.5902 29.6244 55.5902 29.6244 55.5902H29.6244C29.6244 55.5902 29.6244 55.5902 29.6244 55.5902H29.6244C29.6244 55.5902 29.6244 55.5902 29.6244 55.5902H29.6244C29.6244 55.5902 29.6244 55.5902 29.6244 55.5902H29.6244C29.6244 55.5902 29.6244 55.5902 29.6244 55.5902H29.6244C29.6244 55.5902 29.6244 55.5902 29.6244 55.5902C29.6244 55.5902 29.6244 55.5902 29.6244 55.5902H29.6244C29.6244 55.5902 29.6244 55.5902 29.6244 55.5902H29.6244C29.6244 55.5902 29.6244 55.5902 29.6244 55.5902C29.6244 55.5902 29.6244 55.5902 29.6244 55.5902H29.6244C29.6244 55.5902 29.6244 55.5902 29.6244 55.5902C29.6244 55.5902 29.6244 55.5902 29.6244 55.5902H29.6244H29.6244C29.6244 55.5902 29.6244 55.5902 29.6244 55.5902C29.6244 55.5902 29.6244 55.5902 29.6244 55.5902H29.6244H29.6244C29.6244 55.5902 29.6244 55.5902 29.6244 55.5902C29.6244 55.5902 29.6244 55.5902 29.6243 55.5902C29.6243 55.5902 29.6243 55.5902 29.6243 55.5902H29.6243H29.6243C29.6243 55.5902 29.6243 55.5902 29.6243 55.5902C29.6243 55.5902 29.6243 55.5902 29.6243 55.5902C29.6243 55.5902 29.6243 55.5902 29.6243 55.5902C29.6243 55.5902 29.6243 55.5902 29.6243 55.5902C29.6243 55.5902 29.6243 55.5902 29.6243 55.5902H29.6243H29.6243H29.6243H29.6243H29.6243H29.6243H29.6243H29.6243H29.6243H29.6243H29.6243H29.6243H29.6243C29.6243 55.5902 29.6243 55.5902 29.6243 55.5902C29.6243 55.5902 29.6243 55.5902 29.6243 55.5902C29.6243 55.5902 29.6243 55.5902 29.6243 55.5902C29.6243 55.5902 29.6243 55.5902 29.6243 55.5902C29.6243 55.5902 29.6243 55.5902 29.6243 55.5902H29.6243C29.6243 55.5902 29.6243 55.5902 29.6243 55.5902C29.6243 55.5902 29.6243 55.5902 29.6243 55.5902C29.6243 55.5902 29.6243 55.5902 29.6243 55.5902H29.6243C29.6243 55.5902 29.6243 55.5902 29.6243 55.5902C29.6243 55.5902 29.6243 55.5902 29.6243 55.5902H29.6243C29.6243 55.5902 29.6243 55.5902 29.6243 55.5902H29.6243C29.6243 55.5902 29.6243 55.5902 29.6243 55.5902H29.6243C29.6243 55.5902 29.6243 55.5902 29.6243 55.5902C29.6243 55.5902 29.6243 55.5902 29.6243 55.5902H29.6243C29.6243 55.5902 29.6243 55.5902 29.6243 55.5902C29.6243 55.5902 29.6243 55.5902 29.6243 55.5902C29.6243 55.5902 29.6243 55.5902 29.6243 55.5902C29.6243 55.5902 29.6243 55.5902 29.6243 55.5902C29.6243 55.5902 29.6243 55.5902 29.6243 55.5902H29.6243C29.6243 55.5902 29.6243 55.5902 29.6243 55.5902C29.6243 55.5902 29.6243 55.5902 29.6243 55.5902C29.6243 55.5902 29.6243 55.5902 29.6243 55.5902C29.6243 55.5902 29.6243 55.5902 29.6243 55.5902C29.6242 55.5902 29.6242 55.5902 29.6242 55.5902C29.6242 55.5902 29.6242 55.5902 29.6242 55.5902C29.6242 55.5902 29.6242 55.5902 29.6242 57.5902C29.6242 59.5902 29.6242 59.5902 29.6242 59.5902C29.6242 59.5902 29.6242 59.5902 29.6242 59.5902C29.6242 59.5902 29.6242 59.5902 29.6243 59.5902C29.6243 59.5902 29.6243 59.5902 29.6243 59.5902C29.6243 59.5902 29.6243 59.5902 29.6243 59.5902C29.6243 59.5902 29.6243 59.5902 29.6243 59.5902C29.6243 59.5902 29.6243 59.5902 29.6243 59.5902H29.6243C29.6243 59.5902 29.6243 59.5902 29.6243 59.5902C29.6243 59.5902 29.6243 59.5902 29.6243 59.5902C29.6243 59.5902 29.6243 59.5902 29.6243 59.5902C29.6243 59.5902 29.6243 59.5902 29.6243 59.5902C29.6243 59.5902 29.6243 59.5902 29.6243 59.5902H29.6243C29.6243 59.5902 29.6243 59.5902 29.6243 59.5902C29.6243 59.5902 29.6243 59.5902 29.6243 59.5902H29.6243C29.6243 59.5902 29.6243 59.5902 29.6243 59.5902H29.6243C29.6243 59.5902 29.6243 59.5902 29.6243 59.5902H29.6243C29.6243 59.5902 29.6243 59.5902 29.6243 59.5902C29.6243 59.5902 29.6243 59.5902 29.6243 59.5902H29.6243C29.6243 59.5902 29.6243 59.5902 29.6243 59.5902C29.6243 59.5902 29.6243 59.5902 29.6243 59.5902C29.6243 59.5902 29.6243 59.5902 29.6243 59.5902H29.6243C29.6243 59.5902 29.6243 59.5902 29.6243 59.5902C29.6243 59.5902 29.6243 59.5902 29.6243 59.5902C29.6243 59.5902 29.6243 59.5902 29.6243 59.5902C29.6243 59.5902 29.6243 59.5902 29.6243 59.5902C29.6243 59.5902 29.6243 59.5902 29.6243 59.5902H29.6243H29.6243H29.6243H29.6243H29.6243H29.6243H29.6243H29.6243H29.6243H29.6243H29.6243H29.6243H29.6243C29.6243 59.5902 29.6243 59.5902 29.6243 59.5902C29.6243 59.5902 29.6243 59.5902 29.6243 59.5902C29.6243 59.5902 29.6243 59.5902 29.6243 59.5902C29.6243 59.5902 29.6243 59.5902 29.6243 59.5902C29.6243 59.5902 29.6243 59.5902 29.6243 59.5902H29.6243H29.6243C29.6243 59.5902 29.6243 59.5902 29.6243 59.5902C29.6244 59.5902 29.6244 59.5902 29.6244 59.5902C29.6244 59.5902 29.6244 59.5902 29.6244 59.5902H29.6244H29.6244C29.6244 59.5902 29.6244 59.5902 29.6244 59.5902C29.6244 59.5902 29.6244 59.5902 29.6244 59.5902H29.6244H29.6244C29.6244 59.5902 29.6244 59.5902 29.6244 59.5902C29.6244 59.5902 29.6244 59.5902 29.6244 59.5902H29.6244C29.6244 59.5902 29.6244 59.5902 29.6244 59.5902C29.6244 59.5902 29.6244 59.5902 29.6244 59.5902H29.6244C29.6244 59.5902 29.6244 59.5902 29.6244 59.5902H29.6244C29.6244 59.5902 29.6244 59.5902 29.6244 59.5902C29.6244 59.5902 29.6244 59.5902 29.6244 59.5902H29.6244C29.6244 59.5902 29.6244 59.5902 29.6244 59.5902H29.6244C29.6244 59.5902 29.6244 59.5902 29.6244 59.5902H29.6244C29.6244 59.5902 29.6244 59.5902 29.6244 59.5902H29.6244C29.6244 59.5902 29.6244 59.5902 29.6244 59.5902H29.6244C29.6244 59.5902 29.6244 59.5902 29.6244 59.5902H29.6244C29.6244 59.5902 29.6244 59.5902 29.6244 59.5902C29.6244 59.5902 29.6244 59.5902 29.6244 59.5902H29.6244C29.6244 59.5902 29.6244 59.5902 29.6244 59.5902H29.6244C29.6244 59.5902 29.6244 59.5902 29.6244 59.5902C29.6244 59.5902 29.6244 59.5902 29.6244 59.5902H29.6245C29.6245 59.5902 29.6245 59.5902 29.6245 59.5902C29.6245 59.5902 29.6245 59.5902 29.6245 59.5902H29.6245C29.6245 59.5902 29.6245 59.5902 29.6245 59.5902C29.6245 59.5902 29.6245 59.5902 29.6245 59.5902C29.6245 59.5902 29.6245 59.5902 29.6245 59.5902H29.6245C29.6245 59.5902 29.6245 59.5902 29.6245 59.5902C29.6245 59.5902 29.6245 59.5902 29.6245 59.5902C29.6245 59.5902 29.6245 59.5902 29.6245 59.5902C29.6245 59.5902 29.6245 59.5902 29.6245 59.5902H29.6245C29.6245 59.5902 29.6245 59.5902 29.6245 59.5902C29.6245 59.5902 29.6245 59.5902 29.6245 59.5902C29.6245 59.5902 29.6245 59.5902 29.6245 59.5902C29.6245 59.5902 29.6245 59.5902 29.6245 59.5902C29.6245 59.5902 29.6245 59.5902 29.6245 59.5902C29.6245 59.5902 29.6245 59.5902 29.6245 59.5902C29.6245 59.5902 29.6245 59.5902 29.6245 59.5902C29.6245 59.5902 29.6245 59.5902 29.6245 59.5902H29.6245C29.6245 59.5902 29.6245 59.5902 29.6245 59.5902C29.6245 59.5902 29.6245 59.5902 29.6245 59.5902C29.6245 59.5902 29.6245 59.5902 29.6245 59.5902C29.6245 59.5902 29.6245 59.5902 29.6245 59.5902C29.6245 59.5902 29.6245 59.5902 29.6245 59.5902C29.6245 59.5902 29.6245 59.5902 29.6245 59.5902C29.6245 59.5902 29.6245 59.5902 29.6245 59.5902C29.6246 59.5902 29.6246 59.5902 29.6246 59.5902C29.6246 59.5902 29.6246 59.5902 29.6246 59.5902C29.6246 59.5902 29.6246 59.5902 29.6246 59.5902C29.6246 59.5902 29.6246 59.5902 29.6246 59.5902C29.6246 59.5902 29.6246 59.5902 29.6246 59.5902C29.6246 59.5902 29.6246 59.5902 29.6246 59.5902C29.6246 59.5902 29.6246 59.5902 29.6246 59.5902C29.6246 59.5902 29.6246 59.5902 29.6246 59.5902C29.6246 59.5902 29.6246 59.5902 29.6246 59.5902C29.6246 59.5902 29.6246 59.5902 29.6246 59.5902C29.6246 59.5902 29.6246 59.5902 29.6246 59.5902C29.6246 59.5902 29.6246 59.5902 29.6246 59.5902C29.6246 59.5902 29.6246 59.5902 29.6246 59.5902C29.6246 59.5902 29.6246 59.5902 29.6246 59.5902C29.6246 59.5902 29.6246 59.5902 29.6246 59.5902C29.6246 59.5902 29.6246 59.5902 29.6246 59.5902C29.6246 59.5902 29.6246 59.5902 29.6246 59.5902C29.6246 59.5902 29.6246 59.5902 29.6246 59.5902C29.6246 59.5902 29.6246 59.5902 29.6246 59.5902C29.6246 59.5902 29.6246 59.5902 29.6246 59.5902C29.6246 59.5902 29.6246 59.5902 29.6246 59.5902C29.6246 59.5902 29.6246 59.5902 29.6246 59.5902C29.6246 59.5902 29.6246 59.5902 29.6246 59.5902C29.6246 59.5902 29.6247 59.5902 29.6247 59.5902C29.6247 59.5902 29.6247 59.5902 29.6247 59.5902C29.6247 59.5902 29.6247 59.5902 29.6247 59.5902C29.6247 59.5902 29.6247 59.5902 29.6247 59.5902C29.6247 59.5902 29.6247 59.5902 29.6247 59.5902C29.6247 59.5902 29.6247 59.5902 29.6247 59.5902C29.6247 59.5902 29.6247 59.5902 29.6247 59.5902C29.6247 59.5902 29.6247 59.5902 29.6247 59.5902C29.6247 59.5902 29.6247 59.5902 29.6247 59.5902C29.6247 59.5902 29.6247 59.5902 29.6247 59.5902C29.6247 59.5902 29.6247 59.5902 29.6247 59.5902C29.6247 59.5902 29.6247 59.5902 29.6247 59.5902C29.6247 59.5902 29.6247 59.5902 29.6247 59.5902C29.6247 59.5902 29.6247 59.5902 29.6247 59.5902C29.6247 59.5902 29.6247 59.5902 29.6247 59.5902C29.6247 59.5902 29.6247 59.5902 29.6247 59.5902C29.6247 59.5902 29.6247 59.5902 29.6247 59.5902C29.6247 59.5902 29.6247 59.5902 29.6247 59.5902C29.6247 59.5902 29.6247 59.5902 29.6247 59.5902C29.6247 59.5902 29.6247 59.5902 29.6247 59.5902C29.6247 59.5902 29.6247 59.5902 29.6247 59.5902C29.6247 59.5902 29.6248 59.5902 29.6248 59.5902C29.6248 59.5902 29.6248 59.5902 29.6248 59.5902C29.6248 59.5902 29.6248 59.5902 29.6248 59.5902C29.6248 59.5902 29.6248 59.5902 29.6248 59.5902C29.6248 59.5902 29.6248 59.5902 29.6248 59.5902C29.6248 59.5902 29.6248 59.5902 29.6248 59.5902C29.6248 59.5902 29.6248 59.5902 29.6248 59.5902C29.6248 59.5902 29.6248 59.5902 29.6248 59.5902C29.6248 59.5902 29.6248 59.5902 29.6248 59.5902C29.6248 59.5902 29.6248 59.5902 29.6248 59.5902C29.6248 59.5902 29.6248 59.5902 29.6248 59.5902C29.6248 59.5902 29.6248 59.5902 29.6248 59.5902C29.6248 59.5902 29.6248 59.5902 29.6248 59.5902C29.6248 59.5902 29.6248 59.5902 29.6248 59.5902C29.6248 59.5902 29.6248 59.5902 29.6248 59.5902C29.6248 59.5902 29.6248 59.5902 29.6248 59.5902C29.6248 59.5902 29.6248 59.5902 29.6248 59.5902C29.6248 59.5902 29.6248 59.5902 29.6248 59.5902C29.6248 59.5902 29.6248 59.5902 29.6248 59.5902C29.6248 59.5902 29.6248 59.5902 29.6249 59.5902C29.6249 59.5902 29.6249 59.5902 29.6249 59.5902C29.6249 59.5902 29.6249 59.5902 29.6249 59.5902C29.6249 59.5902 29.6249 59.5902 29.6249 59.5902C29.6249 59.5902 29.6249 59.5902 29.6249 59.5902C29.6249 59.5902 29.6249 59.5902 29.6249 59.5902C29.6249 59.5902 29.6249 59.5902 29.6249 59.5902C29.6249 59.5902 29.6249 59.5902 29.6249 59.5902C29.6249 59.5902 29.6249 59.5902 29.6249 59.5902C29.6249 59.5902 29.6249 59.5902 29.6249 59.5902C29.6249 59.5902 29.6249 59.5902 29.6249 59.5902C29.6249 59.5902 29.6249 59.5902 29.6249 59.5902C29.6249 59.5902 29.6249 59.5902 29.6249 59.5902C29.6249 59.5902 29.6249 59.5902 29.6249 59.5902C29.6249 59.5902 29.6249 59.5902 29.6249 59.5902C29.6249 59.5902 29.6249 59.5902 29.6249 59.5902C29.6249 59.5902 29.6249 59.5902 29.6249 59.5902C29.6249 59.5902 29.6249 59.5902 29.6249 59.5902C29.625 59.5902 29.625 59.5902 29.625 59.5902C29.625 59.5902 29.625 59.5902 29.625 59.5902C29.625 59.5902 29.625 59.5902 29.625 59.5902C29.625 59.5902 29.625 59.5902 29.625 59.5902C29.625 59.5902 29.625 59.5902 29.625 59.5902C29.625 59.5902 29.625 59.5902 29.625 59.5902C29.625 59.5902 29.625 59.5902 29.625 59.5902C29.625 59.5902 29.625 59.5902 29.625 59.5902C29.625 59.5902 29.625 59.5902 29.625 59.5902C29.625 59.5902 29.625 59.5902 29.625 59.5902C29.625 59.5902 29.625 59.5902 29.625 59.5902C29.625 59.5902 29.625 59.5902 29.625 59.5902C29.625 59.5902 29.625 59.5902 29.625 59.5902C29.625 59.5902 29.625 59.5902 29.625 59.5902C29.625 59.5902 29.625 59.5902 29.625 59.5902C29.625 59.5902 29.625 59.5902 29.625 59.5902C29.625 59.5902 29.6251 59.5902 29.6251 59.5902C29.6251 59.5902 29.6251 59.5902 29.6251 59.5902C29.6251 59.5902 29.6251 59.5902 29.6251 59.5902V55.5902Z" fill="black" mask="url(#path-1-inside-1)"/>
<path d="M21.2295 16.9574L21.2294 16.9573C21.0039 16.4626 20.8379 16.3564 20.8039 16.3369C20.7611 16.3125 20.7176 16.2971 20.4391 16.2858L20.4375 16.2857C20.0521 16.2693 19.6087 16.2694 19.1355 16.2694C19.1126 16.2694 19.0896 16.2694 19.0666 16.2694C18.7998 16.2694 18.2863 16.3718 17.8322 16.8598C17.7878 16.9075 17.7393 16.9587 17.6872 17.0134C16.9499 17.7897 15.5195 19.2956 15.5195 22.2412C15.5195 23.8011 16.1021 25.3936 16.7758 26.7015C17.4325 27.9762 18.1321 28.8982 18.319 29.1445L18.3254 29.1529C18.3259 29.1536 18.3264 29.1542 18.3269 29.1549M21.2295 16.9574L44.3823 35.6383C44.5663 35.942 44.5663 37.3976 43.9522 39.0946C43.3381 40.7917 40.3274 42.4286 38.9751 42.5499C38.8449 42.5616 38.7156 42.5766 38.5825 42.592C37.3328 42.737 35.7558 42.9201 30.126 40.7315C23.204 38.0409 18.6385 31.3735 17.6905 29.9891C17.6121 29.8746 17.5584 29.7962 17.5302 29.7592L18.3269 29.1549M21.2295 16.9574C21.5478 17.6555 22.0621 18.8942 22.5278 20.024C22.5975 20.1934 22.667 20.3621 22.7348 20.527C23.1008 21.4164 23.4222 22.1975 23.5193 22.3897C23.5844 22.5184 23.6045 22.5932 23.6093 22.6373C23.6114 22.6564 23.6107 22.6707 23.6083 22.6841C23.6059 22.6974 23.5998 22.7217 23.5809 22.7592L23.5805 22.76C23.538 22.8438 23.5007 22.9187 23.4669 22.9864C23.2874 23.3467 23.2069 23.508 22.9818 23.7674M21.2295 16.9574L31.897 36.7185M18.3269 29.1549C18.3642 29.2041 18.4287 29.2976 18.5197 29.4293C19.5431 30.9123 23.9121 37.2432 30.4883 39.7995L30.4883 39.7995C33.571 40.9978 35.3601 41.451 36.5104 41.6029C37.4011 41.7206 37.901 41.6631 38.4439 41.6007C38.5857 41.5844 38.7304 41.5678 38.8858 41.5539C39.331 41.5139 40.2622 41.1696 41.2029 40.5699C42.1586 39.9607 42.8223 39.2782 43.0119 38.7543C43.289 37.9886 43.4241 37.2855 43.4704 36.7567C43.4929 36.4991 43.4932 36.2972 43.4832 36.1592M18.3269 29.1549L43.4832 36.1592M43.4832 36.1592C43.4623 36.1469 43.4373 36.1326 43.4074 36.1164C43.2797 36.0474 43.1471 35.9845 42.9752 35.903C42.8509 35.8441 42.7059 35.7754 42.5274 35.6875L42.5263 35.687C42.1627 35.5075 41.0764 34.9791 39.997 34.4654C38.8868 33.9371 37.8717 33.467 37.5932 33.3668C37.4282 33.3076 37.3188 33.2725 37.2327 33.2528C37.2126 33.2482 37.1962 33.245 37.1831 33.2429C37.1638 33.2637 37.1358 33.2976 37.1 33.3504L43.4832 36.1592ZM31.897 36.7185L31.8959 36.718C31.7978 36.6694 31.654 36.6082 31.4701 36.5299C30.4601 36.1002 28.2418 35.1562 25.7495 32.9652C23.4382 30.9334 21.8944 28.4454 21.4466 27.6896L21.4464 27.6892C21.1093 27.1197 21.0171 26.5222 21.2333 25.9489C21.4034 25.4976 21.7377 25.1708 21.9049 25.0072C21.9136 24.9988 21.9217 24.9908 21.9294 24.9833L21.9295 24.9831C22.1155 24.8003 22.3104 24.566 22.5369 24.2936C22.6723 24.1308 22.819 23.9545 22.9818 23.7674M31.897 36.7185C32.3312 36.9329 32.834 37.1067 33.3723 37.0423C33.9508 36.9731 34.3723 36.656 34.6845 36.3036M31.897 36.7185L34.6845 36.3036M22.9818 23.7674C22.982 23.7672 22.9822 23.767 22.9824 23.7668L23.7366 24.4234M22.9818 23.7674C22.9817 23.7676 22.9816 23.7677 22.9815 23.7679L23.7366 24.4234M23.7366 24.4234C24.0498 24.0626 24.1856 23.7889 24.37 23.4171C24.4023 23.3519 24.4362 23.2837 24.4727 23.2115L31.8473 35.6029C30.8078 35.1579 28.7626 34.2825 26.4098 32.2141C24.2179 30.2874 22.7382 27.9076 22.307 27.1799C21.8769 26.4532 22.2612 26.0592 22.6304 25.6964C22.8494 25.4812 23.1014 25.1789 23.3538 24.8762C23.4828 24.7216 23.6118 24.5668 23.7366 24.4234ZM34.6845 36.3036C35.105 35.8304 36.5645 34.1428 37.0998 33.3507L34.6845 36.3036Z" stroke="black" stroke-width="2"/>
</svg>
