<svg width="68" height="68" viewBox="0 0 68 68" fill="none" xmlns="http://www.w3.org/2000/svg">
<rect width="68" height="68" rx="16" fill="black"/>
<path d="M44.5907 31.7313C44.5907 28.517 46.1991 25.6598 49.0585 24.0527C47.2714 21.5527 44.5907 20.1241 41.5525 20.1241C38.5143 19.767 35.4762 21.9099 33.8678 21.9099C32.2593 21.9099 29.7573 20.1241 27.0766 20.1241C23.681 20.3027 20.4641 22.267 18.8557 25.3027C15.2814 31.5527 17.9621 40.6598 21.3577 45.6598C23.1448 48.1598 25.1107 50.8384 27.7914 50.8384C30.2935 50.6598 31.3657 49.2313 34.4039 49.2313C37.4421 49.2313 38.3356 50.8384 41.0164 50.8384C43.6971 50.8384 45.4842 48.3384 47.2714 45.8384C48.5224 44.0527 49.416 42.0884 50.1308 40.1241C46.7352 38.517 44.5907 35.3027 44.5907 31.7313Z" fill="white"/>
<path d="M39.4085 16.7323C40.8383 14.9466 41.7318 12.6251 41.5531 10.3037C39.2298 10.4823 37.0852 11.7323 35.6555 13.3394C34.2258 15.1251 33.3322 17.268 33.5109 19.5894C35.8342 19.5894 37.9788 18.518 39.4085 16.7323Z" fill="white"/>
</svg>
