<svg viewBox="0 0 22 21" fill="none" xmlns="http://www.w3.org/2000/svg">
<rect width="21" height="21" rx="4" fill="black"/>
<path d="M14.8501 9.96972C14.8501 8.94697 15.3619 8.03785 16.2717 7.52648C15.7031 6.731 14.8501 6.27645 13.8834 6.27645C12.9167 6.16281 11.95 6.84464 11.4382 6.84464C10.9264 6.84464 10.1303 6.27645 9.27731 6.27645C8.19687 6.33327 7.17329 6.95828 6.6615 7.92422C5.5242 9.9129 6.37718 12.8107 7.45762 14.4016C8.02627 15.1971 8.65179 16.0494 9.50477 16.0494C10.3009 15.9926 10.6421 15.538 11.6088 15.538C12.5755 15.538 12.8598 16.0494 13.7128 16.0494C14.5658 16.0494 15.1344 15.2539 15.7031 14.4585C16.1011 13.8903 16.3855 13.2653 16.6129 12.6402C15.5325 12.1289 14.8501 11.1061 14.8501 9.96972Z" fill="white"/>
<path d="M13.2012 5.19687C13.6561 4.62868 13.9405 3.89002 13.8836 3.15137C13.1443 3.20819 12.462 3.60592 12.007 4.1173C11.5521 4.6855 11.2678 5.36733 11.3247 6.10598C12.0639 6.10598 12.7463 5.76507 13.2012 5.19687Z" fill="white"/>
</svg>
