<svg width="891" height="647" viewBox="0 0 891 647" fill="none" xmlns="http://www.w3.org/2000/svg">
<path d="M838.382 646.467H52.2192C24.5513 646.467 2.12402 622.481 2.12402 592.896V69.1728C2.12402 39.5828 24.5513 15.5977 52.2192 15.5977H838.382C866.05 15.5977 888.477 39.5828 888.477 69.1728V592.896C888.477 622.481 866.046 646.467 838.382 646.467Z" fill="#C19133"/>
<path d="M838.382 633.269H52.2192C24.5513 633.269 2.12402 609.284 2.12402 579.698V55.9748C2.12402 26.3848 24.5513 2.39966 52.2192 2.39966H838.382C866.05 2.39966 888.477 26.3848 888.477 55.9748V579.698C888.477 609.284 866.046 633.269 838.382 633.269Z" fill="#FBDB89"/>
<path d="M888.473 328.566V579.694C888.473 609.284 866.046 633.269 838.382 633.269H52.2192C24.5513 633.269 2.12402 609.284 2.12402 579.694V328.566C105.334 415.88 265.484 471.949 445.301 471.949C625.113 471.949 785.263 415.88 888.473 328.566Z" fill="#F7CC77"/>
<path d="M838.382 635.468H52.2189C23.4608 635.468 0.0668945 610.449 0.0668945 579.698V55.9747C0.0668945 25.219 23.4608 0.199951 52.2189 0.199951H838.382C867.14 0.199951 890.534 25.219 890.534 55.9747V579.698C890.534 610.449 867.136 635.468 838.382 635.468ZM52.2189 4.59929C25.7315 4.59929 4.18047 27.6474 4.18047 55.9747V579.698C4.18047 608.025 25.7315 631.073 52.2189 631.073H838.382C864.869 631.073 886.42 608.025 886.42 579.698V55.9747C886.42 27.6474 864.869 4.59929 838.382 4.59929H52.2189Z" fill="#C19133"/>
<path d="M151.327 36.5385C154.042 46.3094 140.175 54.5846 121.734 60.4489C103.293 66.3132 87.2583 67.545 84.5392 57.7741C81.8202 48.0032 87.3817 28.4833 105.823 22.619C124.264 16.7547 148.612 26.7676 151.327 36.5385Z" fill="white"/>
<path d="M80.8987 68.6273C82.2603 73.5326 79.3767 76.9069 72.6181 78.7062C66.5835 80.312 63.1527 81.5438 61.787 76.6385C60.4254 71.7333 64.0248 69.7184 66.4025 66.6081C72.5152 58.6101 79.5371 63.7221 80.8987 68.6273Z" fill="white"/>
</svg>
