<svg width="203" height="127" viewBox="0 0 203 127" fill="none" xmlns="http://www.w3.org/2000/svg">
<path d="M17.9895 1.52734C26.0918 1.52734 33.0173 3.9204 38.7662 8.70988C44.515 13.4994 47.3928 19.0977 47.3928 25.515C47.3928 31.9289 45.4362 36.997 41.5263 40.7158C37.6164 44.4346 32.6576 46.247 26.6498 46.153C23.4358 46.1061 20.8774 46.0826 18.9679 46.0826H15.6866C14.3351 46.0826 13.6628 45.5724 13.6628 44.5487C13.6628 44.1762 14.0595 43.223 14.8495 41.6891C17.455 36.4835 19.4352 31.1603 20.7867 25.7231C15.9892 25.7231 11.4977 24.3973 7.30875 21.7492C3.11309 19.0977 1.01862 16.0904 1.01862 12.7207C1.01862 9.35094 2.60208 6.64238 5.769 4.59838C8.93256 2.55102 13.0072 1.52734 17.9895 1.52734ZM17.7105 4.38693C14.6377 4.38693 12.2171 5.03806 10.4454 6.34031C8.67369 7.64257 7.79287 9.55903 7.79287 12.0931C7.79287 14.6271 9.0166 16.8825 11.4607 18.8561C13.9048 20.8329 17.176 22.0748 21.2741 22.5849C22.7164 16.4966 23.5535 12.5697 23.7888 10.8009L27.9778 11.2204C27.9778 14.1035 27.3726 17.9129 26.1624 22.6554C26.5355 22.6554 28.7006 22.4238 32.6576 21.9573L33.0072 24.2597C32.076 24.5853 29.4907 25.072 25.2546 25.7231C23.4392 31.5799 21.5532 36.6479 19.5965 40.9239C24.2528 41.2964 28.1291 41.481 31.2254 41.481C34.3217 41.481 36.7793 40.3298 38.5947 38.0307C40.4101 35.7283 41.3179 32.6271 41.3179 28.7236C41.3179 21.9841 39.0116 16.2415 34.4024 11.5023C29.7932 6.7565 24.2293 4.38693 17.7105 4.38693Z" fill="#388C0B"/>
<path d="M81.5465 38.9704L83.1535 40.1552C82.5013 41.5481 81.3011 42.8738 79.5563 44.1291C77.8114 45.3844 76.2145 46.012 74.7723 46.012C72.0256 46.012 70.6505 44.5721 70.6505 41.689C70.6505 40.3398 71.0002 38.7388 71.6995 36.8794L69.1142 39.5276C66.5994 42.0851 64.4243 43.8035 62.5853 44.6862C60.7464 45.569 58.941 46.012 57.1726 46.012C55.4009 46.012 54.0662 45.5119 53.1552 44.5117C52.2474 43.5115 51.7936 42.1287 51.7936 40.3633C51.7936 37.111 53.0509 33.8923 55.5656 30.7071C58.0804 27.5253 61.2943 24.9309 65.2043 22.9339C69.1142 20.9369 73.0274 19.9132 76.9373 19.8662L77.0785 22.1687L74.1436 22.7963C69.9076 23.726 66.1691 25.5854 62.935 28.3745C59.6974 31.1636 58.0804 33.9426 58.0804 36.7083C58.0804 39.4739 59.1965 40.8567 61.4322 40.8567C63.5267 40.8567 66.112 39.3933 69.1848 36.4632C72.2575 33.5332 74.8193 30.0963 76.8667 26.1425L79.8017 27.8845C76.9138 33.6943 75.4715 37.3896 75.4715 38.9704C75.4715 39.6215 75.6934 40.1686 76.1338 40.6083C76.5742 41.0513 77.018 41.2695 77.4618 41.2695C77.9022 41.2695 78.1947 41.246 78.3359 41.199C78.4771 41.152 78.6149 41.095 78.7561 41.0245C78.8973 40.954 79.0721 40.85 79.2806 40.709C79.489 40.568 79.6773 40.4304 79.8387 40.2895C80 40.1485 80.269 39.9404 80.6422 39.6618C81.0086 39.39 81.3112 39.1584 81.5465 38.9704Z" fill="#388C0B"/>
<path d="M107.877 37.994L109.834 39.4573C109.366 40.434 108.378 41.5483 106.865 42.8036C105.352 44.0589 103.594 44.6865 101.594 44.6865C98.894 44.6865 97.5425 43.3171 97.5425 40.5716C97.5425 38.9908 97.8787 37.2355 98.5545 35.3089C99.2302 33.379 99.8925 31.6136 100.545 30.0093C101.197 28.405 101.594 27.3947 101.731 26.9752C100.615 28.556 98.81 30.1939 96.3188 31.8922C93.8276 33.5905 91.5583 34.4363 89.5109 34.4363C86.4852 34.4363 84.9724 32.7178 84.9724 29.2776C84.9724 27.0457 85.5876 24.5821 86.8248 21.887C88.0586 19.1918 89.3496 17.3089 90.7011 16.2383L93.7738 17.3526C91.5852 21.397 90.4926 24.3942 90.4926 26.3475C90.4926 28.3009 91.4003 29.2776 93.2158 29.2776C95.3102 29.2776 97.7073 28.1163 100.41 25.7904C103.11 23.4678 105.019 20.5612 106.139 17.074L109.77 19.0945C104.74 27.9754 102.226 34.1309 102.226 37.5711C102.226 39.1519 102.841 39.9407 104.078 39.9407C105.302 39.9474 106.573 39.2962 107.877 37.994Z" fill="#388C0B"/>
<path d="M139.933 18.8897L142.656 19.5174C142.609 19.8429 141.947 21.2492 140.666 23.7363C139.385 26.2233 138.023 29.4789 136.581 33.4965C135.139 37.5173 134.208 41.5751 133.787 45.6631L129.316 45.3141C129.316 42.7599 130.13 39.4573 131.76 35.4129C131.34 35.3659 130.493 35.3424 129.212 35.3424C127.931 35.3424 125.591 35.6445 122.192 36.2486C119.819 41.5483 118.632 46.0793 118.632 49.8451L113.952 49.2175C113.952 45.9182 115.186 41.8504 117.653 37.0172C115.28 37.3898 112.903 37.9469 110.53 38.6921L109.83 35.9734C109.83 35.8325 111.074 35.4398 113.565 34.7886C116.057 34.1375 117.906 33.7213 119.119 33.5334C122.844 24.9815 125.383 20.0309 126.731 18.6816L129.733 19.8664C129.501 20.333 128.963 21.3768 128.126 23.0046C126.031 27.049 124.609 30.2106 123.866 32.4862C127.917 32.0667 130.348 31.8586 131.165 31.8586C131.979 31.8586 132.668 31.8821 133.226 31.9291C136.487 24.4445 138.719 20.098 139.933 18.8897Z" fill="#388C0B"/>
<path d="M160.535 29.767C163.093 29.6731 164.377 30.7202 164.377 32.9052C164.377 35.7883 162.827 38.6344 159.734 41.447C156.638 44.2596 153.528 45.6659 150.412 45.6659C147.477 45.6659 146.011 43.6891 146.011 39.7387C146.011 36.624 146.791 32.7542 148.351 28.1291C149.911 23.5041 151.202 20.2384 152.227 18.332L155.371 19.3792C154.16 22.9134 152.927 27.2364 151.669 32.348L152.577 31.9285C155.69 30.4886 158.346 29.767 160.535 29.767ZM159.418 36.9496C159.698 36.2984 159.839 35.6943 159.839 35.1372C159.698 33.8819 158.605 33.2543 156.557 33.2543C155.579 33.2543 153.764 33.6738 151.111 34.5095C150.738 35.9058 150.553 37.1476 150.553 38.2384C150.553 39.3326 150.822 40.2018 151.357 40.853C151.891 41.5041 152.614 41.8297 153.522 41.8297C154.429 41.8297 155.512 41.3531 156.769 40.3999C158.02 39.4467 158.904 38.2988 159.418 36.9496ZM171.081 36.1105L168.986 45.3135L165.006 44.6859C165.937 39.0607 167.111 33.8315 168.533 28.9984C169.951 24.1653 171.313 20.7016 172.617 18.6106L176.04 19.0301C174.362 23.3531 172.711 29.0454 171.081 36.1105Z" fill="#388C0B"/>
<path d="M196.85 37.7859L198.457 39.0412C197.015 41.0415 195.035 42.7029 192.52 44.0253C190.005 45.351 187.561 46.0122 185.188 46.0122C182.814 46.0122 180.904 45.3141 179.459 43.9212C178.017 42.5284 177.294 40.6925 177.294 38.4135C177.294 34.1376 179.563 29.9321 184.102 25.7937C188.64 21.6587 193.239 19.5879 197.896 19.5879C200.968 19.5879 202.505 20.7962 202.505 23.2127C202.505 25.7233 200.888 28.2573 197.65 30.8114C194.413 33.369 189.864 35.6915 183.997 37.7825C184.418 38.8532 185.067 39.6889 185.954 40.2931C186.838 40.8972 187.746 41.1993 188.677 41.1993C190.681 41.2026 193.404 40.0648 196.85 37.7859ZM183.651 35.6949C187.423 34.3926 190.657 32.7648 193.36 30.8148C196.06 28.8614 197.411 27.0725 197.411 25.4447C197.411 24.8405 197.18 24.3069 196.712 23.8404C196.245 23.3772 195.71 23.1422 195.105 23.1422C192.917 23.1422 190.553 24.5015 188.015 27.2202C185.477 29.9422 184.024 32.7648 183.651 35.6949Z" fill="#388C0B"/>
<path d="M33.0408 76.3766C33.0408 79.7699 29.921 82.5825 23.6813 84.8144C25.3589 85.8381 26.6028 86.7544 27.4164 87.57C28.23 88.3822 28.6401 89.3018 28.6401 90.3255C28.6401 92.93 27.1743 95.219 24.2394 97.1925C21.3044 99.1694 18.1644 100.156 14.8126 100.156C13.182 100.156 11.5515 99.9011 9.92434 99.3876C8.29381 98.8774 7.17765 98.2498 6.57251 97.5047L9.22506 95.0646C9.78314 95.6218 10.5396 96.1118 11.4943 96.528C12.4491 96.9475 13.2526 97.1556 13.9048 97.1556C16.2313 97.1556 18.3627 96.5616 20.2958 95.3768C22.2289 94.192 23.1938 92.7387 23.1938 91.0203C23.1938 90.0906 22.8442 89.3119 22.1449 88.6843C21.4456 88.0566 20.6892 87.617 19.8756 87.3585C19.062 87.1034 18.3056 86.7779 17.6063 86.3818C16.907 85.9891 16.5574 85.5327 16.5574 85.0225C16.5574 84.5124 17.1054 84.0358 18.198 83.5927C19.2906 83.153 20.5144 82.7805 21.8659 82.4784C23.2173 82.1764 24.4377 81.6662 25.5337 80.9446C26.6263 80.223 27.1743 79.4242 27.1743 78.5381C27.1743 77.6554 26.8717 76.9573 26.2666 76.4471C25.6614 75.9369 24.905 75.6785 23.9973 75.6785C23.0896 75.6785 21.6809 76.1652 19.7714 77.1419C17.8618 78.1186 15.9287 79.3738 13.9754 80.9077L12.9971 78.9543C14.6747 77.0009 16.944 75.2724 19.805 73.7587C22.6693 72.2483 24.9723 71.4932 26.7205 71.4932C28.4653 71.4932 29.9546 71.9698 31.1918 72.923C32.4223 73.8762 33.0408 75.0274 33.0408 76.3766Z" fill="#388C0B"/>
<path d="M65.4463 93.1111L67.0533 94.2958C66.4011 95.6887 65.2009 97.0145 63.4561 98.2697C61.7113 99.525 60.1144 100.153 58.6721 100.153C55.9254 100.153 54.5504 98.7128 54.5504 95.8297C54.5504 94.4804 54.9 92.8795 55.5993 91.0201L53.014 93.6682C50.4993 96.2257 48.3241 97.9442 46.4852 98.8269C44.6462 99.7096 42.8408 100.153 41.0725 100.153C39.3008 100.153 37.9661 99.6525 37.055 98.6523C36.1473 97.6522 35.6934 96.2694 35.6934 94.5039C35.6934 91.2516 36.9508 88.0329 39.4655 84.8478C41.9802 81.666 45.1942 79.0715 49.1041 77.0745C53.014 75.0775 56.9273 74.0538 60.8372 74.0068L60.9784 76.3093L58.0434 76.9369C53.8074 77.8666 50.069 79.726 46.8348 82.5151C43.5973 85.3042 41.9802 88.0833 41.9802 90.8489C41.9802 93.6145 43.0964 94.9973 45.332 94.9973C47.4265 94.9973 50.0118 93.5339 53.0846 90.6039C56.1574 87.6738 58.7192 84.2369 60.7666 80.2832L63.7015 82.0251C60.8136 87.8349 59.3714 91.5302 59.3714 93.1111C59.3714 93.7622 59.5933 94.3093 60.0337 94.7489C60.4741 95.192 60.9179 95.4101 61.3616 95.4101C61.802 95.4101 62.0945 95.3866 62.2357 95.3396C62.3769 95.2927 62.5148 95.2356 62.656 95.1651C62.7972 95.0946 62.972 94.9906 63.1804 94.8496C63.3889 94.7087 63.5771 94.5711 63.7385 94.4301C63.8999 94.2891 64.1688 94.081 64.542 93.8025C64.9118 93.5272 65.2144 93.2957 65.4463 93.1111Z" fill="#388C0B"/>
<path d="M99.7378 97.6426L99.8084 99.3174C99.3411 99.596 97.2231 100.432 93.4544 101.828C91.9651 110.705 89.7765 117.119 86.8886 121.073C84.0007 125.023 80.464 127 76.2717 127C74.315 127 72.7551 126.373 71.5919 125.117C70.4287 123.862 69.847 122.234 69.847 120.237C69.847 116.24 71.686 112.508 75.3639 109.047C79.0419 105.584 83.9536 102.852 90.0992 100.855C90.7985 97.7399 92.0558 93.3465 93.8713 87.6777C90.7514 92.4202 87.924 95.6254 85.3858 97.3002C82.8476 98.975 80.5547 99.8108 78.5073 99.8108C76.4566 99.8108 74.9101 99.2536 73.8645 98.136C72.8156 97.0217 72.2945 95.5348 72.2945 93.6721C72.2945 90.6044 73.5754 87.4796 76.1372 84.2945C78.6956 81.1127 81.923 78.5082 85.8094 76.4843C89.6958 74.4638 93.4578 73.4502 97.0886 73.4502L97.6467 75.8902C92.4794 76.4474 88.0451 78.2598 84.3402 81.3275C80.6388 84.3952 78.7864 87.3487 78.7864 90.1815C78.7864 91.3898 79.1595 92.3899 79.9025 93.1787C80.6455 93.9708 81.5532 94.3635 82.6257 94.3635C84.2091 94.3635 86.6062 92.6887 89.8202 89.3424C93.0342 85.9961 95.29 83.1366 96.5944 80.767L99.1797 82.2303C96.618 89.0638 94.8496 94.8266 93.8713 99.5221L99.7378 97.6426ZM89.6823 102.942C85.6312 104.802 82.2794 107.034 79.6269 109.635C76.9743 112.236 75.6463 114.609 75.6463 116.747C75.6463 117.861 75.9725 118.767 76.6247 119.465C77.2769 120.164 78.0905 120.513 79.0688 120.513C81.0254 120.513 82.9551 119.14 84.8647 116.398C86.7709 113.656 88.3779 109.168 89.6823 102.942Z" fill="#388C0B"/>
<path d="M132.355 93.1111L133.962 94.2958C133.31 95.6887 132.11 97.0145 130.365 98.2697C128.62 99.525 127.023 100.153 125.581 100.153C122.834 100.153 121.459 98.7128 121.459 95.8297C121.459 94.4804 121.809 92.8795 122.508 91.0201L119.923 93.6682C117.408 96.2257 115.233 97.9442 113.394 98.8269C111.555 99.7096 109.75 100.153 107.981 100.153C106.21 100.153 104.875 99.6525 103.964 98.6523C103.056 97.6522 102.602 96.2694 102.602 94.5039C102.602 91.2516 103.86 88.0329 106.374 84.8478C108.889 81.666 112.103 79.0715 116.013 77.0745C119.923 75.0775 123.836 74.0538 127.746 74.0068L127.887 76.3093L124.952 76.9369C120.716 77.8666 116.978 79.726 113.744 82.5151C110.506 85.3042 108.889 88.0833 108.889 90.8489C108.889 93.6145 110.005 94.9973 112.241 94.9973C114.335 94.9973 116.921 93.5339 119.993 90.6039C123.066 87.6738 125.628 84.2369 127.675 80.2832L130.61 82.0251C127.722 87.8349 126.28 91.5302 126.28 93.1111C126.28 93.7622 126.502 94.3093 126.942 94.7489C127.383 95.192 127.827 95.4101 128.27 95.4101C128.711 95.4101 129.003 95.3866 129.145 95.3396C129.286 95.2927 129.424 95.2356 129.565 95.1651C129.706 95.0946 129.881 94.9906 130.089 94.8496C130.298 94.7087 130.486 94.5711 130.647 94.4301C130.809 94.2891 131.078 94.081 131.451 93.8025C131.817 93.5272 132.12 93.2957 132.355 93.1111Z" fill="#388C0B"/>
<path d="M158.682 92.1346L160.639 93.598C160.172 94.5746 159.183 95.6889 157.67 96.9442C156.157 98.1995 154.399 98.8271 152.399 98.8271C149.699 98.8271 148.348 97.4577 148.348 94.7123C148.348 93.1314 148.684 91.3761 149.36 89.4495C150.035 87.5197 150.698 85.7542 151.35 84.1499C152.002 82.5456 152.399 81.5353 152.537 81.1158C151.421 82.6966 149.615 84.3345 147.124 86.0328C144.633 87.7311 142.364 88.5769 140.316 88.5769C137.29 88.5769 135.778 86.8585 135.778 83.4182C135.778 81.1863 136.393 78.7227 137.63 76.0276C138.864 73.3325 140.155 71.4496 141.506 70.3789L144.579 71.4932C142.39 75.5376 141.298 78.5348 141.298 80.4882C141.298 82.4415 142.206 83.4182 144.021 83.4182C146.115 83.4182 148.512 82.2569 151.215 79.931C153.915 77.6084 155.825 74.7018 156.944 71.2146L160.575 73.2351C155.546 82.116 153.031 88.2715 153.031 91.7117C153.031 93.2925 153.646 94.0813 154.883 94.0813C156.11 94.0846 157.381 93.4369 158.682 92.1346Z" fill="#388C0B"/>
<path d="M191.649 91.9936L193.115 93.1784C192.321 95.1318 191.078 96.7797 189.38 98.129C187.679 99.4782 186.142 100.149 184.771 100.149C183.396 100.149 182.313 99.6729 181.523 98.7197C180.73 97.7665 180.336 96.5246 180.336 94.9908C180.336 93.457 180.592 91.4801 181.106 89.0635C178.918 92.5038 176.568 95.1989 174.053 97.1523C171.538 99.1057 169.42 100.082 167.699 100.082C165.09 100.082 163.789 98.525 163.789 95.4103C163.789 92.2957 164.871 88.1003 167.037 82.8241C169.202 77.548 170.748 74.5373 171.679 73.7956L175.031 75.259C173.122 78.3266 171.679 81.3507 170.701 84.3244C169.723 87.2981 169.235 89.2884 169.235 90.2852C169.235 91.2854 169.548 92.0876 170.177 92.6917C170.805 93.2959 171.538 93.5979 172.375 93.5979C174.238 93.5979 176.554 91.8896 179.324 88.4728C182.095 85.0561 184.922 79.9545 187.81 73.168L191.373 74.7723C191.279 75.1448 190.22 77.84 188.196 82.861C186.173 87.8821 185.157 90.8927 185.157 91.8896C185.157 92.8897 185.379 93.6449 185.82 94.1551C186.26 94.6686 186.704 94.9237 187.148 94.9237C187.588 94.9237 187.927 94.9002 188.159 94.8532C188.391 94.8062 188.623 94.7122 188.859 94.5746C189.091 94.4337 189.289 94.3195 189.454 94.2256C189.615 94.1316 189.814 93.9705 190.049 93.7389L190.536 93.1817C190.678 93.0878 190.873 92.8931 191.131 92.5877C191.38 92.2856 191.555 92.0876 191.649 91.9936Z" fill="#388C0B"/>
<path d="M26.2296 44.9647C26.0851 44.9647 25.9439 44.9647 25.7993 44.9613C22.6257 44.9143 20.0404 44.8909 18.1207 44.8909H14.8395C13.0274 44.8909 12.6475 43.9645 12.6475 43.1892C12.6475 42.7864 13.0409 41.8265 13.8544 40.2524C16.4095 35.1508 18.3829 29.8612 19.7243 24.528C14.9975 24.4878 10.506 23.1419 6.37082 20.5273C2.14154 17.859 0 14.7745 0 11.3578C0 7.94442 1.6238 5.16538 4.82434 3.09453C8.00471 1.04046 12.1466 0 17.139 0C25.2412 0 32.2676 2.42998 38.0232 7.21946C43.7855 12.019 46.7104 17.7147 46.7104 24.1521C46.7104 30.5862 44.7202 35.7382 40.7901 39.4737C36.9609 43.1187 32.0626 44.9647 26.2296 44.9647ZM17.139 0.335633C12.2138 0.335633 8.13247 1.35931 5.00925 3.37646C1.90957 5.38019 0.336191 8.06525 0.336191 11.3578C0.336191 14.6504 2.42394 17.6408 6.54228 20.2454C10.6875 22.8666 15.1925 24.1924 19.9328 24.1924H20.1479L20.0975 24.4005C18.7494 29.8277 16.749 35.2112 14.1469 40.4034C13.1787 42.2763 12.977 42.9509 12.977 43.1858C12.977 44.1055 13.5855 44.5519 14.8328 44.5519H18.114C20.037 44.5519 22.6223 44.5754 25.7993 44.6223C31.7365 44.713 36.6986 42.9006 40.5581 39.2287C44.4176 35.5603 46.3709 30.4889 46.3709 24.1488C46.3709 17.8154 43.4897 12.207 37.8047 7.47454C32.1163 2.73876 25.1606 0.335633 17.139 0.335633ZM30.3749 40.2893C27.2786 40.2893 23.3619 40.1014 18.7326 39.7322L18.4939 39.712L18.5947 39.4939C20.5379 35.2448 22.4374 30.1364 24.2428 24.3132L24.273 24.2125L24.3772 24.1957C28.3981 23.5782 30.9498 23.1049 31.9684 22.7827L31.6659 20.7824C27.7728 21.2388 25.6917 21.4603 25.3118 21.4603H25.0967L25.1505 21.2523C26.3305 16.6272 26.939 12.848 26.9592 10.0119L23.0829 9.62594C22.8207 11.4619 21.9835 15.3753 20.5884 21.2657L20.5547 21.4134L20.4034 21.3932C16.2918 20.8797 12.9635 19.6144 10.506 17.6274C8.03161 15.6271 6.77762 13.3078 6.77762 10.7335C6.77762 8.15587 7.69206 6.17564 9.50076 4.84653C11.2927 3.53085 13.7704 2.86295 16.8634 2.86295C23.3989 2.86295 29.0536 5.27279 33.6763 10.0253C38.2955 14.7779 40.6388 20.6112 40.6388 27.3641C40.6388 31.2877 39.7109 34.456 37.8787 36.7753C36.033 39.1045 33.5115 40.2893 30.3749 40.2893ZM18.9982 39.4133C23.5132 39.7691 27.3391 39.9503 30.3749 39.9503C33.404 39.9503 35.838 38.8092 37.6097 36.5638C39.3915 34.305 40.2959 31.2071 40.2959 27.3608C40.2959 20.6985 37.9862 14.9424 33.4275 10.2569C28.8755 5.5715 23.3014 3.19522 16.86 3.19522C13.8376 3.19522 11.4271 3.83964 9.69576 5.11504C7.98118 6.37702 7.11044 8.26663 7.11044 10.7335C7.11044 13.2038 8.3241 15.4324 10.7144 17.3656C13.0913 19.2888 16.3154 20.5239 20.2925 21.0408C21.7079 15.0665 22.5383 11.1598 22.7702 9.42121L22.7904 9.2601L27.2954 9.70985V9.86088C27.2954 12.697 26.7003 16.4829 25.5304 21.118C26.2431 21.0677 28.3409 20.8361 31.7869 20.4333L31.9483 20.4132L32.3416 23.011L32.2105 23.058C31.2691 23.3869 28.7544 23.8635 24.5319 24.5146C22.7635 30.2103 20.901 35.2213 18.9982 39.4133Z" fill="#231F20"/>
<path d="M73.9184 44.8207C71.0742 44.8207 69.6286 43.3104 69.6286 40.3299C69.6286 39.1485 69.8975 37.7556 70.4287 36.1882L68.3813 38.2859C65.8632 40.8468 63.6511 42.5921 61.802 43.4815C59.9496 44.371 58.1039 44.8241 56.3154 44.8241C54.5033 44.8241 53.1115 44.3005 52.1735 43.2701C51.2423 42.243 50.7682 40.8099 50.7682 39.0075C50.7682 35.7318 52.0491 32.4459 54.5773 29.2473C57.0954 26.0588 60.3564 23.4275 64.2697 21.4271C68.1863 19.4267 72.1601 18.3863 76.0767 18.3393L76.2381 18.3359L76.3961 20.9404L73.32 21.5983C69.131 22.5179 65.3825 24.384 62.1853 27.1396C59.0016 29.8817 57.3912 32.6439 57.3912 35.3458C57.3912 38.0241 58.4334 39.3264 60.5749 39.3264C62.6156 39.3264 65.1841 37.863 68.2099 34.98C71.2524 32.0801 73.8276 28.6231 75.8582 24.7062L75.9389 24.5485L79.1596 26.4616L79.089 26.6026C76.228 32.362 74.7757 36.0674 74.7757 37.6147C74.7757 38.2255 74.9774 38.7223 75.3909 39.1351C75.7977 39.5412 76.2045 39.7493 76.5978 39.7493C77.1256 39.7493 77.3341 39.7157 77.4181 39.6889C77.5459 39.6486 77.6804 39.5915 77.8148 39.5244C77.9493 39.4573 78.1174 39.3566 78.3191 39.2223C78.5208 39.0881 78.7024 38.9538 78.8604 38.8162C79.0285 38.6719 79.3008 38.4605 79.6706 38.1819C80.0404 37.9033 80.343 37.6751 80.575 37.4871L80.6758 37.4066L82.498 38.7491L82.4408 38.8733C81.7785 40.2897 80.5514 41.6456 78.7898 42.9143C77.0349 44.1763 75.3909 44.8207 73.9184 44.8207ZM71.286 34.8289L71.0036 35.5774C70.3144 37.4099 69.9681 39.0075 69.9681 40.3299C69.9681 43.1258 71.2625 44.4851 73.9217 44.4851C75.3237 44.4851 76.9004 43.8608 78.6082 42.6357C80.269 41.4409 81.4423 40.1688 82.0912 38.8498L80.6994 37.8228C80.4808 37.9939 80.2119 38.202 79.8891 38.4437C79.5227 38.7155 79.2571 38.927 79.0957 39.0646C78.9243 39.2089 78.7326 39.3532 78.5208 39.4942C78.3057 39.6352 78.1241 39.7459 77.9796 39.8198C77.8283 39.8936 77.6804 39.9574 77.5392 40.0044C77.3811 40.0581 77.0853 40.0816 76.6146 40.0816C76.1272 40.0816 75.6397 39.8433 75.169 39.37C74.695 38.9001 74.4563 38.3094 74.4563 37.6147C74.4563 36.0036 75.8548 32.3989 78.736 26.5925L76.0902 25.0184C74.0529 28.905 71.4877 32.3385 68.4553 35.225C65.3657 38.1718 62.7165 39.6654 60.5884 39.6654C58.2519 39.6654 57.0685 38.2121 57.0685 35.3491C57.0685 32.5433 58.7225 29.7005 61.9802 26.8912C65.2211 24.0987 69.0167 22.2091 73.2628 21.2761L76.0566 20.6787L75.9355 18.6816C72.1231 18.7555 68.2536 19.7792 64.4378 21.7292C60.5682 23.7061 57.3442 26.3072 54.8563 29.4588C52.3786 32.597 51.1213 35.8123 51.1213 39.0109C51.1213 40.726 51.565 42.0853 52.4391 43.0452C53.3099 44.0018 54.6176 44.4884 56.3322 44.4884C58.067 44.4884 59.8656 44.0487 61.6709 43.1795C63.483 42.3102 65.6649 40.585 68.1527 38.0543L71.286 34.8289Z" fill="#231F20"/>
<path d="M100.74 43.4944C97.9392 43.4944 96.5205 42.0546 96.5205 39.2117C96.5205 37.6208 96.8634 35.8286 97.5425 33.892C98.2149 31.9654 98.8873 30.1799 99.5361 28.5856C99.8723 27.76 100.138 27.0921 100.34 26.5819C99.21 27.9043 97.6064 29.277 95.5624 30.6699C93.0544 32.3783 90.7313 33.2442 88.657 33.2442C85.5338 33.2442 83.9503 31.4519 83.9503 27.9177C83.9503 25.6723 84.579 23.1618 85.8162 20.4566C87.0534 17.748 88.3746 15.8282 89.7395 14.7475L89.8135 14.6904L93.1586 15.9054L93.0645 16.0766C90.8994 20.074 89.8034 23.0745 89.8034 24.991C89.8034 26.847 90.6405 27.7532 92.3585 27.7532C94.4025 27.7532 96.7861 26.5953 99.442 24.3063C102.105 22.0139 104.018 19.1074 105.12 15.6671L105.184 15.4725L109.144 17.6776L109.06 17.8252C104.071 26.6389 101.54 32.828 101.54 36.2213C101.54 37.7048 102.091 38.423 103.224 38.423C104.408 38.423 105.648 37.7819 106.912 36.52L107.016 36.4159L109.198 38.0505L109.138 38.1746C108.664 39.1681 107.648 40.3126 106.125 41.578C104.582 42.85 102.77 43.4944 100.74 43.4944ZM101.399 24.5916L101.039 25.6723C100.898 26.0919 100.508 27.0887 99.8488 28.7165C99.2033 30.3074 98.5343 32.0863 97.8619 34.0094C97.1963 35.9125 96.8601 37.6645 96.8601 39.2185C96.8601 41.8733 98.1309 43.1655 100.743 43.1655C102.696 43.1655 104.434 42.5446 105.91 41.3229C107.332 40.1414 108.297 39.0775 108.775 38.1545L107.047 36.8623C105.752 38.1209 104.468 38.762 103.224 38.762C101.886 38.762 101.204 37.9095 101.204 36.2246C101.204 32.7911 103.722 26.5953 108.684 17.8118L105.379 15.9725C104.25 19.3859 102.327 22.2791 99.6639 24.5681C96.9441 26.9075 94.4866 28.0956 92.3618 28.0956C90.4422 28.0956 89.4706 27.0551 89.4706 24.9977C89.4706 23.0544 90.5497 20.0572 92.6812 16.0934L89.8807 15.0764C88.583 16.1336 87.3189 17.9931 86.1255 20.6043C84.9085 23.2658 84.2899 25.7294 84.2899 27.9244C84.2899 31.2841 85.7187 32.9153 88.6604 32.9153C90.6641 32.9153 92.9233 32.0695 95.3741 30.398C97.8384 28.7199 99.6437 27.0786 100.743 25.5246L101.399 24.5916Z" fill="#231F20"/>
<path d="M117.946 48.6806L112.93 48.0094V47.8617C112.93 44.6161 114.13 40.5852 116.5 35.8762C114.251 36.2454 111.972 36.7892 109.726 37.4906L109.558 37.5443L108.812 34.6109C108.812 34.423 108.812 34.2719 112.674 33.2617C115.098 32.6307 116.941 32.2111 118.151 32.0165C121.9 23.4176 124.387 18.5677 125.762 17.1983L125.84 17.1211L129.118 18.4133L129.034 18.5777C128.802 19.0443 128.264 20.0881 127.427 21.7159C125.419 25.5925 124.018 28.6903 123.258 30.929C127.141 30.5296 129.514 30.3282 130.314 30.3282C131.068 30.3282 131.723 30.3484 132.268 30.3886C135.539 22.8839 137.727 18.6382 138.961 17.4064L139.029 17.3393L141.994 18.0239L141.974 18.175C141.94 18.3965 141.698 19.0812 139.966 22.4476C138.696 24.9145 137.324 28.1936 135.888 32.1876C134.456 36.175 133.518 40.2562 133.105 44.314L133.088 44.4785L128.301 44.106V43.9516C128.301 41.4276 129.097 38.1485 130.674 34.1981C130.207 34.1645 129.434 34.1477 128.365 34.1477C127.114 34.1477 124.791 34.4464 121.463 35.0372C119.133 40.2562 117.953 44.7806 117.953 48.4826V48.6806H117.946ZM113.27 47.714L117.613 48.298C117.653 44.5624 118.857 40.0314 121.19 34.8257L121.227 34.7452L121.315 34.7284C124.71 34.1242 127.084 33.8188 128.365 33.8188C129.639 33.8188 130.503 33.8423 130.933 33.8893L131.155 33.9128L131.071 34.1175C129.491 38.0411 128.674 41.2967 128.64 43.8005L132.792 44.1227C133.219 40.0918 134.157 36.0407 135.579 32.0802C137.018 28.0694 138.396 24.7802 139.674 22.2999C141.012 19.7021 141.479 18.665 141.607 18.2824L139.146 17.7152C137.939 18.9939 135.717 23.3404 132.54 30.637L132.493 30.7478L132.372 30.7377C131.814 30.6907 131.125 30.6672 130.325 30.6672C129.518 30.6672 127.07 30.8787 123.043 31.2949L122.784 31.3217L122.864 31.0767C123.607 28.8045 125.043 25.6059 127.134 21.5682C127.884 20.1116 128.391 19.1215 128.657 18.5945L125.931 17.5171C124.582 18.9536 122.058 23.9042 118.43 32.238L118.393 32.3219L118.302 32.3353C117.102 32.5199 115.24 32.9395 112.765 33.5872C110.076 34.2921 109.36 34.5639 109.175 34.6646L109.803 37.1181C112.12 36.4032 114.466 35.8561 116.783 35.4903L117.109 35.4399L116.958 35.7319C114.544 40.4509 113.307 44.4785 113.27 47.714Z" fill="#231F20"/>
<path d="M149.558 44.4717C146.526 44.4717 144.989 42.4209 144.989 38.3766C144.989 35.2585 145.779 31.3316 147.339 26.7133C148.892 22.1018 150.2 18.7991 151.226 16.8927L151.293 16.7686L154.732 17.9131L154.678 18.0742C153.505 21.501 152.288 25.7434 151.064 30.6906L151.656 30.4187C154.782 28.9755 157.482 28.2438 159.684 28.2405C161.106 28.1901 162.162 28.4888 162.831 29.1333C163.406 29.687 163.698 30.4993 163.698 31.5465C163.698 34.4631 162.118 37.3797 158.998 40.2125C155.882 43.0385 152.705 44.4717 149.558 44.4717ZM151.454 17.1747C150.449 19.0844 149.171 22.3266 147.655 26.8207C146.109 31.4055 145.325 35.2921 145.325 38.3766C145.325 42.2531 146.71 44.136 149.558 44.136C152.621 44.136 155.72 42.7331 158.77 39.9608C161.816 37.1951 163.359 34.3624 163.359 31.5431C163.359 30.5899 163.103 29.8582 162.596 29.3716C161.997 28.7943 161.019 28.5258 159.691 28.5727H159.684C157.533 28.5727 154.877 29.2944 151.794 30.7174L150.57 31.2813L150.654 30.9423C151.888 25.9179 153.118 21.605 154.305 18.1178L151.454 17.1747ZM168.264 44.1461L163.96 43.4681L163.987 43.3003C164.915 37.6919 166.105 32.409 167.517 27.5927C168.936 22.7663 170.314 19.2556 171.622 17.1612L171.679 17.0706L175.421 17.5271L175.344 17.7285C173.676 22.0246 172.012 27.7639 170.392 34.7887L168.264 44.1461ZM164.347 43.1895L168.005 43.7668L170.066 34.7148C171.663 27.784 173.307 22.0984 174.954 17.809L171.851 17.4298C170.577 19.5107 169.229 22.9576 167.84 27.6867C166.445 32.4426 165.268 37.655 164.347 43.1895ZM152.664 40.6387C151.706 40.6387 150.933 40.2897 150.368 39.6016C149.81 38.9237 149.528 38.0074 149.528 36.8797C149.528 35.7754 149.716 34.5067 150.093 33.1071L150.116 33.0165L150.204 32.9897C152.9 32.1405 154.698 31.7277 155.7 31.7277C157.838 31.7277 158.998 32.4124 159.15 33.7583C159.15 34.3557 159.005 34.9867 158.719 35.6512C158.198 37.024 157.287 38.2088 156.01 39.172C154.732 40.1454 153.606 40.6387 152.664 40.6387ZM150.395 33.2817C150.046 34.6175 149.867 35.8291 149.867 36.8797C149.867 37.9268 150.126 38.7726 150.634 39.3868C151.138 40.001 151.804 40.3031 152.668 40.3031C153.535 40.3031 154.594 39.8332 155.815 38.9069C157.038 37.9805 157.912 36.8427 158.413 35.5304L158.417 35.5237C158.686 34.8961 158.823 34.3087 158.823 33.7784C158.696 32.6305 157.677 32.0633 155.71 32.0633C154.759 32.06 152.97 32.4728 150.395 33.2817Z" fill="#231F20"/>
<path d="M184.337 44.8205C181.927 44.8205 179.963 44.1023 178.494 42.6826C177.025 41.2628 176.279 39.3699 176.279 37.054C176.279 32.7478 178.588 28.4618 183.144 24.31C187.696 20.165 192.372 18.0605 197.052 18.0605C200.222 18.0605 201.829 19.336 201.829 21.8532C201.829 24.4074 200.175 27.0085 196.911 29.5862C193.707 32.1168 189.151 34.4528 183.375 36.5271C183.782 37.4836 184.398 38.2488 185.204 38.7993C186.055 39.3799 186.939 39.6753 187.833 39.6753C189.793 39.6753 192.51 38.5341 195.912 36.2854L196.013 36.2183L197.842 37.6481L197.748 37.779C196.295 39.7894 194.278 41.4843 191.753 42.8134C189.222 44.1459 186.727 44.8205 184.337 44.8205ZM197.048 18.3962C192.459 18.3962 187.854 20.4704 183.369 24.5584C178.887 28.643 176.615 32.8485 176.615 37.054C176.615 39.2759 177.327 41.0883 178.729 42.4409C180.135 43.7969 182.021 44.4849 184.34 44.4849C186.677 44.4849 189.118 43.8237 191.595 42.5181C194.019 41.2393 195.966 39.6249 197.378 37.7118L195.996 36.6311C192.584 38.8731 189.84 40.0076 187.833 40.0076C186.872 40.0076 185.924 39.6921 185.016 39.0711C184.108 38.4502 183.429 37.5809 182.999 36.4834L182.935 36.3223L183.1 36.2653C188.923 34.191 193.498 31.8517 196.705 29.3177C199.882 26.8071 201.496 24.2932 201.496 21.8498C201.489 19.5273 200.037 18.3962 197.048 18.3962ZM182.599 34.5804L182.633 34.3119C183.009 31.3617 184.492 28.4786 187.04 25.7465C189.598 23.0044 192.026 21.6149 194.251 21.6149C194.9 21.6149 195.478 21.8666 195.976 22.36C196.474 22.8567 196.722 23.4374 196.722 24.0818C196.722 25.7566 195.337 27.6093 192.601 29.5862C189.898 31.5396 186.616 33.1909 182.848 34.4898L182.599 34.5804ZM194.255 21.9505C192.123 21.9505 189.78 23.3065 187.289 25.9748C184.865 28.5692 183.426 31.2979 183.006 34.0836C186.633 32.8082 189.797 31.2073 192.412 29.3143C195.055 27.4046 196.393 25.6425 196.393 24.0818C196.393 23.5213 196.181 23.0346 195.744 22.5949C195.304 22.162 194.816 21.9505 194.255 21.9505Z" fill="#231F20"/>
<path d="M13.962 98.9579C12.3214 98.9579 10.6572 98.6961 9.02336 98.1826C7.3693 97.6624 6.2128 97.0112 5.59085 96.246L5.48999 96.1252L8.37787 93.4703L8.49218 93.5844C9.03345 94.1248 9.77979 94.6047 10.711 95.0142C11.6389 95.4203 12.4256 95.6284 13.0543 95.6284C15.3404 95.6284 17.4584 95.0377 19.3579 93.8764C21.2271 92.7286 22.1752 91.3122 22.1752 89.6609C22.1752 88.7849 21.8423 88.0398 21.1834 87.449C20.5077 86.8416 19.7647 86.4086 18.9746 86.1602C18.1543 85.9051 17.3811 85.5695 16.6717 85.1701C15.9186 84.7472 15.5387 84.2404 15.5387 83.6631C15.5387 83.0724 16.1103 82.5522 17.2836 82.0789C18.3762 81.6359 19.6201 81.26 20.975 80.9546C22.2996 80.6592 23.5132 80.149 24.5857 79.4442C25.6245 78.7595 26.1523 77.9976 26.1523 77.1787C26.1523 76.3396 25.8733 75.6986 25.3051 75.2152C24.7336 74.7319 24.0074 74.4869 23.1434 74.4869C22.2659 74.4869 20.8707 74.9736 18.9948 75.9335C17.1054 76.9001 15.1656 78.1587 13.2258 79.6825L13.0644 79.81L11.9449 77.5747L12.0188 77.4908C13.6998 75.5307 16.0094 73.772 18.8771 72.2583C21.7516 70.7413 24.1049 69.9727 25.8699 69.9727C27.645 69.9727 29.1814 70.466 30.4421 71.436C31.7129 72.4194 32.3584 73.6243 32.3584 75.0206C32.3584 78.4172 29.2822 81.2667 23.214 83.4953C24.7437 84.4485 25.9136 85.3211 26.6868 86.0897C27.5307 86.9322 27.9577 87.8988 27.9577 88.9628C27.9577 91.6143 26.4515 93.9704 23.4829 95.9708C20.5379 97.951 17.334 98.9579 13.962 98.9579ZM5.95393 96.1554C6.55572 96.8199 7.62144 97.3938 9.12422 97.8637C10.7278 98.3672 12.355 98.6223 13.962 98.6223C17.2668 98.6223 20.4068 97.6355 23.298 95.6888C26.1691 93.7556 27.6248 91.4934 27.6248 88.9594C27.6248 87.9894 27.2315 87.1034 26.4515 86.3247C25.648 85.5225 24.4007 84.6062 22.7467 83.596L22.4475 83.4147L22.7769 83.2973C28.9124 81.1022 32.0256 78.3165 32.0256 75.0172C32.0256 73.7317 31.4238 72.6141 30.2404 71.6978C29.0402 70.7715 27.571 70.3049 25.8733 70.3049C24.1654 70.3049 21.8659 71.0601 19.0385 72.5503C16.2481 74.0237 13.999 75.7288 12.3517 77.6217L13.1888 79.2898C15.0916 77.813 16.9945 76.5813 18.8502 75.6348C20.8001 74.638 22.2088 74.1513 23.1535 74.1513C24.0982 74.1513 24.8983 74.4231 25.5304 74.9568C26.1725 75.5005 26.4986 76.249 26.4986 77.1753C26.4986 78.1151 25.9203 78.971 24.7806 79.7194C23.6746 80.4478 22.4239 80.9713 21.059 81.2768C19.721 81.5788 18.4939 81.948 17.4181 82.3844C16.4128 82.7905 15.8817 83.2301 15.8817 83.6598C15.8817 84.1061 16.2044 84.5123 16.8432 84.8748C17.529 85.2641 18.2821 85.5863 19.0788 85.838C19.9126 86.0998 20.6993 86.5596 21.412 87.1973C22.1449 87.8552 22.5147 88.6842 22.5147 89.6575C22.5147 91.4297 21.5129 92.9467 19.5361 94.1584C17.5862 95.3532 15.4076 95.9607 13.0577 95.9607C12.3853 95.9607 11.5515 95.7459 10.5799 95.3196C9.67557 94.9236 8.93259 94.4571 8.37451 93.9335L5.95393 96.1554Z" fill="#231F20"/>
<path d="M57.8215 98.9574C54.9773 98.9574 53.5317 97.4471 53.5317 94.4667C53.5317 93.2852 53.8007 91.8924 54.3319 90.325L52.2844 92.4227C49.7664 94.9835 47.5542 96.7288 45.7052 97.6183C43.8528 98.5077 42.0071 98.9608 40.2185 98.9608C38.4065 98.9608 37.0146 98.4372 36.0767 97.4068C35.1454 96.3798 34.6714 94.9466 34.6714 93.1443C34.6714 89.8685 35.9523 86.5827 38.4804 83.3841C40.9985 80.1956 44.2596 77.5642 48.1728 75.5638C52.0895 73.5635 56.0632 72.523 59.9799 72.476L60.1412 72.4727L60.2992 75.0772L57.2231 75.735C53.0342 76.6546 49.2856 78.5208 46.0884 81.2763C42.9047 84.0184 41.2944 86.7807 41.2944 89.4825C41.2944 92.1609 42.3365 93.4631 44.4781 93.4631C46.5188 93.4631 49.0873 91.9998 52.113 89.1167C55.1555 86.2168 57.7307 82.7598 59.7613 78.843L59.842 78.6852L63.0627 80.5983L62.9921 80.7393C60.1311 86.4987 58.6788 90.2041 58.6788 91.7514C58.6788 92.3622 58.8805 92.859 59.294 93.2718C59.7008 93.6779 60.1076 93.886 60.501 93.886C61.0288 93.886 61.2372 93.8525 61.3213 93.8256C61.449 93.7853 61.5835 93.7283 61.718 93.6611C61.8524 93.594 62.0205 93.4933 62.2223 93.3591C62.424 93.2248 62.6055 93.0906 62.7635 92.953C62.9316 92.8086 63.2039 92.5972 63.5737 92.3186C63.9436 92.04 64.2461 91.8118 64.4781 91.6239L64.579 91.5433L66.4011 92.8858L66.344 93.01C65.6817 94.4264 64.4546 95.7823 62.6929 97.051C60.9346 98.313 59.294 98.9574 57.8215 98.9574ZM55.1858 88.9656L54.9034 89.7141C54.2142 91.5467 53.8679 93.1443 53.8679 94.4667C53.8679 97.2625 55.1622 98.6218 57.8215 98.6218C59.2234 98.6218 60.8002 97.9975 62.508 96.7725C64.1688 95.5776 65.3421 94.3056 65.991 92.9865L64.5991 91.9595C64.3806 92.1307 64.1117 92.3388 63.7889 92.5804C63.4225 92.8523 63.1569 93.0637 62.9955 93.2013C62.824 93.3456 62.6324 93.49 62.4206 93.6309C62.2055 93.7719 62.0239 93.8827 61.8793 93.9565C61.7281 94.0303 61.5801 94.0941 61.4389 94.1411C61.2809 94.1948 60.9851 94.2183 60.5144 94.2183C60.0269 94.2183 59.5395 93.98 59.0688 93.5068C58.5948 93.0369 58.3561 92.4462 58.3561 91.7514C58.3561 90.1404 59.7546 86.5357 62.6358 80.7292L59.99 79.1551C57.9526 83.0417 55.3875 86.4753 52.355 89.3617C49.2654 92.3085 46.6163 93.8021 44.4882 93.8021C42.1516 93.8021 40.9682 92.3488 40.9682 89.4859C40.9682 86.68 42.6223 83.8372 45.88 81.0279C49.1209 78.2355 52.9165 76.3459 57.1626 75.4128L59.9563 74.8154L59.8353 72.8184C56.0229 72.8922 52.1533 73.9159 48.3376 75.8659C44.468 77.8428 41.2439 80.4439 38.7561 83.5955C36.2784 86.7337 35.021 89.949 35.021 93.1476C35.021 94.8627 35.4648 96.222 36.3389 97.1819C37.2096 98.1385 38.5174 98.6252 40.232 98.6252C41.9667 98.6252 43.7654 98.1855 45.5707 97.3162C47.3828 96.4469 49.5647 94.7217 52.0525 92.1911L55.1858 88.9656Z" fill="#231F20"/>
<path d="M75.4211 125.801C73.4242 125.801 71.8105 125.15 70.617 123.865C69.4302 122.583 68.8251 120.905 68.8251 118.871C68.8251 114.843 70.6977 111.037 74.3958 107.556C78.0569 104.109 83.0056 101.351 89.1041 99.3569C89.7563 96.4671 90.896 92.4462 92.4997 87.3882C89.6353 91.5937 86.9895 94.5137 84.6261 96.0711C82.071 97.7559 79.7244 98.6084 77.6535 98.6084C75.5657 98.6084 73.9621 98.0278 72.8863 96.8833C71.8138 95.7421 71.2692 94.2016 71.2692 92.3053C71.2692 89.2107 72.5736 86.0222 75.1488 82.8236C77.714 79.6351 80.9851 76.9937 84.8748 74.9698C88.7679 72.946 92.5904 71.9189 96.2314 71.9189H96.3659L96.9979 74.6745L96.8096 74.6946C91.6995 75.2451 87.2517 77.0642 83.594 80.095C79.9496 83.1156 78.104 86.0524 78.104 88.8214C78.104 89.9793 78.4637 90.9493 79.1764 91.7045C79.8824 92.4563 80.7599 92.8356 81.7785 92.8356C83.3082 92.8356 85.6851 91.1641 88.852 87.8682C92.0391 84.5488 94.3084 81.6758 95.5993 79.3264L95.68 79.1787L98.5377 80.7964L98.4872 80.9307C95.9927 87.5863 94.231 93.2987 93.246 97.917L99.0487 96.0543L99.1327 98.0479L99.0487 98.0983C98.5713 98.3836 96.5138 99.1992 92.7552 100.589C91.2658 109.402 89.0537 115.87 86.1759 119.807C83.2645 123.784 79.6471 125.801 75.4211 125.801ZM93.5553 85.1932L93.1821 86.3612C91.3768 91.9998 90.1093 96.4302 89.4134 99.5247L89.3933 99.6187L89.3025 99.6489C83.2073 101.629 78.272 104.375 74.6277 107.805C71.0002 111.218 69.1646 114.94 69.1646 118.874C69.1646 120.821 69.7361 122.425 70.8658 123.64C71.992 124.855 73.525 125.469 75.4211 125.469C79.5328 125.469 83.0594 123.499 85.9002 119.612C88.7579 115.702 90.9566 109.251 92.4358 100.441L92.4526 100.344L92.5434 100.31C96.0902 98.9978 98.188 98.1755 98.7864 97.86L98.7293 96.5107L92.7989 98.4138L92.856 98.1318C93.8243 93.48 95.596 87.697 98.1208 80.9508L95.8078 79.6418C94.4899 81.9879 92.2307 84.8341 89.0907 88.1031C85.8162 91.5165 83.4225 93.1745 81.7752 93.1745C80.659 93.1745 79.7009 92.7584 78.9276 91.9361C78.1544 91.1171 77.7644 90.07 77.7644 88.8248C77.7644 85.9517 79.6538 82.9277 83.3788 79.8399C87.0433 76.8024 91.4877 74.9665 96.5844 74.3858L96.0969 72.2613C92.5501 72.2848 88.8251 73.2984 85.0295 75.2753C81.1801 77.2756 77.9426 79.8902 75.4111 83.0418C72.8863 86.18 71.6054 89.3013 71.6054 92.3153C71.6054 94.121 72.1197 95.5844 73.1317 96.6618C74.1403 97.7358 75.6632 98.2829 77.6535 98.2829C79.6572 98.2829 81.9433 97.4472 84.4412 95.7992C86.9458 94.1479 89.7866 90.9258 92.8796 86.2236L93.5553 85.1932ZM78.2149 119.317C77.1929 119.317 76.3289 118.948 75.6464 118.219C74.9673 117.494 74.6244 116.541 74.6244 115.387C74.6244 113.212 75.9792 110.778 78.6553 108.154C81.3112 105.549 84.7101 103.287 88.7612 101.428L89.0638 101.29L88.9966 101.616C87.6955 107.838 86.065 112.386 84.152 115.135C82.2156 117.911 80.2186 119.317 78.2149 119.317ZM88.5965 101.874C84.7168 103.69 81.4524 105.882 78.8906 108.395C76.2818 110.953 74.9606 113.306 74.9606 115.387C74.9606 116.454 75.2732 117.33 75.8918 117.991C76.507 118.649 77.287 118.985 78.2149 118.985C80.1009 118.985 82.0071 117.625 83.873 114.944C85.7254 112.279 87.3156 107.882 88.5965 101.874Z" fill="#231F20"/>
<path d="M124.727 98.9574C121.883 98.9574 120.437 97.4471 120.437 94.4667C120.437 93.2852 120.706 91.8924 121.237 90.325L119.19 92.4227C116.672 94.9835 114.46 96.7288 112.611 97.6183C110.758 98.5077 108.913 98.9608 107.124 98.9608C105.312 98.9608 103.92 98.4372 102.982 97.4068C102.051 96.3798 101.577 94.9466 101.577 93.1443C101.577 89.8685 102.858 86.5827 105.386 83.3841C107.904 80.1956 111.165 77.5642 115.078 75.5638C118.995 73.5635 122.969 72.523 126.885 72.476L127.047 72.4727L127.205 75.0772L124.129 75.735C119.94 76.6546 116.191 78.5208 112.994 81.2763C109.81 84.0184 108.2 86.7807 108.2 89.4825C108.2 92.1609 109.242 93.4631 111.384 93.4631C113.424 93.4631 115.993 91.9998 119.018 89.1167C122.061 86.2168 124.636 82.7598 126.667 78.843L126.747 78.6852L129.968 80.5983L129.898 80.7393C127.037 86.4987 125.584 90.2041 125.584 91.7514C125.584 92.3622 125.786 92.859 126.199 93.2718C126.606 93.6779 127.013 93.886 127.406 93.886C127.934 93.886 128.143 93.8525 128.227 93.8256C128.354 93.7853 128.489 93.7283 128.623 93.6611C128.758 93.594 128.926 93.4933 129.128 93.3591C129.329 93.2248 129.511 93.0906 129.669 92.953C129.837 92.8086 130.109 92.5972 130.479 92.3186C130.849 92.04 131.152 91.8118 131.384 91.6239L131.484 91.5433L133.307 92.8858L133.249 93.01C132.587 94.4264 131.36 95.7823 129.598 97.051C127.843 98.313 126.199 98.9574 124.727 98.9574ZM122.095 88.9656L121.812 89.7141C121.123 91.5467 120.777 93.1443 120.777 94.4667C120.777 97.2625 122.071 98.6218 124.73 98.6218C126.132 98.6218 127.709 97.9975 129.417 96.7725C131.078 95.5776 132.251 94.3056 132.9 92.9865L131.508 91.9595C131.289 92.1307 131.02 92.3388 130.698 92.5804C130.331 92.8523 130.066 93.0637 129.904 93.2013C129.733 93.3456 129.541 93.49 129.329 93.6309C129.114 93.7719 128.933 93.8827 128.788 93.9565C128.637 94.0303 128.489 94.0941 128.348 94.1411C128.19 94.1948 127.894 94.2183 127.423 94.2183C126.936 94.2183 126.448 93.98 125.978 93.5068C125.504 93.0369 125.265 92.4462 125.265 91.7514C125.265 90.1404 126.663 86.5357 129.545 80.7292L126.899 79.1551C124.861 83.0417 122.296 86.4753 119.264 89.3617C116.174 92.3085 113.525 93.8021 111.397 93.8021C109.06 93.8021 107.877 92.3488 107.877 89.4859C107.877 86.68 109.531 83.8372 112.789 81.0279C116.03 78.2355 119.825 76.3459 124.071 75.4128L126.865 74.8154L126.744 72.8184C122.932 72.8922 119.062 73.9159 115.246 75.8659C111.377 77.8428 108.153 80.4439 105.665 83.5955C103.187 86.7337 101.93 89.949 101.93 93.1476C101.93 94.8627 102.374 96.222 103.248 97.1819C104.118 98.1385 105.426 98.6252 107.141 98.6252C108.876 98.6252 110.674 98.1855 112.48 97.3162C114.292 96.4469 116.473 94.7217 118.961 92.1911L122.095 88.9656Z" fill="#231F20"/>
<path d="M151.548 97.635C148.748 97.635 147.329 96.1952 147.329 93.3524C147.329 91.7615 147.672 89.9692 148.351 88.0326C149.024 86.1061 149.696 84.3205 150.345 82.7262C150.681 81.9006 150.947 81.2327 151.148 80.7225C150.019 82.0449 148.415 83.4176 146.371 84.8105C143.863 86.5189 141.54 87.3848 139.466 87.3848C136.342 87.3848 134.759 85.5925 134.759 82.0583C134.759 79.813 135.388 77.3024 136.625 74.5972C137.862 71.8887 139.183 69.9688 140.548 68.8881L140.622 68.8311L143.967 70.046L143.873 70.2172C141.708 74.2146 140.612 77.2152 140.612 79.1316C140.612 80.9877 141.449 81.8939 143.167 81.8939C145.211 81.8939 147.595 80.7359 150.251 78.4469C152.913 76.1546 154.826 73.248 155.929 69.8077L155.993 69.6131L159.953 71.8182L159.869 71.9659C154.88 80.7796 152.348 86.9686 152.348 90.3619C152.348 91.8454 152.9 92.5636 154.033 92.5636C155.216 92.5636 156.457 91.9226 157.721 90.6606L157.825 90.5566L160.007 92.1911L159.946 92.3153C159.472 93.3087 158.457 94.4532 156.934 95.7186C155.391 96.9873 153.579 97.635 151.548 97.635ZM152.207 78.7289L151.848 79.8096C151.706 80.2291 151.316 81.226 150.657 82.8538C150.012 84.4447 149.343 86.2235 148.671 88.1467C148.005 90.0497 147.669 91.8017 147.669 93.3557C147.669 96.0106 148.939 97.3028 151.552 97.3028C153.505 97.3028 155.243 96.6819 156.719 95.4602C158.141 94.2787 159.106 93.2148 159.583 92.2918L157.855 90.9996C156.561 92.2582 155.277 92.8993 154.033 92.8993C152.695 92.8993 152.012 92.0468 152.012 90.3619C152.012 86.9284 154.53 80.7326 159.493 71.9491L156.188 70.1098C155.058 73.5232 153.135 76.4164 150.472 78.7054C147.753 81.0447 145.295 82.2329 143.17 82.2329C141.251 82.2329 140.279 81.1924 140.279 79.135C140.279 77.1917 141.358 74.1945 143.49 70.2306L140.689 69.2137C139.392 70.2709 138.128 72.1303 136.934 74.7415C135.717 77.4031 135.098 79.8667 135.098 82.0617C135.098 85.4214 136.527 87.0525 139.469 87.0525C141.473 87.0525 143.732 86.2068 146.183 84.5353C148.647 82.8571 150.452 81.2159 151.552 79.6619L152.207 78.7289Z" fill="#231F20"/>
<path d="M183.917 98.9578C182.498 98.9578 181.362 98.4577 180.541 97.4676C179.728 96.4909 179.314 95.1987 179.314 93.6313C179.314 92.2787 179.516 90.5669 179.909 88.5364C177.855 91.6309 175.633 94.1112 173.3 95.9236C170.768 97.8904 168.593 98.8873 166.842 98.8873C164.135 98.8873 162.764 97.2595 162.764 94.0475C162.764 90.9261 163.86 86.6703 166.025 81.3975C168.223 76.0441 169.756 73.0671 170.721 72.3018L170.802 72.238L174.426 73.8222L174.325 73.9867C172.432 77.0242 170.983 80.0616 170.012 83.0152C169.044 85.9587 168.553 87.949 168.553 88.9257C168.553 89.8722 168.852 90.6408 169.444 91.2114C170.035 91.7819 170.738 92.0706 171.528 92.0706C173.327 92.0706 175.623 90.3689 178.346 87.0092C181.093 83.6193 183.94 78.4842 186.808 71.7447L186.875 71.5869L190.721 73.3188L190.688 73.4564C190.59 73.8424 189.548 76.4972 187.504 81.5653C185.497 86.5427 184.478 89.56 184.478 90.5334C184.478 91.4866 184.687 92.2149 185.1 92.6881C185.507 93.158 185.91 93.3963 186.3 93.3963C186.731 93.3963 187.06 93.3728 187.279 93.3292C187.49 93.2889 187.706 93.2017 187.924 93.0708C188.156 92.9298 188.354 92.8157 188.519 92.7217C188.667 92.6378 188.855 92.4801 189.077 92.2619L189.592 91.6812C189.716 91.5973 189.904 91.4094 190.15 91.1207C190.405 90.8187 190.583 90.6173 190.684 90.5166L190.792 90.4092L192.473 91.7685L192.426 91.8826C191.626 93.8528 190.351 95.541 188.637 96.9003C186.909 98.2664 185.325 98.9578 183.917 98.9578ZM180.609 86.8314L180.417 87.7409C179.909 90.134 179.654 92.1142 179.654 93.6313C179.654 95.1181 180.04 96.3398 180.804 97.2528C181.557 98.1623 182.606 98.6221 183.923 98.6221C185.251 98.6221 186.768 97.9542 188.428 96.6352C190.062 95.3396 191.286 93.7353 192.066 91.8692L190.819 90.8589C190.735 90.9496 190.607 91.0972 190.409 91.3322C190.15 91.6376 189.951 91.8356 189.8 91.943L189.326 92.4834C189.074 92.7385 188.865 92.9063 188.691 93.007C188.529 93.101 188.331 93.2151 188.099 93.3527C187.847 93.5037 187.595 93.6044 187.346 93.6514C187.1 93.7018 186.758 93.7253 186.3 93.7253C185.81 93.7253 185.319 93.4467 184.845 92.8996C184.377 92.3592 184.142 91.5604 184.142 90.5233C184.142 89.4929 185.14 86.5192 187.191 81.431C189.427 75.8931 190.146 74.0169 190.321 73.4967L187.05 72.0232C184.192 78.7124 181.352 83.8241 178.608 87.2106C175.778 90.7012 173.461 92.3961 171.528 92.3961C170.647 92.3961 169.867 92.0739 169.212 91.443C168.553 90.8086 168.217 89.9595 168.217 88.9156C168.217 87.8886 168.701 85.9218 169.693 82.9011C170.654 79.9777 172.083 76.9705 173.939 73.9666L170.859 72.6207C169.945 73.4463 168.428 76.4368 166.341 81.5183C164.192 86.7508 163.107 90.963 163.107 94.0407C163.107 97.0715 164.33 98.5449 166.848 98.5449C168.526 98.5449 170.627 97.5716 173.101 95.6518C175.589 93.7219 177.949 91.0133 180.118 87.6067L180.609 86.8314Z" fill="#231F20"/>
</svg>
