<svg width="630" height="114" fill="none" xmlns="http://www.w3.org/2000/svg"><g clipPath="url(#prefix__clip0)"><path d="M28.009 2.375c12.614 0 23.397 3.721 32.348 11.17 8.95 7.447 13.43 16.153 13.43 26.132 0 9.974-3.046 17.856-9.133 23.639-6.087 5.783-13.808 8.601-23.162 8.455-5.004-.073-8.987-.11-11.96-.11h-5.109c-2.104 0-3.15-.793-3.15-2.385 0-.58.617-2.062 1.847-4.447 4.056-8.095 7.14-16.373 9.244-24.828-7.47 0-14.463-2.062-20.985-6.18-6.532-4.123-9.793-8.8-9.793-14.04 0-5.24 2.465-9.452 7.396-12.63 4.926-3.184 11.27-4.776 19.027-4.776zm-.435 4.447c-4.784 0-8.553 1.012-11.311 3.037-2.759 2.026-4.13 5.006-4.13 8.946 0 3.94 1.905 7.448 5.71 10.517 3.806 3.074 8.899 5.006 15.28 5.799 2.245-9.468 3.548-15.575 3.915-18.325l6.522.652c0 4.484-.942 10.408-2.827 17.782.581 0 3.952-.36 10.113-1.085l.544 3.58c-1.45.507-5.475 1.263-12.07 2.276-2.827 9.108-5.763 16.989-8.81 23.638 7.25.58 13.285.867 18.106.867 4.82 0 8.647-1.79 11.474-5.366 2.826-3.58 4.24-8.403 4.24-14.473 0-10.48-3.591-19.41-10.767-26.78-7.177-7.38-15.84-11.065-25.989-11.065zM126.963 60.602l2.502 1.842c-1.015 2.166-2.884 4.228-5.601 6.18-2.716 1.952-5.202 2.928-7.448 2.928-4.276 0-6.417-2.24-6.417-6.723 0-2.098.544-4.587 1.633-7.479l-4.025 4.118c-3.916 3.977-7.302 6.65-10.165 8.022-2.863 1.373-5.674 2.062-8.427 2.062-2.759 0-4.837-.778-6.255-2.333-1.414-1.555-2.12-3.706-2.12-6.451 0-5.058 1.957-10.063 5.873-15.016 3.915-4.948 8.919-8.983 15.006-12.088 6.088-3.105 12.18-4.697 18.268-4.77l.22 3.58-4.57.976c-6.595 1.446-12.415 4.337-17.45 8.674-5.041 4.338-7.56 8.66-7.56 12.96 0 4.3 1.739 6.451 5.22 6.451 3.26 0 7.286-2.275 12.07-6.832 4.784-4.556 8.772-9.901 11.96-16.05l4.57 2.71c-4.497 9.034-6.742 14.78-6.742 17.239 0 1.012.345 1.863 1.031 2.547.686.689 1.377 1.028 2.068 1.028.685 0 1.141-.037 1.36-.11a4.96 4.96 0 00.655-.271 7.4 7.4 0 00.816-.49c.325-.22.618-.434.869-.653.251-.22.67-.543 1.251-.976a50.012 50.012 0 001.408-1.075zM167.958 59.083l3.047 2.275c-.728 1.519-2.267 3.252-4.622 5.204-2.356 1.952-5.093 2.928-8.208 2.928-4.203 0-6.307-2.13-6.307-6.4 0-2.457.523-5.187 1.575-8.183a180.884 180.884 0 013.099-8.241c1.016-2.495 1.633-4.066 1.848-4.718-1.738 2.458-4.549 5.005-8.427 7.646-3.879 2.64-7.412 3.956-10.6 3.956-4.711 0-7.066-2.672-7.066-8.022 0-3.47.958-7.302 2.884-11.493 1.921-4.191 3.931-7.12 6.035-8.784L146 26.984c-3.407 6.289-5.108 10.95-5.108 13.987 0 3.038 1.413 4.557 4.239 4.557 3.261 0 6.993-1.806 11.202-5.423 4.203-3.612 7.176-8.132 8.919-13.554l5.653 3.142c-7.83 13.81-11.746 23.382-11.746 28.732 0 2.458.958 3.685 2.884 3.685 1.906.01 3.884-1.002 5.915-3.027zM217.867 29.374l4.24.976c-.074.507-1.105 2.694-3.099 6.561-1.994 3.868-4.114 8.93-6.36 15.178-2.245 6.253-3.695 12.563-4.349 18.92l-6.962-.543c0-3.972 1.267-9.108 3.805-15.397-.654-.073-1.973-.11-3.967-.11-1.995 0-5.638.47-10.929 1.41-3.696 8.24-5.544 15.287-5.544 21.143l-7.286-.976c0-5.13 1.921-11.456 5.763-18.972a76.816 76.816 0 00-11.091 2.604l-1.089-4.227c0-.22 1.937-.83 5.815-1.843 3.879-1.012 6.758-1.66 8.647-1.952 5.8-13.299 9.752-20.997 11.851-23.095l4.674 1.842c-.361.726-1.199 2.349-2.502 4.88-3.261 6.29-5.475 11.206-6.632 14.745 6.308-.653 10.092-.976 11.364-.976 1.267 0 2.34.036 3.208.11 5.078-11.64 8.553-18.399 10.443-20.278zM249.943 46.29c3.984-.146 5.983 1.482 5.983 4.88 0 4.483-2.413 8.91-7.229 13.283-4.82 4.374-9.662 6.56-14.514 6.56-4.57 0-6.852-3.073-6.852-9.217 0-4.843 1.214-10.86 3.643-18.053 2.429-7.192 4.439-12.27 6.035-15.235l4.894 1.628c-1.884 5.496-3.805 12.219-5.763 20.168l1.414-.653c4.847-2.239 8.982-3.361 12.389-3.361zm-1.738 11.17c.435-1.013.655-1.953.655-2.82-.22-1.951-1.921-2.927-5.109-2.927-1.523 0-4.35.652-8.48 1.952-.581 2.171-.868 4.102-.868 5.799 0 1.701.418 3.053 1.251 4.065.832 1.013 1.957 1.52 3.37 1.52 1.414 0 3.099-.742 5.057-2.224 1.947-1.483 3.324-3.268 4.124-5.366zm18.158-1.306l-3.261 14.312-6.197-.976c1.45-8.748 3.276-16.88 5.491-24.395 2.208-7.516 4.328-12.902 6.359-16.154l5.329.652c-2.612 6.723-5.182 15.575-7.721 26.561zM306.484 58.759l2.502 1.952c-2.245 3.11-5.328 5.694-9.244 7.75-3.915 2.062-7.72 3.09-11.416 3.09-3.695 0-6.668-1.085-8.919-3.251-2.245-2.166-3.371-5.021-3.371-8.565 0-6.65 3.533-13.19 10.6-19.624 7.066-6.43 14.226-9.651 21.476-9.651 4.784 0 7.176 1.879 7.176 5.637 0 3.904-2.518 7.844-7.558 11.816-5.041 3.977-12.123 7.59-21.257 10.84.655 1.666 1.665 2.965 3.047 3.905 1.376.94 2.79 1.41 4.239 1.41 3.12.004 7.36-1.765 12.725-5.309zm-20.55-3.252c5.873-2.025 10.908-4.556 15.117-7.588 4.203-3.038 6.307-5.82 6.307-8.351 0-.94-.361-1.77-1.089-2.495-.727-.72-1.559-1.086-2.502-1.086-3.407 0-7.087 2.114-11.039 6.342-3.952 4.233-6.213 8.622-6.794 13.178zM380.774 35.283c0 5.276-4.857 9.65-14.572 13.12 2.612 1.593 4.548 3.018 5.815 4.286 1.267 1.263 1.905 2.693 1.905 4.285 0 4.05-2.282 7.61-6.851 10.679-4.57 3.074-9.459 4.608-14.677 4.608-2.539 0-5.078-.396-7.611-1.195-2.539-.793-4.276-1.77-5.219-2.928l4.13-3.794c.869.866 2.047 1.628 3.533 2.275 1.487.653 2.738.976 3.753.976 3.623 0 6.941-.924 9.951-2.766 3.01-1.842 4.512-4.102 4.512-6.775 0-1.445-.544-2.656-1.633-3.632s-2.267-1.66-3.533-2.062a18.195 18.195 0 01-3.534-1.519c-1.088-.61-1.633-1.32-1.633-2.114 0-.793.854-1.534 2.555-2.223 1.701-.684 3.606-1.263 5.71-1.733 2.104-.47 4.005-1.263 5.711-2.385 1.701-1.122 2.554-2.364 2.554-3.742 0-1.373-.471-2.459-1.413-3.252-.942-.793-2.12-1.195-3.533-1.195-1.413 0-3.607.757-6.58 2.276-2.973 1.518-5.982 3.47-9.024 5.856l-1.523-3.038c2.612-3.038 6.145-5.726 10.6-8.08 4.459-2.348 8.045-3.522 10.767-3.522 2.716 0 5.035.74 6.961 2.223 1.916 1.487 2.879 3.278 2.879 5.37zM431.228 61.306l2.502 1.842c-1.016 2.166-2.884 4.228-5.601 6.18-2.716 1.952-5.203 2.928-7.448 2.928-4.277 0-6.418-2.24-6.418-6.722 0-2.099.545-4.588 1.634-7.48l-4.026 4.118c-3.915 3.977-7.301 6.65-10.165 8.022-2.863 1.373-5.674 2.062-8.427 2.062-2.758 0-4.836-.778-6.255-2.333-1.413-1.555-2.12-3.706-2.12-6.451 0-5.058 1.958-10.063 5.873-15.016 3.915-4.948 8.919-8.982 15.007-12.088 6.087-3.105 12.18-4.697 18.268-4.77l.219 3.58-4.569.976c-6.595 1.446-12.416 4.337-17.451 8.675-5.041 4.337-7.559 8.658-7.559 12.96 0 4.3 1.738 6.45 5.219 6.45 3.261 0 7.286-2.275 12.07-6.832 4.784-4.556 8.773-9.9 11.961-16.05l4.569 2.71c-4.496 9.034-6.742 14.78-6.742 17.239 0 1.013.346 1.863 1.032 2.547.685.689 1.376 1.028 2.067 1.028.686 0 1.141-.036 1.361-.11.22-.073.435-.161.654-.27.22-.11.492-.272.817-.492.324-.219.618-.433.869-.652.251-.22.67-.543 1.251-.976a45.69 45.69 0 001.408-1.075zM484.617 68.352l.11 2.605c-.727.433-4.025 1.732-9.893 3.904-2.319 13.805-5.726 23.779-10.222 29.927-4.497 6.143-10.003 9.217-16.53 9.217-3.047 0-5.475-.976-7.286-2.928s-2.717-4.483-2.717-7.588c0-6.217 2.863-12.02 8.59-17.402 5.726-5.386 13.373-9.635 22.941-12.74 1.089-4.843 3.047-11.675 5.873-20.49-4.857 7.374-9.259 12.358-13.211 14.963-3.952 2.604-7.522 3.904-10.709 3.904-3.193 0-5.601-.867-7.229-2.605-1.633-1.732-2.444-4.044-2.444-6.941 0-4.77 1.994-9.63 5.982-14.583 3.984-4.948 9.009-8.998 15.06-12.145 6.05-3.142 11.908-4.719 17.561-4.719l.868 3.795c-8.045.866-14.949 3.685-20.717 8.455-5.763 4.77-8.647 9.364-8.647 13.769 0 1.879.581 3.434 1.738 4.66 1.157 1.232 2.57 1.843 4.24 1.843 2.465 0 6.197-2.605 11.201-7.808 5.004-5.204 8.516-9.65 10.547-13.336l4.025 2.276c-3.988 10.627-6.741 19.588-8.265 26.89l9.134-2.923zm-15.656 8.242c-6.307 2.89-11.525 6.362-15.655 10.407-4.13 4.045-6.198 7.735-6.198 11.06 0 1.732.508 3.141 1.523 4.227 1.016 1.086 2.283 1.629 3.806 1.629 3.046 0 6.051-2.135 9.024-6.4 2.968-4.263 5.47-11.236 7.5-20.923zM535.401 61.306l2.502 1.842c-1.016 2.166-2.884 4.228-5.601 6.18-2.716 1.952-5.203 2.928-7.448 2.928-4.277 0-6.418-2.24-6.418-6.722 0-2.099.545-4.588 1.634-7.48l-4.026 4.118c-3.915 3.977-7.302 6.65-10.165 8.022-2.863 1.373-5.674 2.062-8.427 2.062-2.758 0-4.836-.778-6.255-2.333-1.413-1.555-2.12-3.706-2.12-6.451 0-5.058 1.958-10.063 5.873-15.016 3.915-4.948 8.919-8.982 15.007-12.088 6.087-3.105 12.18-4.697 18.268-4.77l.219 3.58-4.569.976c-6.595 1.446-12.416 4.337-17.451 8.675-5.041 4.337-7.559 8.658-7.559 12.96 0 4.3 1.738 6.45 5.219 6.45 3.261 0 7.286-2.275 12.07-6.832 4.784-4.556 8.773-9.9 11.961-16.05l4.569 2.71c-4.496 9.034-6.742 14.78-6.742 17.239 0 1.013.346 1.863 1.032 2.547.685.689 1.376 1.028 2.067 1.028.686 0 1.141-.036 1.361-.11a4.95 4.95 0 00.654-.27c.22-.11.492-.272.817-.492.324-.219.618-.433.869-.652.251-.22.67-.543 1.251-.976.57-.423 1.041-.788 1.408-1.075zM576.39 59.788l3.046 2.275c-.727 1.519-2.266 3.252-4.622 5.204-2.355 1.952-5.093 2.928-8.207 2.928-4.203 0-6.307-2.13-6.307-6.399 0-2.458.523-5.188 1.575-8.184a178.536 178.536 0 013.099-8.241c1.015-2.495 1.633-4.066 1.847-4.718-1.737 2.458-4.548 5.005-8.427 7.646-3.878 2.64-7.411 3.956-10.599 3.956-4.711 0-7.066-2.672-7.066-8.022 0-3.47.957-7.302 2.884-11.493 1.921-4.191 3.931-7.119 6.035-8.784l4.784 1.733c-3.408 6.29-5.109 10.95-5.109 13.988 0 3.037 1.413 4.556 4.24 4.556 3.261 0 6.993-1.806 11.201-5.423 4.204-3.612 7.177-8.132 8.92-13.554l5.653 3.142c-7.831 13.81-11.746 23.382-11.746 28.732 0 2.458.958 3.685 2.884 3.685 1.911.01 3.889-1.002 5.915-3.027zM627.717 59.568L630 61.41c-1.236 3.038-3.172 5.6-5.816 7.699-2.648 2.098-5.04 3.142-7.176 3.142-2.141 0-3.826-.741-5.056-2.224-1.236-1.482-1.848-3.413-1.848-5.798 0-2.385.398-5.46 1.199-9.217-3.408 5.35-7.067 9.54-10.982 12.578-3.915 3.038-7.213 4.556-9.893 4.556-4.062 0-6.087-2.421-6.087-7.265 0-4.843 1.685-11.367 5.056-19.572 3.371-8.205 5.779-12.887 7.229-14.04l5.218 2.276c-2.973 4.77-5.218 9.473-6.741 14.097-1.524 4.624-2.283 7.72-2.283 9.27 0 1.555.487 2.802 1.466 3.742s2.12 1.409 3.423 1.409c2.9 0 6.506-2.657 10.819-7.97 4.314-5.313 8.716-13.247 13.212-23.8l5.548 2.495c-.146.58-1.795 4.77-4.946 12.578s-4.732 12.49-4.732 14.04c0 1.556.345 2.73 1.031 3.523.686.799 1.377 1.195 2.068 1.195.685 0 1.214-.036 1.575-.11.361-.072.722-.218 1.089-.432.361-.22.67-.397.926-.543.252-.146.56-.397.927-.757l.759-.866c.22-.146.523-.45.926-.924.388-.47.66-.778.806-.924z" fill="#4A8E25"/><path d="M40.838 69.923c-.225 0-.445 0-.67-.005a850.23 850.23 0 00-11.955-.11h-5.109c-2.821 0-3.413-1.44-3.413-2.646 0-.626.613-2.12 1.88-4.567 3.978-7.933 7.05-16.159 9.139-24.452-7.36-.063-14.353-2.156-20.791-6.222C3.334 27.771 0 22.975 0 17.662c0-5.308 2.528-9.63 7.511-12.85C12.463 1.618 18.911 0 26.684 0 39.3 0 50.24 3.779 59.2 11.227c8.971 7.463 13.525 16.32 13.525 26.331 0 10.005-3.098 18.017-9.217 23.826-5.962 5.668-13.589 8.539-22.67 8.539zM26.684.522C19.016.522 12.662 2.114 7.8 5.25 2.973 8.367.523 12.542.523 17.662c0 5.12 3.25 9.77 9.663 13.82 6.454 4.077 13.468 6.139 20.848 6.139h.335l-.078.323c-2.1 8.44-5.214 16.812-9.265 24.886-1.508 2.912-1.822 3.961-1.822 4.327 0 1.43.948 2.124 2.89 2.124h5.108c2.994 0 7.02.036 11.966.11 9.244.14 16.97-2.678 22.979-8.388 6.009-5.705 9.05-13.59 9.05-23.45 0-9.849-4.486-18.57-13.337-25.93C50.003 4.26 39.173.522 26.684.522zm20.608 62.13c-4.82 0-10.919-.292-18.127-.866l-.371-.031.157-.34c3.025-6.607 5.983-14.55 8.794-23.606l.047-.157.162-.026c6.26-.96 10.233-1.696 11.819-2.197l-.471-3.111c-6.062.71-9.301 1.054-9.893 1.054h-.335l.084-.323c1.837-7.193 2.784-13.07 2.816-17.48l-6.035-.6c-.409 2.855-1.712 8.94-3.884 18.1l-.053.23-.235-.031c-6.402-.799-11.584-2.766-15.41-5.856-3.852-3.11-5.805-6.717-5.805-10.72 0-4.01 1.424-7.088 4.24-9.155 2.79-2.046 6.648-3.085 11.463-3.085 10.176 0 18.98 3.748 26.177 11.138 7.192 7.39 10.84 16.462 10.84 26.963 0 6.101-1.444 11.028-4.297 14.635-2.874 3.622-6.8 5.465-11.683 5.465zM29.579 61.29c7.03.553 12.986.835 17.713.835 4.716 0 8.506-1.774 11.264-5.266 2.774-3.513 4.182-8.33 4.182-14.311 0-10.36-3.596-19.312-10.693-26.598C44.957 8.664 36.279 4.97 26.25 4.97c-4.706 0-8.459 1.002-11.154 2.985-2.67 1.963-4.026 4.901-4.026 8.737 0 3.842 1.89 7.307 5.612 10.314 3.7 2.99 8.72 4.911 14.912 5.715 2.204-9.29 3.497-15.366 3.858-18.07l.031-.25 7.014.7v.234c0 4.41-.926 10.298-2.748 17.506 1.11-.078 4.376-.439 9.741-1.065l.252-.031.612 4.04-.204.073c-1.466.511-5.381 1.252-11.955 2.265-2.754 8.857-5.653 16.65-8.616 23.168zM115.086 69.698c-4.428 0-6.679-2.348-6.679-6.983 0-1.837.419-4.003 1.246-6.44l-3.188 3.261c-3.92 3.983-7.364 6.697-10.243 8.08-2.884 1.383-5.758 2.087-8.542 2.087-2.822 0-4.989-.814-6.45-2.416-1.449-1.597-2.187-3.826-2.187-6.629 0-5.094 1.994-10.203 5.93-15.177 3.92-4.959 8.998-9.05 15.091-12.161 6.098-3.111 12.285-4.729 18.383-4.802l.251-.005.246 4.05-4.789 1.023c-6.522 1.43-12.359 4.332-17.336 8.617-4.957 4.264-7.465 8.56-7.465 12.761 0 4.165 1.623 6.19 4.957 6.19 3.178 0 7.177-2.275 11.888-6.759 4.737-4.51 8.746-9.885 11.908-15.976l.125-.245 5.015 2.975-.11.219c-4.455 8.956-6.716 14.718-6.716 17.124 0 .95.314 1.723.958 2.365.633.631 1.267.955 1.879.955.822 0 1.146-.052 1.277-.094.199-.063.409-.152.618-.256.209-.104.471-.26.785-.47.314-.208.597-.417.843-.631.261-.225.685-.553 1.261-.987a54.326 54.326 0 001.408-1.08l.157-.125 2.837 2.088-.089.193c-1.031 2.202-2.941 4.31-5.684 6.284-2.732 1.962-5.292 2.964-7.585 2.964zm-4.098-15.538l-.44 1.164c-1.073 2.85-1.612 5.334-1.612 7.39 0 4.349 2.015 6.462 6.156 6.462 2.182 0 4.637-.97 7.296-2.876 2.586-1.858 4.413-3.836 5.423-5.887l-2.167-1.597c-.34.266-.759.59-1.262.965-.57.423-.984.752-1.235.966a9.932 9.932 0 01-.895.668c-.335.22-.618.392-.843.506a5.615 5.615 0 01-.685.288c-.246.083-.707.12-1.44.12-.759 0-1.518-.371-2.251-1.107-.738-.73-1.109-1.65-1.109-2.73 0-2.505 2.177-8.11 6.663-17.14l-4.119-2.448c-3.172 6.044-7.166 11.384-11.887 15.872-4.811 4.583-8.935 6.905-12.249 6.905-3.637 0-5.48-2.26-5.48-6.712 0-4.363 2.575-8.784 7.647-13.152 5.046-4.343 10.956-7.281 17.567-8.732l4.349-.93-.188-3.105c-5.936.115-11.96 1.707-17.901 4.74-6.025 3.074-11.045 7.118-14.918 12.02-3.858 4.88-5.815 9.88-5.815 14.854 0 2.667.69 4.78 2.051 6.273 1.356 1.488 3.392 2.245 6.062 2.245 2.7 0 5.501-.684 8.312-2.036 2.821-1.352 6.218-4.035 10.092-7.97l4.878-5.016zM156.846 67.637c-4.36 0-6.569-2.24-6.569-6.66 0-2.474.534-5.261 1.591-8.273a175.659 175.659 0 013.104-8.251c.524-1.284.937-2.323 1.251-3.116-1.758 2.056-4.255 4.19-7.438 6.357-3.904 2.656-7.521 4.003-10.751 4.003-4.863 0-7.328-2.787-7.328-8.283 0-3.492.979-7.396 2.905-11.603 1.926-4.212 3.983-7.197 6.109-8.878l.115-.088 5.208 1.89-.147.265c-3.371 6.216-5.077 10.883-5.077 13.863 0 2.886 1.303 4.295 3.978 4.295 3.182 0 6.894-1.8 11.029-5.36 4.145-3.565 7.124-8.085 8.84-13.435l.1-.302 6.166 3.429-.131.23c-7.768 13.705-11.709 23.33-11.709 28.607 0 2.306.858 3.423 2.622 3.423 1.843 0 3.774-.996 5.742-2.959l.163-.162 3.397 2.542-.095.193c-.738 1.545-2.318 3.325-4.689 5.292-2.403 1.979-5.224 2.98-8.386 2.98zm1.026-29.395l-.56 1.68c-.22.653-.827 2.203-1.853 4.734a179.443 179.443 0 00-3.093 8.231c-1.037 2.96-1.56 5.684-1.56 8.1 0 4.129 1.978 6.138 6.045 6.138 3.042 0 5.748-.965 8.046-2.865 2.214-1.837 3.716-3.492 4.459-4.927l-2.69-2.01c-2.015 1.958-4.015 2.955-5.952 2.955-2.083 0-3.146-1.326-3.146-3.946 0-5.34 3.921-14.974 11.647-28.633l-5.146-2.86c-1.758 5.308-4.752 9.807-8.898 13.366-4.234 3.638-8.061 5.486-11.369 5.486-2.989 0-4.501-1.618-4.501-4.818 0-3.022 1.68-7.683 4.999-13.847l-4.361-1.581c-2.02 1.644-3.988 4.535-5.846 8.596-1.895 4.139-2.858 7.97-2.858 11.383 0 5.225 2.224 7.761 6.804 7.761 3.12 0 6.637-1.315 10.453-3.914 3.837-2.61 6.648-5.162 8.359-7.578l1.021-1.451z" fill="#231F20"/><path d="M183.635 75.701l-7.81-1.044v-.23c0-5.046 1.869-11.315 5.559-18.638a77.807 77.807 0 00-10.547 2.511l-.262.084-1.162-4.562c0-.293 0-.527 6.014-2.098 3.774-.982 6.643-1.634 8.527-1.937 5.836-13.372 9.71-20.913 11.85-23.043l.121-.12 5.103 2.01-.131.255c-.361.726-1.198 2.349-2.502 4.88-3.125 6.029-5.307 10.846-6.49 14.327 6.045-.62 9.741-.934 10.987-.934 1.172 0 2.193.031 3.041.094 5.093-11.67 8.5-18.273 10.421-20.188l.105-.105 4.617 1.065-.032.235c-.052.344-.429 1.41-3.125 6.644-1.978 3.836-4.114 8.936-6.349 15.147-2.23 6.2-3.69 12.547-4.334 18.857l-.026.256-7.454-.58v-.24c0-3.925 1.241-9.024 3.696-15.167-.728-.052-1.932-.078-3.596-.078-1.947 0-5.564.464-10.746 1.383-3.628 8.116-5.465 15.151-5.465 20.908v.308h-.01zm-7.281-1.503l6.762.908c.063-5.809 1.937-12.855 5.57-20.95l.057-.125.136-.026c5.287-.94 8.982-1.415 10.977-1.415 1.984 0 3.329.037 3.999.11l.345.036-.131.319c-2.46 6.1-3.732 11.164-3.784 15.057l6.464.501c.665-6.268 2.125-12.568 4.34-18.727 2.24-6.237 4.386-11.352 6.375-15.209 2.083-4.04 2.811-5.652 3.01-6.247l-3.832-.882c-1.879 1.988-5.339 8.747-10.285 20.094l-.074.172-.188-.015a39.191 39.191 0 00-3.188-.11c-1.256 0-5.066.329-11.337.976l-.403.042.125-.381c1.157-3.534 3.392-8.508 6.648-14.786a752.42 752.42 0 002.371-4.625l-4.245-1.675c-2.099 2.234-6.03 9.932-11.678 22.892l-.057.13-.142.021c-1.868.287-4.768.94-8.62 1.947-4.188 1.096-5.303 1.519-5.591 1.675l.979 3.816a78.595 78.595 0 0110.867-2.532l.507-.078-.235.454c-3.758 7.338-5.685 13.602-5.742 18.633zM232.853 69.155c-4.722 0-7.114-3.189-7.114-9.478 0-4.849 1.23-10.955 3.659-18.137 2.418-7.171 4.454-12.307 6.051-15.272l.105-.193 5.354 1.78-.083.25c-1.827 5.33-3.722 11.927-5.627 19.62l.921-.423c4.868-2.244 9.071-3.382 12.499-3.387 2.214-.078 3.858.386 4.9 1.388.895.861 1.35 2.124 1.35 3.753 0 4.535-2.46 9.07-7.317 13.476-4.853 4.395-9.799 6.623-14.698 6.623zm2.952-42.448c-1.565 2.97-3.554 8.011-5.915 15-2.408 7.13-3.627 13.173-3.627 17.97 0 6.028 2.156 8.956 6.59 8.956 4.768 0 9.594-2.181 14.342-6.492 4.742-4.301 7.144-8.706 7.144-13.09 0-1.483-.397-2.62-1.188-3.377-.931-.898-2.455-1.316-4.522-1.242h-.011c-3.35 0-7.485 1.122-12.285 3.335l-1.905.877.131-.528c1.921-7.813 3.837-14.52 5.685-19.943l-4.439-1.466zm26.171 41.942l-6.7-1.054.042-.261c1.445-8.722 3.298-16.937 5.496-24.427 2.209-7.505 4.355-12.964 6.391-16.221l.089-.141 5.826.71-.12.313c-2.596 6.68-5.187 15.606-7.71 26.53l-3.314 14.551zm-6.098-1.487l5.695.897 3.209-14.076c2.486-10.778 5.046-19.62 7.611-26.29l-4.832-.59c-1.984 3.236-4.082 8.597-6.244 15.95-2.172 7.396-4.004 15.502-5.439 24.109zm-18.189-3.967c-1.492 0-2.696-.543-3.575-1.613-.869-1.054-1.308-2.48-1.308-4.233 0-1.717.293-3.69.879-5.866l.037-.141.136-.042c4.198-1.32 6.998-1.962 8.558-1.962 3.329 0 5.135 1.064 5.37 3.157 0 .93-.225 1.91-.67 2.944-.811 2.135-2.23 3.977-4.219 5.475-1.989 1.514-3.742 2.28-5.208 2.28zm-3.533-11.44c-.544 2.076-.822 3.96-.822 5.594 0 1.629.403 2.944 1.194 3.9.785.954 1.821 1.424 3.166 1.424 1.351 0 3-.73 4.9-2.171 1.905-1.44 3.266-3.21 4.046-5.25l.005-.011c.419-.976.633-1.89.633-2.714-.199-1.785-1.785-2.667-4.847-2.667-1.481-.006-4.266.636-8.275 1.894zM287.002 69.698c-3.753 0-6.81-1.116-9.098-3.324-2.287-2.208-3.449-5.152-3.449-8.753 0-6.696 3.596-13.361 10.689-19.818 7.087-6.445 14.368-9.718 21.654-9.718 4.936 0 7.438 1.983 7.438 5.898 0 3.972-2.576 8.017-7.658 12.025-4.988 3.935-12.081 7.568-21.073 10.794.633 1.487 1.591 2.677 2.847 3.533 1.324.903 2.701 1.362 4.093 1.362 3.052 0 7.281-1.774 12.578-5.271l.157-.105 2.848 2.224-.147.203c-2.261 3.127-5.402 5.762-9.332 7.83-3.942 2.071-7.826 3.12-11.547 3.12zm19.791-41.091c-7.145 0-14.316 3.225-21.299 9.583-6.977 6.351-10.515 12.891-10.515 19.431 0 3.455 1.109 6.274 3.292 8.377 2.188 2.109 5.124 3.178 8.736 3.178 3.638 0 7.438-1.028 11.296-3.058 3.773-1.989 6.804-4.499 9.003-7.474l-2.152-1.68c-5.313 3.486-9.584 5.25-12.709 5.25-1.497 0-2.973-.49-4.386-1.456-1.413-.966-2.471-2.318-3.141-4.024l-.099-.25.256-.09c9.066-3.225 16.19-6.863 21.184-10.803 4.946-3.904 7.459-7.814 7.459-11.613-.011-3.612-2.272-5.371-6.925-5.371zm-22.497 25.167l.052-.417c.586-4.588 2.894-9.071 6.862-13.32 3.983-4.264 7.763-6.425 11.228-6.425 1.01 0 1.91.392 2.685 1.159.774.772 1.162 1.675 1.162 2.677 0 2.605-2.157 5.486-6.417 8.56-4.209 3.038-9.317 5.606-15.185 7.625l-.387.141zm18.147-19.64c-3.319 0-6.967 2.109-10.846 6.258-3.774 4.035-6.014 8.278-6.668 12.61 5.648-1.983 10.573-4.473 14.645-7.417 4.115-2.97 6.198-5.71 6.198-8.137 0-.871-.33-1.628-1.01-2.312-.686-.673-1.445-1.002-2.319-1.002zM351.043 70.002c-2.554 0-5.145-.407-7.689-1.206-2.576-.809-4.376-1.822-5.344-3.012l-.157-.188 4.496-4.128.178.177c.842.84 2.004 1.587 3.454 2.224 1.445.632 2.67.955 3.649.955 3.559 0 6.857-.918 9.814-2.724 2.91-1.785 4.386-3.988 4.386-6.556 0-1.362-.518-2.52-1.544-3.44-1.052-.944-2.209-1.617-3.439-2.004a18.53 18.53 0 01-3.585-1.54c-1.173-.657-1.764-1.445-1.764-2.343 0-.918.89-1.727 2.716-2.463 1.702-.69 3.638-1.274 5.748-1.749 2.062-.459 3.952-1.252 5.621-2.348 1.618-1.065 2.439-2.25 2.439-3.523 0-1.305-.434-2.302-1.319-3.054-.889-.751-2.02-1.132-3.365-1.132-1.366 0-3.539.757-6.459 2.25-2.942 1.502-5.962 3.46-8.982 5.83l-.252.197-1.743-3.476.116-.13c2.617-3.048 6.213-5.783 10.677-8.137 4.476-2.359 8.14-3.554 10.888-3.554 2.764 0 5.156.767 7.118 2.275 1.979 1.53 2.984 3.403 2.984 5.575 0 5.282-4.789 9.713-14.237 13.178 2.381 1.483 4.203 2.84 5.407 4.035 1.314 1.31 1.978 2.813 1.978 4.468 0 4.123-2.345 7.787-6.967 10.897-4.585 3.08-9.573 4.646-14.823 4.646zm-12.468-4.364c.937 1.034 2.596 1.926 4.936 2.657 2.497.783 5.03 1.18 7.532 1.18 5.145 0 10.034-1.535 14.536-4.562 4.47-3.006 6.736-6.524 6.736-10.465 0-1.508-.612-2.886-1.827-4.097-1.251-1.248-3.193-2.672-5.768-4.243l-.466-.282.513-.183c9.553-3.413 14.4-7.745 14.4-12.876 0-1.999-.937-3.737-2.78-5.162-1.868-1.44-4.156-2.166-6.799-2.166-2.659 0-6.239 1.175-10.641 3.492-4.345 2.291-7.846 4.943-10.411 7.886l1.303 2.594c2.963-2.296 5.925-4.212 8.815-5.684 3.035-1.55 5.229-2.306 6.699-2.306 1.471 0 2.717.422 3.701 1.252 1 .846 1.508 2.01 1.508 3.45 0 1.462-.901 2.793-2.675 3.956-1.722 1.133-3.669 1.947-5.794 2.422-2.084.47-3.994 1.044-5.669 1.723-1.565.631-2.392 1.315-2.392 1.983 0 .694.502 1.325 1.497 1.89a18.113 18.113 0 003.481 1.497c1.298.407 2.522 1.122 3.632 2.114 1.141 1.023 1.717 2.312 1.717 3.826 0 2.755-1.56 5.115-4.638 6.999-3.036 1.858-6.427 2.803-10.086 2.803-1.047 0-2.345-.335-3.858-.997-1.408-.616-2.565-1.342-3.433-2.156l-3.769 3.455zM419.33 70c-4.428 0-6.678-2.348-6.678-6.983 0-1.837.418-4.003 1.245-6.44l-3.187 3.262c-3.921 3.982-7.365 6.696-10.244 8.08-2.884 1.383-5.758 2.087-8.542 2.087-2.822 0-4.989-.814-6.449-2.416-1.45-1.597-2.188-3.826-2.188-6.629 0-5.094 1.994-10.204 5.931-15.178 3.92-4.958 8.997-9.05 15.09-12.16 6.098-3.111 12.285-4.73 18.383-4.802l.251-.006.246 4.05-4.789 1.024c-6.522 1.43-12.358 4.332-17.336 8.617-4.957 4.264-7.464 8.56-7.464 12.76 0 4.166 1.622 6.19 4.957 6.19 3.177 0 7.176-2.275 11.887-6.758 4.737-4.51 8.746-9.885 11.908-15.976l.125-.246 5.015 2.975-.11.22c-4.455 8.956-6.716 14.718-6.716 17.124 0 .95.314 1.722.958 2.364.633.632 1.267.956 1.879.956.822 0 1.147-.053 1.277-.094.199-.063.409-.152.618-.256.209-.105.471-.261.785-.47.314-.209.597-.417.843-.631.262-.225.686-.554 1.261-.987a54.552 54.552 0 001.408-1.08l.157-.126 2.837 2.088-.089.193c-1.031 2.203-2.941 4.312-5.684 6.284-2.738 1.963-5.292 2.965-7.585 2.965zm-4.103-15.537l-.44 1.164c-1.073 2.85-1.612 5.334-1.612 7.39 0 4.348 2.015 6.462 6.155 6.462 2.183 0 4.638-.97 7.297-2.876 2.586-1.858 4.413-3.836 5.423-5.887l-2.167-1.597c-.34.266-.759.59-1.262.965-.57.423-.984.752-1.235.966a9.913 9.913 0 01-.895.668 9.69 9.69 0 01-.843.506 5.68 5.68 0 01-.685.287c-.246.084-.707.12-1.44.12-.759 0-1.518-.37-2.251-1.106-.738-.73-1.109-1.65-1.109-2.73 0-2.505 2.177-8.11 6.663-17.14l-4.119-2.448c-3.172 6.044-7.166 11.383-11.887 15.872-4.811 4.582-8.935 6.905-12.249 6.905-3.638 0-5.48-2.26-5.48-6.712 0-4.363 2.575-8.784 7.647-13.153 5.046-4.342 10.956-7.28 17.567-8.731l4.349-.93-.188-3.105c-5.936.115-11.961 1.707-17.901 4.74-6.025 3.073-11.045 7.118-14.918 12.02-3.858 4.88-5.816 9.88-5.816 14.853 0 2.667.691 4.781 2.052 6.274 1.356 1.487 3.392 2.244 6.062 2.244 2.701 0 5.501-.683 8.312-2.035 2.821-1.352 6.218-4.035 10.091-7.97l4.879-5.016zM446.732 111.746c-3.11 0-5.622-1.013-7.48-3.012-1.848-1.994-2.79-4.603-2.79-7.766 0-6.263 2.915-12.182 8.673-17.594 5.7-5.36 13.405-9.65 22.9-12.751 1.016-4.494 2.79-10.747 5.287-18.612-4.46 6.54-8.579 11.08-12.259 13.502-3.978 2.62-7.631 3.946-10.856 3.946-3.25 0-5.747-.903-7.422-2.683-1.67-1.774-2.518-4.17-2.518-7.119 0-4.812 2.031-9.77 6.041-14.744 3.993-4.959 9.086-9.066 15.142-12.214 6.062-3.147 12.013-4.744 17.682-4.744h.209l.984 4.285-.293.031c-7.956.856-14.881 3.685-20.576 8.398-5.674 4.698-8.547 9.265-8.547 13.57 0 1.801.56 3.31 1.669 4.484 1.1 1.169 2.466 1.759 4.052 1.759 2.381 0 6.082-2.6 11.013-7.725 4.962-5.162 8.495-9.63 10.505-13.283l.125-.23 4.45 2.516-.079.209c-3.884 10.35-6.627 19.233-8.16 26.415l9.034-2.897.131 3.1-.131.079c-.743.443-3.946 1.712-9.798 3.872-2.319 13.706-5.763 23.764-10.244 29.886-4.533 6.185-10.165 9.322-16.744 9.322zm28.233-63.154l-.581 1.816c-2.81 8.769-4.784 15.658-5.867 20.47l-.032.147-.141.047c-9.49 3.08-17.174 7.349-22.848 12.683-5.647 5.308-8.505 11.096-8.505 17.213 0 3.027.889 5.522 2.648 7.411 1.754 1.89 4.14 2.845 7.093 2.845 6.401 0 11.892-3.064 16.315-9.108 4.449-6.08 7.872-16.112 10.175-29.813l.027-.15.141-.053c5.522-2.04 8.788-3.32 9.72-3.81l-.089-2.098-9.233 2.959.089-.438c1.507-7.234 4.266-16.227 8.197-26.718l-3.602-2.035c-2.051 3.648-5.569 8.074-10.458 13.157-5.098 5.308-8.825 7.887-11.39 7.887-1.737 0-3.229-.648-4.433-1.926-1.204-1.274-1.811-2.902-1.811-4.839 0-4.467 2.942-9.17 8.741-13.972 5.706-4.723 12.625-7.578 20.561-8.481l-.759-3.304c-5.523.037-11.322 1.613-17.232 4.687-5.993 3.11-11.034 7.177-14.975 12.078-3.931 4.88-5.925 9.734-5.925 14.42 0 2.808.801 5.084 2.376 6.76 1.57 1.67 3.941 2.52 7.04 2.52 3.12 0 6.679-1.3 10.568-3.862 3.9-2.568 8.323-7.578 13.138-14.89l1.052-1.603zm-23.884 53.07c-1.591 0-2.936-.574-3.999-1.707-1.057-1.127-1.591-2.61-1.591-4.405 0-3.382 2.11-7.166 6.276-11.247 4.135-4.05 9.427-7.568 15.734-10.46l.471-.214-.104.506c-2.026 9.677-4.565 16.75-7.543 21.024-3.015 4.311-6.124 6.503-9.244 6.503zm16.164-27.13c-6.041 2.824-11.123 6.232-15.112 10.141-4.061 3.977-6.118 7.636-6.118 10.872 0 1.66.486 3.022 1.449 4.05.958 1.023 2.173 1.545 3.617 1.545 2.937 0 5.905-2.114 8.81-6.284 2.884-4.144 5.36-10.981 7.354-20.324zM523.497 70c-4.428 0-6.678-2.348-6.678-6.983 0-1.837.418-4.003 1.245-6.44l-3.187 3.262c-3.921 3.982-7.365 6.696-10.244 8.08-2.884 1.383-5.758 2.087-8.542 2.087-2.822 0-4.989-.814-6.449-2.416-1.45-1.597-2.188-3.826-2.188-6.629 0-5.094 1.994-10.204 5.931-15.178 3.92-4.958 8.997-9.05 15.09-12.16 6.098-3.111 12.285-4.73 18.383-4.802l.251-.006.246 4.05-4.789 1.024c-6.522 1.43-12.358 4.332-17.336 8.617-4.957 4.264-7.464 8.56-7.464 12.76 0 4.166 1.622 6.19 4.957 6.19 3.177 0 7.176-2.275 11.887-6.758 4.737-4.51 8.746-9.885 11.908-15.976l.125-.246 5.015 2.975-.11.22c-4.455 8.956-6.716 14.718-6.716 17.124 0 .95.314 1.722.958 2.364.633.632 1.267.956 1.879.956.822 0 1.147-.053 1.277-.094.199-.063.409-.152.618-.256.209-.105.471-.261.785-.47.314-.209.597-.417.843-.631.262-.225.686-.554 1.261-.987a54.552 54.552 0 001.408-1.08l.157-.126 2.837 2.088-.089.193c-1.031 2.203-2.941 4.312-5.684 6.284-2.732 1.963-5.292 2.965-7.585 2.965zm-4.098-15.537l-.44 1.164c-1.073 2.85-1.612 5.334-1.612 7.39 0 4.348 2.015 6.462 6.156 6.462 2.182 0 4.637-.97 7.296-2.876 2.586-1.858 4.413-3.836 5.423-5.887l-2.167-1.597c-.34.266-.759.59-1.261.965-.571.423-.984.752-1.236.966a9.913 9.913 0 01-.895.668c-.335.22-.617.391-.842.506a5.692 5.692 0 01-.686.287c-.246.084-.707.12-1.44.12-.759 0-1.518-.37-2.25-1.106-.738-.73-1.11-1.65-1.11-2.73 0-2.505 2.177-8.11 6.663-17.14l-4.119-2.448c-3.172 6.044-7.166 11.383-11.887 15.872-4.811 4.582-8.935 6.905-12.249 6.905-3.637 0-5.48-2.26-5.48-6.712 0-4.363 2.575-8.784 7.647-13.153 5.046-4.342 10.956-7.28 17.567-8.731l4.349-.93-.188-3.105c-5.936.115-11.96 1.707-17.901 4.74-6.025 3.073-11.045 7.118-14.918 12.02-3.858 4.88-5.815 9.88-5.815 14.853 0 2.667.691 4.781 2.052 6.274 1.355 1.487 3.391 2.244 6.061 2.244 2.701 0 5.501-.683 8.312-2.035 2.821-1.352 6.218-4.035 10.092-7.97l4.878-5.016zM565.257 67.94c-4.36 0-6.569-2.24-6.569-6.66 0-2.474.534-5.261 1.592-8.273a174.515 174.515 0 013.103-8.252c.524-1.284.937-2.322 1.251-3.116-1.758 2.057-4.255 4.191-7.437 6.358-3.905 2.656-7.522 4.003-10.752 4.003-4.862 0-7.328-2.787-7.328-8.283 0-3.492.979-7.396 2.905-11.603 1.926-4.212 3.984-7.197 6.109-8.878l.115-.088 5.208 1.889-.147.266c-3.371 6.216-5.077 10.882-5.077 13.863 0 2.886 1.303 4.295 3.978 4.295 3.183 0 6.894-1.8 11.029-5.36 4.145-3.565 7.124-8.085 8.841-13.435l.099-.302 6.166 3.429-.131.23c-7.767 13.705-11.709 23.33-11.709 28.606 0 2.307.859 3.424 2.623 3.424 1.842 0 3.773-.997 5.742-2.96l.162-.161 3.397 2.542-.094.193c-.738 1.545-2.319 3.325-4.69 5.292-2.403 1.973-5.224 2.98-8.386 2.98zm1.026-29.4l-.56 1.68c-.22.652-.827 2.202-1.853 4.734a180.667 180.667 0 00-3.093 8.23c-1.037 2.96-1.56 5.684-1.56 8.1 0 4.13 1.979 6.139 6.046 6.139 3.041 0 5.747-.966 8.045-2.866 2.214-1.837 3.716-3.491 4.459-4.927l-2.69-2.01c-2.015 1.958-4.015 2.955-5.951 2.955-2.084 0-3.146-1.326-3.146-3.946 0-5.34 3.92-14.974 11.646-28.633l-5.145-2.86c-1.759 5.308-4.753 9.807-8.899 13.367-4.234 3.638-8.06 5.485-11.369 5.485-2.988 0-4.501-1.618-4.501-4.817 0-3.022 1.68-7.683 4.999-13.847l-4.36-1.582c-2.021 1.645-3.989 4.536-5.847 8.597-1.895 4.139-2.858 7.97-2.858 11.383 0 5.224 2.224 7.761 6.804 7.761 3.12 0 6.638-1.315 10.453-3.914 3.837-2.61 6.648-5.162 8.36-7.579l1.02-1.45zM615.653 70c-2.209 0-3.978-.777-5.255-2.317-1.267-1.518-1.911-3.528-1.911-5.965 0-2.104.314-4.765.927-7.923-3.198 4.812-6.658 8.67-10.291 11.488-3.941 3.058-7.328 4.608-10.055 4.608-4.214 0-6.349-2.531-6.349-7.526 0-4.854 1.706-11.472 5.077-19.672 3.423-8.324 5.81-12.954 7.312-14.144l.126-.099 5.643 2.464-.157.255c-2.947 4.724-5.203 9.447-6.716 14.04-1.508 4.578-2.272 7.673-2.272 9.191 0 1.472.466 2.668 1.387 3.555.922.887 2.015 1.336 3.246 1.336 2.8 0 6.375-2.646 10.615-7.87 4.276-5.272 8.71-13.258 13.175-23.738l.104-.245 5.988 2.693-.052.214c-.152.6-1.775 4.728-4.957 12.61-3.125 7.74-4.711 12.432-4.711 13.946 0 1.482.325 2.614.968 3.35.634.731 1.262 1.102 1.869 1.102.67 0 1.183-.037 1.523-.105a3.09 3.09 0 001.005-.402c.361-.219.67-.396.927-.543.23-.13.523-.375.869-.715l.8-.903c.194-.13.487-.422.869-.871.398-.47.676-.783.833-.94l.167-.167 2.617 2.114-.073.178c-1.246 3.063-3.23 5.689-5.899 7.803-2.69 2.118-5.156 3.199-7.349 3.199zm-5.151-18.862l-.298 1.415c-.79 3.721-1.188 6.8-1.188 9.16 0 2.312.602 4.212 1.79 5.631 1.173 1.415 2.806 2.13 4.857 2.13 2.068 0 4.429-1.039 7.014-3.09 2.544-2.015 4.45-4.51 5.664-7.412l-1.942-1.57c-.131.14-.33.37-.639.735-.403.475-.711.783-.947.95l-.738.84c-.393.397-.717.658-.989.815-.252.146-.56.324-.922.538a3.59 3.59 0 01-1.172.464c-.382.078-.916.115-1.628.115-.764 0-1.528-.433-2.266-1.284-.728-.84-1.094-2.083-1.094-3.695 0-1.603 1.554-6.227 4.747-14.14 3.481-8.611 4.601-11.529 4.873-12.338l-5.093-2.291c-4.449 10.402-8.872 18.35-13.143 23.617-4.407 5.428-8.014 8.064-11.023 8.064-1.372 0-2.586-.501-3.607-1.482-1.026-.987-1.549-2.307-1.549-3.93 0-1.598.754-4.656 2.298-9.354 1.497-4.546 3.721-9.222 6.611-13.893l-4.795-2.093c-1.424 1.284-3.784 5.934-7.035 13.836-3.345 8.137-5.035 14.687-5.035 19.473 0 4.713 1.905 7.005 5.825 7.005 2.612 0 5.884-1.514 9.736-4.5 3.874-3 7.548-7.212 10.924-12.51l.764-1.206z" fill="#231F20"/></g><defs><clipPath id="prefix__clip0"><path fill="#fff" d="M0 0h630v114H0z"/></clipPath></defs></svg>