<svg width="1204" height="219" viewBox="0 0 1204 219" fill="none" xmlns="http://www.w3.org/2000/svg">
<g clip-path="url(#clip0)">
<path d="M53.5098 4.5498C77.6098 4.5498 98.2098 11.6798 115.31 25.9498C132.41 40.2198 140.97 56.8998 140.97 76.0198C140.97 95.1298 135.15 110.23 123.52 121.31C111.89 132.39 97.1398 137.79 79.2698 137.51C69.7098 137.37 62.0998 137.3 56.4198 137.3H46.6598C42.6398 137.3 40.6398 135.78 40.6398 132.73C40.6398 131.62 41.8198 128.78 44.1698 124.21C51.9198 108.7 57.8098 92.8398 61.8298 76.6398C47.5598 76.6398 34.1998 72.6898 21.7398 64.7998C9.25978 56.8998 3.02979 47.9398 3.02979 37.8998C3.02979 27.8598 7.73979 19.7898 17.1598 13.6998C26.5698 7.5998 38.6898 4.5498 53.5098 4.5498ZM52.6798 13.0698C43.5398 13.0698 36.3398 15.0098 31.0698 18.8898C25.7998 22.7698 23.1798 28.4798 23.1798 36.0298C23.1798 43.5798 26.8198 50.2998 34.0898 56.1798C41.3598 62.0698 51.0898 65.7698 63.2798 67.2898C67.5698 49.1498 70.0598 37.4498 70.7598 32.1798L83.2198 33.4298C83.2198 42.0198 81.4198 53.3698 77.8198 67.4998C78.9298 67.4998 85.3698 66.8098 97.1398 65.4198L98.1798 72.2798C95.4098 73.2498 87.7198 74.6998 75.1198 76.6398C69.7198 94.0898 64.1098 109.19 58.2898 121.93C72.1398 123.04 83.6698 123.59 92.8798 123.59C102.09 123.59 109.4 120.16 114.8 113.31C120.2 106.45 122.9 97.2098 122.9 85.5798C122.9 65.4998 116.04 48.3898 102.33 34.2698C88.6198 20.1298 72.0698 13.0698 52.6798 13.0698Z" fill="#4A8E25"/>
<path d="M242.56 116.109L247.34 119.639C245.4 123.789 241.83 127.739 236.64 131.479C231.45 135.219 226.7 137.089 222.41 137.089C214.24 137.089 210.15 132.799 210.15 124.209C210.15 120.189 211.19 115.419 213.27 109.879L205.58 117.769C198.1 125.389 191.63 130.509 186.16 133.139C180.69 135.769 175.32 137.089 170.06 137.089C164.79 137.089 160.82 135.599 158.11 132.619C155.41 129.639 154.06 125.519 154.06 120.259C154.06 110.569 157.8 100.979 165.28 91.4895C172.76 82.0095 182.32 74.2795 193.95 68.3295C205.58 62.3795 217.22 59.3295 228.85 59.1895L229.27 66.0495L220.54 67.9195C207.94 70.6895 196.82 76.2295 187.2 84.5395C177.57 92.8495 172.76 101.129 172.76 109.369C172.76 117.609 176.08 121.729 182.73 121.729C188.96 121.729 196.65 117.369 205.79 108.639C214.93 99.9095 222.55 89.6695 228.64 77.8895L237.37 83.0795C228.78 100.389 224.49 111.399 224.49 116.109C224.49 118.049 225.15 119.679 226.46 120.989C227.77 122.309 229.09 122.959 230.41 122.959C231.72 122.959 232.59 122.889 233.01 122.749C233.43 122.609 233.84 122.439 234.26 122.229C234.68 122.019 235.2 121.709 235.82 121.289C236.44 120.869 237 120.459 237.48 120.039C237.96 119.619 238.76 118.999 239.87 118.169C240.96 117.359 241.86 116.669 242.56 116.109Z" fill="#4A8E25"/>
<path d="M320.88 113.2L326.7 117.56C325.31 120.47 322.37 123.79 317.87 127.53C313.37 131.27 308.14 133.14 302.19 133.14C294.16 133.14 290.14 129.06 290.14 120.88C290.14 116.17 291.14 110.94 293.15 105.2C295.16 99.4499 297.13 94.1899 299.07 89.4099C301.01 84.6299 302.19 81.6199 302.6 80.3699C299.28 85.0799 293.91 89.9599 286.5 95.0199C279.09 100.08 272.34 102.6 266.25 102.6C257.25 102.6 252.75 97.4799 252.75 87.2299C252.75 80.5799 254.58 73.2399 258.26 65.2099C261.93 57.1799 265.77 51.5699 269.79 48.3799L278.93 51.6999C272.42 63.7499 269.17 72.6799 269.17 78.4999C269.17 84.3199 271.87 87.2299 277.27 87.2299C283.5 87.2299 290.63 83.7699 298.67 76.8399C306.7 69.9199 312.38 61.2599 315.71 50.8699L326.51 56.8899C311.55 83.3499 304.07 101.69 304.07 111.94C304.07 116.65 305.9 119 309.58 119C313.22 119.02 317 117.08 320.88 113.2Z" fill="#4A8E25"/>
<path d="M416.23 56.2802L424.33 58.1502C424.19 59.1202 422.22 63.3102 418.41 70.7202C414.6 78.1302 410.55 87.8302 406.26 99.8002C401.97 111.78 399.2 123.87 397.95 136.05L384.65 135.01C384.65 127.4 387.07 117.56 391.92 105.51C390.67 105.37 388.15 105.3 384.34 105.3C380.53 105.3 373.57 106.2 363.46 108C356.4 123.79 352.87 137.29 352.87 148.51L338.95 146.64C338.95 136.81 342.62 124.69 349.96 110.29C342.9 111.4 335.83 113.06 328.77 115.28L326.69 107.18C326.69 106.76 330.39 105.59 337.8 103.65C345.21 101.71 350.71 100.47 354.32 99.9102C365.4 74.4302 372.95 59.6802 376.96 55.6602L385.89 59.1902C385.2 60.5802 383.6 63.6902 381.11 68.5402C374.88 80.5902 370.65 90.0102 368.44 96.7902C380.49 95.5402 387.72 94.9202 390.15 94.9202C392.57 94.9202 394.62 94.9902 396.28 95.1302C405.98 72.8302 412.62 59.8802 416.23 56.2802Z" fill="#4A8E25"/>
<path d="M477.51 88.6901C485.12 88.4101 488.94 91.5301 488.94 98.0401C488.94 106.63 484.33 115.11 475.13 123.49C465.92 131.87 456.67 136.06 447.4 136.06C438.67 136.06 434.31 130.17 434.31 118.4C434.31 109.12 436.63 97.5901 441.27 83.8101C445.91 70.0301 449.75 60.3001 452.8 54.6201L462.15 57.7401C458.55 68.2701 454.88 81.1501 451.14 96.3801L453.84 95.1301C463.1 90.8401 471 88.6901 477.51 88.6901ZM474.19 110.09C475.02 108.15 475.44 106.35 475.44 104.69C475.02 100.95 471.77 99.0801 465.68 99.0801C462.77 99.0801 457.37 100.33 449.48 102.82C448.37 106.98 447.82 110.68 447.82 113.93C447.82 117.19 448.62 119.78 450.21 121.72C451.8 123.66 453.95 124.63 456.65 124.63C459.35 124.63 462.57 123.21 466.31 120.37C470.03 117.53 472.66 114.11 474.19 110.09ZM508.88 107.59L502.65 135.01L490.81 133.14C493.58 116.38 497.07 100.8 501.3 86.4001C505.52 72.0001 509.57 61.6801 513.45 55.4501L523.63 56.7001C518.64 69.5801 513.73 86.5401 508.88 107.59Z" fill="#4A8E25"/>
<path d="M585.53 112.579L590.31 116.319C586.02 122.279 580.13 127.229 572.65 131.169C565.17 135.119 557.9 137.089 550.84 137.089C543.78 137.089 538.1 135.009 533.8 130.859C529.51 126.709 527.36 121.239 527.36 114.449C527.36 101.709 534.11 89.1794 547.61 76.8494C561.11 64.5294 574.79 58.3594 588.64 58.3594C597.78 58.3594 602.35 61.9594 602.35 69.1594C602.35 76.6394 597.54 84.1894 587.91 91.7994C578.28 99.4194 564.75 106.339 547.3 112.569C548.55 115.759 550.48 118.249 553.12 120.049C555.75 121.849 558.45 122.749 561.22 122.749C567.18 122.759 575.28 119.369 585.53 112.579ZM546.27 106.349C557.49 102.469 567.11 97.6194 575.15 91.8094C583.18 85.9894 587.2 80.6594 587.2 75.8094C587.2 74.0094 586.51 72.4194 585.12 71.0294C583.73 69.6494 582.14 68.9494 580.34 68.9494C573.83 68.9494 566.8 72.9994 559.25 81.0994C551.7 89.2094 547.38 97.6194 546.27 106.349Z" fill="#4A8E25"/>
<path d="M727.46 67.5998C727.46 77.7098 718.18 86.0898 699.62 92.7398C704.61 95.7898 708.309 98.5198 710.729 100.95C713.149 103.37 714.37 106.11 714.37 109.16C714.37 116.92 710.01 123.74 701.28 129.62C692.55 135.51 683.21 138.45 673.24 138.45C668.39 138.45 663.54 137.69 658.7 136.16C653.85 134.64 650.529 132.77 648.729 130.55L656.62 123.28C658.28 124.94 660.53 126.4 663.37 127.64C666.21 128.89 668.599 129.51 670.539 129.51C677.459 129.51 683.799 127.74 689.549 124.21C695.299 120.68 698.169 116.35 698.169 111.23C698.169 108.46 697.13 106.14 695.049 104.27C692.969 102.4 690.719 101.09 688.299 100.32C685.88 99.5598 683.63 98.5898 681.549 97.4098C679.469 96.2398 678.43 94.8798 678.43 93.3598C678.43 91.8398 680.06 90.4198 683.31 89.0998C686.56 87.7898 690.199 86.6798 694.219 85.7798C698.239 84.8798 701.87 83.3598 705.13 81.2098C708.38 79.0598 710.01 76.6798 710.01 74.0398C710.01 71.4098 709.11 69.3298 707.31 67.8098C705.51 66.2898 703.26 65.5198 700.56 65.5198C697.86 65.5198 693.67 66.9698 687.99 69.8798C682.31 72.7898 676.56 76.5298 670.75 81.0998L667.84 75.2798C672.83 69.4598 679.58 64.3098 688.09 59.7998C696.61 55.2998 703.459 53.0498 708.659 53.0498C713.849 53.0498 718.28 54.4698 721.96 57.3098C725.62 60.1598 727.46 63.5898 727.46 67.5998Z" fill="#4A8E25"/>
<path d="M823.85 117.46L828.63 120.99C826.69 125.14 823.12 129.09 817.93 132.83C812.74 136.57 807.99 138.44 803.7 138.44C795.53 138.44 791.44 134.15 791.44 125.56C791.44 121.54 792.48 116.77 794.56 111.23L786.87 119.12C779.39 126.74 772.92 131.86 767.45 134.49C761.98 137.12 756.61 138.44 751.35 138.44C746.08 138.44 742.11 136.95 739.4 133.97C736.7 130.99 735.35 126.87 735.35 121.61C735.35 111.92 739.09 102.33 746.57 92.84C754.05 83.36 763.61 75.63 775.24 69.68C786.87 63.73 798.51 60.68 810.14 60.54L810.56 67.4L801.83 69.27C789.23 72.04 778.11 77.58 768.49 85.89C758.86 94.2 754.05 102.48 754.05 110.72C754.05 118.96 757.37 123.08 764.02 123.08C770.25 123.08 777.94 118.72 787.08 109.99C796.22 101.26 803.84 91.02 809.93 79.24L818.66 84.43C810.07 101.74 805.78 112.75 805.78 117.46C805.78 119.4 806.44 121.03 807.75 122.34C809.06 123.66 810.38 124.31 811.7 124.31C813.01 124.31 813.88 124.24 814.3 124.1C814.72 123.96 815.13 123.79 815.55 123.58C815.97 123.37 816.49 123.06 817.11 122.64C817.73 122.22 818.29 121.81 818.77 121.39C819.25 120.97 820.05 120.35 821.16 119.52C822.26 118.71 823.16 118.01 823.85 117.46Z" fill="#4A8E25"/>
<path d="M925.85 130.96L926.06 135.95C924.67 136.78 918.37 139.27 907.16 143.43C902.73 169.88 896.22 188.99 887.63 200.77C879.04 212.54 868.52 218.43 856.05 218.43C850.23 218.43 845.59 216.56 842.13 212.82C838.67 209.08 836.94 204.23 836.94 198.28C836.94 186.37 842.41 175.25 853.35 164.94C864.29 154.62 878.9 146.48 897.18 140.53C899.26 131.25 903 118.16 908.4 101.27C899.12 115.4 890.71 124.95 883.16 129.94C875.61 134.93 868.79 137.42 862.7 137.42C856.6 137.42 852 135.76 848.89 132.43C845.77 129.11 844.22 124.68 844.22 119.13C844.22 109.99 848.03 100.68 855.65 91.1899C863.26 81.7099 872.86 73.9499 884.42 67.9199C895.98 61.8999 907.17 58.8799 917.97 58.8799L919.63 66.1499C904.26 67.8099 891.07 73.2099 880.05 82.3499C869.04 91.4899 863.53 100.29 863.53 108.73C863.53 112.33 864.64 115.31 866.85 117.66C869.06 120.02 871.76 121.19 874.95 121.19C879.66 121.19 886.79 116.2 896.35 106.23C905.91 96.2599 912.62 87.7399 916.5 80.6799L924.19 85.0399C916.57 105.4 911.31 122.57 908.4 136.56L925.85 130.96ZM895.94 146.75C883.89 152.29 873.92 158.94 866.03 166.69C858.14 174.44 854.19 181.51 854.19 187.88C854.19 191.2 855.16 193.9 857.1 195.98C859.04 198.06 861.46 199.1 864.37 199.1C870.19 199.1 875.93 195.01 881.61 186.84C887.28 178.67 892.06 165.31 895.94 146.75Z" fill="#4A8E25"/>
<path d="M1022.87 117.46L1027.65 120.99C1025.71 125.14 1022.14 129.09 1016.95 132.83C1011.76 136.57 1007.01 138.44 1002.72 138.44C994.55 138.44 990.46 134.15 990.46 125.56C990.46 121.54 991.5 116.77 993.58 111.23L985.89 119.12C978.41 126.74 971.94 131.86 966.47 134.49C961 137.12 955.63 138.44 950.37 138.44C945.1 138.44 941.13 136.95 938.42 133.97C935.72 130.99 934.37 126.87 934.37 121.61C934.37 111.92 938.11 102.33 945.59 92.84C953.07 83.36 962.63 75.63 974.26 69.68C985.89 63.73 997.53 60.68 1009.16 60.54L1009.58 67.4L1000.85 69.27C988.25 72.04 977.13 77.58 967.51 85.89C957.88 94.2 953.07 102.48 953.07 110.72C953.07 118.96 956.39 123.08 963.04 123.08C969.27 123.08 976.96 118.72 986.1 109.99C995.24 101.26 1002.86 91.02 1008.95 79.24L1017.68 84.43C1009.09 101.74 1004.8 112.75 1004.8 117.46C1004.8 119.4 1005.46 121.03 1006.77 122.34C1008.08 123.66 1009.4 124.31 1010.72 124.31C1012.03 124.31 1012.9 124.24 1013.32 124.1C1013.74 123.96 1014.15 123.79 1014.57 123.58C1014.99 123.37 1015.51 123.06 1016.13 122.64C1016.75 122.22 1017.31 121.81 1017.79 121.39C1018.27 120.97 1019.07 120.35 1020.18 119.52C1021.27 118.71 1022.17 118.01 1022.87 117.46Z" fill="#4A8E25"/>
<path d="M1101.18 114.549L1107 118.91C1105.61 121.82 1102.67 125.14 1098.17 128.88C1093.67 132.619 1088.44 134.49 1082.49 134.49C1074.46 134.49 1070.44 130.409 1070.44 122.229C1070.44 117.519 1071.44 112.289 1073.45 106.549C1075.46 100.799 1077.43 95.5395 1079.37 90.7595C1081.31 85.9795 1082.49 82.9695 1082.9 81.7195C1079.58 86.4295 1074.21 91.3095 1066.8 96.3695C1059.39 101.429 1052.64 103.949 1046.55 103.949C1037.55 103.949 1033.05 98.8295 1033.05 88.5795C1033.05 81.9295 1034.88 74.5895 1038.56 66.5595C1042.23 58.5295 1046.07 52.9195 1050.09 49.7295L1059.23 53.0495C1052.72 65.0995 1049.47 74.0295 1049.47 79.8495C1049.47 85.6695 1052.17 88.5795 1057.57 88.5795C1063.8 88.5795 1070.93 85.1195 1078.97 78.1895C1087 71.2695 1092.68 62.6095 1096.01 52.2195L1106.81 58.2395C1091.85 84.6995 1084.37 103.039 1084.37 113.289C1084.37 117.999 1086.2 120.349 1089.88 120.349C1093.53 120.369 1097.31 118.429 1101.18 114.549Z" fill="#4A8E25"/>
<path d="M1199.24 114.13L1203.6 117.66C1201.24 123.48 1197.54 128.39 1192.49 132.41C1187.43 136.43 1182.86 138.43 1178.78 138.43C1174.69 138.43 1171.47 137.01 1169.12 134.17C1166.76 131.33 1165.59 127.63 1165.59 123.06C1165.59 118.49 1166.35 112.6 1167.88 105.4C1161.37 115.65 1154.38 123.68 1146.9 129.5C1139.42 135.32 1133.12 138.23 1128 138.23C1120.24 138.23 1116.37 133.59 1116.37 124.31C1116.37 115.03 1119.59 102.53 1126.03 86.81C1132.47 71.09 1137.07 62.12 1139.84 59.91L1149.81 64.27C1144.13 73.41 1139.84 82.42 1136.93 91.28C1134.02 100.14 1132.57 106.07 1132.57 109.04C1132.57 112.02 1133.5 114.41 1135.37 116.21C1137.24 118.01 1139.42 118.91 1141.91 118.91C1147.45 118.91 1154.34 113.82 1162.58 103.64C1170.82 93.46 1179.23 78.26 1187.82 58.04L1198.42 62.82C1198.14 63.93 1194.99 71.96 1188.97 86.92C1182.95 101.88 1179.93 110.85 1179.93 113.82C1179.93 116.8 1180.59 119.05 1181.9 120.57C1183.21 122.1 1184.53 122.86 1185.85 122.86C1187.16 122.86 1188.17 122.79 1188.86 122.65C1189.55 122.51 1190.24 122.23 1190.94 121.82C1191.63 121.4 1192.22 121.06 1192.71 120.78C1193.19 120.5 1193.78 120.02 1194.48 119.33L1195.93 117.67C1196.35 117.39 1196.93 116.81 1197.7 115.9C1198.44 115 1198.96 114.41 1199.24 114.13Z" fill="#4A8E25"/>
<path d="M78.02 133.97C77.59 133.97 77.17 133.97 76.74 133.96C67.3 133.82 59.61 133.75 53.9 133.75H44.14C38.75 133.75 37.62 130.99 37.62 128.68C37.62 127.48 38.79 124.62 41.21 119.93C48.81 104.73 54.68 88.97 58.67 73.08C44.61 72.96 31.25 68.95 18.95 61.16C6.37 53.21 0 44.02 0 33.84C0 23.67 4.83 15.39 14.35 9.22C23.81 3.1 36.13 0 50.98 0C75.08 0 95.98 7.24 113.1 21.51C130.24 35.81 138.94 52.78 138.94 71.96C138.94 91.13 133.02 106.48 121.33 117.61C109.94 128.47 95.37 133.97 78.02 133.97ZM50.98 1C36.33 1 24.19 4.05 14.9 10.06C5.68 16.03 1 24.03 1 33.84C1 43.65 7.21 52.56 19.46 60.32C31.79 68.13 45.19 72.08 59.29 72.08H59.93L59.78 72.7C55.77 88.87 49.82 104.91 42.08 120.38C39.2 125.96 38.6 127.97 38.6 128.67C38.6 131.41 40.41 132.74 44.12 132.74H53.88C59.6 132.74 67.29 132.81 76.74 132.95C94.4 133.22 109.16 127.82 120.64 116.88C132.12 105.95 137.93 90.84 137.93 71.95C137.93 53.08 129.36 36.37 112.45 22.27C95.53 8.16 74.84 1 50.98 1ZM90.35 120.04C81.14 120.04 69.49 119.48 55.72 118.38L55.01 118.32L55.31 117.67C61.09 105.01 66.74 89.79 72.11 72.44L72.2 72.14L72.51 72.09C84.47 70.25 92.06 68.84 95.09 67.88L94.19 61.92C82.61 63.28 76.42 63.94 75.29 63.94H74.65L74.81 63.32C78.32 49.54 80.13 38.28 80.19 29.83L68.66 28.68C67.88 34.15 65.39 45.81 61.24 63.36L61.14 63.8L60.69 63.74C48.46 62.21 38.56 58.44 31.25 52.52C23.89 46.56 20.16 39.65 20.16 31.98C20.16 24.3 22.88 18.4 28.26 14.44C33.59 10.52 40.96 8.53 50.16 8.53C69.6 8.53 86.42 15.71 100.17 29.87C113.91 44.03 120.88 61.41 120.88 81.53C120.88 93.22 118.12 102.66 112.67 109.57C107.18 116.51 99.68 120.04 90.35 120.04ZM56.51 117.43C69.94 118.49 81.32 119.03 90.35 119.03C99.36 119.03 106.6 115.63 111.87 108.94C117.17 102.21 119.86 92.98 119.86 81.52C119.86 61.67 112.99 44.52 99.43 30.56C85.89 16.6 69.31 9.52 50.15 9.52C41.16 9.52 33.99 11.44 28.84 15.24C23.74 19 21.15 24.63 21.15 31.98C21.15 39.34 24.76 45.98 31.87 51.74C38.94 57.47 48.53 61.15 60.36 62.69C64.57 44.89 67.04 33.25 67.73 28.07L67.79 27.59L81.19 28.93V29.38C81.19 37.83 79.42 49.11 75.94 62.92C78.06 62.77 84.3 62.08 94.55 60.88L95.03 60.82L96.2 68.56L95.81 68.7C93.01 69.68 85.53 71.1 72.97 73.04C67.71 90.01 62.17 104.94 56.51 117.43Z" fill="#231F20"/>
<path d="M219.87 133.54C211.41 133.54 207.11 129.04 207.11 120.16C207.11 116.64 207.91 112.49 209.49 107.82L203.4 114.07C195.91 121.7 189.33 126.9 183.83 129.55C178.32 132.2 172.83 133.55 167.51 133.55C162.12 133.55 157.98 131.99 155.19 128.92C152.42 125.86 151.01 121.59 151.01 116.22C151.01 106.46 154.82 96.6699 162.34 87.1399C169.83 77.6399 179.53 69.7999 191.17 63.8399C202.82 57.8799 214.64 54.7799 226.29 54.6399L226.77 54.6299L227.24 62.3899L218.09 64.3499C205.63 67.0899 194.48 72.6499 184.97 80.8599C175.5 89.0299 170.71 97.2599 170.71 105.31C170.71 113.29 173.81 117.17 180.18 117.17C186.25 117.17 193.89 112.81 202.89 104.22C211.94 95.5799 219.6 85.2799 225.64 73.6099L225.88 73.1399L235.46 78.8399L235.25 79.2599C226.74 96.4199 222.42 107.46 222.42 112.07C222.42 113.89 223.02 115.37 224.25 116.6C225.46 117.81 226.67 118.43 227.84 118.43C229.41 118.43 230.03 118.33 230.28 118.25C230.66 118.13 231.06 117.96 231.46 117.76C231.86 117.56 232.36 117.26 232.96 116.86C233.56 116.46 234.1 116.06 234.57 115.65C235.07 115.22 235.88 114.59 236.98 113.76C238.08 112.93 238.98 112.25 239.67 111.69L239.97 111.45L245.39 115.45L245.22 115.82C243.25 120.04 239.6 124.08 234.36 127.86C229.14 131.62 224.25 133.54 219.87 133.54ZM212.04 103.77L211.2 106C209.15 111.46 208.12 116.22 208.12 120.16C208.12 128.49 211.97 132.54 219.88 132.54C224.05 132.54 228.74 130.68 233.82 127.03C238.76 123.47 242.25 119.68 244.18 115.75L240.04 112.69C239.39 113.2 238.59 113.82 237.63 114.54C236.54 115.35 235.75 115.98 235.27 116.39C234.76 116.82 234.19 117.25 233.56 117.67C232.92 118.09 232.38 118.42 231.95 118.64C231.5 118.86 231.06 119.05 230.64 119.19C230.17 119.35 229.29 119.42 227.89 119.42C226.44 119.42 224.99 118.71 223.59 117.3C222.18 115.9 221.47 114.14 221.47 112.07C221.47 107.27 225.63 96.5299 234.2 79.2299L226.33 74.5399C220.27 86.1199 212.64 96.3499 203.62 104.95C194.43 113.73 186.55 118.18 180.22 118.18C173.27 118.18 169.75 113.85 169.75 105.32C169.75 96.9599 174.67 88.4899 184.36 80.1199C194 71.7999 205.29 66.1699 217.92 63.3899L226.23 61.6099L225.87 55.6599C214.53 55.8799 203.02 58.9299 191.67 64.7399C180.16 70.6299 170.57 78.3799 163.17 87.7699C155.8 97.1199 152.06 106.7 152.06 116.23C152.06 121.34 153.38 125.39 155.98 128.25C158.57 131.1 162.46 132.55 167.56 132.55C172.72 132.55 178.07 131.24 183.44 128.65C188.83 126.06 195.32 120.92 202.72 113.38L212.04 103.77Z" fill="#231F20"/>
<path d="M299.65 129.59C291.32 129.59 287.1 125.3 287.1 116.83C287.1 112.09 288.12 106.75 290.14 100.98C292.14 95.2395 294.14 89.9195 296.07 85.1695C297.07 82.7095 297.86 80.7195 298.46 79.1995C295.1 83.1395 290.33 87.2295 284.25 91.3795C276.79 96.4695 269.88 99.0495 263.71 99.0495C254.42 99.0495 249.71 93.7095 249.71 83.1795C249.71 76.4895 251.58 69.0095 255.26 60.9495C258.94 52.8795 262.87 47.1595 266.93 43.9395L267.15 43.7695L277.1 47.3895L276.82 47.8995C270.38 59.8095 267.12 68.7495 267.12 74.4595C267.12 79.9895 269.61 82.6895 274.72 82.6895C280.8 82.6895 287.89 79.2395 295.79 72.4195C303.71 65.5895 309.4 56.9295 312.68 46.6795L312.87 46.0995L324.65 52.6695L324.4 53.1095C309.56 79.3695 302.03 97.8095 302.03 107.92C302.03 112.34 303.67 114.48 307.04 114.48C310.56 114.48 314.25 112.57 318.01 108.81L318.32 108.5L324.81 113.37L324.63 113.74C323.22 116.7 320.2 120.11 315.67 123.88C311.08 127.67 305.69 129.59 299.65 129.59ZM301.61 73.2695L300.54 76.4895C300.12 77.7395 298.96 80.7095 297 85.5595C295.08 90.2995 293.09 95.5995 291.09 101.33C289.11 107 288.11 112.22 288.11 116.85C288.11 124.76 291.89 128.61 299.66 128.61C305.47 128.61 310.64 126.76 315.03 123.12C319.26 119.6 322.13 116.43 323.55 113.68L318.41 109.83C314.56 113.58 310.74 115.49 307.04 115.49C303.06 115.49 301.03 112.95 301.03 107.93C301.03 97.6995 308.52 79.2395 323.28 53.0695L313.45 47.5895C310.09 57.7595 304.37 66.3795 296.45 73.1995C288.36 80.1695 281.05 83.7095 274.73 83.7095C269.02 83.7095 266.13 80.6095 266.13 74.4795C266.13 68.6895 269.34 59.7595 275.68 47.9495L267.35 44.9195C263.49 48.0695 259.73 53.6095 256.18 61.3895C252.56 69.3195 250.72 76.6595 250.72 83.1995C250.72 93.2095 254.97 98.0695 263.72 98.0695C269.68 98.0695 276.4 95.5495 283.69 90.5695C291.02 85.5695 296.39 80.6795 299.66 76.0495L301.61 73.2695Z" fill="#231F20"/>
<path d="M350.83 145.04L335.91 143.04V142.6C335.91 132.93 339.48 120.92 346.53 106.89C339.84 107.99 333.06 109.61 326.38 111.7L325.88 111.86L323.66 103.12C323.66 102.56 323.66 102.11 335.15 99.0998C342.36 97.2198 347.84 95.9698 351.44 95.3898C362.59 69.7698 369.99 55.3198 374.08 51.2398L374.31 51.0098L384.06 54.8598L383.81 55.3498C383.12 56.7398 381.52 59.8498 379.03 64.6998C373.06 76.2498 368.89 85.4798 366.63 92.1498C378.18 90.9598 385.24 90.3598 387.62 90.3598C389.86 90.3598 391.81 90.4198 393.43 90.5398C403.16 68.1798 409.67 55.5298 413.34 51.8598L413.54 51.6598L422.36 53.6998L422.3 54.1498C422.2 54.8098 421.48 56.8498 416.33 66.8798C412.55 74.2298 408.47 83.9998 404.2 95.8998C399.94 107.78 397.15 119.94 395.92 132.03L395.87 132.52L381.63 131.41V130.95C381.63 123.43 384 113.66 388.69 101.89C387.3 101.79 385 101.74 381.82 101.74C378.1 101.74 371.19 102.63 361.29 104.39C354.36 119.94 350.85 133.42 350.85 144.45V145.04H350.83ZM336.92 142.16L349.84 143.9C349.96 132.77 353.54 119.27 360.48 103.76L360.59 103.52L360.85 103.47C370.95 101.67 378.01 100.76 381.82 100.76C385.61 100.76 388.18 100.83 389.46 100.97L390.12 101.04L389.87 101.65C385.17 113.34 382.74 123.04 382.64 130.5L394.99 131.46C396.26 119.45 399.05 107.38 403.28 95.5798C407.56 83.6298 411.66 73.8298 415.46 66.4398C419.44 58.6998 420.83 55.6098 421.21 54.4698L413.89 52.7798C410.3 56.5898 403.69 69.5398 394.24 91.2798L394.1 91.6098L393.74 91.5798C392.08 91.4398 390.03 91.3698 387.65 91.3698C385.25 91.3698 377.97 91.9998 365.99 93.2398L365.22 93.3198L365.46 92.5898C367.67 85.8198 371.94 76.2898 378.16 64.2598C380.39 59.9198 381.9 56.9698 382.69 55.3998L374.58 52.1898C370.57 56.4698 363.06 71.2198 352.27 96.0498L352.16 96.2998L351.89 96.3398C348.32 96.8898 342.78 98.1398 335.42 100.07C327.42 102.17 325.29 102.98 324.74 103.28L326.61 110.59C333.5 108.46 340.48 106.83 347.37 105.74L348.34 105.59L347.89 106.46C340.71 120.52 337.03 132.52 336.92 142.16Z" fill="#231F20"/>
<path d="M444.86 132.5C435.84 132.5 431.27 126.39 431.27 114.34C431.27 105.05 433.62 93.35 438.26 79.59C442.88 65.85 446.77 56.01 449.82 50.33L450.02 49.96L460.25 53.37L460.09 53.85C456.6 64.06 452.98 76.7 449.34 91.44L451.1 90.63C460.4 86.33 468.43 84.15 474.98 84.14C479.21 83.99 482.35 84.88 484.34 86.8C486.05 88.45 486.92 90.87 486.92 93.99C486.92 102.68 482.22 111.37 472.94 119.81C463.67 128.23 454.22 132.5 444.86 132.5ZM450.5 51.17C447.51 56.86 443.71 66.52 439.2 79.91C434.6 93.57 432.27 105.15 432.27 114.34C432.27 125.89 436.39 131.5 444.86 131.5C453.97 131.5 463.19 127.32 472.26 119.06C481.32 110.82 485.91 102.38 485.91 93.98C485.91 91.14 485.15 88.96 483.64 87.51C481.86 85.79 478.95 84.99 475 85.13H474.98C468.58 85.13 460.68 87.28 451.51 91.52L447.87 93.2L448.12 92.19C451.79 77.22 455.45 64.37 458.98 53.98L450.5 51.17ZM500.5 131.53L487.7 129.51L487.78 129.01C490.54 112.3 494.08 96.56 498.28 82.21C502.5 67.83 506.6 57.37 510.49 51.13L510.66 50.86L521.79 52.22L521.56 52.82C516.6 65.62 511.65 82.72 506.83 103.65L500.5 131.53ZM488.85 128.68L499.73 130.4L505.86 103.43C510.61 82.78 515.5 65.84 520.4 53.06L511.17 51.93C507.38 58.13 503.37 68.4 499.24 82.49C495.09 96.66 491.59 112.19 488.85 128.68ZM454.1 121.08C451.25 121.08 448.95 120.04 447.27 117.99C445.61 115.97 444.77 113.24 444.77 109.88C444.77 106.59 445.33 102.81 446.45 98.64L446.52 98.37L446.78 98.29C454.8 95.76 460.15 94.53 463.13 94.53C469.49 94.53 472.94 96.57 473.39 100.58C473.39 102.36 472.96 104.24 472.11 106.22C470.56 110.31 467.85 113.84 464.05 116.71C460.25 119.61 456.9 121.08 454.1 121.08ZM447.35 99.16C446.31 103.14 445.78 106.75 445.78 109.88C445.78 113 446.55 115.52 448.06 117.35C449.56 119.18 451.54 120.08 454.11 120.08C456.69 120.08 459.84 118.68 463.47 115.92C467.11 113.16 469.71 109.77 471.2 105.86L471.21 105.84C472.01 103.97 472.42 102.22 472.42 100.64C472.04 97.22 469.01 95.53 463.16 95.53C460.33 95.52 455.01 96.75 447.35 99.16Z" fill="#231F20"/>
<path d="M548.31 133.54C541.14 133.54 535.3 131.4 530.93 127.17C526.56 122.94 524.34 117.3 524.34 110.4C524.34 97.5696 531.21 84.7996 544.76 72.4296C558.3 60.0796 572.21 53.8096 586.13 53.8096C595.56 53.8096 600.34 57.6096 600.34 65.1096C600.34 72.7196 595.42 80.4696 585.71 88.1496C576.18 95.6896 562.63 102.65 545.45 108.83C546.66 111.68 548.49 113.96 550.89 115.6C553.42 117.33 556.05 118.21 558.71 118.21C564.54 118.21 572.62 114.81 582.74 108.11L583.04 107.91L588.48 112.17L588.2 112.56C583.88 118.55 577.88 123.6 570.37 127.56C562.84 131.53 555.42 133.54 548.31 133.54ZM586.12 54.8096C572.47 54.8096 558.77 60.9896 545.43 73.1696C532.1 85.3396 525.34 97.8696 525.34 110.4C525.34 117.02 527.46 122.42 531.63 126.45C535.81 130.49 541.42 132.54 548.32 132.54C555.27 132.54 562.53 130.57 569.9 126.68C577.11 122.87 582.9 118.06 587.1 112.36L582.99 109.14C572.84 115.82 564.68 119.2 558.71 119.2C555.85 119.2 553.03 118.26 550.33 116.41C547.63 114.56 545.61 111.97 544.33 108.7L544.14 108.22L544.63 108.05C561.95 101.87 575.56 94.8996 585.1 87.3496C594.55 79.8696 599.35 72.3796 599.35 65.0996C599.33 58.1796 595.01 54.8096 586.12 54.8096ZM543.14 103.03L543.24 102.23C544.36 93.4396 548.77 84.8496 556.35 76.7096C563.96 68.5396 571.18 64.3996 577.8 64.3996C579.73 64.3996 581.45 65.1496 582.93 66.6196C584.41 68.0996 585.15 69.8296 585.15 71.7496C585.15 76.7396 581.03 82.2596 572.89 88.1496C564.85 93.9696 555.09 98.8896 543.88 102.76L543.14 103.03ZM577.81 65.3996C571.47 65.3996 564.5 69.4396 557.09 77.3896C549.88 85.1196 545.6 93.2496 544.35 101.55C555.14 97.7496 564.55 92.9796 572.33 87.3396C580.19 81.6496 584.17 76.3996 584.17 71.7496C584.17 70.0796 583.54 68.6296 582.24 67.3196C580.93 66.0296 579.48 65.3996 577.81 65.3996Z" fill="#231F20"/>
<path d="M670.66 134.12C665.78 134.12 660.83 133.34 655.97 131.81C651.05 130.26 647.61 128.32 645.76 126.04L645.46 125.68L654.05 117.77L654.39 118.11C656 119.72 658.22 121.15 660.99 122.37C663.75 123.58 666.09 124.2 667.96 124.2C674.76 124.2 681.06 122.44 686.71 118.98C692.27 115.56 695.09 111.34 695.09 106.42C695.09 103.81 694.1 101.59 692.14 99.8298C690.13 98.0198 687.92 96.7298 685.57 95.9898C683.13 95.2298 680.83 94.2298 678.72 93.0398C676.48 91.7798 675.35 90.2698 675.35 88.5498C675.35 86.7898 677.05 85.2398 680.54 83.8298C683.79 82.5098 687.49 81.3898 691.52 80.4798C695.46 79.5998 699.07 78.0798 702.26 75.9798C705.35 73.9398 706.92 71.6698 706.92 69.2298C706.92 66.7298 706.09 64.8198 704.4 63.3798C702.7 61.9398 700.54 61.2098 697.97 61.2098C695.36 61.2098 691.21 62.6598 685.63 65.5198C680.01 68.3998 674.24 72.1498 668.47 76.6898L667.99 77.0698L664.66 70.4098L664.88 70.1598C669.88 64.3198 676.75 59.0798 685.28 54.5698C693.83 50.0498 700.83 47.7598 706.08 47.7598C711.36 47.7598 715.93 49.2298 719.68 52.1198C723.46 55.0498 725.38 58.6398 725.38 62.7998C725.38 72.9198 716.23 81.4098 698.18 88.0498C702.73 90.8898 706.21 93.4898 708.51 95.7798C711.02 98.2898 712.29 101.17 712.29 104.34C712.29 112.24 707.81 119.26 698.98 125.22C690.22 131.12 680.69 134.12 670.66 134.12ZM646.84 125.76C648.63 127.74 651.8 129.45 656.27 130.85C661.04 132.35 665.88 133.11 670.66 133.11C680.49 133.11 689.83 130.17 698.43 124.37C706.97 118.61 711.3 111.87 711.3 104.32C711.3 101.43 710.13 98.7898 707.81 96.4698C705.42 94.0798 701.71 91.3498 696.79 88.3398L695.9 87.7998L696.88 87.4498C715.13 80.9098 724.39 72.6098 724.39 62.7798C724.39 58.9498 722.6 55.6198 719.08 52.8898C715.51 50.1298 711.14 48.7398 706.09 48.7398C701.01 48.7398 694.17 50.9898 685.76 55.4298C677.46 59.8198 670.77 64.8998 665.87 70.5398L668.36 75.5098C674.02 71.1098 679.68 67.4398 685.2 64.6198C691 61.6498 695.19 60.1998 698 60.1998C700.81 60.1998 703.19 61.0098 705.07 62.5998C706.98 64.2198 707.95 66.4498 707.95 69.2098C707.95 72.0098 706.23 74.5598 702.84 76.7898C699.55 78.9598 695.83 80.5198 691.77 81.4298C687.79 82.3298 684.14 83.4298 680.94 84.7298C677.95 85.9398 676.37 87.2498 676.37 88.5298C676.37 89.8598 677.33 91.0698 679.23 92.1498C681.27 93.3098 683.51 94.2698 685.88 95.0198C688.36 95.7998 690.7 97.1698 692.82 99.0698C695 101.03 696.1 103.5 696.1 106.4C696.1 111.68 693.12 116.2 687.24 119.81C681.44 123.37 674.96 125.18 667.97 125.18C665.97 125.18 663.49 124.54 660.6 123.27C657.91 122.09 655.7 120.7 654.04 119.14L646.84 125.76Z" fill="#231F20"/>
<path d="M801.12 134.12C792.66 134.12 788.36 129.62 788.36 120.74C788.36 117.22 789.16 113.07 790.74 108.4L784.65 114.65C777.16 122.28 770.58 127.48 765.08 130.13C759.57 132.78 754.08 134.13 748.76 134.13C743.37 134.13 739.23 132.57 736.44 129.5C733.67 126.44 732.26 122.17 732.26 116.8C732.26 107.04 736.07 97.25 743.59 87.72C751.08 78.22 760.78 70.38 772.42 64.42C784.07 58.46 795.89 55.36 807.54 55.22L808.02 55.21L808.49 62.97L799.34 64.93C786.88 67.67 775.73 73.23 766.22 81.44C756.75 89.61 751.96 97.84 751.96 105.89C751.96 113.87 755.06 117.75 761.43 117.75C767.5 117.75 775.14 113.39 784.14 104.8C793.19 96.16 800.85 85.86 806.89 74.19L807.13 73.72L816.71 79.42L816.5 79.84C807.99 97 803.67 108.04 803.67 112.65C803.67 114.47 804.27 115.95 805.5 117.18C806.71 118.39 807.92 119.01 809.09 119.01C810.66 119.01 811.28 118.91 811.53 118.83C811.91 118.71 812.31 118.54 812.71 118.34C813.11 118.14 813.61 117.84 814.21 117.44C814.81 117.04 815.35 116.64 815.82 116.23C816.32 115.8 817.13 115.17 818.23 114.34C819.33 113.51 820.23 112.83 820.92 112.27L821.22 112.03L826.64 116.03L826.47 116.4C824.5 120.62 820.85 124.66 815.61 128.44C810.38 132.2 805.5 134.12 801.12 134.12ZM793.28 104.35L792.44 106.58C790.39 112.04 789.36 116.8 789.36 120.74C789.36 129.07 793.21 133.12 801.12 133.12C805.29 133.12 809.98 131.26 815.06 127.61C820 124.05 823.49 120.26 825.42 116.33L821.28 113.27C820.63 113.78 819.83 114.4 818.87 115.12C817.78 115.93 816.99 116.56 816.51 116.97C816 117.4 815.43 117.83 814.8 118.25C814.16 118.67 813.62 119 813.19 119.22C812.74 119.44 812.3 119.63 811.88 119.77C811.41 119.93 810.53 120 809.13 120C807.68 120 806.23 119.29 804.83 117.88C803.42 116.48 802.71 114.72 802.71 112.65C802.71 107.85 806.87 97.11 815.44 79.81L807.57 75.12C801.51 86.7 793.88 96.93 784.86 105.53C775.67 114.31 767.79 118.76 761.46 118.76C754.51 118.76 750.99 114.43 750.99 105.9C750.99 97.54 755.91 89.07 765.6 80.7C775.24 72.38 786.53 66.75 799.16 63.97L807.47 62.19L807.11 56.24C795.77 56.46 784.26 59.51 772.91 65.32C761.4 71.21 751.81 78.96 744.41 88.35C737.04 97.7 733.3 107.28 733.3 116.81C733.3 121.92 734.62 125.97 737.22 128.83C739.81 131.68 743.7 133.13 748.8 133.13C753.96 133.13 759.31 131.82 764.68 129.23C770.07 126.64 776.56 121.5 783.96 113.96L793.28 104.35Z" fill="#231F20"/>
<path d="M853.47 214.1C847.53 214.1 842.73 212.16 839.18 208.33C835.65 204.51 833.85 199.51 833.85 193.45C833.85 181.45 839.42 170.11 850.42 159.74C861.31 149.47 876.03 141.25 894.17 135.31C896.11 126.7 899.5 114.72 904.27 99.6496C895.75 112.18 887.88 120.88 880.85 125.52C873.25 130.54 866.27 133.08 860.11 133.08C853.9 133.08 849.13 131.35 845.93 127.94C842.74 124.54 841.12 119.95 841.12 114.3C841.12 105.08 845 95.5796 852.66 86.0496C860.29 76.5496 870.02 68.6796 881.59 62.6496C893.17 56.6196 904.54 53.5596 915.37 53.5596H915.77L917.65 61.7696L917.09 61.8296C901.89 63.4696 888.66 68.8896 877.78 77.9196C866.94 86.9196 861.45 95.6696 861.45 103.92C861.45 107.37 862.52 110.26 864.64 112.51C866.74 114.75 869.35 115.88 872.38 115.88C876.93 115.88 884 110.9 893.42 101.08C902.9 91.1896 909.65 82.6296 913.49 75.6296L913.73 75.1896L922.23 80.0096L922.08 80.4096C914.66 100.24 909.42 117.26 906.49 131.02L923.75 125.47L924 131.41L923.75 131.56C922.33 132.41 916.21 134.84 905.03 138.98C900.6 165.24 894.02 184.51 885.46 196.24C876.8 208.09 866.04 214.1 853.47 214.1ZM907.41 93.0996L906.3 96.5796C900.93 113.38 897.16 126.58 895.09 135.8L895.03 136.08L894.76 136.17C876.63 142.07 861.95 150.25 851.11 160.47C840.32 170.64 834.86 181.73 834.86 193.45C834.86 199.25 836.56 204.03 839.92 207.65C843.27 211.27 847.83 213.1 853.47 213.1C865.7 213.1 876.19 207.23 884.64 195.65C893.14 184 899.68 164.78 904.08 138.53L904.13 138.24L904.4 138.14C914.95 134.23 921.19 131.78 922.97 130.84L922.8 126.82L905.16 132.49L905.33 131.65C908.21 117.79 913.48 100.56 920.99 80.4596L914.11 76.5596C910.19 83.5496 903.47 92.0296 894.13 101.77C884.39 111.94 877.27 116.88 872.37 116.88C869.05 116.88 866.2 115.64 863.9 113.19C861.6 110.75 860.44 107.63 860.44 103.92C860.44 95.3596 866.06 86.3496 877.14 77.1496C888.04 68.0996 901.26 62.6296 916.42 60.8996L914.97 54.5696C904.42 54.6396 893.34 57.6596 882.05 63.5496C870.6 69.5096 860.97 77.2996 853.44 86.6896C845.93 96.0396 842.12 105.34 842.12 114.32C842.12 119.7 843.65 124.06 846.66 127.27C849.66 130.47 854.19 132.1 860.11 132.1C866.07 132.1 872.87 129.61 880.3 124.7C887.75 119.78 896.2 110.18 905.4 96.1696L907.41 93.0996ZM861.78 194.78C858.74 194.78 856.17 193.68 854.14 191.51C852.12 189.35 851.1 186.51 851.1 183.07C851.1 176.59 855.13 169.34 863.09 161.52C870.99 153.76 881.1 147.02 893.15 141.48L894.05 141.07L893.85 142.04C889.98 160.58 885.13 174.13 879.44 182.32C873.68 190.58 867.74 194.78 861.78 194.78ZM892.66 142.8C881.12 148.21 871.41 154.74 863.79 162.23C856.03 169.85 852.1 176.86 852.1 183.06C852.1 186.24 853.03 188.85 854.87 190.82C856.7 192.78 859.02 193.78 861.78 193.78C867.39 193.78 873.06 189.73 878.61 181.74C884.12 173.8 888.85 160.7 892.66 142.8Z" fill="#231F20"/>
<path d="M1000.13 134.12C991.67 134.12 987.37 129.62 987.37 120.74C987.37 117.22 988.17 113.07 989.75 108.4L983.66 114.65C976.17 122.28 969.59 127.48 964.09 130.13C958.58 132.78 953.09 134.13 947.77 134.13C942.38 134.13 938.24 132.57 935.45 129.5C932.68 126.44 931.27 122.17 931.27 116.8C931.27 107.04 935.08 97.25 942.6 87.72C950.09 78.22 959.79 70.38 971.43 64.42C983.08 58.46 994.9 55.36 1006.55 55.22L1007.03 55.21L1007.5 62.97L998.35 64.93C985.89 67.67 974.74 73.23 965.23 81.44C955.76 89.61 950.97 97.84 950.97 105.89C950.97 113.87 954.07 117.75 960.44 117.75C966.51 117.75 974.15 113.39 983.15 104.8C992.2 96.16 999.86 85.86 1005.9 74.19L1006.14 73.72L1015.72 79.42L1015.51 79.84C1007 97 1002.68 108.04 1002.68 112.65C1002.68 114.47 1003.28 115.95 1004.51 117.18C1005.72 118.39 1006.93 119.01 1008.1 119.01C1009.67 119.01 1010.29 118.91 1010.54 118.83C1010.92 118.71 1011.32 118.54 1011.72 118.34C1012.12 118.14 1012.62 117.84 1013.22 117.44C1013.82 117.04 1014.36 116.64 1014.83 116.23C1015.33 115.8 1016.14 115.17 1017.24 114.34C1018.34 113.51 1019.24 112.83 1019.93 112.27L1020.23 112.03L1025.65 116.03L1025.48 116.4C1023.51 120.62 1019.86 124.66 1014.62 128.44C1009.4 132.2 1004.51 134.12 1000.13 134.12ZM992.3 104.35L991.46 106.58C989.41 112.04 988.38 116.8 988.38 120.74C988.38 129.07 992.23 133.12 1000.14 133.12C1004.31 133.12 1009 131.26 1014.08 127.61C1019.02 124.05 1022.51 120.26 1024.44 116.33L1020.3 113.27C1019.65 113.78 1018.85 114.4 1017.89 115.12C1016.8 115.93 1016.01 116.56 1015.53 116.97C1015.02 117.4 1014.45 117.83 1013.82 118.25C1013.18 118.67 1012.64 119 1012.21 119.22C1011.76 119.44 1011.32 119.63 1010.9 119.77C1010.43 119.93 1009.55 120 1008.15 120C1006.7 120 1005.25 119.29 1003.85 117.88C1002.44 116.48 1001.73 114.72 1001.73 112.65C1001.73 107.85 1005.89 97.11 1014.46 79.81L1006.59 75.12C1000.53 86.7 992.9 96.93 983.88 105.53C974.69 114.31 966.81 118.76 960.48 118.76C953.53 118.76 950.01 114.43 950.01 105.9C950.01 97.54 954.93 89.07 964.62 80.7C974.26 72.38 985.55 66.75 998.18 63.97L1006.49 62.19L1006.13 56.24C994.79 56.46 983.28 59.51 971.93 65.32C960.42 71.21 950.83 78.96 943.43 88.35C936.06 97.7 932.32 107.28 932.32 116.81C932.32 121.92 933.64 125.97 936.24 128.83C938.83 131.68 942.72 133.13 947.82 133.13C952.98 133.13 958.33 131.82 963.7 129.23C969.09 126.64 975.58 121.5 982.98 113.96L992.3 104.35Z" fill="#231F20"/>
<path d="M1079.91 130.17C1071.58 130.17 1067.36 125.88 1067.36 117.41C1067.36 112.67 1068.38 107.33 1070.4 101.56C1072.4 95.8196 1074.4 90.4996 1076.33 85.7496C1077.33 83.2896 1078.12 81.2996 1078.72 79.7796C1075.36 83.7196 1070.59 87.8096 1064.51 91.9596C1057.05 97.0496 1050.14 99.6296 1043.97 99.6296C1034.68 99.6296 1029.97 94.2896 1029.97 83.7596C1029.97 77.0696 1031.84 69.5896 1035.52 61.5296C1039.2 53.4596 1043.13 47.7396 1047.19 44.5196L1047.41 44.3496L1057.36 47.9696L1057.08 48.4796C1050.64 60.3896 1047.38 69.3296 1047.38 75.0396C1047.38 80.5696 1049.87 83.2696 1054.98 83.2696C1061.06 83.2696 1068.15 79.8196 1076.05 72.9996C1083.97 66.1696 1089.66 57.5096 1092.94 47.2596L1093.13 46.6796L1104.91 53.2496L1104.66 53.6896C1089.82 79.9496 1082.29 98.3896 1082.29 108.5C1082.29 112.92 1083.93 115.06 1087.3 115.06C1090.82 115.06 1094.51 113.15 1098.27 109.39L1098.58 109.08L1105.07 113.95L1104.89 114.32C1103.48 117.28 1100.46 120.69 1095.93 124.46C1091.34 128.24 1085.95 130.17 1079.91 130.17ZM1081.87 73.8396L1080.8 77.0596C1080.38 78.3096 1079.22 81.2796 1077.26 86.1296C1075.34 90.8696 1073.35 96.1696 1071.35 101.9C1069.37 107.57 1068.37 112.79 1068.37 117.42C1068.37 125.33 1072.15 129.18 1079.92 129.18C1085.73 129.18 1090.9 127.33 1095.29 123.69C1099.52 120.17 1102.39 117 1103.81 114.25L1098.67 110.4C1094.82 114.15 1091 116.06 1087.3 116.06C1083.32 116.06 1081.29 113.52 1081.29 108.5C1081.29 98.2696 1088.78 79.8096 1103.54 53.6396L1093.71 48.1596C1090.35 58.3296 1084.63 66.9496 1076.71 73.7696C1068.62 80.7396 1061.31 84.2796 1054.99 84.2796C1049.28 84.2796 1046.39 81.1796 1046.39 75.0496C1046.39 69.2596 1049.6 60.3296 1055.94 48.5196L1047.61 45.4896C1043.75 48.6396 1039.99 54.1796 1036.44 61.9596C1032.82 69.8896 1030.98 77.2296 1030.98 83.7696C1030.98 93.7796 1035.23 98.6396 1043.98 98.6396C1049.94 98.6396 1056.66 96.1196 1063.95 91.1396C1071.28 86.1396 1076.65 81.2496 1079.92 76.6196L1081.87 73.8396Z" fill="#231F20"/>
<path d="M1176.19 134.12C1171.97 134.12 1168.59 132.63 1166.15 129.68C1163.73 126.77 1162.5 122.92 1162.5 118.25C1162.5 114.22 1163.1 109.12 1164.27 103.07C1158.16 112.29 1151.55 119.68 1144.61 125.08C1137.08 130.94 1130.61 133.91 1125.4 133.91C1117.35 133.91 1113.27 129.06 1113.27 119.49C1113.27 110.19 1116.53 97.5103 1122.97 81.8003C1129.51 65.8503 1134.07 56.9803 1136.94 54.7003L1137.18 54.5103L1147.96 59.2303L1147.66 59.7203C1142.03 68.7703 1137.72 77.8203 1134.83 86.6203C1131.95 95.3903 1130.49 101.32 1130.49 104.23C1130.49 107.05 1131.38 109.34 1133.14 111.04C1134.9 112.74 1136.99 113.6 1139.34 113.6C1144.69 113.6 1151.52 108.53 1159.62 98.5203C1167.79 88.4203 1176.26 73.1203 1184.79 53.0403L1184.99 52.5703L1196.43 57.7303L1196.33 58.1403C1196.04 59.2903 1192.94 67.2003 1186.86 82.3003C1180.89 97.1303 1177.86 106.12 1177.86 109.02C1177.86 111.86 1178.48 114.03 1179.71 115.44C1180.92 116.84 1182.12 117.55 1183.28 117.55C1184.56 117.55 1185.54 117.48 1186.19 117.35C1186.82 117.23 1187.46 116.97 1188.11 116.58C1188.8 116.16 1189.39 115.82 1189.88 115.54C1190.32 115.29 1190.88 114.82 1191.54 114.17L1193.07 112.44C1193.44 112.19 1194 111.63 1194.73 110.77C1195.49 109.87 1196.02 109.27 1196.32 108.97L1196.64 108.65L1201.64 112.7L1201.5 113.04C1199.12 118.91 1195.33 123.94 1190.23 127.99C1185.09 132.05 1180.38 134.12 1176.19 134.12ZM1166.35 97.9803L1165.78 100.69C1164.27 107.82 1163.51 113.72 1163.51 118.24C1163.51 122.67 1164.66 126.31 1166.93 129.03C1169.17 131.74 1172.29 133.11 1176.21 133.11C1180.16 133.11 1184.67 131.12 1189.61 127.19C1194.47 123.33 1198.11 118.55 1200.43 112.99L1196.72 109.98C1196.47 110.25 1196.09 110.69 1195.5 111.39C1194.73 112.3 1194.14 112.89 1193.69 113.21L1192.28 114.82C1191.53 115.58 1190.91 116.08 1190.39 116.38C1189.91 116.66 1189.32 117 1188.63 117.41C1187.88 117.86 1187.13 118.16 1186.39 118.3C1185.66 118.45 1184.64 118.52 1183.28 118.52C1181.82 118.52 1180.36 117.69 1178.95 116.06C1177.56 114.45 1176.86 112.07 1176.86 108.98C1176.86 105.91 1179.83 97.0503 1185.93 81.8903C1192.58 65.3903 1194.72 59.8003 1195.24 58.2503L1185.51 53.8603C1177.01 73.7903 1168.56 89.0203 1160.4 99.1103C1151.98 109.51 1145.09 114.56 1139.34 114.56C1136.72 114.56 1134.4 113.6 1132.45 111.72C1130.49 109.83 1129.49 107.3 1129.49 104.19C1129.49 101.13 1130.93 95.2703 1133.88 86.2703C1136.74 77.5603 1140.99 68.6003 1146.51 59.6503L1137.35 55.6403C1134.63 58.1003 1130.12 67.0103 1123.91 82.1503C1117.52 97.7403 1114.29 110.29 1114.29 119.46C1114.29 128.49 1117.93 132.88 1125.42 132.88C1130.41 132.88 1136.66 129.98 1144.02 124.26C1151.42 118.51 1158.44 110.44 1164.89 100.29L1166.35 97.9803Z" fill="#231F20"/>
</g>
<defs>
<clipPath id="clip0">
<rect width="1203.6" height="218.42" fill="white"/>
</clipPath>
</defs>
</svg>
