<svg width="630" height="114" viewBox="0 0 630 114" fill="none" xmlns="http://www.w3.org/2000/svg">
<g clip-path="url(#clip0)">
<path d="M28.0087 2.375C40.6233 2.375 51.406 6.09636 60.3566 13.5443C69.3073 20.9923 73.7878 29.698 73.7878 39.6773C73.7878 49.6514 70.7415 57.5326 64.654 63.3156C58.5665 69.0986 50.8459 71.917 41.4922 71.7708C36.4882 71.6978 32.5049 71.6612 29.5318 71.6612H24.4232C22.319 71.6612 21.2721 70.8679 21.2721 69.276C21.2721 68.6967 21.8898 67.2144 23.1198 64.8292C27.1764 56.734 30.2594 48.4562 32.3636 40.0009C24.8943 40.0009 17.9012 37.9393 11.3793 33.8213C4.8469 29.698 1.58594 25.0216 1.58594 19.7814C1.58594 14.5412 4.05129 10.3292 8.982 7.15066C13.9075 3.96689 20.2514 2.375 28.0087 2.375ZM27.5742 6.82185C22.7901 6.82185 19.0214 7.83439 16.2629 9.85948C13.5044 11.8846 12.133 14.8648 12.133 18.8054C12.133 22.7459 14.0383 26.2533 17.8437 29.3223C21.649 32.3964 26.742 34.3276 33.1226 35.1209C35.3681 25.6531 36.6714 19.5465 37.0378 16.7959L43.5598 17.4483C43.5598 21.9317 42.6176 27.8556 40.7332 35.2305C41.3143 35.2305 44.6851 34.8704 50.8459 34.1449L51.3903 37.7253C49.9404 38.2316 45.9152 38.9884 39.32 40.0009C36.4935 49.1086 33.557 56.9898 30.5107 63.6392C37.7602 64.2185 43.7953 64.5056 48.6161 64.5056C53.4369 64.5056 57.2632 62.7154 60.0897 59.1401C62.9162 55.5597 64.3295 50.7371 64.3295 44.667C64.3295 34.1866 60.7387 25.2564 53.5625 17.8868C46.3863 10.5067 37.7235 6.82185 27.5742 6.82185Z" fill="#4A8E25"/>
<path d="M126.963 60.6018L129.465 62.4442C128.45 64.6103 126.581 66.6719 123.864 68.6239C121.148 70.5759 118.662 71.5519 116.416 71.5519C112.14 71.5519 109.999 69.3128 109.999 64.8295C109.999 62.7313 110.543 60.2417 111.632 57.3502L107.607 61.4682C103.691 65.4453 100.305 68.1176 97.4417 69.4903C94.5786 70.863 91.7678 71.5519 89.0145 71.5519C86.256 71.5519 84.178 70.7742 82.7595 69.2189C81.3463 67.6635 80.6396 65.5132 80.6396 62.7678C80.6396 57.7103 82.5973 52.705 86.5125 47.7519C90.4278 42.804 95.4318 38.7695 101.519 35.664C107.607 32.5585 113.699 30.9666 119.787 30.8936L120.007 34.474L115.437 35.45C108.842 36.8958 103.022 39.7872 97.9861 44.1245C92.9455 48.4617 90.4278 52.7833 90.4278 57.084C90.4278 61.3847 92.1656 63.5351 95.6464 63.5351C98.9073 63.5351 102.933 61.2595 107.717 56.703C112.501 52.1466 116.489 46.802 119.677 40.6537L124.247 43.3625C119.75 52.3971 117.505 58.1435 117.505 60.6018C117.505 61.6144 117.85 62.4651 118.536 63.1488C119.222 63.8378 119.913 64.177 120.604 64.177C121.289 64.177 121.745 64.1405 121.964 64.0674C122.184 63.9944 122.399 63.9056 122.619 63.796C122.839 63.6864 123.111 63.5246 123.435 63.3054C123.76 63.0862 124.053 62.8722 124.304 62.653C124.555 62.4338 124.974 62.1102 125.555 61.677C126.126 61.2542 126.597 60.8941 126.963 60.6018Z" fill="#4A8E25"/>
<path d="M167.958 59.0825L171.005 61.3581C170.277 62.8769 168.738 64.6097 166.383 66.5618C164.027 68.5138 161.29 69.4898 158.175 69.4898C153.972 69.4898 151.868 67.3603 151.868 63.0909C151.868 60.6326 152.391 57.9029 153.443 54.9071C154.496 51.906 155.527 49.1606 156.542 46.6658C157.558 44.1709 158.175 42.5999 158.39 41.9475C156.652 44.4058 153.841 46.9528 149.963 49.5938C146.084 52.2348 142.551 53.55 139.363 53.55C134.652 53.55 132.297 50.8778 132.297 45.528C132.297 42.0571 133.255 38.2262 135.181 34.0351C137.102 29.844 139.112 26.9159 141.216 25.251L146 26.9838C142.593 33.273 140.892 37.9339 140.892 40.9715C140.892 44.0091 142.305 45.528 145.131 45.528C148.392 45.528 152.124 43.7221 156.333 40.1051C160.536 36.4934 163.509 31.9734 165.252 26.5506L170.905 29.6926C163.075 43.5029 159.159 53.0751 159.159 58.4249C159.159 60.8832 160.117 62.1097 162.043 62.1097C163.949 62.1201 165.927 61.1076 167.958 59.0825Z" fill="#4A8E25"/>
<path d="M217.867 29.3744L222.107 30.3504C222.033 30.8567 221.002 33.0435 219.008 36.9111C217.014 40.7786 214.894 45.8413 212.648 52.0888C210.403 58.3415 208.953 64.6516 208.299 71.0088L201.337 70.4659C201.337 66.4941 202.604 61.3583 205.142 55.069C204.488 54.9959 203.169 54.9594 201.175 54.9594C199.18 54.9594 195.537 55.4291 190.246 56.3686C186.55 64.6099 184.702 71.6559 184.702 77.512L177.416 76.536C177.416 71.4054 179.337 65.0796 183.179 57.5638C179.484 58.1432 175.783 59.0096 172.088 60.1683L170.999 55.9406C170.999 55.7214 172.936 55.1108 176.814 54.0982C180.693 53.0857 183.572 52.4385 185.461 52.1462C191.261 38.8474 195.213 31.1489 197.312 29.0508L201.986 30.8932C201.625 31.6187 200.787 33.2419 199.484 35.7732C196.223 42.0625 194.009 46.9791 192.852 50.5178C199.16 49.8654 202.944 49.5418 204.216 49.5418C205.483 49.5418 206.556 49.5783 207.424 49.6514C212.502 38.0123 215.977 31.2533 217.867 29.3744Z" fill="#4A8E25"/>
<path d="M249.943 46.29C253.927 46.1438 255.926 47.7723 255.926 51.17C255.926 55.6534 253.513 60.0794 248.697 64.4531C243.877 68.8269 239.035 71.0138 234.183 71.0138C229.613 71.0138 227.331 67.9396 227.331 61.7965C227.331 56.953 228.545 50.9352 230.974 43.743C233.403 36.5508 235.413 31.4724 237.009 28.5078L241.903 30.1362C240.019 35.6322 238.098 42.3546 236.14 50.3036L237.554 49.6512C242.401 47.4121 246.536 46.29 249.943 46.29ZM248.205 57.4593C248.64 56.4467 248.86 55.5073 248.86 54.6409C248.64 52.6888 246.939 51.7128 243.751 51.7128C242.228 51.7128 239.401 52.3652 235.271 53.6649C234.69 55.8361 234.403 57.7672 234.403 59.4635C234.403 61.165 234.821 62.5168 235.654 63.5293C236.486 64.5419 237.611 65.0481 239.024 65.0481C240.438 65.0481 242.123 64.307 244.081 62.8247C246.028 61.3424 247.405 59.5574 248.205 57.4593ZM266.363 56.1545L263.102 70.4658L256.905 69.4898C258.355 60.7422 260.181 52.6106 262.396 45.0948C264.604 37.579 266.724 32.1926 268.755 28.941L274.084 29.5934C271.472 36.3159 268.902 45.1678 266.363 56.1545Z" fill="#4A8E25"/>
<path d="M306.484 58.759L308.986 60.711C306.741 63.8218 303.658 66.4053 299.742 68.4617C295.827 70.5233 292.022 71.5515 288.326 71.5515C284.631 71.5515 281.658 70.4659 279.407 68.2999C277.162 66.1339 276.036 63.2789 276.036 59.735C276.036 53.0856 279.569 46.5459 286.636 40.1105C293.702 33.6803 300.862 30.46 308.112 30.46C312.896 30.46 315.288 32.3389 315.288 36.0968C315.288 40.0008 312.77 43.9414 307.73 47.9133C302.689 51.8904 295.607 55.5022 286.473 58.7538C287.128 60.4188 288.138 61.7184 289.52 62.6578C290.896 63.5973 292.31 64.0671 293.759 64.0671C296.879 64.0723 301.119 62.3029 306.484 58.759ZM285.934 55.5074C291.807 53.4823 296.842 50.9509 301.051 47.9185C305.254 44.8809 307.358 42.099 307.358 39.5676C307.358 38.6282 306.997 37.7983 306.269 37.0728C305.542 36.3526 304.71 35.9872 303.767 35.9872C300.36 35.9872 296.68 38.101 292.728 42.3287C288.776 46.5615 286.515 50.9509 285.934 55.5074Z" fill="#4A8E25"/>
<path d="M380.774 35.2826C380.774 40.5593 375.917 44.9331 366.202 48.4039C368.814 49.9958 370.75 51.4206 372.017 52.6889C373.284 53.952 373.922 55.3821 373.922 56.974C373.922 61.0242 371.64 64.5837 367.071 67.6527C362.501 70.7268 357.612 72.2613 352.394 72.2613C349.855 72.2613 347.316 71.8647 344.783 71.0661C342.244 70.2728 340.507 69.2968 339.564 68.1381L343.694 64.3436C344.563 65.21 345.741 65.9721 347.227 66.6193C348.714 67.2717 349.965 67.5953 350.98 67.5953C354.603 67.5953 357.921 66.6715 360.931 64.829C363.941 62.9866 365.443 60.7267 365.443 58.0544C365.443 56.6086 364.899 55.3978 363.81 54.4217C362.721 53.4457 361.543 52.762 360.277 52.3601C359.01 51.9635 357.832 51.4572 356.743 50.8413C355.655 50.2306 355.11 49.5208 355.11 48.7275C355.11 47.9342 355.964 47.193 357.665 46.5041C359.366 45.8203 361.271 45.241 363.375 44.7713C365.479 44.3015 367.38 43.5082 369.086 42.386C370.787 41.2639 371.64 40.0217 371.64 38.6438C371.64 37.2711 371.169 36.1855 370.227 35.3922C369.285 34.5988 368.107 34.1969 366.694 34.1969C365.281 34.1969 363.087 34.9537 360.114 36.4726C357.141 37.9914 354.132 39.9434 351.09 42.3286L349.567 39.291C352.179 36.2534 355.712 33.5654 360.167 31.2115C364.626 28.8628 368.212 27.6885 370.934 27.6885C373.65 27.6885 375.969 28.4296 377.895 29.9119C379.811 31.3994 380.774 33.1896 380.774 35.2826Z" fill="#4A8E25"/>
<path d="M431.228 61.3059L433.73 63.1483C432.714 65.3143 430.846 67.376 428.129 69.328C425.413 71.28 422.926 72.256 420.681 72.256C416.404 72.256 414.263 70.0169 414.263 65.5336C414.263 63.4354 414.808 60.9458 415.897 58.0543L411.871 62.1723C407.956 66.1494 404.57 68.8217 401.706 70.1944C398.843 71.5671 396.032 72.256 393.279 72.256C390.521 72.256 388.443 71.4783 387.024 69.923C385.611 68.3676 384.904 66.2173 384.904 63.4719C384.904 58.4144 386.862 53.4091 390.777 48.456C394.692 43.5081 399.696 39.4736 405.784 36.3681C411.871 33.2626 417.964 31.6707 424.052 31.5977L424.271 35.1781L419.702 36.1541C413.107 37.5999 407.286 40.4913 402.251 44.8286C397.21 49.1658 394.692 53.4874 394.692 57.7881C394.692 62.0888 396.43 64.2392 399.911 64.2392C403.172 64.2392 407.197 61.9636 411.981 57.4071C416.765 52.8507 420.754 47.5061 423.942 41.3577L428.511 44.0666C424.015 53.1012 421.769 58.8476 421.769 61.3059C421.769 62.3185 422.115 63.1692 422.801 63.8529C423.486 64.5419 424.177 64.8811 424.868 64.8811C425.554 64.8811 426.009 64.8446 426.229 64.7715C426.449 64.6985 426.664 64.6097 426.883 64.5001C427.103 64.3905 427.375 64.2287 427.7 64.0095C428.024 63.7903 428.318 63.5763 428.569 63.3571C428.82 63.1379 429.239 62.8143 429.82 62.3811C430.396 61.9583 430.867 61.593 431.228 61.3059Z" fill="#4A8E25"/>
<path d="M484.617 68.3522L484.727 70.9566C484 71.3898 480.702 72.6894 474.834 74.8606C472.515 88.6657 469.108 98.6398 464.612 104.788C460.115 110.931 454.609 114.005 448.082 114.005C445.035 114.005 442.607 113.029 440.796 111.077C438.985 109.125 438.079 106.594 438.079 103.489C438.079 97.2723 440.942 91.4685 446.669 86.0874C452.395 80.701 460.042 76.4525 469.61 73.347C470.699 68.5035 472.657 61.6715 475.483 52.8561C470.626 60.2309 466.224 65.2154 462.272 67.8198C458.32 70.4242 454.75 71.7238 451.563 71.7238C448.37 71.7238 445.962 70.8574 444.334 69.1194C442.701 67.3866 441.89 65.0745 441.89 62.1777C441.89 57.4073 443.884 52.5481 447.872 47.595C451.856 42.6471 456.881 38.5969 462.932 35.4497C468.982 32.3077 474.84 30.7314 480.493 30.7314L481.361 34.5259C473.316 35.3923 466.412 38.2107 460.644 42.9811C454.881 47.7516 451.997 52.3446 451.997 56.7497C451.997 58.6286 452.578 60.184 453.735 61.4105C454.892 62.6423 456.305 63.2529 457.975 63.2529C460.44 63.2529 464.172 60.6485 469.176 55.4448C474.18 50.2412 477.692 45.7944 479.723 42.1095L483.748 44.3851C479.76 55.0116 477.007 63.9732 475.483 71.275L484.617 68.3522ZM468.961 76.5935C462.654 79.4849 457.436 82.9558 453.306 87.0007C449.176 91.0457 447.108 94.7357 447.108 98.0604C447.108 99.7933 447.616 101.202 448.631 102.288C449.647 103.374 450.914 103.917 452.437 103.917C455.483 103.917 458.488 101.782 461.461 97.5176C464.429 93.2535 466.931 86.2805 468.961 76.5935Z" fill="#4A8E25"/>
<path d="M535.401 61.3059L537.903 63.1483C536.887 65.3143 535.019 67.376 532.302 69.328C529.586 71.28 527.099 72.256 524.854 72.256C520.577 72.256 518.436 70.0169 518.436 65.5336C518.436 63.4354 518.981 60.9458 520.07 58.0543L516.044 62.1723C512.129 66.1494 508.742 68.8217 505.879 70.1944C503.016 71.5671 500.205 72.256 497.452 72.256C494.694 72.256 492.616 71.4783 491.197 69.923C489.784 68.3676 489.077 66.2173 489.077 63.4719C489.077 58.4144 491.035 53.4091 494.95 48.456C498.865 43.5081 503.869 39.4736 509.957 36.3681C516.044 33.2626 522.137 31.6707 528.225 31.5977L528.444 35.1781L523.875 36.1541C517.28 37.5999 511.459 40.4913 506.424 44.8286C501.383 49.1658 498.865 53.4874 498.865 57.7881C498.865 62.0888 500.603 64.2392 504.084 64.2392C507.345 64.2392 511.37 61.9636 516.154 57.4071C520.938 52.8507 524.927 47.5061 528.115 41.3577L532.684 44.0666C528.188 53.1012 525.942 58.8476 525.942 61.3059C525.942 62.3185 526.288 63.1692 526.974 63.8529C527.659 64.5419 528.35 64.8811 529.041 64.8811C529.727 64.8811 530.182 64.8446 530.402 64.7715C530.622 64.6985 530.836 64.6097 531.056 64.5001C531.276 64.3905 531.548 64.2287 531.873 64.0095C532.197 63.7903 532.491 63.5763 532.742 63.3571C532.993 63.1379 533.412 62.8143 533.993 62.3811C534.563 61.9583 535.034 61.593 535.401 61.3059Z" fill="#4A8E25"/>
<path d="M576.39 59.7876L579.436 62.0632C578.709 63.582 577.17 65.3148 574.814 67.2668C572.459 69.2189 569.721 70.1949 566.607 70.1949C562.404 70.1949 560.3 68.0654 560.3 63.796C560.3 61.3377 560.823 58.608 561.875 55.6121C562.927 52.611 563.958 49.8657 564.974 47.3709C565.989 44.876 566.607 43.305 566.821 42.6526C565.084 45.1109 562.273 47.6579 558.394 50.2989C554.516 52.9399 550.983 54.2551 547.795 54.2551C543.084 54.2551 540.729 51.5828 540.729 46.233C540.729 42.7622 541.686 38.9312 543.613 34.7401C545.534 30.549 547.544 27.621 549.648 25.9561L554.432 27.6889C551.024 33.9781 549.323 38.639 549.323 41.6766C549.323 44.7142 550.736 46.233 553.563 46.233C556.824 46.233 560.556 44.4272 564.764 40.8102C568.968 37.1984 571.941 32.6785 573.684 27.2557L579.337 30.3977C571.506 44.208 567.591 53.7802 567.591 59.1299C567.591 61.5882 568.549 62.8148 570.475 62.8148C572.386 62.8252 574.364 61.8127 576.39 59.7876Z" fill="#4A8E25"/>
<path d="M627.717 59.568L630 61.4104C628.764 64.4481 626.828 67.0107 624.184 69.1089C621.536 71.2071 619.144 72.2509 617.008 72.2509C614.867 72.2509 613.182 71.5098 611.952 70.0275C610.716 68.5452 610.104 66.6141 610.104 64.2289C610.104 61.8436 610.502 58.7695 611.303 55.0116C607.895 60.3614 604.236 64.5525 600.321 67.5901C596.406 70.6277 593.108 72.1465 590.428 72.1465C586.366 72.1465 584.341 69.7248 584.341 64.8813C584.341 60.0378 586.026 53.5136 589.397 45.3089C592.768 37.1042 595.176 32.4224 596.626 31.269L601.844 33.5446C598.871 38.315 596.626 43.0176 595.103 47.6419C593.579 52.2662 592.82 55.3613 592.82 56.9114C592.82 58.4668 593.307 59.7142 594.286 60.6536C595.265 61.5931 596.406 62.0629 597.709 62.0629C600.609 62.0629 604.215 59.4062 608.528 54.093C612.842 48.7797 617.244 40.8464 621.74 30.293L627.288 32.7878C627.142 33.3671 625.493 37.5582 622.342 45.3663C619.191 53.1744 617.61 57.8561 617.61 59.4062C617.61 60.9616 617.955 62.1359 618.641 62.9293C619.327 63.7278 620.018 64.1245 620.709 64.1245C621.394 64.1245 621.923 64.0879 622.284 64.0149C622.645 63.9418 623.006 63.7957 623.373 63.5817C623.734 63.3625 624.043 63.185 624.299 63.0389C624.551 62.8927 624.859 62.6422 625.226 62.2821L625.985 61.4157C626.205 61.2695 626.508 60.9668 626.911 60.4918C627.299 60.0221 627.571 59.7142 627.717 59.568Z" fill="#4A8E25"/>
<path d="M40.838 69.923C40.6129 69.923 40.3931 69.923 40.168 69.9178C35.2268 69.8447 31.2016 69.8082 28.2129 69.8082H23.1042C20.2829 69.8082 19.6914 68.3676 19.6914 67.162C19.6914 66.5357 20.3038 65.0429 21.5705 62.5951C25.5486 54.6617 28.6211 46.4361 30.7096 38.1427C23.3502 38.08 16.3572 35.9871 9.91899 31.9212C3.33425 27.7719 0 22.9754 0 17.6621C0 12.3541 2.52817 8.03251 7.51122 4.8122C12.4629 1.61798 18.9115 0 26.6844 0C39.2991 0 50.2388 3.77877 59.1999 11.2267C68.1715 18.6903 72.7253 27.5475 72.7253 37.5581C72.7253 47.5635 69.6266 55.5751 63.5077 61.3842C57.5459 67.0524 49.9195 69.923 40.838 69.923ZM26.6844 0.52193C19.0162 0.52193 12.6618 2.11382 7.7991 5.25062C2.97308 8.36654 0.52343 12.542 0.52343 17.6621C0.52343 22.7823 3.77393 27.4326 10.1859 31.4828C16.6398 35.5591 23.6538 37.6207 31.0341 37.6207H31.3691L31.2906 37.9443C29.1917 46.3839 26.0773 54.7557 22.0259 62.83C20.5184 65.7423 20.2044 66.7914 20.2044 67.1568C20.2044 68.5868 21.1518 69.281 23.0937 69.281H28.2024C31.1964 69.281 35.2216 69.3175 40.168 69.3906C49.4118 69.5315 57.1376 66.7131 63.1466 61.0032C69.1555 55.2985 72.1967 47.4121 72.1967 37.5529C72.1967 27.7041 67.7109 18.9826 58.8597 11.6234C50.0032 4.25895 39.1735 0.52193 26.6844 0.52193ZM47.2919 62.6525C42.4711 62.6525 36.3731 62.3602 29.1655 61.7861L28.7939 61.7548L28.9509 61.4155C31.9763 54.8079 34.9337 46.8641 37.7445 37.8086L37.7916 37.652L37.9539 37.6259C44.2141 36.6656 48.1869 35.9297 49.7729 35.4286L49.3018 32.3179C43.2405 33.0277 40.0005 33.3722 39.409 33.3722H39.074L39.1578 33.0486C40.995 25.8564 41.9424 19.9795 41.9738 15.5692L35.9387 14.969C35.5304 17.8239 34.2271 23.9096 32.0548 33.0695L32.0025 33.2991L31.7669 33.2678C25.3654 32.4693 20.1834 30.5016 16.3572 27.4118C12.5047 24.3011 10.5523 20.6945 10.5523 16.6913C10.5523 12.6829 11.9761 9.60351 14.7921 7.53667C17.582 5.49071 21.4397 4.45206 26.2552 4.45206C36.4307 4.45206 45.2348 8.19952 52.4319 15.5901C59.6239 22.9806 63.2722 32.0517 63.2722 42.553C63.2722 48.6543 61.8275 53.5813 58.9748 57.1879C56.1012 60.8101 52.1755 62.6525 47.2919 62.6525ZM29.579 61.2903C36.6087 61.8435 42.5653 62.1253 47.2919 62.1253C52.008 62.1253 55.7976 60.3508 58.5561 56.8591C61.3303 53.3465 62.7383 48.5291 62.7383 42.5477C62.7383 32.1874 59.1423 23.2363 52.0446 15.9502C44.9574 8.66404 36.2789 4.96878 26.25 4.96878C21.5444 4.96878 17.7914 5.97088 15.0957 7.95422C12.4262 9.91667 11.0705 12.8551 11.0705 16.6913C11.0705 20.5327 12.9601 23.9984 16.6817 27.0047C20.3824 29.9953 25.402 31.916 31.5942 32.7198C33.7979 23.4294 35.0907 17.3542 35.4519 14.6506L35.4833 14.4001L42.4973 15.0994V15.3343C42.4973 19.7446 41.5708 25.632 39.7493 32.8398C40.8589 32.7616 44.1251 32.4014 49.4903 31.7751L49.7415 31.7438L50.3539 35.7835L50.1498 35.8566C48.6842 36.3681 44.7689 37.1092 38.1947 38.1218C35.4414 46.9789 32.5416 54.7714 29.579 61.2903Z" fill="#231F20"/>
<path d="M115.086 69.6982C110.658 69.6982 108.407 67.3495 108.407 62.7148C108.407 60.8776 108.826 58.7116 109.653 56.2742L106.465 59.5362C102.545 63.5186 99.1008 66.2326 96.2219 67.6157C93.3378 68.9988 90.4642 69.7034 87.6796 69.7034C84.8583 69.7034 82.6913 68.8892 81.2309 67.2869C79.781 65.6898 79.043 63.4611 79.043 60.6584C79.043 55.5643 81.0372 50.4546 84.9734 45.4806C88.8939 40.5223 93.9712 36.4304 100.064 33.3197C106.162 30.209 112.349 28.591 118.447 28.5179L118.698 28.5127L118.944 32.5629L114.155 33.5859C107.633 35.0159 101.796 37.9179 96.8186 42.2029C91.8618 46.4671 89.3545 50.7626 89.3545 54.9641C89.3545 59.1291 90.9772 61.1542 94.3114 61.1542C97.4886 61.1542 101.488 58.8786 106.199 54.3952C110.936 49.8857 114.945 44.5099 118.107 38.4189L118.232 38.1736L123.247 41.1486L123.137 41.3678C118.682 50.3242 116.421 56.0863 116.421 58.4924C116.421 59.4423 116.735 60.2147 117.379 60.8567C118.012 61.4882 118.646 61.8118 119.258 61.8118C120.08 61.8118 120.404 61.7597 120.535 61.7179C120.734 61.6553 120.944 61.5665 121.153 61.4622C121.362 61.3578 121.624 61.2012 121.938 60.9924C122.252 60.7836 122.535 60.5749 122.781 60.3609C123.042 60.1364 123.466 59.8076 124.042 59.3744C124.618 58.9412 125.089 58.5863 125.45 58.294L125.607 58.1688L128.444 60.2565L128.355 60.4496C127.324 62.6521 125.414 64.7607 122.671 66.7336C119.939 68.6961 117.379 69.6982 115.086 69.6982ZM110.988 54.1603L110.548 55.3242C109.475 58.174 108.936 60.6584 108.936 62.7148C108.936 67.0625 110.951 69.1763 115.092 69.1763C117.274 69.1763 119.729 68.2055 122.388 66.3004C124.974 64.4424 126.801 62.4643 127.811 60.4131L125.644 58.816C125.304 59.0821 124.885 59.4057 124.382 59.7815C123.812 60.2043 123.398 60.5331 123.147 60.7471C122.88 60.9715 122.582 61.196 122.252 61.4152C121.917 61.6344 121.634 61.8066 121.409 61.9214C121.174 62.0363 120.944 62.1354 120.724 62.2085C120.478 62.292 120.017 62.3286 119.284 62.3286C118.525 62.3286 117.766 61.958 117.033 61.2221C116.295 60.4914 115.924 59.5728 115.924 58.4924C115.924 55.9871 118.101 50.3816 122.587 41.3522L118.468 38.9043C115.296 44.9483 111.302 50.2876 106.581 54.7762C101.77 59.3588 97.6457 61.6814 94.3324 61.6814C90.6945 61.6814 88.852 59.4214 88.852 54.9693C88.852 50.606 91.4273 46.1853 96.4994 41.8167C101.545 37.4742 107.455 34.5358 114.066 33.0848L118.415 32.1558L118.227 29.0503C112.291 29.1651 106.267 30.757 100.326 33.7894C94.3009 36.8636 89.2813 40.9085 85.4079 45.8095C81.5502 50.6895 79.5926 55.6896 79.5926 60.6636C79.5926 63.3307 80.2835 65.4445 81.6444 66.9372C83.0001 68.4247 85.0362 69.1815 87.7057 69.1815C90.4066 69.1815 93.207 68.4978 96.0178 67.146C98.8391 65.7942 102.236 63.1114 106.11 59.1761L110.988 54.1603Z" fill="#231F20"/>
<path d="M156.846 67.6368C152.486 67.6368 150.277 65.3977 150.277 60.9769C150.277 58.503 150.811 55.7159 151.868 52.7043C152.915 49.7085 153.962 46.9318 154.972 44.4526C155.496 43.1687 155.909 42.13 156.223 41.3367C154.465 43.3931 151.968 45.5278 148.785 47.6938C144.881 50.3504 141.264 51.697 138.034 51.697C133.171 51.697 130.706 48.9099 130.706 43.414C130.706 39.9223 131.685 36.0182 133.611 31.8115C135.537 27.5995 137.594 24.6141 139.72 22.9335L139.835 22.8447L145.043 24.7341L144.896 25.0003C141.525 31.2165 139.819 35.8825 139.819 38.8628C139.819 41.749 141.122 43.1582 143.797 43.1582C146.979 43.1582 150.691 41.3576 154.826 37.798C158.971 34.2332 161.95 29.7133 163.666 24.3635L163.766 24.0608L169.932 27.4899L169.801 27.7196C162.033 41.4254 158.092 51.0498 158.092 56.3265C158.092 58.6335 158.95 59.7504 160.714 59.7504C162.557 59.7504 164.488 58.7535 166.456 56.7911L166.619 56.6293L170.016 59.1711L169.921 59.3642C169.183 60.9091 167.603 62.6889 165.232 64.6565C162.829 66.6347 160.008 67.6368 156.846 67.6368ZM157.872 38.2417L157.312 39.9223C157.092 40.5747 156.485 42.1248 155.459 44.6562C154.454 47.1301 153.412 49.8964 152.366 52.887C151.329 55.8464 150.806 58.5708 150.806 60.9874C150.806 65.1158 152.784 67.1253 156.851 67.1253C159.893 67.1253 162.599 66.1597 164.897 64.2599C167.111 62.4227 168.613 60.7682 169.356 59.3329L166.666 57.3234C164.651 59.2807 162.651 60.2776 160.714 60.2776C158.631 60.2776 157.568 58.9519 157.568 56.3318C157.568 50.9924 161.489 41.3576 169.215 27.6987L164.069 24.8385C162.311 30.1465 159.317 34.6456 155.171 38.2051C150.937 41.843 147.11 43.6906 143.802 43.6906C140.813 43.6906 139.301 42.0726 139.301 38.8732C139.301 35.8512 140.981 31.1904 144.3 25.0264L139.939 23.4449C137.919 25.089 135.951 27.9805 134.093 32.0411C132.198 36.18 131.235 40.011 131.235 43.4244C131.235 48.6489 133.459 51.1855 138.039 51.1855C141.159 51.1855 144.676 49.8703 148.492 47.2711C152.329 44.6614 155.14 42.1092 156.851 39.6926L157.872 38.2417Z" fill="#231F20"/>
<path d="M183.635 75.7011L175.825 74.6573V74.4276C175.825 69.3806 177.694 63.1122 181.384 55.7895C177.882 56.3636 174.333 57.2091 170.837 58.3L170.575 58.3835L169.413 53.8218C169.413 53.5295 169.413 53.2947 175.427 51.7236C179.201 50.7424 182.07 50.09 183.954 49.7873C189.79 36.4154 193.664 28.8735 195.804 26.7441L195.925 26.624L201.028 28.6335L200.897 28.8892C200.536 29.6147 199.699 31.2379 198.395 33.7692C195.27 39.7975 193.088 44.615 191.905 48.0962C197.95 47.4751 201.646 47.162 202.892 47.162C204.064 47.162 205.085 47.1933 205.933 47.2559C211.026 35.5856 214.433 28.9831 216.354 27.0677L216.459 26.9633L221.076 28.028L221.044 28.2629C220.992 28.6074 220.615 29.6721 217.919 34.9071C215.941 38.7432 213.805 43.8425 211.57 50.0535C209.34 56.254 207.88 62.6007 207.236 68.9108L207.21 69.1666L199.756 68.5872V68.3471C199.756 64.4222 200.997 59.323 203.452 53.1798C202.724 53.1276 201.52 53.1015 199.856 53.1015C197.909 53.1015 194.292 53.5661 189.11 54.4847C185.482 62.6007 183.645 69.6363 183.645 75.3932V75.7011H183.635ZM176.354 74.198L183.116 75.1061C183.179 69.297 185.053 62.251 188.686 54.1558L188.743 54.0306L188.879 54.0045C194.166 53.065 197.861 52.5901 199.856 52.5901C201.84 52.5901 203.185 52.6266 203.855 52.6997L204.2 52.7362L204.069 53.0546C201.609 59.1559 200.337 64.2187 200.285 68.1123L206.749 68.6133C207.414 62.3449 208.874 56.0452 211.089 49.8865C213.329 43.6494 215.475 38.5345 217.464 34.6774C219.547 30.6377 220.275 29.0249 220.474 28.4299L216.642 27.5478C214.763 29.5364 211.303 36.2954 206.357 47.6422L206.283 47.8144L206.095 47.7987C205.226 47.7257 204.153 47.6891 202.907 47.6891C201.651 47.6891 197.841 48.0179 191.57 48.6651L191.167 48.7069L191.292 48.3259C192.449 44.7924 194.684 39.8184 197.94 33.5396C199.107 31.2744 199.898 29.7347 200.311 28.9153L196.066 27.2399C193.967 29.4738 190.036 37.1722 184.388 50.1318L184.331 50.2622L184.189 50.2831C182.321 50.5702 179.421 51.2226 175.569 52.2299C171.381 53.326 170.266 53.7487 169.978 53.9053L170.957 57.7206C174.564 56.6089 178.217 55.7582 181.824 55.1893L182.331 55.111L182.096 55.5651C178.338 62.9034 176.411 69.1666 176.354 74.198Z" fill="#231F20"/>
<path d="M232.853 69.1553C228.131 69.1553 225.739 65.9663 225.739 59.6771C225.739 54.8283 226.969 48.7218 229.398 41.54C231.816 34.3687 233.852 29.2329 235.449 26.2683L235.554 26.0752L240.908 27.855L240.825 28.1055C238.998 33.4344 237.103 40.0316 235.198 47.7249L236.119 47.3021C240.987 45.0578 245.19 43.92 248.618 43.9148C250.832 43.8365 252.476 44.301 253.518 45.3031C254.413 46.1643 254.868 47.4274 254.868 49.0558C254.868 53.5914 252.408 58.1269 247.551 62.532C242.698 66.9267 237.752 69.1553 232.853 69.1553ZM235.805 26.7067C234.24 29.6765 232.251 34.7184 229.89 41.707C227.482 48.8366 226.263 54.8805 226.263 59.6771C226.263 65.7054 228.419 68.6334 232.853 68.6334C237.621 68.6334 242.447 66.4517 247.195 62.1406C251.937 57.8399 254.339 53.4348 254.339 49.0506C254.339 47.5683 253.942 46.4305 253.151 45.6737C252.22 44.776 250.696 44.3584 248.629 44.4315H248.618C245.268 44.4315 241.133 45.5536 236.333 47.7666L234.428 48.6435L234.559 48.1163C236.48 40.303 238.396 33.5962 240.244 28.1734L235.805 26.7067ZM261.976 68.6491L255.276 67.5947L255.318 67.3338C256.763 58.6123 258.616 50.3972 260.814 42.9074C263.023 35.4021 265.169 29.9427 267.205 26.6859L267.294 26.5449L273.12 27.2548L273 27.5679C270.404 34.2486 267.813 43.1736 265.29 54.0976L261.976 68.6491ZM255.878 67.1615L261.573 68.0593L264.782 53.9828C267.268 43.205 269.828 34.3635 272.393 27.6932L267.561 27.1034C265.577 30.3394 263.479 35.6996 261.317 43.0536C259.145 50.4493 257.313 58.5549 255.878 67.1615ZM237.689 63.1949C236.197 63.1949 234.993 62.6521 234.114 61.5821C233.245 60.5278 232.806 59.1029 232.806 57.3493C232.806 55.6321 233.099 53.6592 233.685 51.4828L233.722 51.3418L233.858 51.3001C238.056 49.9796 240.856 49.3376 242.416 49.3376C245.745 49.3376 247.551 50.4024 247.786 52.4953C247.786 53.4243 247.561 54.4056 247.116 55.439C246.305 57.5737 244.886 59.4161 242.897 60.914C240.908 62.4276 239.155 63.1949 237.689 63.1949ZM234.156 51.7542C233.612 53.8315 233.334 55.7156 233.334 57.3493C233.334 58.9777 233.737 60.2929 234.528 61.2481C235.313 62.2032 236.349 62.673 237.694 62.673C239.045 62.673 240.694 61.9422 242.594 60.5017C244.499 59.0612 245.86 57.2918 246.64 55.2511L246.645 55.2407C247.064 54.2647 247.278 53.3513 247.278 52.5266C247.079 50.7416 245.493 49.8596 242.431 49.8596C240.95 49.8543 238.165 50.4963 234.156 51.7542Z" fill="#231F20"/>
<path d="M287.002 69.6985C283.249 69.6985 280.192 68.5815 277.904 66.3738C275.617 64.166 274.455 61.2223 274.455 57.621C274.455 50.9246 278.051 44.2596 285.144 37.8033C292.231 31.3575 299.512 28.085 306.798 28.085C311.734 28.085 314.236 30.0683 314.236 33.9828C314.236 37.9547 311.66 41.9996 306.578 46.008C301.59 49.9434 294.497 53.576 285.505 56.8016C286.138 58.2891 287.096 59.4791 288.352 60.335C289.676 61.238 291.053 61.6973 292.445 61.6973C295.497 61.6973 299.726 59.9227 305.023 56.4258L305.18 56.3214L308.028 58.5448L307.881 58.7484C305.62 61.8747 302.479 64.5105 298.549 66.5773C294.607 68.6494 290.723 69.6985 287.002 69.6985ZM306.793 28.6069C299.648 28.6069 292.477 31.8324 285.494 38.1895C278.517 44.5414 274.979 51.0812 274.979 57.621C274.979 61.0762 276.088 63.8946 278.271 65.998C280.459 68.1066 283.395 69.1765 287.007 69.1765C290.645 69.1765 294.445 68.1483 298.303 66.118C302.076 64.1295 305.107 61.619 307.306 58.644L305.154 56.9634C299.841 60.4498 295.57 62.214 292.445 62.214C290.948 62.214 289.472 61.7234 288.059 60.7578C286.646 59.7922 285.588 58.4404 284.918 56.7337L284.819 56.4832L285.075 56.3945C294.141 53.1689 301.265 49.5311 306.259 45.5905C311.205 41.6865 313.718 37.7772 313.718 33.9776C313.707 30.3658 311.446 28.6069 306.793 28.6069ZM284.296 53.7744L284.348 53.3568C284.934 48.7691 287.242 44.2857 291.21 40.0372C295.193 35.773 298.973 33.6122 302.438 33.6122C303.448 33.6122 304.348 34.0036 305.123 34.7709C305.897 35.5433 306.285 36.4463 306.285 37.4484C306.285 40.0528 304.128 42.9339 299.868 46.008C295.659 49.0457 290.551 51.6136 284.683 53.6334L284.296 53.7744ZM302.443 34.1341C299.124 34.1341 295.476 36.2427 291.597 40.3921C287.823 44.4266 285.583 48.6699 284.929 53.0019C290.577 51.0186 295.502 48.529 299.574 45.5853C303.689 42.6155 305.772 39.8754 305.772 37.4484C305.772 36.5768 305.442 35.82 304.762 35.1362C304.076 34.4629 303.317 34.1341 302.443 34.1341Z" fill="#231F20"/>
<path d="M351.043 70.0016C348.489 70.0016 345.898 69.5945 343.354 68.796C340.778 67.987 338.978 66.9744 338.01 65.7844L337.853 65.5965L342.349 61.4681L342.527 61.6455C343.369 62.4858 344.531 63.2322 345.981 63.8689C347.426 64.5005 348.651 64.8241 349.63 64.8241C353.189 64.8241 356.487 63.9055 359.444 62.0996C362.354 60.3146 363.83 58.1121 363.83 55.5442C363.83 54.1819 363.312 53.0232 362.286 52.1046C361.234 51.1599 360.077 50.4867 358.847 50.1004C357.57 49.7038 356.366 49.1818 355.262 48.5607C354.089 47.9031 353.498 47.115 353.498 46.2173C353.498 45.2987 354.388 44.4897 356.214 43.7538C357.916 43.0648 359.852 42.4802 361.962 42.0053C364.024 41.546 365.914 40.7527 367.583 39.6566C369.201 38.5919 370.022 37.4071 370.022 36.1336C370.022 34.8288 369.588 33.8319 368.703 33.0803C367.814 32.3287 366.683 31.9477 365.338 31.9477C363.972 31.9477 361.799 32.7045 358.879 34.1972C355.937 35.7004 352.917 37.6576 349.897 40.0272L349.645 40.2255L347.902 36.7495L348.018 36.619C350.635 33.5709 354.231 30.836 358.695 28.4821C363.171 26.123 366.835 24.9277 369.583 24.9277C372.347 24.9277 374.739 25.695 376.701 27.2034C378.68 28.7326 379.685 30.6063 379.685 32.7776C379.685 38.0595 374.896 42.4907 365.448 45.9563C367.829 47.4386 369.651 48.7956 370.855 49.9908C372.169 51.3009 372.833 52.804 372.833 54.4585C372.833 58.5818 370.488 62.2457 365.866 65.3564C361.281 68.4358 356.293 70.0016 351.043 70.0016ZM338.575 65.6383C339.512 66.6717 341.171 67.5642 343.511 68.2949C346.008 69.0778 348.541 69.4745 351.043 69.4745C356.188 69.4745 361.077 67.94 365.579 64.9128C370.049 61.9065 372.315 58.3887 372.315 54.4481C372.315 52.9397 371.703 51.5618 370.488 50.351C369.237 49.1035 367.295 47.6787 364.72 46.1077L364.254 45.8258L364.767 45.6431C374.32 42.2297 379.167 37.8977 379.167 32.7671C379.167 30.7681 378.23 29.0301 376.387 27.6052C374.519 26.1647 372.231 25.4392 369.588 25.4392C366.929 25.4392 363.349 26.6136 358.947 28.9309C354.602 31.2222 351.101 33.8736 348.536 36.8173L349.839 39.4113C352.802 37.1148 355.764 35.1993 358.654 33.7275C361.689 32.1773 363.883 31.4205 365.353 31.4205C366.824 31.4205 368.07 31.8433 369.054 32.6732C370.054 33.5187 370.562 34.6826 370.562 36.1231C370.562 37.5845 369.661 38.9155 367.887 40.0794C366.165 41.212 364.218 42.0262 362.093 42.5011C360.009 42.9709 358.099 43.545 356.424 44.2235C354.859 44.855 354.032 45.5388 354.032 46.2068C354.032 46.901 354.534 47.5325 355.529 48.0962C356.597 48.7017 357.769 49.2027 359.01 49.5942C360.308 50.0013 361.532 50.7163 362.642 51.708C363.783 52.731 364.359 54.0201 364.359 55.5337C364.359 58.2895 362.799 60.6486 359.721 62.5328C356.685 64.3909 353.294 65.3356 349.635 65.3356C348.588 65.3356 347.29 65.0015 345.777 64.3387C344.369 63.7228 343.212 62.9973 342.344 62.1831L338.575 65.6383Z" fill="#231F20"/>
<path d="M419.33 70.0009C414.902 70.0009 412.652 67.6522 412.652 63.0175C412.652 61.1803 413.07 59.0143 413.897 56.5769L410.71 59.839C406.789 63.8213 403.345 66.5353 400.466 67.9184C397.582 69.3016 394.708 70.0062 391.924 70.0062C389.102 70.0062 386.935 69.1919 385.475 67.5896C384.025 65.9925 383.287 63.7639 383.287 60.9611C383.287 55.8671 385.281 50.7574 389.218 45.7834C393.138 40.825 398.215 36.7331 404.308 33.6224C410.406 30.5117 416.593 28.8937 422.691 28.8207L422.942 28.8154L423.188 32.8656L418.399 33.8886C411.877 35.3187 406.041 38.2206 401.063 42.5057C396.106 46.7698 393.599 51.0653 393.599 55.2668C393.599 59.4318 395.221 61.4569 398.556 61.4569C401.733 61.4569 405.732 59.1813 410.443 54.6979C415.18 50.1885 419.189 44.8126 422.351 38.7217L422.476 38.4764L427.491 41.4514L427.381 41.6706C422.926 50.6269 420.665 56.389 420.665 58.7951C420.665 59.745 420.979 60.5175 421.623 61.1594C422.256 61.791 422.89 62.1146 423.502 62.1146C424.324 62.1146 424.649 62.0624 424.779 62.0206C424.978 61.958 425.188 61.8693 425.397 61.7649C425.606 61.6605 425.868 61.5039 426.182 61.2951C426.496 61.0864 426.779 60.8776 427.025 60.6636C427.287 60.4392 427.711 60.1104 428.286 59.6772C428.862 59.244 429.333 58.889 429.694 58.5968L429.851 58.4715L432.688 60.5592L432.599 60.7523C431.568 62.9549 429.658 65.0635 426.915 67.0364C424.177 68.9988 421.623 70.0009 419.33 70.0009ZM415.227 54.4631L414.787 55.627C413.714 58.4767 413.175 60.9611 413.175 63.0175C413.175 67.3652 415.19 69.479 419.33 69.479C421.513 69.479 423.968 68.5082 426.627 66.6032C429.213 64.7451 431.04 62.767 432.05 60.7158L429.883 59.1187C429.543 59.3849 429.124 59.7085 428.621 60.0843C428.051 60.507 427.637 60.8358 427.386 61.0498C427.119 61.2743 426.821 61.4987 426.491 61.7179C426.156 61.9371 425.873 62.1094 425.648 62.2242C425.413 62.339 425.182 62.4382 424.963 62.5112C424.717 62.5947 424.256 62.6313 423.523 62.6313C422.764 62.6313 422.005 62.2607 421.272 61.5248C420.534 60.7941 420.163 59.8755 420.163 58.7951C420.163 56.2898 422.34 50.6843 426.826 41.6549L422.707 39.2071C419.535 45.251 415.541 50.5904 410.82 55.079C406.009 59.6615 401.885 61.9841 398.571 61.9841C394.933 61.9841 393.091 59.7241 393.091 55.2721C393.091 50.9087 395.666 46.488 400.738 42.1194C405.784 37.777 411.694 34.8385 418.305 33.3875L422.654 32.4585L422.466 29.353C416.53 29.4678 410.505 31.0597 404.565 34.0921C398.54 37.1663 393.52 41.2113 389.647 46.1122C385.789 50.9922 383.831 55.9923 383.831 60.9663C383.831 63.6334 384.522 65.7472 385.883 67.2399C387.239 68.7274 389.275 69.4842 391.945 69.4842C394.646 69.4842 397.446 68.8005 400.257 67.4487C403.078 66.0969 406.475 63.4142 410.348 59.4788L415.227 54.4631Z" fill="#231F20"/>
<path d="M446.732 111.746C443.622 111.746 441.11 110.733 439.252 108.734C437.404 106.74 436.462 104.131 436.462 100.968C436.462 94.7047 439.377 88.786 445.135 83.3736C450.835 78.0134 458.54 73.7231 468.035 70.6229C469.051 66.1291 470.825 59.8763 473.322 52.0108C468.862 58.5506 464.743 63.0914 461.063 65.5132C457.085 68.1333 453.432 69.459 450.207 69.459C446.957 69.459 444.46 68.556 442.785 66.7762C441.115 65.0017 440.267 62.606 440.267 59.6571C440.267 54.8449 442.298 49.8866 446.308 44.9126C450.301 39.9543 455.394 35.8467 461.45 32.6994C467.512 29.5522 473.463 27.9551 479.132 27.9551H479.341L480.325 32.2401L480.032 32.2714C472.076 33.1274 465.151 35.9563 459.456 40.6693C453.782 45.3667 450.909 49.9336 450.909 54.2395C450.909 56.0401 451.469 57.5485 452.578 58.7229C453.678 59.892 455.044 60.4818 456.63 60.4818C459.011 60.4818 462.712 57.8826 467.643 52.7572C472.605 47.5953 476.138 43.1276 478.148 39.4741L478.273 39.2444L482.723 41.7601L482.644 41.9689C478.76 52.3188 476.017 61.202 474.484 68.3838L483.518 65.4871L483.649 68.5873L483.518 68.6656C482.775 69.1093 479.572 70.3776 473.72 72.5384C471.401 86.2442 467.957 96.3018 463.476 102.424C458.943 108.609 453.311 111.746 446.732 111.746ZM474.965 48.5922L474.384 50.4085C471.574 59.1769 469.6 66.0664 468.517 70.8786L468.485 71.0248L468.344 71.0717C458.854 74.1511 451.17 78.4205 445.496 83.7546C439.849 89.0627 436.991 94.8509 436.991 100.968C436.991 103.995 437.88 106.49 439.639 108.379C441.393 110.269 443.779 111.224 446.732 111.224C453.133 111.224 458.624 108.16 463.047 102.116C467.496 96.0357 470.919 86.0042 473.222 72.3035L473.249 72.1521L473.39 72.0999C478.912 70.0592 482.178 68.7805 483.11 68.2898L483.021 66.1917L473.788 69.151L473.877 68.7126C475.384 61.4787 478.143 52.4858 482.074 41.995L478.472 39.9595C476.421 43.6078 472.903 48.0337 468.014 53.1173C462.916 58.4254 459.189 61.0037 456.624 61.0037C454.887 61.0037 453.395 60.3565 452.191 59.0778C450.987 57.8043 450.38 56.1758 450.38 54.2395C450.38 49.7718 453.322 45.0692 459.121 40.2674C464.827 35.5439 471.746 32.689 479.682 31.786L478.923 28.4822C473.4 28.5188 467.601 30.095 461.691 33.1692C455.698 36.2799 450.657 40.3457 446.716 45.2466C442.785 50.1267 440.791 54.9806 440.791 59.6676C440.791 62.4755 441.592 64.7512 443.167 66.4266C444.737 68.0967 447.108 68.9475 450.207 68.9475C453.327 68.9475 456.886 67.6479 460.775 65.0852C464.675 62.5173 469.098 57.5068 473.913 50.1945L474.965 48.5922ZM451.081 101.662C449.49 101.662 448.145 101.088 447.082 99.9554C446.025 98.828 445.491 97.3457 445.491 95.5503C445.491 92.1682 447.601 88.3842 451.767 84.3027C455.902 80.2525 461.194 76.7347 467.501 73.8432L467.972 73.6292L467.868 74.1355C465.842 83.812 463.303 90.8842 460.325 95.1588C457.31 99.47 454.201 101.662 451.081 101.662ZM467.245 74.5321C461.204 77.3558 456.122 80.764 452.133 84.6732C448.072 88.6503 446.015 92.3091 446.015 95.545C446.015 97.2048 446.501 98.567 447.464 99.5952C448.422 100.618 449.637 101.14 451.081 101.14C454.018 101.14 456.986 99.0263 459.891 94.8561C462.775 90.712 465.251 83.8747 467.245 74.5321Z" fill="#231F20"/>
<path d="M523.497 70.0009C519.069 70.0009 516.819 67.6522 516.819 63.0175C516.819 61.1803 517.237 59.0143 518.064 56.5769L514.877 59.839C510.956 63.8213 507.512 66.5353 504.633 67.9184C501.749 69.3016 498.875 70.0062 496.091 70.0062C493.269 70.0062 491.102 69.1919 489.642 67.5896C488.192 65.9925 487.454 63.7639 487.454 60.9611C487.454 55.8671 489.448 50.7574 493.385 45.7834C497.305 40.825 502.382 36.7331 508.475 33.6224C514.573 30.5117 520.76 28.8937 526.858 28.8207L527.109 28.8154L527.355 32.8656L522.566 33.8886C516.044 35.3187 510.208 38.2206 505.23 42.5057C500.273 46.7698 497.766 51.0653 497.766 55.2668C497.766 59.4318 499.388 61.4569 502.723 61.4569C505.9 61.4569 509.899 59.1813 514.61 54.6979C519.347 50.1885 523.356 44.8126 526.518 38.7217L526.643 38.4764L531.658 41.4514L531.548 41.6706C527.093 50.6269 524.832 56.389 524.832 58.7951C524.832 59.745 525.146 60.5175 525.79 61.1594C526.423 61.791 527.057 62.1146 527.669 62.1146C528.491 62.1146 528.816 62.0624 528.946 62.0206C529.145 61.958 529.355 61.8693 529.564 61.7649C529.773 61.6605 530.035 61.5039 530.349 61.2951C530.663 61.0864 530.946 60.8776 531.192 60.6636C531.454 60.4392 531.878 60.1104 532.453 59.6772C533.029 59.244 533.5 58.889 533.861 58.5968L534.018 58.4715L536.855 60.5592L536.766 60.7523C535.735 62.9549 533.825 65.0635 531.082 67.0364C528.35 68.9988 525.79 70.0009 523.497 70.0009ZM519.399 54.4631L518.959 55.627C517.886 58.4767 517.347 60.9611 517.347 63.0175C517.347 67.3652 519.362 69.479 523.503 69.479C525.685 69.479 528.14 68.5082 530.799 66.6032C533.385 64.7451 535.212 62.767 536.222 60.7158L534.055 59.1187C533.715 59.3849 533.296 59.7085 532.794 60.0843C532.223 60.507 531.81 60.8358 531.558 61.0498C531.291 61.2743 530.993 61.4987 530.663 61.7179C530.328 61.9371 530.046 62.1094 529.821 62.2242C529.585 62.339 529.355 62.4382 529.135 62.5112C528.889 62.5947 528.428 62.6313 527.695 62.6313C526.936 62.6313 526.177 62.2607 525.445 61.5248C524.707 60.7941 524.335 59.8755 524.335 58.7951C524.335 56.2898 526.512 50.6843 530.998 41.6549L526.879 39.2071C523.707 45.251 519.713 50.5904 514.992 55.079C510.181 59.6615 506.057 61.9841 502.743 61.9841C499.106 61.9841 497.263 59.7241 497.263 55.2721C497.263 50.9087 499.838 46.488 504.91 42.1194C509.956 37.777 515.866 34.8385 522.477 33.3875L526.826 32.4585L526.638 29.353C520.702 29.4678 514.678 31.0597 508.737 34.0921C502.712 37.1663 497.692 41.2113 493.819 46.1122C489.961 50.9922 488.004 55.9923 488.004 60.9663C488.004 63.6334 488.695 65.7472 490.056 67.2399C491.411 68.7274 493.447 69.4842 496.117 69.4842C498.818 69.4842 501.618 68.8005 504.429 67.4487C507.25 66.0969 510.647 63.4142 514.521 59.4788L519.399 54.4631Z" fill="#231F20"/>
<path d="M565.257 67.9395C560.897 67.9395 558.688 65.7004 558.688 61.2797C558.688 58.8057 559.222 56.0186 560.28 53.0071C561.326 50.0112 562.373 47.2345 563.383 44.7554C563.907 43.4714 564.32 42.4328 564.634 41.6394C562.876 43.6959 560.379 45.8305 557.197 47.9966C553.292 50.6532 549.675 51.9998 546.445 51.9998C541.583 51.9998 539.117 49.2127 539.117 43.7167C539.117 40.225 540.096 36.321 542.022 32.1142C543.948 27.9022 546.006 24.9168 548.131 23.2362L548.246 23.1475L553.454 25.0368L553.307 25.303C549.936 31.5192 548.23 36.1853 548.23 39.1655C548.23 42.0518 549.533 43.461 552.208 43.461C555.391 43.461 559.102 41.6603 563.237 38.1008C567.382 34.536 570.361 30.0161 572.078 24.6663L572.177 24.3636L578.343 27.7926L578.212 28.0223C570.445 41.7282 566.503 51.3526 566.503 56.6293C566.503 58.9362 567.362 60.0531 569.126 60.0531C570.968 60.0531 572.899 59.0563 574.868 57.0938L575.03 56.932L578.427 59.4738L578.333 59.6669C577.595 61.2118 576.014 62.9916 573.643 64.9593C571.24 66.9322 568.419 67.9395 565.257 67.9395ZM566.283 38.5392L565.723 40.2198C565.503 40.8722 564.896 42.4223 563.87 44.9537C562.865 47.4277 561.824 50.1939 560.777 53.1845C559.74 56.1439 559.217 58.8684 559.217 61.2849C559.217 65.4134 561.196 67.4228 565.263 67.4228C568.304 67.4228 571.01 66.4572 573.308 64.5574C575.522 62.7202 577.024 61.0657 577.767 59.6304L575.077 57.6209C573.062 59.5782 571.062 60.5751 569.126 60.5751C567.042 60.5751 565.98 59.2494 565.98 56.6293C565.98 51.2899 569.9 41.6551 577.626 27.9962L572.481 25.136C570.722 30.444 567.728 34.9431 563.582 38.5026C559.348 42.1405 555.522 43.9881 552.213 43.9881C549.225 43.9881 547.712 42.3702 547.712 39.1707C547.712 36.1487 549.392 31.4879 552.711 25.3239L548.351 23.7425C546.33 25.3865 544.362 28.278 542.504 32.3387C540.609 36.4776 539.646 40.3085 539.646 43.7219C539.646 48.9465 541.87 51.483 546.45 51.483C549.57 51.483 553.088 50.1678 556.903 47.5686C560.74 44.9589 563.551 42.4067 565.263 39.9901L566.283 38.5392Z" fill="#231F20"/>
<path d="M615.653 70.0009C613.444 70.0009 611.675 69.2232 610.398 67.6835C609.131 66.1647 608.487 64.1553 608.487 61.7179C608.487 59.6145 608.801 56.9527 609.414 53.795C606.216 58.6072 602.756 62.4642 599.123 65.2827C595.182 68.3412 591.795 69.8913 589.068 69.8913C584.854 69.8913 582.719 67.3599 582.719 62.3651C582.719 57.5111 584.425 50.893 587.796 42.6935C591.219 34.3687 593.606 29.7392 595.108 28.5492L595.234 28.45L600.877 30.9136L600.72 31.1693C597.773 35.8928 595.517 40.6162 594.004 45.2092C592.496 49.7866 591.732 52.8816 591.732 54.4004C591.732 55.8723 592.198 57.0675 593.119 57.9548C594.041 58.842 595.134 59.2909 596.365 59.2909C599.165 59.2909 602.74 56.6447 606.98 51.4202C611.256 46.1487 615.69 38.1632 620.155 27.6828L620.259 27.4375L626.247 30.1307L626.195 30.3447C626.043 30.9449 624.42 35.0733 621.238 42.9545C618.113 50.6947 616.527 55.3869 616.527 56.9005C616.527 58.3827 616.852 59.5153 617.495 60.2513C618.129 60.982 618.757 61.3525 619.364 61.3525C620.034 61.3525 620.547 61.316 620.887 61.2481C621.217 61.1855 621.552 61.0498 621.892 60.8463C622.253 60.627 622.562 60.4496 622.819 60.3034C623.049 60.173 623.342 59.9277 623.688 59.5884L624.488 58.6855C624.682 58.555 624.975 58.2627 625.357 57.8138C625.755 57.3441 626.033 57.0309 626.19 56.8744L626.357 56.7073L628.974 58.8212L628.901 58.9986C627.655 62.0623 625.671 64.6877 623.002 66.8015C620.312 68.9205 617.846 70.0009 615.653 70.0009ZM610.502 51.1383L610.204 52.5528C609.414 56.2741 609.016 59.3535 609.016 61.7127C609.016 64.0248 609.618 65.9246 610.806 67.3443C611.979 68.7587 613.612 69.4738 615.663 69.4738C617.731 69.4738 620.092 68.4351 622.677 66.3839C625.221 64.3693 627.127 61.8745 628.341 58.9725L626.399 57.4015C626.268 57.5424 626.069 57.7721 625.76 58.1374C625.357 58.6124 625.049 58.9203 624.813 59.0873L624.075 59.9277C623.682 60.3243 623.358 60.5853 623.086 60.7419C622.834 60.888 622.526 61.0655 622.164 61.2795C621.772 61.5143 621.379 61.6709 620.992 61.744C620.61 61.8223 620.076 61.8588 619.364 61.8588C618.6 61.8588 617.836 61.4256 617.098 60.5748C616.37 59.7345 616.004 58.4923 616.004 56.8796C616.004 55.2773 617.558 50.653 620.751 42.7405C624.232 34.1286 625.352 31.2111 625.624 30.4021L620.531 28.1108C616.082 38.5129 611.659 46.4619 607.388 51.7281C602.981 57.1562 599.374 59.792 596.365 59.792C594.993 59.792 593.779 59.2909 592.758 58.3097C591.732 57.3232 591.209 56.0027 591.209 54.3795C591.209 52.7824 591.963 49.7239 593.507 45.0265C595.004 40.4805 597.228 35.804 600.118 31.1328L595.323 29.0398C593.899 30.3238 591.539 34.9742 588.288 42.8762C584.943 51.0131 583.253 57.5633 583.253 62.3494C583.253 67.0624 585.158 69.3537 589.078 69.3537C591.69 69.3537 594.962 67.8401 598.814 64.8547C602.688 61.8536 606.362 57.6416 609.738 52.344L610.502 51.1383Z" fill="#231F20"/>
</g>
<defs>
<clipPath id="clip0">
<rect width="630" height="114" fill="white"/>
</clipPath>
</defs>
</svg>
