<svg viewBox="0 0 21 21" fill="none" xmlns="http://www.w3.org/2000/svg">
<rect width="21" height="21" rx="4" fill="black"/>
<path d="M15.2095 9.61268L13.7106 8.78711L12.0274 10.4703L14.0913 12.3719L15.2095 11.7548C15.6122 11.5323 15.8527 11.1316 15.8527 10.6847C15.8547 10.2359 15.6142 9.83511 15.2095 9.61268Z" fill="white"/>
<path d="M8.15433 5.71999C7.75357 5.49757 7.28267 5.50358 6.88391 5.722L11.5588 10.0342L13.1298 8.46322L8.15433 5.71999Z" fill="white"/>
<path d="M6.41679 6.16504C6.30258 6.35139 6.23645 6.5658 6.23645 6.79224V14.5811C6.23645 14.7995 6.29656 15.0099 6.40477 15.1923L11.1057 10.4913L6.41679 6.16504Z" fill="white"/>
<path d="M11.5771 10.9238L6.86212 15.6368C7.06651 15.753 7.29094 15.8152 7.51737 15.8152C7.73579 15.8152 7.9542 15.7591 8.15459 15.6488L13.5008 12.6992L11.5771 10.9238Z" fill="white"/>
</svg>
