<svg width="21" height="21" viewBox="0 0 21 21" fill="none" xmlns="http://www.w3.org/2000/svg">
<path d="M4.52242 0H16.4755C18.9742 0 21 2.02576 21 4.52242V16.4755C21 18.9742 18.9742 21 16.4776 21H4.52242C2.02576 21 0 18.9742 0 16.4776V4.52242C0 2.02576 2.02576 0 4.52242 0Z" fill="black"/>
<path d="M5.66284 4.0002C5.4751 4.00964 5.48467 4.27949 5.48467 4.27949C6.49234 6.21189 8.34866 7.16111 10.4885 7.16111C12.6245 7.15734 14.5 6.19868 15.5057 4.26817C15.5057 4.26817 15.546 3.90396 15.1533 4.03039C14.1207 5.71558 12.387 6.71198 10.4904 6.71575C8.59004 6.71575 6.86207 5.73068 5.82759 4.04172C5.76054 4.00963 5.7069 3.99831 5.66284 4.0002ZM12.4828 11.5147L11.91 13.1961L11.3525 11.5147H10.8084L11.6877 13.9604H12.1111L12.6858 12.3544L13.2605 13.9604H13.6877L14.5651 11.5147H14.0345L13.4751 13.1961L12.9023 11.5147H12.4828ZM9.4387 11.5147L8.32567 13.9585H8.84866L9.06322 13.4848L9.07854 13.449H10.2337L10.4598 13.9585H10.9962L9.89464 11.5279L9.88506 11.5128L9.4387 11.5147ZM17.4943 11.5147V13.9566H18V11.5147H17.4943ZM3 11.5147V13.9604H3.51341V12.9677H4.6705V13.9604H5.18391V11.5147H4.6705V12.5016H3.51341V11.5147H3ZM7.55364 11.5166V12.9168C7.55364 13.315 7.35057 13.5263 6.97893 13.5263C6.60728 13.5263 6.4023 13.3074 6.4023 12.8998V11.5184H5.88889V12.9168C5.88889 13.6056 6.28352 14 6.97126 14C7.66667 14 8.06322 13.598 8.06322 12.8979V11.5184L7.55364 11.5166ZM14.977 11.5166V13.9585H16.8831V13.5131H15.4808V12.9092H16.4119V12.4639H15.4808V11.9638H16.8333V11.5184L14.977 11.5166ZM9.65517 12.1336L10.0211 12.9527L10.046 13.0093H9.27203L9.29694 12.9527L9.65517 12.1336Z" fill="white"/>
</svg>
