<svg width="53" height="55" viewBox="0 0 53 55" fill="none" xmlns="http://www.w3.org/2000/svg">
<g clip-path="url(#clip0)">
<path d="M20.5704 0.0927155C20.254 0.289173 19.3081 5.34802 22.102 6.96757C22.3545 7.11441 22.2502 7.47251 22.3133 7.61128C24.3034 11.944 23.3663 18.0969 22.9144 20.119C22.5929 21.5579 14.2843 31.5132 16.4389 36.8883C18.4736 41.9635 22.5233 43.8405 29.9189 46.043C31.0038 46.3665 34.8436 49.0069 35.9406 48.4962C37.652 47.6986 40.1803 42.1981 40.9988 40.7733C42.704 37.8029 47.5646 31.2727 44.2254 26.6608C39.8241 20.5798 32.135 19.1658 31.1608 18.7286C28.185 17.3955 25.2427 9.2347 24.9816 8.18789C24.6602 6.89674 25.6593 4.01765 25.5765 3.98971C25.3976 3.92866 24.9998 4.81273 24.6939 5.5776C24.4763 4.38172 23.0554 2.6114 23.1124 2.80982C23.2829 3.40344 23.4158 3.79624 23.4357 3.97567C23.4435 4.04211 23.5021 5.04699 23.4399 5.08476C23.41 5.10293 23.3379 5.13897 23.1523 4.70006C22.9785 4.29013 22.5146 3.53254 22.3235 2.99972C22.2473 2.78723 22.3095 2.52409 22.2966 2.53438C21.6219 3.03872 22.8525 5.9331 22.7921 5.88116C19.9597 3.42659 20.7658 -0.0290348 20.5704 0.0927155Z" fill="#FFC737"/>
<path d="M42.9511 26.0054C40.27 22.2636 36.5472 21.3634 32.1652 19.9279C25.326 17.6877 24.352 11.1951 24.735 6.08208C24.7422 5.99008 24.5852 5.95975 24.5526 6.04099C24.2949 6.69112 24.0971 7.36817 23.9588 8.06096C23.5403 6.74301 22.8499 5.51982 21.6441 4.60024C21.5251 4.50977 21.4188 4.64395 21.4605 4.73714C21.5155 4.86153 21.5772 4.9816 21.6366 5.10311C21.6532 5.6916 22.0201 6.27676 22.1842 6.87207C22.3725 7.55727 22.4654 8.25511 22.5095 8.94913C22.3628 8.61971 22.1836 8.2918 21.989 7.94796C21.3034 6.73307 20.7641 5.66312 20.7141 4.33883C20.7139 4.31808 20.6773 4.30071 20.6647 4.32219C20.6549 4.34119 20.6488 4.36097 20.639 4.37998C20.6457 4.34269 20.6519 4.30643 20.6586 4.26915C20.6694 4.20397 20.5439 4.16197 20.5103 4.21922C19.8348 5.39805 19.8717 6.99095 20.4252 8.40736C19.0393 6.68514 17.5698 5.00455 17.7079 2.79949C17.7339 2.68006 17.7577 2.56208 17.7909 2.43995C17.8162 2.34758 17.6526 2.25568 17.5984 2.35034C16.4946 4.27987 17.1186 6.6972 18.4086 8.79616C18.2055 8.64257 17.9951 8.49434 17.7725 8.35538C17.6452 8.27657 17.5013 8.41617 17.6084 8.51752C26.5447 16.9157 12.7235 25.1923 12.544 33.4106C12.3412 42.6958 25.1505 45.4274 31.8211 50.7222C32.0717 50.9215 32.5569 50.7376 32.3265 50.4429C32.2339 50.3239 32.1334 50.2113 32.0374 50.0958C31.7429 49.3662 31.2587 48.6503 30.69 47.9727C30.9713 48.2135 31.2429 48.4637 31.49 48.7229C31.932 49.1871 32.338 49.7595 32.9329 50.0854C33.0217 50.1334 33.161 50.1024 33.1545 50.001C33.1419 49.8231 33.0853 49.6497 33.0099 49.4804C33.0125 49.4736 33.0206 49.4715 33.0216 49.4652C33.0351 49.414 33.0403 49.3607 33.0511 49.3094C33.3747 48.9013 33.5925 48.434 33.7496 47.946C33.8015 48.0851 33.8607 48.2257 33.9273 48.3679C34.0467 49.0745 34.3008 49.5797 34.8666 50.1332C34.968 50.2326 35.2017 50.1979 35.1852 50.0549C35.1175 49.4502 34.9849 48.9256 34.8229 48.3245C34.8021 48.245 34.7804 48.1553 34.7605 48.0625C34.7698 48.035 34.7847 48.0121 34.7884 47.9799C35.3529 43.0174 41.3501 41.0049 43.6799 36.933C45.5738 33.6225 45.4254 29.4594 42.9511 26.0054ZM42.4173 33.7861C42.3471 32.4376 41.8915 31.0539 41.0535 30.0189C40.9718 29.9188 40.7982 30.0011 40.829 30.1057C41.1701 31.2367 41.6729 32.2728 41.7927 33.4359C41.8842 34.3213 41.8008 35.1577 41.7089 36.0083C41.4359 36.5835 41.099 37.1363 40.6956 37.6569C38.6904 40.245 35.5616 42.1061 34.3514 44.9603C34.5991 43.7269 35.1586 42.5487 36.0644 41.2988C37.1647 39.781 38.0997 38.4135 38.0454 36.4915C38.0443 36.4675 37.999 36.4533 37.993 36.48C37.7979 37.3704 37.3934 38.2189 36.9077 39.0486C38.4555 34.2991 34.8903 27.9873 29.3692 25.8211C29.236 25.769 29.1653 25.9269 29.2733 25.9985C32.0011 27.8198 34.3012 29.7131 35.6078 32.4967C36.8444 35.1321 36.6635 37.5416 36.2438 40.1092C35.0603 41.9094 33.7102 43.6628 33.4659 45.6034C33.2228 46.0738 33.2092 46.6762 33.0765 47.1742C33.0565 47.2505 33.0339 47.3266 33.0123 47.4032C32.8999 46.7997 32.728 46.1943 32.5759 45.6115C32.2025 44.1744 31.8504 42.6823 31.1483 41.3079C31.1375 41.2865 31.0973 41.2917 31.0989 41.3147C31.2223 42.6711 31.6079 44.0288 31.82 45.3864C31.9704 46.3545 31.9969 47.3763 32.2453 48.351C31.7543 47.5597 31.2089 46.7886 30.7997 45.9614C30.1161 44.5813 29.842 43.1557 29.2878 41.7568C29.2492 41.6585 29.0869 41.6512 29.0792 41.758C29.0354 42.3674 29.1117 43.0583 29.2784 43.7733C24.6846 38.9018 22.8134 33.7288 22.3348 27.736C22.3256 27.618 22.1371 27.5966 22.1231 27.7121C21.4352 33.328 24.6195 39.6623 29.3328 44.0019C29.6629 45.2665 30.281 46.5986 31.0979 47.7187C30.733 47.5196 30.3612 47.3508 30.0208 47.2225C29.5272 46.71 29.0018 46.2284 28.492 45.793C26.8661 44.4069 24.7171 43.6141 23.2215 42.1188C23.1007 41.9985 22.8657 42.1175 22.9685 42.259C24.0004 43.6718 25.5143 44.4794 26.9877 45.5107C27.7846 46.0692 28.4372 46.7259 29.0592 47.4017C26.616 45.6609 23.7436 44.3554 21.1214 42.8023C18.736 41.3896 16.3712 39.6536 15.1459 37.3506C13.6724 34.5817 14.2986 31.5662 15.4886 29.0535C15.7698 28.4598 16.0871 27.8817 16.4203 27.3117C15.971 32.0943 18.1287 37.1757 22.2436 41.1393C22.3036 41.1965 22.3959 41.1283 22.3387 41.0686C17.9663 36.5237 16.3847 31.0917 17.2524 25.9553C19.0215 23.1832 21.0101 20.518 21.5925 17.2418C21.9888 15.0096 21.5361 12.4481 20.0212 10.4206C19.1768 8.89934 18.2993 7.52365 17.854 6.05664C19.0566 8.349 21.7251 10.6207 22.5201 12.7068C22.5508 12.7881 22.7142 12.8029 22.7037 12.706C22.5473 11.4128 21.8764 10.2972 21.0731 9.22901C20.7707 8.57859 20.5258 7.91932 20.4172 7.22731C20.3309 6.67768 20.3572 6.16386 20.4253 5.65394C20.5856 7.25469 22.0374 9.05687 22.5859 10.4512C22.6328 10.5707 22.844 10.5861 22.8467 10.4503C22.8483 10.3536 22.8445 10.2593 22.8375 10.1658C22.8719 10.1516 22.8977 10.1242 22.907 10.0801C23.0772 9.22739 23.0901 8.40331 22.9438 7.53386C23.2436 8.12775 23.5019 8.7385 23.6509 9.39923C23.6891 9.56873 23.7189 9.73606 23.7444 9.90364C23.64 12.5697 24.4355 15.3352 26.3238 17.6507C27.5719 19.1807 29.1696 20.3193 31.0499 21.2087C32.1973 21.7517 33.4201 22.1547 34.618 22.6022C34.8307 22.7793 35.049 22.9515 35.2704 23.1185C34.7165 22.8566 34.141 22.6315 33.5502 22.4606C31.8876 21.9768 29.3361 22.266 28.2891 20.7592C28.274 20.738 28.2316 20.7446 28.2404 20.7718C28.9053 22.6386 31.3052 22.4528 33.0333 23.0246C36.2833 24.0995 38.1659 26.3333 40.0552 28.7387C40.1777 28.8958 40.4293 28.8401 40.3977 28.6524C40.0662 26.7079 38.5084 25.051 36.6469 23.8717C36.5117 23.7854 36.3701 23.7077 36.2302 23.627C36.0825 23.4166 35.9026 23.2189 35.7022 23.0325C36.476 23.3561 37.2263 23.7196 37.9215 24.1841C41.5617 26.618 43.0206 30.364 42.4173 33.7861Z" fill="#212321"/>
</g>
<defs>
<clipPath id="clip0">
<rect width="38" height="40" fill="white" transform="translate(0 29.4678) rotate(-50.8476)"/>
</clipPath>
</defs>
</svg>
