<svg width="72" height="45" viewBox="0 0 72 45" fill="none" xmlns="http://www.w3.org/2000/svg">
<path d="M61.4598 20.3854C65.4585 15.0147 69.6412 7.82055 71.0909 1.21296C71.1045 1.1907 71.1199 1.17203 71.1353 1.15336C71.5716 0.474005 70.6779 -0.294832 70.0696 0.235463C64.4206 5.15796 58.954 9.10103 51.2227 9.55421C45.5615 9.88447 39.815 8.01418 34.2069 9.46181C27.4291 11.2106 17.3901 19.4315 16.9001 27.3427C16.635 27.4641 16.3707 27.5917 16.1064 27.7194C15.9585 27.7253 15.8348 27.7906 15.7463 27.8919C8.87768 31.2625 2.52571 36.2724 0.206411 43.6588C-0.00814231 44.3426 0.945044 44.8175 1.33879 44.2013C5.66134 37.4746 11.0276 32.9579 17.3694 29.6904C26.6496 35.4036 38.3358 37.2851 48.344 32.0514C53.5929 29.3031 57.9397 25.1184 61.4598 20.3854Z" fill="#4A8E25"/>
</svg>
