<svg width="132" height="84" viewBox="0 0 132 84" fill="none" xmlns="http://www.w3.org/2000/svg">
<g clip-path="url(#clip0)">
<path d="M32.1619 45.7687C22.6898 48.2958 11.3486 52.748 3.67695 59.0122C3.64107 59.0253 3.60647 59.0328 3.57187 59.0403C2.45344 59.4231 2.77987 61.1179 3.96017 61.0626C14.9183 60.5503 24.7767 60.9962 34.0606 67.5061C40.8573 72.2747 45.7508 79.6459 53.5025 83.0841C62.8702 87.2402 81.8652 86.9348 89.621 78.302C90.0356 78.4038 90.4549 78.4976 90.8742 78.5915C91.0495 78.7192 91.2507 78.7568 91.4444 78.721C102.391 81.0985 114.235 81.1253 123.613 74.7581C124.481 74.1685 123.819 72.7569 122.807 73.1059C111.73 76.8946 101.466 77.1981 91.2172 75.1812C85.7628 60.187 74.0635 47.4021 57.82 44.3076C49.2979 42.6886 40.5047 43.5383 32.1619 45.7687Z" fill="#4A8E25"/>
</g>
<defs>
<clipPath id="clip0">
<rect width="82.5777" height="103.597" fill="white" transform="translate(87.264) rotate(57.3878)"/>
</clipPath>
</defs>
</svg>
