<svg width="41" height="37" viewBox="0 0 41 37" fill="none" xmlns="http://www.w3.org/2000/svg">
<g clip-path="url(#clip0)">
<path d="M37.1732 10.331C35.2177 7.32247 32.1421 4.27521 28.4248 3.70354C24.3941 3.08433 22.6311 6.92843 19.991 9.2464C19.5782 8.01799 19.3291 6.73829 19.3077 5.43607C19.2838 3.95372 20.2741 1.7108 19.7129 0.284744C19.6575 0.143389 19.5304 -0.0192319 19.353 -0.000467967C17.2779 0.208437 15.6533 1.92596 15.3487 3.88242C14.2149 2.24245 12.0492 1.15164 10.1843 1.0303C6.26686 0.776359 4.46734 3.60096 1.83728 5.78633C1.72025 5.84888 1.6007 5.91768 1.47738 6.00024C1.42704 6.03402 1.41698 6.0778 1.42075 6.12158C1.35909 6.16912 1.29743 6.21665 1.23577 6.26419C1.21312 6.28045 1.2408 6.31297 1.26471 6.30172C1.33015 6.26919 1.39307 6.23292 1.45725 6.19914C1.49248 6.23417 1.54408 6.25668 1.607 6.23166C3.7639 5.34851 5.02607 7.06854 6.85076 7.75279C8.02233 8.19187 9.31974 8.37951 10.5681 8.30696C12.3663 8.20188 14.3886 7.62145 15.5174 6.18538C15.7942 7.45632 16.3089 8.81859 17.0048 10.0808C10.2925 8.83485 7.38055 17.2211 7.87636 22.6977C8.46151 29.1587 14.8089 34.2713 20.7825 35.8061C23.7083 36.558 27.4558 37.0796 29.7398 34.6853C30.2822 34.1161 30.6094 33.2167 31.1631 32.7076C32.1937 31.7581 33.2848 31.7769 34.5369 31.6456C36.0973 31.4817 37.5847 30.8612 38.5914 29.6366C43.05 24.2038 40.5734 15.5636 37.1732 10.331Z" fill="#FD2A53"/>
<path d="M35.4215 12.0737C33.7528 8.90014 30.9705 5.58392 27.3212 4.677C23.3647 3.69377 21.2544 7.36024 18.4104 9.42803C18.1122 8.16709 17.9826 6.87113 18.082 5.57141C18.1952 4.09281 19.3882 1.94997 18.9603 0.478876C18.9175 0.333768 18.8068 0.159889 18.6281 0.16114C16.5417 0.179903 14.7661 1.74231 14.2828 3.66249C13.3063 1.92495 11.2488 0.640246 9.40402 0.35003C5.52563 -0.260424 3.47318 2.38905 0.653096 4.32549C0.529773 4.37677 0.405191 4.43557 0.274317 4.50562C0.221464 4.53439 0.206364 4.57817 0.206364 4.6207C0.140927 4.66198 0.0754898 4.70452 0.00879449 4.7458C-0.0151151 4.76081 0.0100529 4.79583 0.0339625 4.78583C0.101916 4.75956 0.168612 4.72828 0.235307 4.70076C0.268025 4.73954 0.317103 4.76581 0.381281 4.7458C2.60991 4.06279 3.7085 5.8904 5.46271 6.73853C6.58898 7.28268 7.86374 7.58791 9.11333 7.62919C10.9141 7.68924 12.9804 7.29519 14.2375 5.96796C14.3961 7.25891 14.7824 8.66246 15.36 9.98219C8.79118 8.12831 5.11665 16.2143 5.10532 21.7134C5.09148 28.2007 10.9405 33.8712 16.7468 35.944C19.5908 36.9597 23.2741 37.8204 25.7695 35.6438C26.3622 35.1271 26.7712 34.2602 27.369 33.8036C28.4827 32.9518 29.5687 33.0694 30.8258 33.0531C32.395 33.0331 33.9328 32.5502 35.0477 31.4219C39.992 26.4232 38.3246 17.5928 35.4215 12.0737ZM15.4469 2.67676C15.7892 2.16263 16.6298 1.47837 17.2426 1.33576C18.0732 1.14312 18.1336 1.0493 18.0732 2.02252C18.0178 2.91444 17.5346 3.82887 17.4075 4.73079C17.2816 5.63396 17.2892 6.5659 17.3559 7.47282C17.5132 9.61317 18.1487 11.6172 19.1176 13.5211C18.8949 13.6574 18.6659 13.7475 18.4305 13.8075C17.3823 11.5509 15.954 9.61692 15.321 7.11631C14.9712 5.73403 14.5899 3.96522 15.4469 2.67676ZM4.76555 5.45633C3.52477 4.69076 2.60991 3.93519 1.38549 4.11658C3.28064 2.98449 4.85113 1.33076 7.15274 0.970491C8.75972 0.719054 10.5152 1.10684 11.8252 2.07506C12.6041 2.65049 13.0798 3.34351 13.4611 4.09907C12.6092 3.62371 11.4917 3.52114 10.5467 3.5374C8.51559 3.57117 6.35492 3.03077 4.36664 3.63998C4.33015 3.65123 4.34525 3.70377 4.37797 3.70878C6.03402 3.95896 7.77691 4.09281 9.44807 4.27545C10.256 4.36301 11.0878 4.26169 11.8768 4.50187C12.5022 4.69201 13.0005 5.08355 13.558 5.38127C11.4917 7.66672 7.08101 6.88489 4.76555 5.45633ZM35.6744 15.5401C36.9806 19.1803 37.5054 23.0419 36.3087 26.7847C35.6102 28.9676 34.4903 31.3793 32.015 31.901C30.6257 32.1937 29.0238 31.4044 27.7364 31.9973C26.142 32.7316 25.6676 34.7994 23.9574 35.5587C22.1479 36.3618 19.5631 35.6675 17.7787 35.0871C14.5547 34.0401 11.6276 32.1499 9.42919 29.5743C6.82178 26.5195 5.55961 22.9306 6.36624 18.9376C7.25593 14.5368 10.2258 8.98895 15.6671 11.0117C15.7413 11.0392 15.8093 11.0442 15.8735 11.0367C16.4662 12.1425 17.186 13.1395 18.0052 13.8851C17.3093 13.9651 16.5517 13.8601 15.7023 13.8751C14.9712 13.8876 14.5597 13.9939 14.0475 14.5231C14.0211 14.5506 14.045 14.6006 14.0853 14.5831C16.1793 13.6975 17.975 15.6251 20.0287 14.1053C20.7133 13.5986 21.0468 12.8919 21.5073 12.2026C22.3417 10.9542 23.4994 10.121 24.4633 9.00521C24.5955 8.8526 24.4281 8.58365 24.2318 8.62868C22.134 9.11154 21.2154 10.9216 20.0879 12.5566C19.9683 12.7305 19.8462 12.8768 19.7242 13.0094C19.2158 11.9862 18.803 10.9054 18.5098 9.7958C20.069 9.10153 21.3651 8.13957 22.5808 6.93743C24.6143 4.92843 26.9008 5.05978 29.2163 6.5609C32.39 8.61993 34.4273 12.0625 35.6744 15.5401Z" fill="#212321"/>
<path d="M34.9119 25.4076C34.4261 26.1819 34.1883 27.0238 33.7831 27.8369C33.2029 29.0003 32.3535 29.5069 31.265 30.1411C31.2361 30.1586 31.2373 30.2049 31.2751 30.2099C33.6421 30.5001 35.4278 27.5542 35.3234 25.5064C35.3145 25.3113 35.0138 25.2462 34.9119 25.4076Z" fill="#212321"/>
<path d="M28.1467 8.22242C27.8308 8.01351 27.5376 8.44508 27.8094 8.68901C30.223 10.8531 31.781 13.2874 33.0595 16.2409C34.1467 18.7515 34.4551 21.3397 35.2353 23.9166C35.2592 23.9941 35.3586 23.9541 35.3737 23.8953C36.6925 18.445 32.6228 11.1771 28.1467 8.22242Z" fill="#212321"/>
<path d="M23.5107 11.2621C23.0904 11.3785 22.8551 11.6362 22.5556 11.9351C22.2473 12.2441 22.0132 12.4568 21.8874 12.8771C21.8786 12.9084 21.9012 12.9496 21.939 12.9421C22.3643 12.8458 22.5807 12.6469 22.9079 12.363C23.2225 12.089 23.5245 11.8613 23.6655 11.4548C23.6982 11.3647 23.6214 11.2321 23.5107 11.2621Z" fill="#212321"/>
<path d="M11.5433 28.9766C10.1893 27.8558 8.97113 26.8 8.2702 25.1388C7.64981 23.6702 7.70015 22.2579 7.53404 20.7168C7.53278 20.7042 7.51516 20.7042 7.51139 20.7142C6.23411 23.8253 8.47029 27.9296 11.4074 29.2281C11.5647 29.2969 11.6641 29.0755 11.5433 28.9766Z" fill="#212321"/>
<path d="M13.0924 28.8398C12.3839 28.1969 11.615 27.6227 10.9506 26.9309C10.933 26.9134 10.8952 26.9309 10.9103 26.9559C11.4275 27.8116 12.0806 28.5709 13.0018 29.0062C13.1088 29.0575 13.1666 28.9061 13.0924 28.8398Z" fill="#212321"/>
</g>
<defs>
<clipPath id="clip0">
<rect width="41" height="37" fill="white"/>
</clipPath>
</defs>
</svg>
