<svg width="80" height="97" viewBox="0 0 80 97" fill="none" xmlns="http://www.w3.org/2000/svg">
<g clip-path="url(#clip0)">
<path d="M79.1293 42.0228C78.3437 39.0712 76.2482 36.3786 73.4981 35.0091C69.9522 33.2443 65.8331 34.0776 62.009 33.3758C63.3512 32.5625 64.833 31.9117 66.1748 31.3047C67.8983 30.5242 70.0943 29.979 71.2655 28.3483C73.3577 25.4348 70.5899 22.5327 67.8917 21.3089C62.5497 18.887 57.7555 23.8542 55.3347 29.3339C55.2783 21.6504 46.3488 18.7114 39.8446 20.1821C30.0921 22.3874 23.2429 30.4183 18.6527 38.8019C16.4796 42.7709 14.5583 46.963 13.7135 51.4347C12.823 56.1437 14.1527 60.2527 14.2614 64.927C14.3417 68.3604 14.0456 72.1929 17.069 74.5915C18.2756 75.5488 19.7424 75.891 21.2172 76.1984C22.4306 77.6439 24.5216 77.9434 26.5584 78.5291C27.3967 79.7313 28.2278 80.917 28.9641 82.2121C29.3591 82.9061 29.6047 83.6282 30.2134 84.1846C31.4228 85.2894 33.0805 85.3108 34.5944 84.9587C37.8966 85.8421 41.7941 85.6251 44.2386 84.765C53.4904 81.511 61.6876 72.9282 67.8397 65.6259C71.3701 61.4359 74.6021 56.9301 77.1767 52.0874C78.8327 48.9743 80.0743 45.5681 79.1293 42.0228Z" fill="#8DC63F"/>
<path d="M67.4904 60.9002C71.005 56.6964 74.2197 52.1795 76.7777 47.3279C78.4212 44.208 79.6495 40.7999 78.6925 37.2571C77.8948 34.3079 75.79 31.6227 73.0325 30.2635C69.4799 28.5111 65.3646 29.3607 61.5379 28.6735C62.8775 27.8552 64.3566 27.1994 65.6957 26.5875C67.4166 25.802 69.6107 25.2468 70.775 23.6124C72.8555 20.6908 70.0768 17.7989 67.3748 16.5855C62.0237 14.1836 57.2488 19.1683 54.8481 24.6571C54.7657 16.9721 45.8254 14.0664 39.3268 15.5597C29.5832 17.8019 22.7635 25.8576 18.2052 34.2584C16.0473 38.2356 14.142 42.4345 13.3133 46.9096C12.441 51.6213 13.7842 55.7252 13.9112 60.3987C14.0041 63.8317 13.7214 67.6661 16.7543 70.0538C17.9652 71.0063 19.4328 71.3436 20.9071 71.6454C22.1263 73.0869 24.2182 73.378 26.2574 73.956C27.1007 75.1555 27.9354 76.3379 28.6767 77.6303C29.0746 78.3223 29.3223 79.0438 29.9339 79.5982C31.1476 80.6982 32.8049 80.7139 34.3182 80.3563C37.6235 81.2271 41.5193 80.9967 43.9621 80.1267C53.1994 76.8364 61.3657 68.2246 67.4904 60.9002ZM65.872 18.0979C66.9052 18.1261 67.7579 18.5023 68.4349 19.2273C69.5874 19.751 69.6644 20.6031 68.6641 21.7844C67.9801 24.0573 68.0499 23.7191 66.1817 24.5124C62.6136 26.0259 54.6436 29.0431 55.6661 34.1426C54.928 33.7962 54.3546 33.2339 53.8154 32.5155C53.8293 32.4963 53.8446 32.4778 53.8544 32.4564C55.495 28.6223 55.9656 24.6452 58.8087 21.328C60.6972 19.1205 62.9181 17.2919 65.872 18.0979ZM49.6285 73.7612C46.485 75.9901 42.7294 78.3288 38.7295 78.4372C41.6459 76.5828 44.0835 73.7488 44.8876 70.593C44.995 70.1717 44.5025 69.8045 44.1533 70.1167C41.1687 72.784 38.6834 76.068 34.9492 77.8C34.947 77.8007 34.9449 77.8013 34.942 77.8033C33.6255 77.2588 32.5609 76.4031 31.5214 75.365C31.7899 75.378 32.0551 75.3839 32.3186 75.3764C36.2769 75.2722 39.4552 72.7433 42.1002 70.0389C48.4707 63.5224 55.5168 54.4932 57.4511 45.4145C57.4648 45.3525 57.3757 45.2955 57.34 45.3618C54.1198 51.3348 50.5163 57.0832 46.2628 62.3849C44.0266 65.1708 41.6509 68.1951 38.879 70.5014C36.8847 72.1619 34.5848 73.5632 31.8863 73.5078C31.0161 73.4891 30.2919 73.2927 29.6152 73.0114C28.4904 71.9789 27.137 71.1544 25.8002 70.558C24.997 70.1996 24.1816 69.9896 23.3608 69.7998C22.6279 68.9164 22.1219 67.8079 22.0788 66.78C21.9949 64.7929 22.6579 62.5853 22.8849 60.6021C23.1896 57.9411 23.5277 55.291 23.6877 52.6161C23.6911 52.5467 23.5876 52.5265 23.5673 52.5939C22.5573 55.8329 21.7187 59.1554 20.9335 62.4586C20.4679 64.4164 19.7319 66.7129 19.8779 68.7673C17.2024 67.5182 16.3883 65.3689 16.3096 62.2642C16.2784 60.9986 16.1525 59.7461 16.0018 58.4997C16.0934 57.9452 16.1756 57.4445 16.2223 57.0528C16.5471 54.3777 17.1263 51.7151 17.9085 49.1372C19.4007 44.2183 21.9664 39.9195 24.5954 35.5498C24.8115 35.1889 24.3207 34.7157 24.0041 35.0473C19.6249 39.6399 16.8814 45.9466 15.5641 52.107C15.4932 52.4375 15.441 52.7763 15.3777 53.1092C15.3356 52.5538 15.3012 51.9973 15.2908 51.4394C15.2143 47.5877 16.3823 43.7641 17.8955 40.2622C21.2339 32.5341 26.2198 24.5778 33.6844 20.2654C37.019 18.3391 41.0085 16.9531 44.9185 17.3895C50.389 18.0013 51.5104 21.9855 54.4226 25.7013C53.8741 27.1494 53.5001 28.599 53.3258 29.9338C52.9149 28.1979 52.2231 26.4887 50.9271 25.6506C50.6727 23.9066 50.8603 22.2851 48.8204 21.3968C46.465 20.3703 43.5539 22.0422 41.5956 23.1485C35.4752 26.6041 30.5813 32.3833 29.1631 39.3408C29.0514 39.8863 29.7578 40.1158 29.9874 39.6073C32.2284 34.6399 35.1428 30.0464 39.5463 26.7122C41.1098 25.5284 44.6423 22.9001 46.8317 22.9641C48.5337 23.0129 49.0306 24.1217 49.5729 25.239C49.2124 25.3635 48.9946 25.8036 49.3111 26.1489C49.8439 26.7302 50.285 27.2888 50.6655 27.877C49.4508 26.5467 47.9568 25.764 45.8449 26.2298C45.3085 26.3485 45.2491 27.1287 45.7874 27.3015C50.1948 28.7098 50.4116 34.139 54.3076 36.1372C57.8714 37.9651 61.867 34.883 65.4611 34.5949C65.8498 34.5641 65.7641 33.9834 65.4126 33.9452C63.1743 33.6998 61.4528 33.9327 59.2949 34.3542C58.7505 34.4614 58.2632 34.5156 57.8201 34.5278C58.3818 34.1895 58.9293 33.8114 59.4938 33.5476C60.8777 32.8993 62.4048 32.4564 63.8876 32.0823C64.0202 32.0487 64.1048 31.9714 64.1547 31.879C66.4531 32.0891 68.6369 33.2314 69.7519 35.3934C71.4517 38.6902 69.9456 42.5006 68.1681 45.3613C65.4022 49.8157 61.642 53.5859 58.8082 58.0002C58.5176 58.4527 59.1632 59.0503 59.5555 58.6349C62.7182 55.2923 65.6107 51.5386 68.3157 47.8208C70.3297 45.0522 72.0154 41.8642 71.7853 38.3304C71.4937 33.846 67.6674 30.7667 63.5953 31.2477C61.907 31.0673 60.3444 31.4002 58.8402 32.2385C58.4538 32.454 58.0374 32.7086 57.6445 32.999C58.1354 31.5252 59.1572 30.3804 60.411 29.4392C65.5237 32.482 72.4382 29.3088 75.7933 36.1208C79.1743 42.9877 70.9056 52.1839 66.913 57.2308C61.9746 63.4706 56.134 69.1471 49.6285 73.7612Z" fill="#212321"/>
<path d="M30.7605 49.949C32.0111 47.1462 32.5019 44.1866 33.5529 41.326C34.8434 37.8126 37.3089 35.4442 39.4936 32.5183C39.6739 32.2771 39.3555 31.9254 39.0955 32.0756C32.7288 35.7492 30.402 42.8223 29.9162 49.7928C29.8805 50.3133 30.5714 50.3725 30.7605 49.949Z" fill="#212321"/>
</g>
<defs>
<clipPath id="clip0">
<rect width="60.3681" height="77.2711" fill="white" transform="translate(36.6842) rotate(28.3428)"/>
</clipPath>
</defs>
</svg>
