<svg width="73" height="61" viewBox="0 0 73 61" fill="none" xmlns="http://www.w3.org/2000/svg">
<g clip-path="url(#clip0)">
<path d="M25.2754 7.50328C19.2201 5.06038 11.3995 2.89508 4.80829 3.1625C4.78392 3.15516 4.76251 3.14529 4.7411 3.13542C3.99235 2.89193 3.48827 3.92511 4.13898 4.36773C10.1797 8.47807 15.2515 12.6588 17.5918 19.8391C19.304 25.0973 18.9617 30.9802 21.7147 35.9118C25.0411 41.8722 35.2792 49.3074 42.8626 47.8122C43.0427 48.0322 43.2285 48.2499 43.4142 48.4676C43.4565 48.6057 43.5486 48.7062 43.6661 48.7646C48.5448 54.4094 54.8419 59.1612 62.3828 59.5214C63.0809 59.5545 63.293 58.538 62.6144 58.319C55.2 55.9062 49.612 51.962 44.961 46.7886C48.0537 36.6216 46.937 25.1334 39.5242 16.9882C35.6333 12.7172 30.6106 9.65254 25.2754 7.50328Z" fill="#8DC63F"/>
<path d="M31.3259 5.04235C25.2707 2.59944 17.45 0.434137 10.8588 0.701557C10.8345 0.694219 10.8131 0.68435 10.7917 0.674481C10.0429 0.430993 9.53883 1.46417 10.1895 1.90679C16.2303 6.01713 21.302 10.1978 23.6424 17.3782C25.3546 22.6363 25.0122 28.5193 27.7652 33.4509C31.0917 39.4113 41.3298 46.8464 48.9132 45.3512C49.0932 45.5713 49.279 45.789 49.4648 46.0067C49.5071 46.1448 49.5992 46.2453 49.7166 46.3037C54.5951 51.9512 60.8925 56.7003 68.4334 57.0604C69.1315 57.0936 69.3435 56.077 68.6649 55.8581C61.2506 53.4452 55.6626 49.5011 51.0115 44.3277C54.1043 34.1607 52.9876 22.6724 45.5747 14.5272C41.6838 10.2563 36.6609 7.19434 31.3259 5.04235ZM42.7574 14.9846C50.4433 22.7759 50.0633 32.6979 49.5849 42.6759C48.5725 41.4462 47.6068 40.1456 46.6697 38.7977C47.7345 34.9459 47.1656 30.908 45.8245 27.1233C46.0775 26.6687 46.2444 26.1416 46.3893 25.6872C46.6182 24.9637 46.8485 24.0724 46.4298 23.3802C46.3507 23.2531 46.1781 23.2291 46.0854 23.357C45.6739 23.9318 45.6707 24.7108 45.5534 25.3876C45.516 25.5913 45.462 25.7937 45.3998 25.9955C44.6167 24.0341 43.6447 22.1549 42.6034 20.4246C42.4482 20.1679 42.0328 20.2799 42.0892 20.598C42.6734 23.9156 43.9661 26.8707 44.9782 30.0581C45.7061 32.3485 45.4301 34.7314 45.5168 37.0783C44.7444 35.8969 43.988 34.6864 43.252 33.4251C41.0318 29.6211 38.9339 25.6639 36.5808 21.8967C36.8663 20.0872 36.4234 18.0577 35.9643 16.3547C35.9427 16.2732 35.9184 16.1916 35.8968 16.1101C36.2691 15.5048 36.4183 14.6239 36.5273 14.0209C36.7079 13.0184 36.6572 12.1088 36.0934 11.2459C36.0042 11.1071 35.7226 11.0584 35.6816 11.2728C35.5018 12.1541 35.5299 12.996 35.4902 13.8934C35.4817 14.08 35.4482 14.2674 35.4091 14.4572C34.9317 12.9979 34.2906 11.5427 33.2645 10.4937C33.0716 10.2975 32.6649 10.4404 32.7471 10.7467C33.2837 12.7446 34.4005 14.5384 34.9438 16.5589C35.2794 17.8038 35.4221 19.1114 35.6246 20.3959C33.0214 16.4199 30.0627 12.7146 26.2674 9.71464C26.1549 9.62635 26.0204 9.79521 26.1041 9.89786C31.6627 16.6648 35.657 24.2778 39.9577 31.7541C37.1579 30.1368 35.3089 27.5832 32.9268 25.2703C32.6558 25.0077 32.1646 25.2791 32.3529 25.6485C32.9408 26.816 33.6665 27.9554 34.5136 28.9909C34.2493 28.8967 33.9914 28.792 33.7463 28.6635C32.8943 28.2085 32.0972 27.3556 31.1645 27.1286C31.1426 27.1242 31.1247 27.1421 31.1343 27.1621C31.5503 28.1488 32.9263 29.0727 33.8119 29.6321C34.4121 30.0103 35.1504 30.3934 35.882 30.4594C37.2794 31.7621 38.9267 32.7615 40.7958 33.2048C42.2822 35.7559 43.82 38.2862 45.4845 40.7516C46.2271 41.8509 47.0247 42.9543 47.8702 44.0476C43.1064 43.139 39.1001 41.4365 34.989 38.3633C29.0161 33.9028 27.8733 28.5113 26.6738 21.6259C25.3718 14.1518 21.2112 6.28402 14.4493 2.337C18.5411 3.56682 22.8978 4.25487 26.9079 5.64927C32.7693 7.68664 38.36 10.5269 42.7574 14.9846Z" fill="#212321"/>
</g>
<defs>
<clipPath id="clip0">
<rect width="55" height="69" fill="white" transform="translate(72.9271 5.16992) rotate(94.2971)"/>
</clipPath>
</defs>
</svg>
