<svg width="50" height="39" viewBox="0 0 50 39" fill="none" xmlns="http://www.w3.org/2000/svg">
<g clip-path="url(#clip0)">
<path d="M34.1618 6.11286C38.4391 5.17671 43.8667 4.58652 48.2368 5.39735C48.2538 5.39514 48.269 5.39106 48.2843 5.38698C48.8075 5.30786 49.0428 6.00308 48.5655 6.21629C44.1351 8.19642 40.3441 10.3152 38.082 14.5762C36.4265 17.6967 36.0804 21.4084 33.7626 24.2231C30.962 27.625 23.4073 31.2741 18.4953 29.5987C18.3537 29.7187 18.2086 29.8367 18.0634 29.9547C18.0217 30.0369 17.9505 30.0908 17.8664 30.1158C14.0612 33.1688 9.39715 35.525 4.33233 35.0138C3.86348 34.9664 3.8213 34.3101 4.29529 34.2394C9.47614 33.4548 13.5884 31.5344 17.1957 28.7539C16.1257 22.0949 17.9923 15.0209 23.7319 10.6519C26.7441 8.36144 30.3935 6.93571 34.1618 6.11286Z" fill="#8DC63F"/>
<path d="M30.3664 3.98297C34.6437 3.04683 40.0713 2.45664 44.4414 3.26747C44.4584 3.26526 44.4736 3.26118 44.4889 3.2571C45.0121 3.17797 45.2474 3.87319 44.7701 4.0864C40.3397 6.06654 36.5487 8.18529 34.2866 12.4463C32.6311 15.5668 32.285 19.2785 29.9672 22.0932C27.1665 25.4951 19.6119 29.1443 14.6999 27.4689C14.5583 27.5889 14.4132 27.7068 14.268 27.8248C14.2263 27.907 14.1551 27.9609 14.071 27.9859C10.2657 31.0407 5.60174 33.3951 0.536922 32.8839C0.0680682 32.8365 0.025888 32.1802 0.499878 32.1096C5.68073 31.3249 9.79296 29.4045 13.4003 26.624C12.3303 19.965 14.1969 12.891 19.9365 8.52204C22.9487 6.23156 26.5979 4.80756 30.3664 3.98297ZM21.771 9.08312C15.8838 13.2041 15.1684 19.445 14.5131 25.7305C15.3085 25.0605 16.0795 24.3416 16.8362 23.5903C16.5021 21.078 17.2759 18.6088 18.5399 16.3734C18.4156 16.0645 18.3557 15.7186 18.3034 15.4203C18.2215 14.9456 18.1549 14.3658 18.5017 13.9739C18.5669 13.9021 18.6844 13.904 18.7337 13.993C18.952 14.3926 18.8781 14.88 18.8902 15.3146C18.8953 15.4456 18.9116 15.5775 18.9334 15.7097C19.6472 14.5598 20.479 13.4797 21.3425 12.4996C21.471 12.3542 21.7372 12.4648 21.6685 12.6582C20.9549 14.6755 19.8042 16.397 18.8178 18.291C18.1087 19.652 18.0601 21.1689 17.7731 22.6278C18.4036 21.9646 19.0263 21.2816 19.6404 20.5648C21.4927 18.4032 23.2784 16.1337 25.2157 14.0081C25.202 12.8488 25.6955 11.6231 26.168 10.6031C26.1904 10.5543 26.2146 10.5056 26.2369 10.4568C26.0478 10.042 26.0342 9.47662 26.0204 9.08891C25.9979 8.44452 26.1205 7.8807 26.5808 7.39624C26.6539 7.31813 26.8464 7.31518 26.8529 7.45326C26.8867 8.02187 26.7857 8.54552 26.7246 9.11047C26.7121 9.22797 26.7161 9.34845 26.7237 9.47094C27.1846 8.6051 27.7543 7.75787 28.5411 7.20216C28.6889 7.09831 28.9462 7.22737 28.8615 7.41086C28.3085 8.60768 27.3884 9.62017 26.8288 10.8304C26.4833 11.5761 26.2605 12.3797 26 13.1631C28.1246 10.9313 30.4598 8.90344 33.2841 7.3983C33.3677 7.35408 33.441 7.47279 33.3751 7.52881C29.0068 11.217 25.5994 15.5871 22.0008 19.8417C24.0262 19.1039 25.5087 17.6878 27.3234 16.4743C27.5298 16.3365 27.8309 16.5542 27.6693 16.7667C27.1631 17.4393 26.5678 18.0809 25.9017 18.6456C26.0872 18.6125 26.2695 18.5722 26.4455 18.5158C27.0582 18.3145 27.6731 17.8591 28.3174 17.8082C28.3324 17.8076 28.3426 17.8206 28.3343 17.8321C27.9605 18.4084 26.9524 18.8517 26.3071 19.115C25.8699 19.2929 25.3401 19.4604 24.8456 19.4302C23.7864 20.1083 22.5901 20.5722 21.3002 20.6669C20.0596 22.1169 18.7869 23.5487 17.4359 24.9277C16.8333 25.5426 16.1935 26.1546 15.5228 26.7556C18.7889 26.6527 21.6273 25.9794 24.6694 24.4593C29.0888 22.2536 30.3775 18.9941 31.8499 14.8062C33.4481 10.2601 36.9915 5.74702 41.8869 3.93943C39.0377 4.30883 36.0647 4.3136 33.2539 4.79387C29.1455 5.49538 25.1393 6.72535 21.771 9.08312Z" fill="#212321"/>
</g>
<defs>
<clipPath id="clip0">
<rect width="34.7925" height="46.528" fill="white" transform="matrix(-0.0749281 0.997189 0.997189 0.0749281 2.60693 0)"/>
</clipPath>
</defs>
</svg>
