<svg width="82" height="60" viewBox="0 0 82 60" fill="none" xmlns="http://www.w3.org/2000/svg">
<g clip-path="url(#clip0)">
<path d="M72.5337 20.1903C72.7378 20.0548 72.9547 19.9067 73.1984 19.6767C74.3396 18.6226 75.4522 17.9199 76.4573 16.7036C76.7976 16.2987 76.3623 15.6496 75.8606 15.7583C72.8597 16.4484 69.9949 16.4877 66.9545 16.42C67.7142 14.961 68.3125 13.4328 68.6512 12.0274C69.3033 9.35209 68.3932 8.08062 65.8672 7.13529C64.1831 6.50035 62.1746 5.21627 61.4276 7.43307C60.8024 9.25755 60.5729 11.4334 60.2057 13.3256C60.057 14.1496 59.8939 14.9752 59.7578 15.8118C57.5451 12.9869 55.0333 10.8788 51.8156 9.17563C51.4089 8.95978 50.8249 9.10788 50.7979 9.64829C50.703 11.8651 51.2047 13.8251 52.2778 15.4605C49.087 14.2032 45.9104 14.1764 42.9507 15.0288C38.5792 8.89203 30.5009 3.70217 24.0244 8.39258C24.0513 8.18933 24.0782 7.9593 24.0782 7.6631C24.037 6.31128 24.227 5.18949 24.0244 3.83767C23.9563 3.37761 23.2647 3.28308 23.0605 3.67539C21.7706 6.0135 20.1277 7.90573 18.3218 9.82475C17.8185 8.48711 17.1537 7.21564 16.4352 6.17578C15.0645 4.2032 13.7065 4.05352 11.6284 5.13435C10.2403 5.86382 8.23025 6.41684 9.24953 8.18776C10.0773 9.64671 11.3546 11.0663 12.3865 12.3913C12.8344 12.9727 13.2823 13.5541 13.7572 14.1213C10.6344 13.918 7.78391 14.3245 4.80995 15.4195C4.44276 15.555 4.19902 16.0135 4.53772 16.3522C5.92262 17.7041 7.49744 18.5155 9.19413 18.7723C0.721744 23.0152 0.261168 34.3403 5.12175 41.9911C11.2454 51.5878 21.9842 54.3986 31.7734 49.1945C34.6113 53.4107 39.024 56.6815 44.7123 58.4398C57.1764 62.2779 72.5321 59.2245 79.1717 47.1274C83.6128 39.0165 83.8027 22.6087 72.5337 20.1903Z" fill="#FD2A53"/>
<path d="M70.5205 16.7622C70.7247 16.6267 70.9415 16.4786 71.1853 16.2485C72.3264 15.1945 73.4391 14.4918 74.4441 13.2755C74.7844 12.8706 74.3491 12.2214 73.8474 12.3302C70.8465 13.0202 67.9818 13.0596 64.9414 12.9919C65.7011 11.5329 66.2993 10.0046 66.6381 8.59925C67.2901 5.92397 66.3801 4.65251 63.854 3.70718C62.17 3.07223 60.1615 1.78816 59.4144 4.00496C58.7893 5.82944 58.5598 8.00527 58.1926 9.89751C58.0438 10.7215 57.8808 11.5471 57.7447 12.3837C55.532 9.55876 53.0202 7.45068 49.8025 5.74751C49.3957 5.53166 48.8117 5.67976 48.7848 6.22018C48.6898 8.43697 49.1915 10.397 50.2646 12.0324C47.0738 10.7751 43.8973 10.7483 40.9376 11.6007C36.5645 5.46234 28.4862 0.272486 22.0096 4.96289C22.0365 4.75965 22.0634 4.52962 22.0634 4.23341C22.0223 2.88159 22.2122 1.7598 22.0096 0.407983C21.9416 -0.052077 21.2499 -0.14661 21.0457 0.245702C19.7558 2.58381 18.1129 4.47605 16.307 6.39506C15.8053 5.05742 15.139 3.78596 14.4204 2.7461C13.0482 0.771935 11.6902 0.623833 9.61364 1.70466C8.22874 2.43414 6.21867 2.98873 7.23795 4.75965C8.06572 6.2186 9.34299 7.63817 10.3749 8.96321C10.8228 9.54458 11.2708 10.126 11.7456 10.6932C8.62284 10.4899 5.77234 10.8964 2.79837 11.9914C2.43118 12.1269 2.18744 12.5854 2.52614 12.9241C3.91104 14.276 5.48586 15.0874 7.18255 15.3442C-1.28983 19.5887 -1.75199 30.9137 3.10859 38.5646C9.2322 48.1613 19.9711 50.972 29.7603 45.768C32.5981 49.9842 37.0108 53.255 42.6992 55.0133C55.1632 58.8513 70.5189 55.7979 77.1585 43.7009C81.5997 35.5884 81.7896 19.1806 70.5205 16.7622ZM50.0874 7.36875C52.8429 8.98999 55.1252 11.0177 57.0942 13.6126C57.2303 13.8017 57.3933 13.8553 57.569 13.8553C57.5009 14.4902 57.474 15.1394 57.5152 15.7743C57.5294 15.883 57.6639 15.8688 57.7051 15.7885C58.6152 14.005 58.995 11.9504 59.4287 9.99046C59.7674 8.38183 59.9178 4.24602 61.6414 4.19245C63.4884 4.13888 65.375 6.3415 65.4573 8.0037C64.9414 7.84142 64.4111 7.7327 63.9094 7.50425C63.2447 7.20647 62.6875 6.77477 62.0497 6.46281C61.8598 6.36828 61.7237 6.59831 61.7917 6.74641C62.3884 7.81463 63.9506 8.85449 65.2674 9.05774C65.0632 9.69269 64.7245 10.3686 64.4934 10.868C63.4473 13.2329 61.8186 14.9629 60.4195 17.0993C60.1346 17.5452 60.6775 18.0321 61.0985 17.7217C62.4834 16.7212 63.6783 15.2213 64.628 13.5717C67.1667 14.2334 69.6658 14.2334 72.2172 13.8553C70.9953 14.9235 69.6516 15.6388 67.9945 16.1808C67.6558 16.2895 67.5323 16.7622 67.6684 17.0599C68.5373 18.8844 69.5693 20.2221 71.0634 21.3848C68.5785 22.2766 66.0809 21.5881 64.3162 19.4122C64.0313 19.0609 63.3665 19.0341 63.1212 19.4532C62.1573 21.1154 61.1254 22.5476 59.8893 23.9136C59.9985 22.7776 60.0934 21.6558 60.1884 20.5214C60.2422 19.9274 59.4825 19.521 59.0203 19.9274C56.8346 21.7929 54.5127 22.8201 51.7967 23.1841C52.5707 21.0886 53.8337 19.5619 55.8153 18.2778C56.4405 17.8729 55.8422 17.0883 55.2724 17.1293C52.6245 17.2916 50.0177 17.4538 47.6832 16.0878C49.8009 16.0469 51.8236 15.7633 53.9429 15.1819C54.432 15.0464 54.7169 14.3311 54.2009 14.0065C51.5941 12.4231 50.2362 10.2063 50.0874 7.36875ZM4.01866 12.7477C6.67924 11.8969 9.32716 11.5991 12.165 11.8291C12.3692 11.8559 12.5037 11.7756 12.5987 11.6668C12.9785 12.0718 13.3869 12.4641 13.8206 12.8154C13.9013 12.869 13.9693 12.7745 13.9424 12.7067C13.3046 11.0713 12.1777 9.63912 11.1457 8.23373C10.3037 7.07097 7.68428 4.58476 8.64817 3.43619C9.68011 2.20568 12.2188 2.24665 13.3457 3.16677C12.939 3.4094 12.5718 3.693 12.1239 3.88364C11.5541 4.14046 10.9431 4.26177 10.3591 4.47762C10.1961 4.54537 10.2784 4.7754 10.4003 4.81479C11.4464 5.04482 13.0339 4.6399 13.9298 3.89625C14.2289 4.40987 14.46 5.01803 14.6626 5.45131C15.5995 7.50582 15.7895 9.56034 16.3735 11.6952C16.4954 12.1553 17.1332 12.0875 17.1744 11.6275C17.3105 10.1401 17.0383 8.50472 16.5096 6.93705C18.4105 5.66716 19.8634 4.04435 21.0853 2.1789C21.0853 3.59847 20.7735 4.88254 20.1626 6.27375C20.0407 6.55734 20.2844 6.89609 20.5424 6.97644C22.2391 7.47589 23.719 7.5846 25.3492 7.301C24.4803 9.42327 22.5937 10.6396 20.1357 10.5183C19.7416 10.5041 19.3491 10.9106 19.4836 11.3155C19.9996 12.8973 20.3383 14.3973 20.5155 15.9917C19.8365 15.2748 19.1575 14.5596 18.4785 13.8427C18.1114 13.4504 17.4055 13.7072 17.4055 14.2476C17.3516 16.7338 16.6853 18.8293 15.3416 20.8034C14.4315 19.0877 14.1608 17.3971 14.4726 15.3694C14.5676 14.7203 13.7129 14.6525 13.3995 15.0448C11.9735 16.8567 10.5617 18.6402 8.33479 19.3571C9.52975 17.9643 10.5079 16.4912 11.3626 14.7754C11.5525 14.3831 11.2534 13.7891 10.7516 13.9372C8.20184 14.6935 5.96068 14.3012 4.01866 12.7477ZM6.65392 40.3056C-0.0268102 33.1967 -1.52091 19.2626 9.61364 15.5994C8.70356 17.1403 7.65896 18.5189 6.35478 19.8298C6.04298 20.1401 6.20601 20.8428 6.72198 20.8034C9.58673 20.5734 11.4607 19.0735 13.1985 17.0867C13.2128 18.8844 13.7288 20.4789 14.7876 22.1285C15.0456 22.5208 15.5204 22.5066 15.7926 22.1553C17.3263 20.1827 18.1952 18.1014 18.5086 15.7349C19.2952 16.5999 20.0708 17.4649 20.8574 18.3298C21.2373 18.7348 22.0524 18.4653 22.0381 17.884C21.9432 15.7617 21.5902 13.8017 20.9793 11.7882C23.9121 11.5581 26.1517 9.6533 26.818 6.66606C26.9129 6.24696 26.5742 5.7743 26.0978 5.90979C25.2827 6.12564 23.7079 6.66606 22.9213 6.32889C22.5414 6.16661 22.3104 6.03111 22.1616 5.89561C28.4071 3.05805 35.0466 6.93705 38.5904 12.4641C37.8022 12.8296 37.0282 13.2613 36.2827 13.7481C34.6668 10.8964 32.3322 8.61186 29.3171 7.46328C29.3029 7.46328 29.2902 7.49007 29.3029 7.50425C31.6374 9.72104 33.7013 11.9646 35.1685 14.5328C31.4206 17.3703 28.5163 21.6558 27.1852 26.3053C25.4616 32.3333 25.8952 38.0636 28.1348 42.8753C20.8954 46.9418 12.7759 46.8205 6.65392 40.3056ZM72.5717 44.1578C65.3212 51.7803 54.9084 54.1861 44.7646 51.577C39.6318 50.2662 35.2603 47.7658 32.3148 44.2114C31.5947 43.3464 30.9568 42.4137 30.414 41.4132C28.7711 38.385 27.9971 34.7912 28.377 30.6679C28.8787 25.2071 31.7435 19.5588 35.9124 16.0028C36.2653 15.705 36.6325 15.4214 36.9981 15.1646C37.7452 14.61 38.5192 14.1373 39.32 13.745C40.094 13.3669 40.9091 13.0565 41.7369 12.8264C44.8865 11.9615 48.3495 12.2719 51.9059 14.2996C49.8832 14.7045 47.8874 14.881 45.7697 14.7596C45.2537 14.7329 44.7789 15.4214 45.2125 15.8279C47.6025 18.0856 50.3185 18.5441 53.3589 18.5047C51.8252 19.8833 50.8471 21.5455 50.2362 23.7214C50.1 24.2208 50.4672 24.6273 50.9832 24.5863C53.848 24.3831 56.306 23.5323 58.5867 22.0056C58.4379 23.3306 58.2875 24.6541 58.1514 25.9791C58.0707 26.6141 58.9396 27.1151 59.4271 26.6409C61.1792 24.9519 62.6037 23.1542 63.8667 21.0996C66.2978 23.4252 69.65 23.8836 72.7332 22.1537C73.1542 21.9111 73.303 21.2745 72.8424 20.9642C72.0273 20.4363 70.3575 19.5052 70.0583 18.5851C69.8953 18.125 69.8415 17.8288 69.8415 17.6114C79.9299 22.0198 79.292 37.1025 72.5717 44.1578Z" fill="#212321"/>
<path d="M35.4644 30.777C35.5736 30.5612 35.6686 30.3312 35.7762 30.1011C35.7762 30.087 35.7762 30.087 35.7762 30.0744V30.0602C35.7762 30.0066 35.7224 29.9798 35.667 30.0066C33.6173 30.8716 32.788 33.3862 33.2232 35.4801C33.2913 35.8046 33.3863 36.1292 33.5224 36.427C33.5224 36.4411 33.5366 36.4538 33.5366 36.4679C33.6585 36.7657 34.2014 36.698 34.1887 36.3466C34.1887 36.1843 34.1745 36.0221 34.1887 35.8598C34.203 34.1298 34.6509 32.6835 35.3014 31.1426C35.3552 31.0213 35.4106 30.8999 35.4644 30.777Z" fill="#212321"/>
<path d="M73.9565 24.9107C73.9423 24.8839 73.9154 24.8839 73.9154 24.9107C73.6717 31.695 72.6935 37.764 67.6699 42.8058C63.2303 47.2929 58.0437 48.0098 52.3553 49.7791C51.8805 49.9272 51.8663 50.5764 52.3965 50.6583C64.9682 52.497 78.5449 36.8864 73.9565 24.9107Z" fill="#212321"/>
<path d="M36.3191 35.7503C36.2922 35.5612 36.2368 35.3722 36.156 35.1957C36.0753 35.0066 35.8569 34.9799 35.7081 35.087C35.1241 35.4919 34.9484 36.4798 34.9611 37.1415C34.9611 37.2234 34.9611 37.2896 34.9753 37.3715C35.0165 38.0742 35.1383 38.7911 35.6543 39.3315C35.9123 39.6025 36.3333 39.467 36.3871 39.0889C36.4963 38.413 36.3333 37.7103 36.3333 37.0218C36.3333 36.6153 36.3745 36.1694 36.3191 35.7503Z" fill="#212321"/>
<path d="M10.5758 35.1911C10.5521 35.1375 10.4745 35.1549 10.4571 35.2037C9.73539 37.3417 11.4147 39.6814 13.4327 40.3337C13.7017 40.4203 13.9724 40.0374 13.735 39.8405C12.1554 38.5281 11.3735 37.0282 10.5758 35.1911Z" fill="#212321"/>
<path d="M15.4238 38.8451C15.0408 38.5095 14.6245 38.0431 14.1275 37.895C13.9582 37.8446 13.8157 37.9707 13.7967 38.1314C13.7223 38.7458 14.2605 39.4233 14.7084 39.7967C15.2307 40.2316 15.8195 40.6491 16.5317 40.6207C16.8593 40.6081 17.0144 40.2568 16.8071 40.0079C16.4241 39.5431 15.8749 39.239 15.4238 38.8451Z" fill="#212321"/>
</g>
<defs>
<clipPath id="clip0">
<rect width="82" height="60" fill="white"/>
</clipPath>
</defs>
</svg>
