<svg width="96" height="94" viewBox="0 0 96 94" fill="none" xmlns="http://www.w3.org/2000/svg">
<g clip-path="url(#clip0)">
<path d="M74.0669 26.3927C71.5612 26.0817 70.8066 28.5049 69.6318 30.2055C66.0766 35.3624 60.4756 39.3094 54.3048 40.6088C50.6927 41.3721 47.0888 40.9659 43.5361 40.1234C39.3834 39.1392 34.8979 38.1158 30.9368 36.5316C30.7612 36.2783 30.6089 36.0206 30.4801 35.7586C31.2325 34.5075 32.0908 33.3031 32.3749 31.7046C32.6571 30.1587 31.7995 28.8243 29.9406 28.604C29.5357 28.5532 29.1631 28.5746 28.8191 28.6538C28.7215 28.3376 28.5933 28.0238 28.4366 27.7051C27.6775 26.1843 26.2414 25.6428 24.7604 26.7534C23.7016 27.5418 23.3701 28.7045 23.3928 29.9092C22.1225 29.3651 20.8728 29.7697 20.2663 31.2701C19.4819 33.2006 20.7401 34.974 22.0568 36.2706C22.3272 36.5407 22.6075 36.7961 22.8875 37.0591C22.0555 38.0201 21.1662 38.9262 20.3554 39.8976C16.4988 44.5632 15.8238 50.573 16.3917 56.8083C16.4454 57.425 16.5127 58.052 16.5856 58.694C16.4178 58.7569 16.3025 58.8956 16.3584 59.1071C16.6233 60.2169 16.8939 61.334 17.1769 62.4622C17.404 63.5271 17.6844 64.5871 18.0516 65.6232C19.1263 69.1491 20.5694 72.5986 22.9964 75.652C26.5348 80.103 31.7377 82.9859 37.2037 84.0796C42.7066 85.1795 49.2171 84.8576 53.3164 81.6958C54.6739 80.6484 56.0049 79.0929 55.4444 77.1541C54.7568 74.7602 52.2005 74.6582 50.1694 73.9889C44.4929 72.1323 39.0957 68.438 35.4589 63.6773C35.7877 63.9563 36.1176 64.2347 36.4464 64.5137C37.2665 65.2704 38.1263 65.9742 39.0291 66.6019C41.9814 68.8626 45.1605 70.7996 48.793 71.7069C54.106 73.0381 59.6376 71.8735 64.2598 69.0004C68.9168 66.1028 73.4152 61.2857 74.4259 55.737C74.7295 54.0744 74.7593 52.0666 73.5629 50.7676C74.5479 49.5692 75.4017 48.2508 76.1103 46.8568C78.5959 41.9756 79.9568 35.5515 77.9386 30.2972C77.2692 28.5586 76.0951 26.6402 74.0669 26.3927Z" fill="#FFC737"/>
<path d="M77.4939 25.6989C76.8244 23.9602 75.6503 22.0418 73.6222 21.7943C71.1164 21.4833 70.3619 23.9066 69.187 25.6071C65.6318 30.764 60.0308 34.711 53.86 36.0105C50.248 36.7737 46.6441 36.3675 43.0913 35.525C38.9386 34.5408 34.4531 33.5174 30.492 31.9332C30.3164 31.6799 30.1642 31.4223 30.0353 31.1603C30.7877 29.9091 31.646 28.7047 31.9301 27.1063C32.2124 25.5603 31.3548 24.226 29.4958 24.0056C29.0909 23.9548 28.7183 23.9762 28.3743 24.0554C28.2767 23.7392 28.1486 23.4254 27.9918 23.1068C27.2327 21.5859 25.7967 21.0445 24.3156 22.1551C23.2569 22.9434 22.9254 24.1061 22.948 25.3109C21.6778 24.7667 20.4292 25.1707 19.8215 26.6717C19.0364 28.6012 20.2954 30.3756 21.612 31.6723C21.8825 31.9424 22.1627 32.1977 22.4428 32.4608C21.6107 33.4217 20.7214 34.3278 19.9106 35.2993C16.054 39.9649 15.379 45.9746 15.9469 52.21C16.0006 52.8266 16.0679 53.4536 16.1408 54.0957C15.973 54.1585 15.8577 54.2972 15.9136 54.5088C16.1785 55.6186 16.4491 56.7357 16.7321 57.8638C16.9592 58.9288 17.2396 59.9888 17.6068 61.0249C18.6838 64.5495 20.1262 67.9978 22.5532 71.0511C26.0917 75.5022 31.2946 78.385 36.7605 79.4788C42.2634 80.5786 48.7739 80.2568 52.8732 77.0949C54.2308 76.0476 55.5618 74.4921 55.0012 72.5533C54.3137 70.1594 51.7573 70.0573 49.7262 69.388C44.0497 67.5315 38.6526 63.8372 35.0157 59.0765C35.3445 59.3555 35.6744 59.6338 36.0032 59.9128C36.8233 60.6696 37.6831 61.3734 38.5859 62.0011C41.5383 64.2618 44.7174 66.1988 48.3498 67.106C53.6628 68.4372 59.1944 67.2727 63.8167 64.3995C68.4736 61.502 72.972 56.6848 73.9828 51.1361C74.2864 49.4736 74.3161 47.4658 73.1198 46.1667C74.1047 44.9683 74.9586 43.65 75.6672 42.256C78.1511 37.3772 79.5132 30.9525 77.4939 25.6989ZM25.3712 23.3412C25.7291 24.1647 25.9137 25.0361 26.0585 25.9152C25.8625 26.2288 25.6941 26.5613 25.5479 26.8901C25.4977 27.0097 25.4412 27.1207 25.3976 27.241C25.0736 26.8882 24.732 26.5469 24.3555 26.2378C24.3445 26.1231 24.3427 26.0031 24.3389 25.8903C24.4046 25.5032 24.4619 25.1149 24.5269 24.7266C24.4654 23.7196 24.7465 23.2545 25.3712 23.3412ZM21.7851 29.8455C21.6431 29.4837 21.4942 29.1152 21.3523 28.7533C20.7694 27.9301 20.77 27.3897 21.3532 27.1386C22.3495 27.8338 23.1103 28.7683 23.8791 29.6982C23.9359 29.8956 23.9855 30.091 24.0286 30.2857C23.9104 30.4987 23.7866 30.6967 23.6542 30.9011C23.5241 31.0907 23.3964 31.2713 23.2598 31.4524C22.6893 30.9534 22.1524 30.4307 21.7851 29.8455ZM69.2353 49.921C69.6847 49.6196 70.1133 49.3058 70.5291 48.9828C70.4138 49.1744 70.3196 49.3313 70.2955 49.3874C70.0402 49.9241 69.8719 50.4744 69.7436 51.0547C69.6391 51.5412 70.1406 51.8694 70.5445 51.5683C70.8552 51.3327 71.5467 50.6203 71.8423 50.7882C72.0404 50.903 72.1272 51.4206 72.1811 51.8571C71.8687 53.0452 71.4134 54.1805 70.9938 54.9293C69.6751 57.3053 67.8451 59.41 65.7683 61.1586C61.0853 65.1043 54.8414 67.1944 48.8028 65.7013C47.61 65.4092 46.4673 65.0052 45.3516 64.5238C46.1938 64.5705 47.0626 64.5098 47.9576 64.325C48.0201 64.3119 48.0214 64.2159 47.953 64.2187C46.0222 64.2499 44.2523 63.8559 42.616 63.1615C40.4384 61.9287 38.3905 60.4234 36.426 58.8642C35.3255 57.8068 34.2818 56.6759 33.2921 55.5383C32.9004 55.0911 32.5179 54.6387 32.1366 54.178C31.2565 52.0744 30.7054 49.8973 30.3253 47.6948C30.0169 45.8641 29.6751 43.9619 29.4085 42.0634C29.4129 42.079 29.4264 42.0894 29.4392 42.1063C29.4372 42.1135 29.4455 42.1148 29.4455 42.1148C30.3089 44.2687 31.545 46.2635 33.0241 48.1115C34.6701 50.1739 36.5608 51.9917 38.5769 53.6937C39.6364 54.5947 40.5412 55.6584 41.9999 55.6635C42.1045 55.6655 42.148 55.4999 42.0328 55.4661C40.1566 54.9954 38.3712 52.4139 37.0686 51.0834C35.8033 49.7967 34.5626 48.4974 33.4666 47.0576C32.9299 46.3547 32.4354 45.6352 31.9946 44.8955C31.6773 44.3709 31.3821 43.8427 31.1117 43.3019C31.9794 44.3142 32.9849 45.2219 34.0377 46.0315C34.3248 46.2511 34.6536 45.8161 34.4338 45.5548C34.3646 45.4765 34.3032 45.3906 34.234 45.3123C34.2276 45.3039 34.2212 45.2954 34.2147 45.2946C32.0722 42.7377 29.6832 40.5309 29.2058 37.0226C29.1731 36.7691 29.0057 36.6442 28.8141 36.6284C28.7864 36.1209 28.7648 35.6295 28.7584 35.1325C28.7438 34.2816 28.9145 33.5363 29.1797 32.8578C28.7746 32.7164 28.383 32.54 28.0281 32.3243C27.9819 32.3312 27.9436 32.3334 27.896 32.3486C27.6522 32.4142 27.4686 32.6087 27.3214 32.8111C27.3426 32.8216 27.3542 32.8392 27.3669 32.8561C27.3904 32.8971 27.4128 32.9387 27.4371 32.9732C27.2486 34.181 27.5421 35.5664 27.8042 36.8623C27.8801 37.2575 27.958 37.6455 28.0146 38.023C28.1451 38.8559 28.2507 39.6984 28.3562 40.5487C28.8131 44.2653 29.1693 48.0851 30.2744 51.757C30.5889 52.7914 30.9525 53.8053 31.4019 54.8018C31.4722 54.9642 31.5438 55.1183 31.6237 55.2737C31.9065 55.868 32.2239 56.4455 32.5477 57.0238C32.1126 56.3444 31.7186 55.649 31.3431 54.9354C30.6674 53.6768 30.0447 52.3727 29.2862 51.0254C29.2455 50.9519 29.1203 50.9828 29.1375 51.0607C29.2086 51.5298 29.3026 51.9963 29.4219 52.4513C30.6505 57.2172 34.3853 61.2199 38.6277 64.3885C38.7455 64.4904 38.8559 64.5981 38.982 64.7013C42.1389 67.356 45.8403 69.4081 49.7122 70.6774C49.6014 70.93 49.7012 71.2766 50.0255 71.4947C50.2086 71.6151 50.3931 71.7273 50.5847 71.8413C50.2598 71.8929 49.9356 71.9456 49.603 71.997C49.0626 72.0814 49.1343 72.9948 49.7265 73.0911C50.2687 73.1797 50.8058 73.2515 51.3373 73.3084C51.1243 73.364 50.9606 73.4049 50.9038 73.4253C50.3797 73.6334 49.9197 73.9031 49.4773 74.2142C49.1024 74.4759 49.3155 75.0361 49.8248 75.0966C50.2083 75.1446 51.199 75.1107 51.342 75.4266C51.435 75.6366 51.1981 76.0567 50.9842 76.3896C50.031 77.001 48.994 77.4849 48.2082 77.725C45.7254 78.4839 42.9917 78.7226 40.2595 78.5474C34.1187 78.1475 27.7968 75.4355 23.7497 70.3836C22.9538 69.3905 22.2573 68.3451 21.632 67.2754C22.3001 67.8651 23.0442 68.4069 23.8756 68.8728C23.9382 68.905 23.9937 68.8399 23.9344 68.7922C22.3399 67.5338 21.1406 66.0836 20.2087 64.5135C19.1672 62.2105 18.3763 59.8062 17.7024 57.4227C17.4294 55.959 17.25 54.481 17.1093 53.0383C16.6228 47.9802 16.7339 42.6824 19.2904 38.4957C20.4285 36.609 22.0726 35.1115 23.5108 33.4537C23.6598 33.2836 23.8112 33.1045 23.9531 32.9248C24.0968 32.7456 24.2388 32.5659 24.3753 32.3848C24.6671 31.9967 24.9461 31.5918 25.1967 31.1743C25.3079 31.0047 25.4042 30.833 25.5016 30.6607C25.5123 30.6394 25.5236 30.6194 25.5362 30.5909C25.8784 29.9485 26.1095 29.152 26.3887 28.3944C26.4043 28.3446 26.4211 28.2942 26.4347 28.2516C26.6662 27.6364 26.9297 27.0557 27.3152 26.6003L28.1517 25.9257C28.3563 25.6511 28.5465 25.4574 28.7361 25.3608C29.0626 25.1661 29.3744 25.2324 29.6633 25.5267C29.5212 26.1043 29.2947 26.6381 29.0267 27.1578C28.5671 28.052 27.9893 28.8884 27.5466 29.7775C27.2821 30.3194 27.0577 30.8913 26.94 31.5033C27.1318 31.4373 27.3236 31.3712 27.5084 31.2955C27.7351 31.1974 27.9958 31.1266 28.2419 31.1898C28.2852 31.2043 28.3266 31.226 28.3687 31.2411C28.6119 31.7159 28.9297 32.151 29.2951 32.5708C29.2576 32.6619 29.2181 32.7602 29.1792 32.8596C29.3559 32.9263 29.5338 32.9847 29.721 33.0378C30.4301 33.784 31.235 34.4557 31.9025 35.1427C33.4033 36.6862 34.8633 38.3364 36.3743 39.9482C36.8702 40.4869 37.3766 41.0121 37.8837 41.5307C38.1321 41.7968 38.3837 42.0474 38.6427 42.2923L38.6499 42.2942C38.6499 42.2942 38.6571 42.2961 38.6563 42.3026C39.359 42.9951 40.0741 43.6669 40.8183 44.2992C40.8164 44.3064 40.8247 44.3077 40.8247 44.3077C42.0411 45.3471 43.3268 46.2924 44.7124 47.0881C45.419 47.4955 46.1632 47.8571 46.9125 48.1824C44.8606 47.4131 42.9997 46.3135 40.852 45.3479C40.7757 45.313 40.7043 45.422 40.7608 45.4834C44.6649 49.5055 50.3353 50.5048 55.8435 50.231C55.9923 50.2411 56.1415 50.2493 56.2916 50.251C60.2076 50.318 64.155 49.4896 67.7311 47.8726C67.8096 48.1635 68.1011 48.3988 68.4706 48.3534C68.6014 48.3374 68.7407 48.315 68.8801 48.2927C68.9497 48.2815 69.0194 48.2703 69.089 48.2591C68.8863 48.5266 68.6745 48.7993 68.4707 49.0674C68.1704 49.4618 68.6031 50.0655 69.0444 49.9941C69.1118 49.9842 69.1751 49.9646 69.2353 49.921ZM75.6616 38.488C74.8218 40.9722 73.5549 43.3109 71.9072 45.3172C70.2182 44.6742 68.5738 46.0357 66.9445 46.7683C61.2348 49.3526 54.4032 49.8388 48.4708 47.7613C46.6584 47.1285 45.0192 46.23 43.494 45.1482C45.1196 45.5931 46.7786 45.9236 48.457 46.1899C49.8418 46.4083 51.1672 46.8497 52.4166 46.0913C52.5082 46.0388 52.4608 45.8738 52.3492 45.9075C50.492 46.4758 47.6214 45.2045 45.8108 44.7446C44.2963 44.3556 42.7903 43.9602 41.3292 43.4361C41.3292 43.4361 41.322 43.4342 41.3228 43.4277C40.751 42.937 40.1984 42.4187 39.6563 41.8868C39.965 41.9292 40.2746 41.9651 40.5777 42.0001C40.9404 42.0358 40.9936 41.497 40.6803 41.3937C39.9206 41.1272 39.1548 40.8899 38.4039 40.6547C36.115 38.389 33.7462 36.0132 31.7221 33.514C32.1926 33.621 32.6514 33.7181 33.0841 33.8255C38.6733 35.2617 44.4172 37.5198 50.281 37.3781C51.1038 37.3618 51.922 37.2846 52.7369 37.1776C50.5776 37.5771 48.4063 37.6054 46.0625 37.8929C45.978 37.902 45.986 38.0381 46.0579 38.0574C51.5013 39.4621 56.8846 37.3886 61.4682 34.3047C61.5945 34.2277 61.7317 34.1672 61.858 34.0903C65.2532 32.1126 68.2059 29.3734 70.4365 26.1389C70.6498 26.3465 71.0176 26.3989 71.3114 26.1684C71.4747 26.0446 71.6343 25.9063 71.7923 25.7733C71.7591 26.1055 71.7246 26.446 71.6894 26.7854C71.634 27.339 72.5375 27.6441 72.7863 27.1067C73.0109 26.6254 73.2209 26.1345 73.4099 25.6389C73.4099 25.8643 73.4077 26.0516 73.4142 26.1054C73.4805 26.6936 73.6265 27.2589 73.811 27.8143C73.9725 28.2845 74.5791 28.2998 74.7627 27.8345C74.9132 27.476 75.1292 26.5126 75.4758 26.5015C75.7027 26.494 76.0482 26.895 76.3221 27.2403C76.6741 28.4091 76.8709 29.6124 76.8992 30.466C77.0002 33.1795 76.5315 35.9184 75.6616 38.488Z" fill="#212321"/>
<path d="M26.6605 31.5859C26.7429 31.5917 26.8307 31.5988 26.9174 31.6202L26.937 31.5031C26.8718 31.5299 26.8083 31.5572 26.7439 31.5775C26.7143 31.5869 26.6902 31.5901 26.6605 31.5859Z" fill="#212321"/>
<path d="M68.4082 39.9876C66.7675 41.6133 64.9022 43.0727 62.6844 43.8053C61.1108 44.3245 58.8041 44.3396 57.6248 45.5465C57.594 45.5777 57.6055 45.6271 57.647 45.6411C58.68 45.9915 59.65 45.5686 60.707 45.3425C61.7762 45.1139 62.8306 44.8727 63.8432 44.4496C65.9283 43.5783 67.5692 42.1945 68.8181 40.326C68.9863 40.0753 68.6255 39.7723 68.4082 39.9876Z" fill="#212321"/>
<path d="M73.4715 29.1568C72.0474 31.2771 71.2273 33.7212 69.7483 35.8306C68.0929 38.1923 65.9155 39.8396 64.0116 41.9429C63.9615 41.9988 64.0006 42.1201 64.0898 42.0872C68.6261 40.4311 73.7656 34.1952 73.9943 29.3125C74.0071 29.0269 73.6233 28.9307 73.4715 29.1568Z" fill="#212321"/>
<path d="M22.2521 47.2967C22.2158 45.8638 22.3136 44.4765 22.5556 43.1337C22.6632 44.4123 22.9428 45.7043 23.3256 46.9613C23.4319 47.3088 23.9501 47.2282 23.9285 46.9092C23.7323 43.8358 23.0717 40.8305 24.3658 38.157C24.4618 37.9476 24.5794 37.7335 24.7052 37.5283C24.8822 37.2347 24.6666 36.9514 24.3839 36.8456C24.1576 36.756 23.8986 36.7819 23.7563 36.9981C21.7179 40.1194 21.0752 43.8445 21.2773 47.7299C21.4014 50.2501 21.8725 52.7681 22.5022 55.2814C22.8347 56.6127 22.9403 57.9514 24.1321 58.9187C24.217 58.9926 24.3518 58.9093 24.2775 58.8142C23.0248 57.2283 23.0964 54.2586 22.8174 52.4792C22.5447 50.74 22.3001 49.018 22.2521 47.2967Z" fill="#212321"/>
<path d="M28.0616 66.4009C28.688 67.3292 29.3229 68.2512 30.1161 69.0778C31.7383 70.7908 33.6607 71.9763 35.8843 72.6683C36.1847 72.7624 36.3285 72.3578 36.0457 72.2067C33.8939 71.0907 31.8069 69.7213 30.2644 67.8476C29.1639 66.5194 28.2508 64.3955 26.6691 63.5972C26.6277 63.5755 26.5865 63.5991 26.5932 63.6452C26.6648 64.6858 27.4332 65.4798 28.0616 66.4009Z" fill="#212321"/>
<path d="M48.1502 74.7489C48.4161 74.6873 48.3595 74.3098 48.0875 74.2281C45.5583 73.4329 42.9663 73.2741 40.4306 72.4251C37.5888 71.4747 35.2122 69.8628 32.5096 68.6192C32.4399 68.5851 32.3384 68.6523 32.4077 68.7306C35.7127 72.5197 43.5147 75.7357 48.1502 74.7489Z" fill="#212321"/>
<path d="M58.8016 58.6963C56.5586 59.2391 54.214 59.5331 51.9395 59.0124C50.3311 58.6454 48.3557 57.4601 46.7196 57.8835C46.6797 57.8988 46.6649 57.942 46.6893 57.9765C47.3914 58.8115 48.4366 58.9522 49.4525 59.3048C50.484 59.6605 51.5093 60.0002 52.5957 60.1626C54.8198 60.4944 56.9454 60.1581 58.9814 59.1983C59.2513 59.0694 59.1001 58.6251 58.8016 58.6963Z" fill="#212321"/>
<path d="M54.0414 58.1013C53.9698 58.1197 53.9409 58.2497 54.0285 58.2645C58.7627 59.1938 66.3879 56.501 69.1192 52.4334C69.2799 52.1961 69.0039 51.9111 68.7517 52.0284C66.4406 53.108 64.4649 54.7834 62.1068 55.8264C59.4729 56.9956 56.7606 57.2825 54.0414 58.1013Z" fill="#212321"/>
</g>
<defs>
<clipPath id="clip0">
<rect width="72.515" height="66.2094" fill="white" transform="translate(0 36.0596) rotate(-29.8194)"/>
</clipPath>
</defs>
</svg>
