<svg width="38" height="40" viewBox="0 0 38 40" fill="none" xmlns="http://www.w3.org/2000/svg">
<g clip-path="url(#clip0)">
<path d="M29.6358 18.5962C32.0179 20.3283 34.74 22.7934 36.2852 25.3528C36.2939 25.3603 36.3028 25.3662 36.3116 25.372C36.5852 25.5997 36.3408 26.0287 36.0204 25.884C33.0451 24.5414 30.2858 23.5823 27.1326 24.3491C24.824 24.9112 22.8032 26.3958 20.3524 26.4883C17.3905 26.6005 12.1799 24.433 10.8273 21.2147C10.7037 21.1972 10.5795 21.1769 10.4553 21.1566C10.3953 21.1724 10.3364 21.1607 10.2863 21.1296C7.05092 20.5808 3.78209 19.2888 1.77581 16.514C1.59014 16.257 1.90126 15.9426 2.14858 16.1493C4.85822 18.4034 7.66136 19.6127 10.6713 20.1838C13.541 16.6702 17.9316 14.4475 22.693 15.3808C25.1906 15.8717 27.5382 17.0693 29.6358 18.5962Z" fill="#8DC63F"/>
<path d="M29.0105 15.7358C31.3926 17.4679 34.1147 19.933 35.6599 22.4925C35.6686 22.5 35.6775 22.5058 35.6863 22.5117C35.9599 22.7394 35.7155 23.1683 35.3951 23.0237C32.4198 21.6811 29.6605 20.7219 26.5073 21.4887C24.1987 22.0509 22.1779 23.5355 19.7271 23.628C16.7652 23.7401 11.5546 21.5726 10.202 18.3544C10.0784 18.3368 9.95417 18.3166 9.82998 18.2963C9.77003 18.3121 9.7111 18.3003 9.66096 18.2693C6.42469 17.7211 3.15679 16.4284 1.1505 13.6536C0.96483 13.3967 1.27596 13.0822 1.52328 13.2889C4.23291 15.543 7.03605 16.7523 10.046 17.3235C12.9157 13.8098 17.3063 11.5872 22.0677 12.5205C24.5653 13.0113 26.912 14.2097 29.0105 15.7358ZM22.6054 13.6935C17.9027 12.5752 14.4454 15.0043 10.9925 17.4837C11.6847 17.5841 12.3907 17.6505 13.1066 17.6952C14.2204 16.4046 15.8075 15.6902 17.4963 15.3268C17.5961 15.1263 17.7432 14.9416 17.8698 14.782C18.0718 14.5287 18.3335 14.2361 18.6856 14.2353C18.7508 14.236 18.8024 14.2959 18.7796 14.3605C18.6763 14.6489 18.3982 14.8295 18.1851 15.0298C18.1216 15.0909 18.0625 15.158 18.0058 15.228C18.9029 15.0731 19.8176 15.0086 20.6962 15.0047C20.8268 15.0044 20.8901 15.1876 20.7622 15.2395C19.4291 15.7822 18.0494 15.9729 16.6564 16.3234C15.6552 16.5751 14.8709 17.2285 14.0091 17.7362C14.6244 17.7568 15.246 17.7646 15.8807 17.7531C17.7953 17.7184 19.7342 17.602 21.6687 17.6261C22.2454 17.1012 23.0821 16.8016 23.8061 16.5834C23.8406 16.5728 23.8759 16.5632 23.9105 16.5526C24.0345 16.2721 24.3127 16.0127 24.5014 15.8325C24.8153 15.5332 25.1536 15.3429 25.6028 15.3579C25.6748 15.3597 25.7623 15.4552 25.6957 15.5201C25.425 15.7912 25.1166 15.9745 24.8053 16.1962C24.7406 16.2424 24.6818 16.2982 24.6236 16.3568C25.2649 16.2016 25.9454 16.1094 26.5764 16.2567C26.6947 16.2846 26.7448 16.4716 26.6147 16.511C25.7658 16.7678 24.8456 16.7577 23.9871 17.0172C23.4578 17.1767 22.9542 17.4237 22.444 17.6428C24.5154 17.7137 26.5784 17.9816 28.5973 18.7289C28.6569 18.7512 28.6299 18.8411 28.5723 18.833C24.766 18.2849 21.0462 18.5246 17.2991 18.6166C18.5751 19.3052 19.9496 19.4178 21.3706 19.7879C21.5321 19.8301 21.5572 20.0787 21.3781 20.0925C20.8138 20.1385 20.2252 20.1259 19.6436 20.0434C19.7431 20.1219 19.8449 20.1955 19.9519 20.2588C20.3269 20.4769 20.8306 20.5825 21.1441 20.8837C21.1511 20.891 21.1492 20.9019 21.1396 20.9029C20.6829 20.9725 20.0095 20.6638 19.5888 20.457C19.304 20.3166 18.983 20.1251 18.7773 19.863C17.963 19.6335 17.1951 19.2394 16.5711 18.6332C15.2878 18.6574 13.9992 18.6574 12.7022 18.5944C12.1238 18.5662 11.5302 18.518 10.9283 18.4494C12.4395 20.0455 14.0464 21.1716 16.1701 22.0218C19.2539 23.258 21.4685 22.4494 24.232 21.3182C27.2318 20.0902 31.0842 19.8549 34.1806 21.5084C32.7217 20.241 31.3907 18.7485 29.8932 17.5499C27.7046 15.7978 25.296 14.3333 22.6054 13.6935Z" fill="#212321"/>
</g>
<defs>
<clipPath id="clip0">
<rect width="23.4031" height="31.297" fill="white" transform="matrix(-0.795109 0.606466 0.606466 0.795109 18.608 0)"/>
</clipPath>
</defs>
</svg>
