<svg width="74" height="69" viewBox="0 0 74 69" fill="none" xmlns="http://www.w3.org/2000/svg">
<g clip-path="url(#clip0)">
<path d="M64.7019 18.8909C62.2142 18.8196 59.8912 18.0453 57.9207 16.5354C57.637 16.3184 57.4032 16.0902 57.1654 15.9041C57.2965 15.7202 57.4103 15.5277 57.5094 15.3297C59.4973 12.9177 63.3429 8.90536 61.2369 5.99575C59.2309 3.22245 54.0589 3.07926 51.1299 4.14629C51.0664 4.17047 51.0518 4.22289 51.0687 4.27265C50.3633 4.60011 50.1872 5.17344 50.5378 6.6082C51.1769 9.21933 51.315 11.8575 50.9527 14.5038C50.8823 14.5018 50.8048 14.5016 50.6989 14.5014C50.0413 14.5004 49.4447 14.4442 48.8139 14.2362C47.6749 13.8628 46.7254 13.161 45.7899 12.4407C45.5931 12.2887 45.33 12.4233 45.2425 12.6219C44.8282 13.5756 44.7257 14.623 45.175 15.5347C43.8769 15.5619 42.5787 15.5891 41.2805 15.6164C40.8316 15.626 40.6174 16.0617 40.8648 16.4209C41.1653 16.8596 41.4979 17.2338 41.8553 17.5585C38.7747 19.7811 38.5046 23.5975 37.8962 27.1757C37.3723 30.2495 36.2868 32.8393 33.2638 34.217C30.7941 35.3427 28.0235 35.3663 25.37 35.5554C21.1238 35.8585 17.2857 36.8879 14.3108 40.1014C11.7996 42.8154 10.5108 46.436 10.8464 50.0987C11.2072 54.0371 13.3231 57.5664 16.5186 59.885C19.7819 62.2531 24.6006 64.6384 28.7347 64.5629C33.2186 64.4814 37.8712 62.3464 41.9007 60.5865C43.9575 59.687 46.065 58.7574 47.8898 57.4349C49.9384 55.9507 51.4719 53.8936 52.9812 51.9027C56.2639 47.5748 59.2659 42.9694 60.9694 37.7932C61.6791 35.635 62.1345 33.3716 62.2666 31.1072C62.3427 29.8014 62.4871 28.1374 62.0567 26.7872C62.4648 26.9958 62.873 27.2267 63.2889 27.4576C63.5386 27.5957 63.9591 27.4851 63.9514 27.1395C63.9051 24.9221 63.2154 23.0961 61.7573 21.53C63.2552 21.4653 64.6283 21.0259 64.9908 19.3364C65.0385 19.1369 64.9455 18.8979 64.7019 18.8909Z" fill="#FD2A53"/>
<path d="M51.0161 50.636C54.2989 46.3081 57.3009 41.7026 59.0044 36.5265C59.7141 34.3682 60.1694 32.1048 60.3015 29.8405C60.3777 28.5346 60.5221 26.8707 60.0917 25.5204C60.4997 25.729 60.908 25.96 61.3238 26.1908C61.5736 26.3289 61.9941 26.2184 61.9864 25.8728C61.94 23.6553 61.2504 21.8293 59.7923 20.2633C61.2902 20.1985 62.6633 19.7591 63.0258 18.0696C63.0678 17.8698 62.9747 17.6308 62.7328 17.6233C60.2451 17.552 57.9221 16.7777 55.9517 15.2679C55.668 15.0509 55.4342 14.8226 55.1964 14.6366C55.3275 14.4526 55.4413 14.2601 55.5403 14.0621C57.5283 11.6501 61.3738 7.63778 59.2679 4.72818C57.2619 1.95488 52.0899 1.81168 49.1609 2.87872C49.0974 2.90289 49.0828 2.95531 49.0997 3.00508C48.3943 3.33254 48.2182 3.90587 48.5688 5.34062C49.2097 7.95129 49.346 10.5899 48.9837 13.2363C48.9133 13.2342 48.8358 13.234 48.7299 13.2338C48.0723 13.2328 47.4757 13.1766 46.8449 12.9686C45.7059 12.5952 44.7564 11.8935 43.8209 11.1731C43.6241 11.0211 43.361 11.1557 43.2735 11.3544C42.8592 12.308 42.7567 13.3554 43.206 14.2671C41.9078 14.2943 40.6097 14.3216 39.3115 14.3488C38.8626 14.3584 38.6484 14.7941 38.8958 15.1533C39.1963 15.592 39.5289 15.9662 39.8862 16.291C36.8057 18.5136 36.5356 22.3299 35.9272 25.9082C35.4033 28.9819 34.3178 31.5717 31.2948 32.9494C28.8251 34.0751 26.0545 34.0987 23.401 34.2879C19.1548 34.591 15.3167 35.6203 12.3418 38.8338C9.8328 41.5491 8.54184 45.1684 8.87743 48.8312C9.23822 52.7695 11.3541 56.2989 14.5496 58.6175C17.8129 60.9855 22.6316 63.3709 26.7657 63.2953C31.2496 63.2138 35.9022 61.0789 39.9317 59.3189C41.9885 58.4194 44.096 57.4898 45.9208 56.1673C47.9734 54.684 49.5051 52.6273 51.0161 50.636ZM43.7522 12.0546C44.6792 12.8146 45.73 13.456 46.8964 13.7755C47.4478 13.9259 48.2398 14.1289 48.8674 13.9939C48.8581 14.0449 48.8528 14.0967 48.8436 14.1477C47.1022 14.1849 45.3604 14.2204 43.6208 14.2571C43.5127 13.5006 43.4942 12.7691 43.7522 12.0546ZM40.7951 15.753C40.6202 15.6121 40.4487 15.4628 40.2873 15.2941C43.3067 15.2181 46.3262 15.1421 49.3439 15.0666C49.6649 15.0588 49.8311 14.7928 49.8323 14.5457C49.8922 14.472 49.9365 14.3819 49.9536 14.2672C50.2187 12.3939 50.2724 10.4997 50.0141 8.62573C49.8801 7.66295 49.666 6.71186 49.3905 5.77878C49.3782 5.73904 49.3627 5.69451 49.345 5.64871C49.6537 6.07591 50.0503 6.47814 50.4781 6.79744C52.5836 8.36151 55.9838 8.64149 57.8018 6.4741C57.8636 6.39994 57.7636 6.32155 57.6908 6.3463C56.0341 6.89951 54.3138 7.47689 52.5699 6.92229C51.758 6.66474 51.0562 6.25862 50.4352 5.68548C50.2033 5.4717 49.7958 5.14333 49.6663 4.83724C49.4864 4.41167 49.7359 3.54991 50.1308 3.02561C51.2654 2.9367 52.4016 2.87541 53.5348 3.01115C54.8924 3.1739 57.6704 3.69589 58.433 5.00181C60.019 7.71542 56.5875 11.3984 54.6406 13.5641C54.0342 14.0599 53.4787 14.6488 52.9051 15.1472C52.4804 15.5149 51.9799 16.0614 51.4694 16.304C51.0193 16.5176 50.5682 16.4399 50.0778 16.3782C50.06 16.3754 50.0425 16.3949 50.0471 16.4124C50.3099 17.5918 51.5924 17.2752 52.3921 16.8894C53.2825 16.461 54.2619 15.7886 54.9603 14.9528C56.0371 15.6285 57.2796 16.9635 58.1411 17.3519C58.8033 17.6507 59.4856 17.875 60.1962 18.034C60.7389 18.1586 61.2888 18.2383 61.844 18.2737C61.0312 19.3209 60.0605 19.7386 58.9266 19.5283C58.6355 19.5133 58.3664 19.9054 58.6135 20.1339C60.0906 21.5062 60.9271 23.1291 61.1003 25.0815C59.7576 24.3 57.9413 23.2972 56.5742 23.522C55.2866 23.7333 53.8053 25.2702 52.6903 26.2529C52.2417 25.2719 51.7908 24.2896 51.3421 23.3086C51.2576 23.1233 51.0001 22.963 50.7876 23.0245C49.855 23.2995 48.262 24.1312 47.299 24.0536C44.9178 23.8627 46.2923 21.0718 47.4281 20.0313C47.8469 19.6484 47.4021 18.8402 46.86 19.1565C45.2486 20.0977 43.6021 20.8407 41.842 21.4248C42.042 19.922 42.6977 18.7367 43.9381 17.6705C44.2667 17.3898 44.0925 16.8207 43.6525 16.7924C42.8354 16.7381 42.1379 16.5495 41.5224 16.2272C41.4384 15.9222 41.1282 15.6692 40.7951 15.753ZM41.0701 56.8872C37.2107 58.6978 32.9402 60.6333 28.7053 61.3389C24.4833 62.0431 19.8157 59.9451 16.2624 57.8103C12.5179 55.5594 10.1649 51.6307 10.3249 47.2303C10.4868 42.7938 13.4479 38.5935 17.6056 36.897C21.3265 35.3789 25.4111 36.0134 29.264 35.1484C32.5376 34.415 35.334 32.6708 36.5801 29.4632C38.1825 25.3397 37.1455 20.0577 40.9742 17.0666C41.454 17.3254 41.9762 17.5153 42.5406 17.636C41.4015 18.8792 40.8091 20.3339 40.7459 22.1129C40.735 22.4092 41.0151 22.7561 41.3516 22.6564C42.7408 22.2427 44.0645 21.7303 45.3531 21.1206C44.7895 22.3901 44.7906 23.8102 45.4049 25.256C45.4887 25.4527 45.772 25.6249 45.9941 25.5572C46.8644 25.2892 49.1101 24.1382 49.9715 24.3323C51.2905 24.6285 51.54 26.131 52.0665 27.2429C52.2039 27.5358 52.5796 27.5996 52.8266 27.4038C53.6868 26.7236 54.6291 25.6947 55.6066 25.2023C56.834 24.5825 57.9148 24.6554 58.9567 25.0188C59.6038 26.6037 59.0713 29.4648 58.8208 30.9698C58.4903 32.9536 57.9315 34.9096 57.2178 36.7942C55.7258 40.7336 53.4527 44.3607 50.9849 47.7716C48.177 51.6495 45.4881 54.8158 41.0701 56.8872Z" fill="#212321"/>
<path d="M52.4657 42.8838C54.7278 38.7046 56.7681 33.2362 56.9628 28.4716C56.9707 28.2788 56.6848 28.2045 56.6193 28.4011C55.1723 32.7922 54.1695 37.3712 51.9959 41.4991C50.0664 45.161 47.3654 48.3604 44.2145 51.0556C41.0721 53.7468 37.429 55.9061 33.5083 57.2749C28.5075 59.0192 24.1381 58.0128 19.7695 55.2774C19.4915 55.1038 19.1636 55.4516 19.3786 55.7091C25.5892 63.1168 36.5683 58.4386 42.9706 53.7543C46.8987 50.8828 50.1605 47.1435 52.4657 42.8838Z" fill="#212321"/>
<path d="M25.7276 37.7129C22.0588 35.1319 17.0752 38.0771 14.4289 40.7444C14.2855 40.8886 14.4276 41.1634 14.6325 41.0591C16.4445 40.1548 18.165 39.0466 20.1013 38.4143C21.9594 37.8082 23.772 38.0924 25.6703 37.9766C25.8062 37.9689 25.8225 37.7796 25.7276 37.7129Z" fill="#212321"/>
<path d="M18.4354 41.3984C18.4579 41.3476 18.4228 41.2858 18.373 41.269C17.7865 41.0643 17.1062 41.516 16.6292 41.8357C15.9432 42.2945 15.3906 42.7724 15.0605 43.5358C14.9855 43.7106 15.209 43.9285 15.3816 43.8233C15.9927 43.4533 16.489 42.9697 17.0625 42.5498C17.5194 42.211 18.2067 41.9369 18.4354 41.3984Z" fill="#212321"/>
<path d="M39.7845 23.0482C39.7286 22.9003 39.4784 22.9474 39.4764 23.1049C39.4597 24.2774 39.4997 25.3639 39.2681 26.5237C39.1277 27.226 38.9334 27.9742 38.5669 28.5994C38.2745 29.0968 37.8798 29.4566 37.6662 29.9949C37.6061 30.1471 37.7732 30.2583 37.9078 30.2099C40.3242 29.356 40.5461 25.0328 39.7845 23.0482Z" fill="#212321"/>
<path d="M40.4624 28.6168C40.4612 28.5835 40.4206 28.5511 40.3903 28.5797C40.0766 28.8883 39.8268 29.253 39.5341 29.5841C39.2822 29.8689 38.9845 30.1378 38.936 30.5281C38.9191 30.6652 39.052 30.7611 39.1781 30.7448C39.984 30.6414 40.4863 29.3114 40.4624 28.6168Z" fill="#212321"/>
</g>
<defs>
<clipPath id="clip0">
<rect width="62" height="55" fill="white" transform="translate(0 15.7607) rotate(-14.7268)"/>
</clipPath>
</defs>
</svg>
