<svg width="124" height="89" viewBox="0 0 124 89" fill="none" xmlns="http://www.w3.org/2000/svg">
<g clip-path="url(#clip0)">
<path d="M115.007 56.5451C107.443 55.457 99.8211 54.8278 92.1853 54.7516C94.7246 53.6484 97.122 52.3352 99.4019 50.6846C99.7971 50.3974 99.6445 49.7673 99.1269 49.7611C94.3726 49.6962 89.7098 50.2645 85.1325 51.4098C89.6584 48.217 93.925 44.7453 97.2457 40.2395C97.5355 39.8468 96.9726 39.4797 96.628 39.6504C91.0616 42.4174 85.4866 45.1694 79.9121 47.9197C82.3089 38.8454 89.628 32.0537 92.2112 23.0168C92.3191 22.6424 91.9494 22.3799 91.6139 22.4461C85.9836 23.5575 82.5603 27.9931 79.446 32.4313C75.5842 37.9382 71.8411 43.5616 68.6079 49.4612C67.3361 48.1386 65.8225 47.0171 63.9494 46.8857C61.3074 46.7015 59.0182 48.7522 56.5649 49.4023C53.9855 50.0863 51.4175 50.2909 49.0586 51.6493C46.2599 53.2588 44.0443 55.6601 41.1872 57.2044C37.7567 59.0607 33.9469 60.0604 30.2721 61.3082C26.8693 62.463 23.627 63.9836 20.4857 65.7172C13.8586 69.3751 1.86268 78.8278 1.94785 78.7772C1.56629 79.3819 1.36064 80.0683 1.49613 80.8515C1.78567 82.5082 3.33559 83.0412 4.83375 82.9813C7.34423 82.8785 9.97051 81.5547 12.2965 80.7204C15.9322 79.4164 19.5655 78.226 23.4663 78.0514C26.8986 77.8969 30.318 78.5224 33.7507 78.2682C36.8929 78.0366 39.9697 77.2481 42.9814 76.3725C46.2581 75.422 49.5029 74.3049 52.864 73.6735C56.3879 73.0131 59.8253 73.3969 63.3703 73.2502C68.4693 73.0391 72.9528 70.6471 74.3582 65.5138C88.603 67.613 102.564 65.1408 115.282 58.3376C115.993 57.9586 115.85 56.6655 115.007 56.5451Z" fill="#FD7F06"/>
<path d="M114.977 53.308C107.413 52.2199 99.7909 51.5906 92.1551 51.5145C94.6945 50.4113 97.0918 49.0981 99.3717 47.4475C99.7686 47.1608 99.6143 46.5302 99.0967 46.5239C94.3424 46.4591 89.6792 47.0291 85.1023 48.1726C89.6282 44.9799 93.8948 41.5082 97.2155 37.0023C97.5053 36.6096 96.9424 36.2425 96.5978 36.4132C91.0314 39.1803 85.4564 41.9322 79.8819 44.6825C82.2787 35.6082 89.5978 28.8166 92.181 19.7797C92.2889 19.4052 91.9192 19.1427 91.5837 19.2089C85.9534 20.3204 82.5301 24.756 79.4158 29.1941C75.554 34.7011 71.8109 40.3245 68.5777 46.2241C67.3059 44.9015 65.7923 43.78 63.9192 43.6485C61.2772 43.4644 58.988 45.515 56.5347 46.1651C53.9553 46.8491 51.3873 47.0538 49.0284 48.4121C46.2297 50.0217 44.0141 52.4229 41.157 53.9672C37.7265 55.8235 33.9167 56.8233 30.2419 58.0711C26.8391 59.2259 23.5968 60.7464 20.4555 62.4801C13.8301 66.1385 1.83418 75.5912 1.91765 75.54C1.5361 76.1448 1.32875 76.8307 1.46593 77.6143C1.75548 79.2711 3.3054 79.8041 4.80355 79.7442C7.31404 79.6414 9.94031 78.3175 12.2663 77.4833C15.902 76.1793 19.5353 74.9889 23.4361 74.8143C26.8684 74.6598 30.2878 75.2852 33.7205 75.0311C36.8627 74.7995 39.9395 74.0109 42.9512 73.1354C46.2279 72.1849 49.4727 71.0677 52.8338 70.4363C56.3577 69.7759 59.7951 70.1597 63.3401 70.013C68.4391 69.802 72.9226 67.41 74.328 62.2766C88.5728 64.3759 102.534 61.9036 115.252 55.1004C115.964 54.7219 115.819 53.4301 114.977 53.308ZM69.9828 63.7531C70.0108 63.5541 70.0339 63.3665 70.0475 63.1998C70.1951 61.5831 69.8746 59.8543 68.8112 58.5879C68.7687 58.538 68.6855 58.5946 68.704 58.6524C69.2225 60.2132 69.5894 61.6902 69.2415 63.3327C69.0822 64.0882 68.5995 64.7682 68.2546 65.4575C67.9221 65.6896 67.5712 65.9093 67.181 66.1C64.558 67.3794 61.477 67.463 58.4175 67.5417C58.7628 67.0737 58.9867 66.4396 59.1569 65.9918C59.5136 65.0573 60.0726 63.5207 59.4916 62.59C59.3783 62.4079 59.122 62.4254 59.0149 62.6006C58.495 63.4407 58.672 64.6507 58.3462 65.6047C58.1378 66.216 57.6031 66.8996 57.466 67.5688C55.8072 67.6167 54.1713 67.7 52.6328 68.0098C51.2239 68.2923 49.8433 68.6697 48.4736 69.0865C49.5897 67.355 49.8215 64.5719 49.1209 63.0891C49.0834 63.0079 48.9641 63.0437 48.9439 63.116C48.4505 64.8033 48.8306 67.8238 47.5349 69.382C46.7231 69.6403 45.9158 69.9088 45.1093 70.1813C47.2982 66.3506 45.7769 59.3524 41.9982 57.3537C41.8045 57.2508 41.6173 57.4653 41.7161 57.647C42.7888 59.6324 44.2671 61.0904 44.8116 63.3695C45.4156 65.9064 44.6875 68.0633 44.2792 70.4598C43.6358 70.6761 42.9896 70.8898 42.3443 71.1001C42.5499 70.5842 42.7027 70.0482 42.7814 69.4842C42.8876 68.723 43.0222 67.801 42.4864 67.1858C42.3801 67.0637 42.2087 67.1556 42.1617 67.2786C41.905 67.9652 42.1621 68.7895 42.0855 69.5227C42.02 70.1574 41.8536 70.7549 41.6162 71.3327C40.2354 71.7699 38.8446 72.1772 37.4305 72.4981C37.2185 72.5461 37.0043 72.5826 36.792 72.6251C36.8745 72.512 36.9548 72.4002 37.0321 72.2929C37.6449 71.4333 38.128 70.5358 38.3091 69.4925C38.3396 69.3178 38.1027 69.2065 38.0086 69.3744C37.5316 70.2301 37.1044 71.1232 36.5054 71.9069C36.2623 72.2237 35.9561 72.5121 35.667 72.8107C33.3547 73.1246 31.0329 73.0731 28.7143 73.0171C28.7462 72.8827 28.7736 72.7452 28.7898 72.6083C28.8837 71.8128 28.7746 70.647 27.8305 70.4513C27.7013 70.4244 27.5926 70.5139 27.5876 70.6431C27.5659 71.2773 27.9346 71.7989 27.918 72.4345C27.9138 72.6328 27.8767 72.8184 27.8249 72.998C25.2439 72.9416 22.6663 72.9386 20.1151 73.4889C17.3061 74.0944 14.5788 75.2378 11.9051 76.2673C10.6271 76.7603 9.35188 77.2632 8.05593 77.7095C7.42322 77.927 6.76084 78.1724 6.10894 78.341C5.66806 78.4323 5.22548 78.5231 4.7846 78.6144C3.12547 76.667 3.03228 75.2083 4.49894 74.2273C4.6162 74.1202 4.63631 73.9826 4.60466 73.854C7.35736 72.063 10.0446 70.1667 12.8192 68.4017C12.8591 68.4418 12.9071 68.4788 12.9781 68.4985C14.8379 69.0507 15.6061 70.5723 16.1348 72.2865C16.2033 72.5051 16.5119 72.4895 16.5727 72.2778C17.1455 70.3316 15.3915 68.4304 13.5767 67.9324C14.0854 67.617 14.5893 67.2929 15.1041 66.9883C17.3061 65.6896 19.5583 64.5119 21.8548 63.43C22.0655 63.7335 22.3093 63.8068 22.6665 64.0097C23.236 64.3333 23.7816 64.73 24.2192 65.22C25.2632 66.3921 25.1929 67.751 25.7189 69.1144C25.78 69.2747 26.0184 69.3284 26.1062 69.1569C26.8085 67.7927 25.9762 65.9975 25.0753 64.907C24.5598 64.2846 23.4526 63.2346 22.4734 63.1452C24.0021 62.439 25.5435 61.7654 27.1158 61.1511C28.7281 62.0298 30.1557 62.9695 31.0535 64.7321C32.3471 67.2723 31.5688 69.4334 30.9505 71.962C30.8632 72.3149 31.3292 72.5915 31.5841 72.3107C34.7697 68.801 32.4285 62.5158 28.3066 60.69C28.9655 60.4436 29.6277 60.2053 30.2948 59.9757C30.8112 59.7966 31.3312 59.624 31.8507 59.453C32.3883 59.6625 33.7591 60.1385 33.9471 60.2488C35.0582 60.8919 35.9387 61.8135 36.5177 62.9541C37.5873 65.062 37.1535 67.1503 36.5426 69.3054C36.4908 69.4851 36.75 69.6407 36.8727 69.488C39.9437 65.6762 37.0704 60.4908 32.9567 59.0935C36.6307 57.9071 40.337 56.7425 43.603 54.6591C43.9727 54.9216 44.4117 55.0202 44.8576 55.2187C45.7266 55.6057 46.5122 56.1219 47.1703 56.8147C47.852 57.5341 48.339 58.4097 48.6954 59.3287C48.9846 60.0767 49.0549 60.878 49.4532 61.5747C49.5331 61.713 49.7781 61.7232 49.8456 61.566C50.617 59.7966 49.236 57.4914 48.0063 56.2531C47.2537 55.494 45.6698 54.2713 44.34 54.1587C45.7181 53.1947 46.989 52.0921 48.3456 51.1004C48.6719 51.2638 49.0055 51.3549 49.4408 51.5849C50.6986 52.2506 51.6861 53.3707 52.2429 54.6629C53.3006 57.1211 52.5117 59.5623 52.546 62.0965C52.5496 62.326 52.827 62.3507 52.9417 62.194C54.7237 59.779 54.5724 56.0351 53.0229 53.5107C52.3397 52.3973 50.7986 50.7658 49.275 50.4523C50.657 49.5855 52.0745 49.115 53.5554 48.7438C53.6265 48.7635 53.7021 48.7864 53.7806 48.8119C54.381 49.0117 54.9298 49.3839 55.3893 49.8147C56.2585 50.6262 56.6158 51.7123 57.1579 52.7302C57.2465 52.8964 57.4914 53.0443 57.685 53.0166C57.7991 52.9994 57.8916 52.9943 57.9866 52.9283C58.2011 52.7794 58.3332 52.5078 58.2475 52.2464C57.8123 50.9227 56.9672 49.5666 55.833 48.7249C55.673 48.6059 55.4612 48.4763 55.2228 48.3573C55.6738 48.2561 56.1285 48.1542 56.5917 48.0419C56.5977 48.0399 56.6037 48.038 56.6114 48.0365C58.7026 49.0667 60.3502 50.5319 61.1192 52.908C62.0227 55.7042 61.1888 58.4901 61.3781 61.325C61.411 61.8221 62.0645 61.9949 62.3225 61.5589C64.7392 57.4924 63.6124 49.2473 58.8826 47.1634C60.3364 46.4708 61.7678 45.6686 63.2705 45.5664C66.6058 45.3414 68.8665 49.6181 70.1312 52.2754C71.816 55.826 72.2618 60.5805 69.9828 63.7531ZM74.7086 60.0519C74.7642 59.2367 74.73 58.4237 74.624 57.6197C77.3794 58.2671 80.3413 58.3952 83.1186 58.4139C86.3851 58.4363 90.2612 58.6647 93.3201 57.4033C93.608 57.2857 93.6921 56.7741 93.3035 56.7167C90.1629 56.2487 86.8255 56.9392 83.646 56.9319C80.5915 56.9268 77.5047 56.5862 74.4497 56.6027C74.2699 55.7365 73.9965 54.8859 73.6695 54.0512C74.6678 53.8231 75.6781 53.2374 76.5934 52.8756C77.7973 52.4 79.0216 52.0081 80.1896 51.4517C80.3616 51.3708 80.2704 51.0698 80.0821 51.0917C78.7108 51.2523 77.406 51.6979 76.1334 52.2306C75.2899 52.5834 74.2295 52.9756 73.4803 53.5851C73.2995 53.1611 73.1088 52.7398 72.8997 52.3261C77.3485 49.3187 81.9243 46.7783 86.619 44.1186C86.7469 44.0453 86.6541 43.8418 86.513 43.8841C81.5017 45.4164 76.6642 48.3863 72.6466 51.8276C71.9823 50.5943 71.1979 49.4256 70.36 48.338C72.5602 44.7155 74.2708 40.8225 76.6662 37.2906C79.4281 33.215 82.6148 29.5769 85.9078 25.9302C86.0497 25.7739 85.828 25.5689 85.6733 25.7054C82.0997 28.8549 79.0002 32.6116 76.3247 36.5407C73.9499 40.0312 71.4003 43.9138 70.1069 48.01C70.0351 47.9211 69.9668 47.8259 69.8962 47.7392C69.6142 47.3904 69.3176 47.0358 69.0057 46.6896C72.1062 41.9084 75.1135 37.0687 78.3467 32.3734C81.649 27.5741 85.0794 21.9543 91.005 20.3319C88.1625 29.2858 80.8176 36.1047 78.7788 45.3984C78.6926 45.7933 79.0986 46.0497 79.4389 45.8814C84.7054 43.2685 89.9744 40.6598 95.2483 38.0598C91.5964 42.4136 87.0218 45.7742 82.3003 48.956C81.8627 49.2513 82.1551 49.9748 82.6876 49.8165C87.5404 48.3689 92.459 47.6343 97.499 47.5374C94.9856 49.2281 92.3122 50.5969 89.3927 51.5272C88.8291 51.7058 88.9778 52.5071 89.5533 52.5277C96.906 52.8026 104.2 53.4927 111.448 54.687C100.023 59.621 87.0593 61.4933 74.7086 60.0519Z" fill="#212321"/>
</g>
<defs>
<clipPath id="clip0">
<rect width="105" height="85" fill="white" transform="translate(22.796) rotate(15.5565)"/>
</clipPath>
</defs>
</svg>
