<svg width="82" height="23" fill="none" xmlns="http://www.w3.org/2000/svg"><path d="M25.84 0h2.308l2.63 8.338L33.392 0h2.322l-3.629 10.849h-2.631L25.84 0zM43.852 6.973c0 2.31-1.692 4.092-3.754 4.092-1.123 0-1.938-.418-2.492-1.132v4.014H35.62V3.1h1.985v.915c.554-.713 1.369-1.131 2.492-1.131 2.062-.002 3.754 1.78 3.754 4.09zm-1.984 0c0-1.302-.909-2.185-2.139-2.185-1.215 0-2.123.885-2.123 2.185 0 1.303.908 2.185 2.123 2.185 1.23.002 2.139-.882 2.139-2.185zM49.16 2.945v2.233c-1.032-.124-2.34.34-2.34 1.968v3.704h-1.984V3.1h1.985v1.334c.399-1.056 1.368-1.489 2.338-1.489zM49.204 6.974c0-2.31 1.8-4.092 4.061-4.092 2.26 0 4.076 1.783 4.076 4.092 0 2.308-1.815 4.091-4.076 4.091-2.26 0-4.061-1.78-4.061-4.091zm6.152 0c0-1.256-.908-2.14-2.093-2.14-1.168 0-2.076.884-2.076 2.14 0 1.255.908 2.14 2.076 2.14 1.187 0 2.093-.885 2.093-2.14zM63.11 10.849L60.311 7.33v3.519h-1.984V0h1.984v6.51l2.646-3.41h2.369l-3.091 3.828 3.183 3.92H63.11zM65.831 9.733c0-.727.585-1.317 1.307-1.317.723 0 1.308.59 1.308 1.317 0 .728-.585 1.317-1.308 1.317-.722 0-1.307-.59-1.307-1.317zM74.015 2.945v2.233c-1.031-.124-2.339.34-2.339 1.968v3.704h-1.984V3.1h1.984v1.334c.401-1.056 1.37-1.489 2.339-1.489zM81.814 3.1v7.749h-1.985v-.868c-.462.697-1.262 1.085-2.291 1.085-1.63 0-2.907-1.147-2.907-3.208V3.101h1.984v4.51c0 1.053.63 1.595 1.522 1.595.97 0 1.692-.573 1.692-1.921V3.101h1.985zM32.12 21.202h-1.229V16.1H28.69v5.102h-1.23v-6.287h4.66v6.287zM35.365 20.277c.447 0 .802-.19.999-.45l.927.538c-.42.61-1.089.961-1.944.961-1.498 0-2.443-1.033-2.443-2.37 0-1.338.954-2.371 2.353-2.371 1.32 0 2.255 1.051 2.255 2.37 0 .172-.019.324-.045.477h-3.362c.164.593.655.845 1.26.845zm1-1.742c-.142-.647-.623-.907-1.104-.907-.616 0-1.033.332-1.168.907h2.273zM42.999 18.957c0 1.338-.98 2.37-2.175 2.37-.65 0-1.123-.242-1.444-.655V23h-1.15v-6.287h1.15v.53c.32-.413.793-.656 1.444-.656 1.195-.002 2.175 1.03 2.175 2.37zm-1.15 0c0-.754-.526-1.265-1.24-1.265-.704 0-1.23.511-1.23 1.265 0 .755.526 1.266 1.23 1.266.714 0 1.24-.511 1.24-1.266zM45.951 20.277c.446 0 .802-.19.998-.45l.927.538c-.42.61-1.088.961-1.943.961-1.498 0-2.443-1.033-2.443-2.37 0-1.338.953-2.371 2.353-2.371 1.32 0 2.256 1.051 2.256 2.37 0 .172-.018.324-.045.477h-3.361c.161.593.65.845 1.258.845zm.998-1.742c-.143-.647-.624-.907-1.104-.907-.616 0-1.033.332-1.169.907h2.273zM51.585 21.203l-1.622-2.04v2.04h-1.15V16.71h1.15v1.977l1.534-1.977h1.373l-1.792 2.218 1.845 2.274h-1.338zM58.175 18.957c0 1.338-.98 2.37-2.174 2.37-.651 0-1.124-.242-1.445-.655V23h-1.15v-6.287h1.15v.53c.321-.413.794-.656 1.445-.656 1.194-.002 2.174 1.03 2.174 2.37zm-1.15 0c0-.754-.525-1.265-1.24-1.265-.703 0-1.229.511-1.229 1.265 0 .755.526 1.266 1.23 1.266.714 0 1.24-.511 1.24-1.266zM61.127 20.277c.447 0 .802-.19.999-.45l.927.538c-.42.61-1.089.96-1.944.96-1.498 0-2.443-1.032-2.443-2.37 0-1.337.954-2.37 2.353-2.37 1.32 0 2.257 1.051 2.257 2.37 0 .172-.019.324-.045.477h-3.362c.162.593.65.845 1.258.845zm-1.614-4.644c0-.332.276-.61.606-.61.33 0 .597.278.597.61a.6.6 0 11-1.203 0zm2.613 2.902c-.143-.647-.624-.907-1.105-.907-.616 0-1.033.332-1.168.907h2.273zm-.919-2.902c0-.332.276-.61.606-.61.33 0 .597.278.597.61a.6.6 0 11-1.203 0zM63.722 18.957c0-1.337.998-2.37 2.353-2.37.873 0 1.63.468 1.996 1.158l-.99.584c-.178-.37-.562-.602-1.017-.602-.687 0-1.194.511-1.194 1.23 0 .71.507 1.223 1.194 1.223.465 0 .847-.225 1.025-.594l.999.575a2.279 2.279 0 01-2.015 1.167c-1.353 0-2.351-1.033-2.351-2.37zM72.335 17.826h-1.391v3.378h-1.15v-3.378h-1.41v-1.113h3.951v1.113zM72.452 18.957c0-1.337 1.043-2.37 2.353-2.37a2.345 2.345 0 012.362 2.37 2.345 2.345 0 01-2.362 2.37c-1.312 0-2.353-1.032-2.353-2.37zm3.566 0c0-.727-.526-1.238-1.213-1.238-.678 0-1.204.51-1.204 1.238s.526 1.24 1.204 1.24c.687 0 1.213-.512 1.213-1.24zM80.662 21.203l-1.623-2.04v2.04h-1.15V16.71h1.15v1.977l1.535-1.977h1.373l-1.793 2.218L82 21.203h-1.338zM16.746.026H4.266C1.919.026 0 1.96 0 4.322v12.574c0 2.362 1.92 4.296 4.264 4.296h12.48c2.344 0 4.263-1.934 4.263-4.296V4.322C21.01 1.96 19.09.026 16.746.026z" fill="#043E44"/><path d="M10.606 7.4L7.423 10.61l3.183 3.212a4.476 4.476 0 006.367 0 4.565 4.565 0 000-6.421 4.474 4.474 0 00-6.367-.002zM4.843 10.612L1.659 7.4a4.39 4.39 0 00-.755-.608v7.637c.268-.171.522-.37.755-.608l3.184-3.21zM9.315 15.122l-3.183-3.21-3.184 3.21a4.573 4.573 0 00-1.252 3.955 3.347 3.347 0 002.568 1.206h5.935a4.566 4.566 0 00-.884-5.161zM2.948 6.1l3.184 3.21L9.315 6.1a4.571 4.571 0 00.88-5.164H4.264a3.35 3.35 0 00-2.57 1.205c-.223 1.394.19 2.886 1.254 3.958z" fill="#fff"/></svg>