<svg viewBox="0 0 1920 798" fill="none" xmlns="http://www.w3.org/2000/svg"><g clip-path="url(#prefix__clip0)"><path d="M1596.83 184.182c15.29-11.185 35.74-22.712 54.46-26.258a.933.933 0 00.17-.124c1.93-1.211 4.09 1.504 2.57 3.237-14.05 16.092-25.33 31.754-26.8 54.464-1.07 16.629 4.09 33.749-.14 50.1-5.1 19.762-28.59 48.417-50.98 48.995-.35.768-.72 1.532-1.09 2.296-.02.435-.2.792-.49 1.041-9.7 19.852-24.02 38.003-44.97 44.024-1.94.557-3.26-2.301-1.5-3.392 19.12-11.991 32.03-27.295 41.42-45.606-15.94-27.943-20.99-62.55-5.95-91.441 7.89-15.152 19.83-27.491 33.3-37.336z" fill="#8DC63F"/></g><g clip-path="url(#prefix__clip1)"><path d="M1538.31 69.31c4.79-10.829 12.28-23.43 21.36-31.121.02-.04.04-.08.05-.12.67-1.258 2.7-.428 2.43.987-2.58 13.145-3.77 25.203 2.6 38.116 4.68 9.454 12.89 17.269 15.76 27.54 3.46 12.412-.28 35.347-12.29 42.535.05.528.09 1.06.13 1.592.13.245.14.498.06.724.99 13.87-1.07 28.227-10.58 37.959-.88.901-2.5-.262-1.89-1.399 6.63-12.451 8.82-24.809 8.15-37.741-17.51-10.444-31.19-27.889-32.13-48.36-.48-10.739 2.12-21.175 6.35-30.712z" fill="#8DC63F"/></g><path d="M1441.52 500.712c-3.15-11.854-11.57-22.667-22.61-28.167-14.24-7.088-30.78-3.741-46.14-6.56 5.39-3.266 11.34-5.88 16.73-8.317 6.92-3.135 15.74-5.325 20.44-11.873 8.41-11.701-2.71-23.356-13.55-28.271-21.45-9.727-40.7 10.222-50.43 32.229-.22-30.858-36.08-42.661-62.21-36.755-39.16 8.857-66.67 41.11-85.1 74.779-8.73 15.94-16.45 32.775-19.84 50.734-3.58 18.912 1.76 35.414 2.2 54.187.32 13.788-.87 29.18 11.27 38.813 4.85 3.844 10.74 5.219 16.66 6.454 4.88 5.805 13.28 7.008 21.46 9.36 3.36 4.828 6.7 9.59 9.66 14.791 1.58 2.787 2.57 5.687 5.01 7.922 4.86 4.437 11.52 4.522 17.6 3.109 13.26 3.547 28.91 2.676 38.73-.779 37.16-13.068 70.08-47.537 94.78-76.864 14.18-16.827 27.16-34.923 37.5-54.371 6.65-12.503 11.64-26.183 7.84-40.421z" fill="#FFC737"/><path d="M1394.78 576.525c14.12-16.883 27.03-35.023 37.3-54.508 6.6-12.529 11.53-26.216 7.69-40.445-3.2-11.844-11.66-22.628-22.73-28.086-14.27-7.038-30.8-3.626-46.16-6.386 5.38-3.287 11.32-5.92 16.69-8.378 6.91-3.154 15.73-5.384 20.4-11.948 8.36-11.733-2.8-23.347-13.65-28.221-21.49-9.646-40.67 10.373-50.31 32.417-.33-30.864-36.24-42.533-62.34-36.536-39.13 9.005-66.52 41.357-84.82 75.095-8.67 15.973-16.32 32.836-19.65 50.809-3.5 18.922 1.89 35.404 2.4 54.173.38 13.787-.76 29.186 11.42 38.775 4.86 3.826 10.76 5.181 16.68 6.393 4.9 5.789 13.3 6.958 21.49 9.279 3.38 4.818 6.73 9.566 9.71 14.756 1.6 2.78 2.59 5.677 5.05 7.904 4.88 4.417 11.53 4.48 17.61 3.044 13.27 3.497 28.92 2.572 38.73-.922 37.1-13.214 69.89-47.8 94.49-77.215zm-6.5-171.898c4.15.114 7.58 1.625 10.29 4.536 4.63 2.103 4.94 5.526.92 10.27-2.74 9.128-2.46 7.769-9.96 10.955-14.33 6.079-46.34 18.196-42.24 38.676-2.96-1.391-5.26-3.649-7.43-6.534.06-.078.12-.152.16-.238 6.59-15.398 8.48-31.37 19.89-44.692 7.59-8.866 16.51-16.21 28.37-12.973zm-65.23 223.549c-12.63 8.951-27.71 18.344-43.78 18.779 11.72-7.447 21.51-18.829 24.74-31.503.43-1.692-1.55-3.167-2.95-1.913-11.99 10.712-21.97 23.901-36.97 30.857-.01.003-.01.005-.03.013-5.28-2.187-9.56-5.623-13.73-9.792 1.08.052 2.14.076 3.2.045 15.9-.418 28.66-10.574 39.28-21.435 25.59-26.171 53.88-62.433 61.65-98.894.06-.249-.3-.478-.44-.212-12.94 23.989-27.41 47.075-44.49 68.367-8.98 11.188-18.52 23.334-29.65 32.596-8.01 6.669-17.25 12.297-28.09 12.074-3.49-.075-6.4-.864-9.12-1.994-4.52-4.146-9.95-7.457-15.32-9.852-3.23-1.44-6.5-2.283-9.8-3.045-2.94-3.549-4.97-8-5.15-12.128-.33-7.981 2.33-16.847 3.24-24.811 1.23-10.687 2.58-21.33 3.23-32.073.01-.278-.41-.36-.49-.089-4.05 13.008-7.42 26.352-10.58 39.618-1.87 7.862-4.82 17.085-4.23 25.336-10.75-5.016-14.02-13.648-14.34-26.117-.12-5.083-.63-10.113-1.23-15.119.37-2.227.7-4.238.88-5.811 1.31-10.743 3.63-21.436 6.78-31.789 5.99-19.755 16.29-37.019 26.85-54.568.87-1.45-1.1-3.35-2.37-2.018-17.59 18.444-28.61 43.772-33.9 68.513-.28 1.327-.49 2.688-.75 4.025-.17-2.231-.3-4.466-.35-6.706-.3-15.469 4.39-30.825 10.46-44.889 13.41-31.037 33.44-62.99 63.41-80.309 13.4-7.736 29.42-13.302 45.12-11.55 21.97 2.457 26.47 18.459 38.17 33.381-2.2 5.816-3.71 11.638-4.41 16.998-1.65-6.971-4.42-13.836-9.63-17.201-1.02-7.004-.27-13.516-8.46-17.084-9.46-4.123-21.15 2.592-29.01 7.035-24.58 13.878-44.24 37.088-49.93 65.03-.45 2.19 2.38 3.112 3.31 1.07 9-19.949 20.7-38.397 38.39-51.788 6.27-4.754 20.46-15.31 29.25-15.052 6.84.195 8.83 4.648 11.01 9.136-1.44.499-2.32 2.267-1.05 3.654 2.14 2.334 3.91 4.578 5.44 6.94-4.88-5.343-10.88-8.486-19.36-6.615-2.15.476-2.39 3.61-.23 4.304 17.7 5.656 18.57 27.46 34.22 35.485 14.31 7.341 30.36-5.037 44.79-6.194 1.56-.124 1.22-2.456-.19-2.61-8.99-.985-15.91-.05-24.57 1.643-2.19.43-4.15.648-5.93.697 2.26-1.358 4.46-2.877 6.73-3.936 5.55-2.604 11.69-4.383 17.64-5.885.53-.135.87-.445 1.07-.817 9.24.844 18.01 5.432 22.48 14.115 6.83 13.24.78 28.543-6.36 40.031-11.11 17.89-26.21 33.031-37.59 50.759-1.16 1.818 1.43 4.218 3 2.549 12.71-13.424 24.32-28.499 35.19-43.43 8.08-11.119 14.85-23.922 13.93-38.114-1.17-18.01-16.54-30.377-32.89-28.445-6.78-.724-13.06.613-19.1 3.979-1.55.866-3.22 1.888-4.8 3.055 1.97-5.92 6.07-10.517 11.11-14.297 20.53 12.22 48.3-.524 61.78 26.834 13.57 27.578-19.63 64.511-35.67 84.779-19.83 25.06-43.29 47.857-69.41 66.388z" fill="#212321"/><path d="M1247.27 532.543c5.02-11.256 7-23.142 11.22-34.631 5.18-14.11 15.08-23.621 23.85-35.372.73-.969-.55-2.381-1.59-1.778-25.57 14.753-34.92 43.16-36.87 71.154-.14 2.09 2.63 2.328 3.39.627z" fill="#212321"/><path d="M367.289 358.03c-16.612-6.702-38.068-12.643-56.15-11.909a1.332 1.332 0 01-.184-.074c-2.055-.668-3.438 2.166-1.652 3.38 16.572 11.277 30.486 22.746 36.907 42.445 4.697 14.426 3.758 30.565 11.311 44.095 9.125 16.352 37.213 36.75 58.018 32.648a114.29 114.29 0 001.513 1.798c.116.379.369.655.691.815 13.384 15.486 30.66 28.522 51.348 29.51 1.916.091 2.497-2.698.636-3.298-20.341-6.62-35.672-17.44-48.432-31.633 8.485-27.893 5.422-59.41-14.915-81.756-10.675-11.717-24.454-20.125-39.091-26.021z" fill="#8DC63F"/><path d="M383.889 351.277c-16.612-6.702-38.068-12.642-56.15-11.908a1.22 1.22 0 01-.184-.075c-2.055-.668-3.437 2.167-1.652 3.381 16.572 11.277 30.486 22.746 36.907 42.445 4.697 14.426 3.758 30.565 11.311 44.095 9.126 16.352 37.213 36.75 58.018 32.648.494.603 1.004 1.201 1.513 1.798.116.379.369.654.691.815 13.384 15.493 30.66 28.522 51.348 29.51 1.916.091 2.497-2.698.636-3.298-20.341-6.62-35.672-17.441-48.431-31.633 8.484-27.893 5.421-59.41-14.916-81.756-10.674-11.717-24.455-20.118-39.091-26.022zm31.362 27.276c21.086 21.375 20.043 48.596 18.731 75.97-2.778-3.374-5.427-6.942-7.998-10.64 2.921-10.567 1.361-21.645-2.319-32.028.694-1.247 1.152-2.693 1.55-3.94.628-1.984 1.26-4.43.111-6.329-.217-.348-.691-.414-.945-.063-1.129 1.577-1.138 3.714-1.459 5.57a14.654 14.654 0 01-.422 1.668c-2.148-5.381-4.815-10.536-7.672-15.283-.425-.704-1.565-.397-1.41.476 1.602 9.101 5.149 17.208 7.925 25.953 1.997 6.283 1.24 12.821 1.478 19.259a231.313 231.313 0 01-6.213-10.022c-6.091-10.436-11.847-21.293-18.302-31.628.783-4.964-.432-10.532-1.692-15.204-.059-.223-.126-.447-.185-.671 1.021-1.66 1.431-4.077 1.73-5.731.495-2.751.356-5.246-1.19-7.613-.245-.381-1.018-.515-1.13.073-.493 2.418-.416 4.728-.525 7.19-.024.512-.115 1.026-.223 1.547-1.31-4.004-3.068-7.996-5.883-10.874-.53-.538-1.646-.146-1.42.694 1.472 5.481 4.536 10.402 6.027 15.945.92 3.416 1.312 7.003 1.868 10.527-7.142-10.908-15.259-21.073-25.672-29.303-.308-.243-.677.221-.448.502 15.25 18.565 26.208 39.451 38.007 59.962-7.681-4.437-12.754-11.443-19.289-17.788-.743-.721-2.091.024-1.574 1.037 1.613 3.203 3.604 6.329 5.927 9.17a16.356 16.356 0 01-2.105-.898c-2.337-1.249-4.524-3.588-7.083-4.211-.06-.012-.109.037-.083.092 1.142 2.707 4.917 5.241 7.346 6.776 1.647 1.038 3.672 2.089 5.679 2.27 3.834 3.574 8.354 6.315 13.481 7.531 4.078 6.999 8.297 13.941 12.863 20.705a174.26 174.26 0 006.546 9.042c-13.07-2.493-24.061-7.163-35.339-15.595-16.387-12.236-19.522-27.028-22.813-45.918-3.572-20.504-14.986-42.089-33.537-52.918 11.226 3.374 23.178 5.262 34.18 9.088 16.08 5.589 31.418 13.381 43.482 25.61z" fill="#212321"/><path d="M92.098 146.011c-22.31-13.037-51.692-26-77.654-28.731a2.039 2.039 0 01-.248-.145c-2.792-1.382-5.359 2.374-3.064 4.48 21.297 19.559 38.76 38.837 43.807 68.295 3.69 21.571-1.023 44.41 6.93 65.3 9.608 25.246 45.434 60.229 75.986 58.722.579.965 1.182 1.924 1.784 2.883a1.92 1.92 0 00.816 1.307c15.867 24.901 37.801 47.118 67.123 52.851 2.714.53 4.127-3.329 1.596-4.575-27.65-13.699-47.269-32.347-62.516-55.271 17.94-38.037 20.153-83.662-4.203-119.807-12.788-18.954-30.698-33.834-50.357-45.309z" fill="#8DC63F"/><path d="M112.375 141.378c-22.31-13.037-51.692-25.999-77.655-28.731a2.039 2.039 0 01-.247-.145c-2.793-1.382-5.359 2.374-3.064 4.481 21.297 19.558 38.76 38.836 43.807 68.294 3.69 21.571-1.023 44.411 6.93 65.3 9.607 25.246 45.434 60.23 75.986 58.722.579.965 1.181 1.924 1.784 2.883.086.565.389 1.012.816 1.308 15.865 24.911 37.801 47.117 67.122 52.851 2.715.53 4.128-3.329 1.596-4.576-27.649-13.699-47.269-32.346-62.515-55.27 17.939-38.038 20.153-83.663-4.204-119.808-12.787-18.954-30.7-33.823-50.356-45.309zm39.062 45.485c25.629 34.915 18.453 73.549 10.859 112.346-3.259-5.396-6.295-11.042-9.192-16.858 6.378-14.472 6.465-30.609 3.384-46.198 1.251-1.635 2.207-3.603 3.035-5.299 1.311-2.702 2.724-6.06 1.481-9.011-.237-.543-.899-.736-1.335-.288-1.941 2.015-2.4 5.064-3.247 7.646a21.255 21.255 0 01-.951 2.293c-1.941-8.129-4.67-16.045-7.756-23.417-.46-1.095-2.151-.894-2.113.384.386 13.325 3.753 25.638 5.889 38.699 1.537 9.386-.909 18.558-1.915 27.798a333.465 333.465 0 01-6.774-15.603c-6.513-16.169-12.459-32.867-19.514-48.967 2.156-6.922 1.585-15.123.764-22.054-.038-.332-.086-.666-.124-.997 1.805-2.157 2.894-5.52 3.667-7.819 1.281-3.822 1.604-7.413-.109-11.115-.269-.595-1.344-.947-1.628-.131-1.209 3.348-1.581 6.661-2.251 10.152-.141.726-.379 1.441-.641 2.161-1.033-5.988-2.709-12.053-6.125-16.749-.643-.879-2.318-.553-2.172.694.956 8.131 4.301 15.795 5.27 24.018.6 5.067.409 10.269.466 15.415-7.914-17.061-17.375-33.266-30.517-47.189-.39-.411-1.013.173-.744.623 17.886 29.684 29.162 61.785 41.716 93.526-10.036-7.939-15.812-18.998-23.814-29.42-.91-1.184-2.989-.402-2.464 1.152 1.633 4.909 3.822 9.786 6.545 14.327-.981-.521-1.931-1.079-2.817-1.723-3.075-2.27-5.707-6.066-9.23-7.49-.083-.03-.163.03-.137.114 1.063 4.102 5.922 8.509 9.069 11.207 2.133 1.825 4.804 3.749 7.631 4.426 4.725 5.903 10.603 10.76 17.667 13.568 4.358 10.841 8.929 21.631 14.033 32.239a251.83 251.83 0 007.452 14.274c-18.132-6.289-32.844-15.252-47.18-29.643-20.83-20.89-22.215-42.658-22.964-70.306-.813-30.013-12.594-63.207-36.809-82.539 15.317 7.162 31.982 12.354 46.885 20.113 21.784 11.338 42.047 25.665 56.71 45.641z" fill="#212321"/><path d="M1264.05 637.98c.82-.544 1.69-1.139 2.67-2.063 4.58-4.231 9.05-7.052 13.09-11.936 1.36-1.625-.39-4.232-2.4-3.795-12.05 2.771-23.55 2.929-35.76 2.657 3.05-5.858 5.46-11.993 6.82-17.636 2.61-10.74-1.04-15.845-11.18-19.64-6.76-2.55-14.83-7.705-17.82 1.195-2.51 7.325-3.44 16.061-4.91 23.657-.6 3.309-1.25 6.623-1.8 9.982-8.88-11.342-18.97-19.805-31.88-26.643-1.64-.866-3.98-.272-4.09 1.898-.38 8.9 1.63 16.769 5.94 23.334-12.81-5.047-25.56-5.155-37.45-1.733-17.55-24.637-49.98-45.474-75.98-26.643.11-.816.22-1.739.22-2.928-.17-5.428.59-9.931-.22-15.359-.27-1.847-3.05-2.226-3.87-.651-5.18 9.387-11.77 16.984-19.03 24.688-2.02-5.37-4.68-10.475-7.57-14.65-5.5-7.919-10.95-8.52-19.3-4.181-5.57 2.929-13.64 5.149-9.55 12.259 3.33 5.857 8.45 11.557 12.6 16.876 1.79 2.335 3.59 4.669 5.5 6.946-12.54-.816-23.98.816-35.922 5.212-1.474.544-2.453 2.385-1.093 3.745 5.56 5.427 11.885 8.685 18.695 9.716-34.015 17.034-35.864 62.502-16.35 93.218 24.58 38.529 67.7 49.813 107 28.92 11.39 16.927 29.11 30.059 51.95 37.118 50.04 15.409 111.69 3.15 138.34-45.417 17.83-32.563 18.6-98.437-26.65-108.146z" fill="#FD2A53"/><path d="M1255.97 624.215c.82-.544 1.69-1.138 2.67-2.062 4.58-4.232 9.05-7.053 13.08-11.936 1.37-1.626-.38-4.232-2.39-3.795-12.05 2.77-23.55 2.928-35.76 2.656 3.05-5.857 5.45-11.993 6.81-17.635 2.62-10.741-1.03-15.845-11.17-19.641-6.76-2.549-14.83-7.704-17.83 1.196-2.51 7.325-3.43 16.06-4.9 23.657-.6 3.308-1.25 6.623-1.8 9.982-8.88-11.342-18.97-19.805-31.89-26.643-1.63-.867-3.97-.272-4.08 1.898-.38 8.9 1.63 16.768 5.94 23.334-12.81-5.047-25.57-5.155-37.45-1.733-17.55-24.644-49.99-45.48-75.99-26.649.11-.816.22-1.74.22-2.929-.17-5.427.59-9.931-.22-15.358-.27-1.847-3.05-2.227-3.87-.652-5.18 9.387-11.77 16.984-19.02 24.689-2.02-5.371-4.69-10.475-7.58-14.65-5.51-7.926-10.96-8.521-19.3-4.181-5.56 2.928-13.626 5.155-9.53 12.265 3.32 5.857 8.45 11.557 12.59 16.876 1.8 2.334 3.6 4.668 5.5 6.946-12.53-.816-23.978.816-35.918 5.212-1.474.544-2.453 2.384-1.093 3.744 5.56 5.428 11.882 8.685 18.691 9.716-34.011 17.041-35.867 62.509-16.353 93.225 24.583 38.529 67.703 49.813 107.003 28.92 11.39 16.927 29.11 30.059 51.94 37.118 50.05 15.409 111.69 3.15 138.35-45.417 17.83-32.57 18.59-98.443-26.65-108.153zm-82.03-37.712c11.06 6.509 20.22 14.65 28.13 25.068.54.759 1.2.974 1.9.974-.27 2.549-.38 5.155-.21 7.704.05.437.59.38.76.057 3.65-7.16 5.18-15.409 6.92-23.278 1.36-6.458 1.96-23.062 8.88-23.277 7.42-.215 14.99 8.628 15.32 15.301-2.07-.652-4.2-1.088-6.21-2.005-2.67-1.196-4.91-2.929-7.47-4.181-.76-.38-1.31.544-1.03 1.138 2.39 4.289 8.66 8.464 13.95 9.28-.82 2.549-2.18 5.263-3.11 7.268-4.2 9.494-10.74 16.44-16.35 25.017-1.15 1.79 1.03 3.745 2.72 2.499 5.56-4.017 10.36-10.039 14.17-16.662 10.2 2.657 20.23 2.657 30.47 1.139-4.9 4.288-10.3 7.16-16.95 9.336-1.36.437-1.86 2.334-1.31 3.53 3.49 7.325 7.63 12.695 13.63 17.363-9.98 3.58-20 .816-27.09-7.919-1.14-1.411-3.81-1.518-4.8.164-3.87 6.674-8.01 12.423-12.97 17.908.44-4.561.82-9.065 1.2-13.619.22-2.385-2.83-4.017-4.69-2.385-8.77 7.49-18.1 11.614-29 13.075 3.11-8.413 8.18-14.542 16.13-19.698 2.51-1.625.11-4.775-2.18-4.611-10.63.652-21.09 1.303-30.47-4.181 8.51-.164 16.63-1.303 25.14-3.637 1.96-.544 3.1-3.416 1.03-4.719-10.46-6.357-15.92-15.257-16.51-26.649zm-184.959 21.595c10.682-3.416 21.309-4.611 32.709-3.688.82.108 1.36-.215 1.74-.651 1.52 1.625 3.16 3.2 4.9 4.611.33.215.6-.164.49-.436-2.56-6.566-7.08-12.316-11.23-17.958-3.38-4.669-13.89-14.65-10.02-19.262 4.14-4.94 14.33-4.775 18.86-1.081-1.64.974-3.11 2.113-4.91 2.878-2.29 1.031-4.74 1.518-7.08 2.385-.66.272-.33 1.195.16 1.353 4.2.924 10.58-.702 14.17-3.687 1.2 2.062 2.13 4.503 2.94 6.243 3.77 8.248 4.53 16.497 6.87 25.068.49 1.847 3.05 1.575 3.22-.272.54-5.972-.55-12.537-2.67-18.831 7.63-5.099 13.46-11.614 18.37-19.103 0 5.699-1.25 10.854-3.7 16.44-.49 1.138.48 2.498 1.52 2.821 6.81 2.005 12.75 2.441 19.3 1.303-3.49 8.52-11.06 13.404-20.93 12.916-1.59-.056-3.16 1.576-2.62 3.201 2.07 6.351 3.43 12.373 4.14 18.774-2.72-2.878-5.45-5.75-8.18-8.628-1.47-1.575-4.3-.544-4.3 1.626-.22 9.981-2.9 18.394-8.29 26.32-3.65-6.888-4.74-13.676-3.49-21.816.38-2.606-3.05-2.878-4.31-1.303-5.72 7.274-11.39 14.434-20.33 17.312 4.8-5.591 8.72-11.506 12.16-18.394.76-1.575-.44-3.96-2.46-3.365-10.23 3.036-19.232 1.461-27.029-4.776zm10.58 110.639c-26.822-28.541-32.82-84.483 11.879-99.19-3.65 6.186-7.84 11.721-13.08 16.984-1.252 1.246-.597 4.067 1.474 3.909 11.506-.923 19.026-6.945 26.006-14.922.05 7.218 2.12 13.619 6.38 20.242 1.03 1.575 2.94 1.518 4.03.107 6.16-7.919 9.65-16.275 10.9-25.776 3.16 3.473 6.28 6.945 9.43 10.418 1.53 1.626 4.8.544 4.75-1.79-.39-8.52-1.8-16.389-4.26-24.473 11.78-.924 20.77-8.571 23.45-20.564.38-1.683-.98-3.581-2.9-3.037-3.27.867-9.59 3.037-12.75 1.683-1.52-.651-2.45-1.195-3.05-1.739 25.07-11.393 51.73 4.181 65.96 26.37a73.89 73.89 0 00-9.27 5.156c-6.48-11.449-15.86-20.621-27.96-25.233-.06 0-.11.108-.06.165 9.37 8.9 17.66 17.907 23.55 28.218-15.05 11.392-26.71 28.597-32.05 47.264-6.92 24.201-5.18 47.207 3.81 66.525-29.06 16.326-61.66 15.839-86.239-10.317zm264.649 15.466c-29.11 30.602-70.92 40.261-111.64 29.786-20.61-5.262-38.16-15.301-49.99-29.571a69.05 69.05 0 01-7.63-11.234c-6.59-12.158-9.7-26.586-8.18-43.14 2.02-21.924 13.52-44.601 30.26-58.878a60.759 60.759 0 014.36-3.365c3-2.226 6.1-4.124 9.32-5.699a57.11 57.11 0 019.7-3.688c12.65-3.472 26.55-2.226 40.83 5.915-8.12 1.625-16.14 2.334-24.64 1.847-2.07-.108-3.98 2.656-2.23 4.288 9.59 9.065 20.49 10.905 32.7 10.747-6.16 5.535-10.08 12.208-12.54 20.944-.54 2.005.93 3.637 3 3.473 11.5-.816 21.37-4.232 30.53-10.361-.6 5.319-1.2 10.633-1.75 15.952-.32 2.55 3.17 4.561 5.12 2.657 7.04-6.781 12.76-13.998 17.83-22.247 9.76 9.337 23.22 11.177 35.59 4.232 1.69-.974 2.29-3.53.44-4.776-3.27-2.119-9.97-5.857-11.17-9.551-.66-1.847-.87-3.036-.87-3.909 40.5 17.698 37.94 78.252 10.96 106.578z" fill="#212321"/><path d="M1115.23 680.481c.44-.867.82-1.791 1.25-2.714v-.165c0-.215-.22-.322-.44-.215-8.23 3.473-11.56 13.569-9.81 21.975.27 1.303.66 2.606 1.2 3.802 0 .057.06.107.06.164.49 1.196 2.67.924 2.62-.487 0-.651-.06-1.303 0-1.954.05-6.946 1.85-12.753 4.46-18.939.22-.487.44-.974.66-1.467zM1269.77 656.931c-.06-.108-.17-.108-.17 0-.98 27.237-4.9 51.603-25.07 71.845-17.83 18.015-38.65 20.893-61.49 27.996-1.9.595-1.96 3.201.17 3.53 50.47 7.382 104.98-55.291 86.56-103.371zM1118.66 700.45a8.344 8.344 0 00-.65-2.226c-.33-.759-1.2-.867-1.8-.437-2.35 1.626-3.05 5.592-3 8.249 0 .328 0 .594.06.923.16 2.821.65 5.699 2.72 7.869 1.04 1.088 2.73.544 2.94-.974.44-2.714-.21-5.535-.21-8.299 0-1.632.16-3.422-.06-5.105zM1015.31 698.204c-.1-.215-.41-.145-.48.051-2.9 8.584 3.84 17.977 11.95 20.596 1.08.347 2.16-1.19 1.21-1.98-6.34-5.269-9.48-11.291-12.68-18.667zM1034.77 712.873c-1.54-1.347-3.21-3.22-5.2-3.814-.68-.203-1.26.303-1.33.949-.3 2.467 1.86 5.187 3.66 6.686 2.09 1.746 4.46 3.422 7.32 3.308 1.31-.051 1.94-1.461 1.1-2.461-1.53-1.866-3.74-3.086-5.55-4.668z" fill="#212321"/><path d="M1915.28 102.202c-25.62 5.95-50.85 13.444-75.44 22.729 6.77-6.707 12.82-13.911 18.07-22.05.91-1.414-.36-3.245-2.03-2.619-15.33 5.726-29.57 13.368-42.83 22.753 10.54-15.888 19.89-32.347 24.91-50.942.44-1.621-1.82-2.096-2.71-1.119-14.4 15.822-28.85 31.605-43.29 47.383-3.64-32.094 11.36-63.01 8.36-95.217-.12-1.335-1.63-1.716-2.63-1.085-16.67 10.591-22.11 29.09-26.56 47.21-5.51 22.481-10.5 45.188-13.5 68.144-5.73-2.655-11.99-4.363-18.16-2.447-8.7 2.707-13.49 12.141-20.54 17.287-7.42 5.413-15.4 9.274-21.27 16.575-6.97 8.655-11.08 19.121-18.31 27.639-8.69 10.235-19.66 18.196-29.89 26.784-9.47 7.951-17.97 16.874-25.88 26.354-16.69 20.002-43.37 65.29-43.16 65.021-.47 2.416-.27 4.874 1.14 7.216 3 4.952 8.63 4.728 13.36 2.666 7.93-3.463 14.7-10.986 21.12-16.565 10.03-8.719 20.2-17.072 32.49-22.5 10.81-4.779 22.56-7.04 33.25-12.139 9.79-4.665 18.68-11.034 27.24-17.6 9.33-7.138 18.34-14.77 28.33-20.99 10.48-6.516 21.98-9.575 33.17-14.47 16.09-7.04 27.48-20.307 25.58-38.525 48.31-11.044 90-36.397 122.3-74.088 1.8-2.102-.27-6.071-3.12-5.405z" fill="#FD7F06"/><path d="M1911.14 91.858c-25.62 5.95-50.85 13.444-75.43 22.729 6.77-6.707 12.82-13.911 18.07-22.05.91-1.415-.37-3.244-2.04-2.619-15.33 5.726-29.57 13.374-42.82 22.753 10.53-15.888 19.88-32.347 24.91-50.942.44-1.621-1.83-2.096-2.72-1.119a20702.74 20702.74 0 01-43.29 47.383c-3.64-32.094 11.36-63.01 8.37-95.217-.12-1.335-1.64-1.716-2.63-1.085-16.67 10.591-22.11 29.09-26.56 47.21-5.52 22.481-10.5 45.188-13.51 68.144-5.73-2.655-11.98-4.363-18.16-2.447-8.7 2.707-13.48 12.141-20.54 17.287-7.42 5.413-15.4 9.274-21.27 16.575-6.96 8.655-11.07 19.121-18.31 27.64-8.69 10.234-19.66 18.195-29.88 26.783-9.48 7.951-17.98 16.874-25.89 26.354-16.68 20.002-43.36 65.289-43.15 65.021-.47 2.416-.28 4.874 1.14 7.216 2.99 4.952 8.63 4.728 13.36 2.666 7.92-3.463 14.69-10.986 21.11-16.565 10.03-8.719 20.2-17.072 32.49-22.5 10.82-4.779 22.57-7.04 33.26-12.139 9.79-4.665 18.67-11.034 27.24-17.6 9.32-7.138 18.33-14.77 28.32-20.99 10.48-6.516 21.98-9.575 33.17-14.47 16.09-7.04 27.48-20.307 25.59-38.524 48.3-11.045 89.99-36.398 122.29-74.09 1.81-2.102-.27-6.064-3.12-5.404zm-131.27 89.652c-.16-.673-.32-1.304-.48-1.856-1.54-5.369-4.73-10.513-9.72-13.248-.2-.107-.4.179-.26.341 3.61 4.359 6.63 8.638 7.56 14.34.43 2.621-.27 5.405-.51 8.046-.78 1.159-1.63 2.302-2.64 3.4-6.82 7.377-16.6 11.49-26.31 15.561.52-1.932.45-4.245.44-5.893-.03-3.443-.15-9.069-3.18-11.329-.59-.442-1.39-.066-1.51.629-.62 3.344 1.46 7.004 1.6 10.47.1 2.22-.76 5.08-.37 7.397-5.26 2.224-10.4 4.533-14.95 7.447-4.17 2.664-8.12 5.597-12 8.643 1.42-6.946-1.31-16.161-5.4-20.042-.23-.214-.56.05-.54.307.53 6.027 5.51 15.24 3.3 21.855-2.28 1.841-4.53 3.71-6.78 5.59 2.24-15.017-11.37-35.563-25.99-37.257-.74-.089-1.08.833-.53 1.292 5.91 5.029 12.47 7.86 17.07 14.49 5.1 7.383 5.46 15.209 7.14 23.405-1.8 1.496-3.6 2.988-5.41 4.468.02-1.911-.16-3.821-.61-5.728-.61-2.574-1.33-5.699-3.82-7.004-.49-.258-.93.25-.92.703.03 2.523 1.88 4.846 2.55 7.293.58 2.117.8 4.241.76 6.39-3.89 3.126-7.84 6.168-11.97 8.962-.62.418-1.27.803-1.89 1.204.12-.466.24-.925.35-1.365.89-3.522 1.32-7.003.6-10.575-.12-.598-1.02-.66-1.11-.004-.46 3.34-.72 6.737-1.66 9.998-.38 1.32-1.01 2.627-1.56 3.945-7.02 3.893-14.53 6.625-22.04 9.339-.07-.471-.15-.946-.27-1.405-.69-2.669-2.5-6.271-5.77-5.721-.45.075-.68.498-.54.918.72 2.061 2.56 3.274 3.3 5.334.23.641.34 1.282.4 1.923-8.35 3.04-16.62 6.247-24.11 11.196-8.25 5.448-15.57 12.518-22.86 19.157-3.49 3.176-6.95 6.381-10.55 9.429-1.76 1.487-3.58 3.101-5.46 4.455l-3.9 2.53c-7.75-4.175-9.87-8.737-6.39-13.714.24-.489.13-.956-.13-1.329 6.59-9.179 12.84-18.615 19.54-27.738.18.079.38.137.63.112 6.65-.55 11.02 3.371 14.85 8.209.49.616 1.47.181 1.4-.574-.6-6.957-8.59-10.865-15.04-10.197 1.24-1.647 2.45-3.315 3.72-4.935 5.45-6.913 11.2-13.501 17.21-19.836 1.06.71 1.93.641 3.33.846 2.23.327 4.48.918 6.49 1.944 4.81 2.456 6.28 6.902 9.67 10.618.4.438 1.23.312 1.3-.347.55-5.252-4.36-9.971-8.61-12.344-2.43-1.352-7.29-3.338-10.55-2.403 4.02-4.173 8.13-8.257 12.4-12.189 6.27.806 12.02 2.038 17.1 6.57 7.32 6.533 7.52 14.435 8.69 23.316.16 1.241 2 1.547 2.47.328 5.84-15.232-9.51-32.468-25.01-33.179 1.8-1.613 3.63-3.203 5.48-4.772 1.43-1.219 2.89-2.422 4.34-3.618 1.99.001 6.98-.184 7.72-.064 4.36.675 8.34 2.532 11.62 5.468 6.06 5.425 7.27 12.664 8 20.338.06.641 1.09.817 1.29.174 5.09-16.058-10.59-29.102-25.53-28.45 10.3-8.39 20.73-16.75 28.61-27.508 1.51.38 3.04.149 4.72.229 3.27.157 6.43.832 9.41 2.232 3.08 1.457 5.74 3.657 8.03 6.16 1.86 2.038 3.09 4.52 5.23 6.257.43.344 1.23.071 1.25-.517.27-6.638-7.04-12.308-12.53-14.744-3.36-1.496-9.97-3.44-14.37-2.142 3.21-4.811 5.91-9.934 9.03-14.807 1.25.117 2.43-.008 4.11.187 4.87.565 9.43 2.925 12.83 6.374 6.46 6.564 6.98 15.378 10.25 23.463.3.732 1.22.464 1.39-.181 2.7-9.969-2.45-21.788-10.57-27.95-3.58-2.719-10.56-6.028-15.84-5.132 3.35-4.504 7.31-7.782 11.6-10.821.25-.026.52-.047.8-.063 2.18-.108 4.4.401 6.41 1.209 3.8 1.518 6.31 4.555 9.31 7.143.5.422 1.47.591 2.05.261.35-.198.64-.33.86-.66.5-.745.59-1.781-.02-2.513-3.04-3.702-7.45-6.996-12.13-8.28a14.59 14.59 0 00-2.42-.418c1.32-.887 2.65-1.781 4-2.72.01-.013.03-.027.05-.042 8 .695 15.11 3.338 20.54 9.998 6.39 7.841 7.19 17.816 11.34 26.672.72 1.553 3.03 1.292 3.32-.428 2.67-16.058-11.23-41.096-29-41.876 3.8-4.036 7.39-8.395 12.08-10.598 10.41-4.884 23 6.011 30.37 12.955 9.84 9.284 17.2 23.977 13.85 36.996zm10.54-17.768a41.684 41.684 0 00-3.31-7.695c9.65-1.363 19.31-4.648 28.24-8.055 10.5-4.004 23.22-8.109 31.45-15.972.78-.737.41-2.482-.91-2.182-10.65 2.419-20.49 8.799-30.7 12.743-9.8 3.796-20.13 6.556-29.91 10.421-1.65-2.553-3.59-4.94-5.68-7.209 2.92-1.977 5.42-5.117 7.91-7.419 3.27-3.028 6.7-5.813 9.76-9.055.45-.474-.22-1.326-.8-1.02-4.2 2.226-7.83 5.284-11.24 8.58-2.27 2.184-5.18 4.766-6.82 7.655a77.732 77.732 0 00-3.43-3.313c10.51-15.197 22.02-29.056 33.75-43.445.32-.394-.23-.931-.63-.62-14.16 11.169-25.97 26.732-34.56 42.782-3.67-3.126-7.64-5.896-11.69-8.338 2.54-14.364 3.17-28.984 6.44-43.301 3.77-16.518 9.45-32.163 15.46-47.968.26-.679-.7-1.06-1.03-.429-7.53 14.561-12.78 30.478-16.46 46.418-3.26 14.159-6.59 29.793-5.63 44.544-.34-.195-.68-.415-1.01-.606a85.96 85.96 0 00-4.17-2.254c3.98-19.204 7.59-38.479 12.09-57.572 4.61-19.514 8.59-41.819 25.57-54.417 2.06 32.264-12.98 63.3-7.92 95.65.21 1.375 1.83 1.69 2.72.726 13.63-14.953 27.27-29.895 40.94-44.815-6.28 18.52-16.76 35.008-27.93 51.105-1.03 1.493.81 3.448 2.32 2.276 13.75-10.699 28.61-19.194 44.65-25.794-5.95 8.559-12.81 16.285-21.01 22.912-1.59 1.277-.11 3.661 1.76 3.009 23.92-8.295 48.18-15.184 72.91-20.399-30.48 30.083-69.72 52.266-111.13 63.057z" fill="#212321"/><path d="M1677.13 370.426c-9.04-.259-17.49-3.073-24.65-8.561-1.03-.789-1.88-1.618-2.74-2.294.47-.669.89-1.369 1.25-2.088 7.22-8.767 21.2-23.349 13.54-33.924-7.29-10.079-26.08-10.6-36.73-6.721-.23.087-.28.278-.22.459-2.56 1.19-3.2 3.274-1.93 8.488 2.32 9.49 2.82 19.078 1.51 28.696-.26-.007-.54-.008-.92-.009-2.4-.003-4.56-.208-6.86-.963-4.14-1.358-7.59-3.908-10.99-6.526-.71-.553-1.67-.063-1.99.659-1.5 3.466-1.87 7.272-.24 10.586l-14.16.297c-1.63.035-2.41 1.618-1.51 2.924 1.1 1.594 2.3 2.954 3.6 4.134-11.19 8.078-12.17 21.949-14.39 34.953-1.9 11.172-5.84 20.584-16.83 25.591-8.98 4.092-19.05 4.178-28.69 4.865-15.43 1.101-29.38 4.843-40.2 16.522-9.12 9.864-13.81 23.022-12.59 36.334 1.32 14.314 9.01 27.141 20.62 35.568 11.86 8.607 29.37 17.276 44.4 17.001 16.29-.296 33.2-8.055 47.85-14.452 7.47-3.269 15.13-6.647 21.77-11.454 7.44-5.394 13.01-12.87 18.5-20.106 11.93-15.73 22.84-32.468 29.03-51.28 2.58-7.844 4.24-16.07 4.72-24.3.27-4.746.8-10.793-.77-15.701 1.49.758 2.97 1.598 4.48 2.437.91.502 2.44.1 2.41-1.156-.17-8.059-2.67-14.696-7.97-20.387 5.44-.236 10.43-1.833 11.75-7.973.17-.725-.17-1.594-1.05-1.619z" fill="#FD2A53"/><path d="M1627.39 485.802c11.93-15.73 22.84-32.468 29.03-51.28 2.58-7.844 4.24-16.07 4.72-24.3.27-4.746.8-10.794-.77-15.701 1.49.758 2.97 1.598 4.48 2.437.91.501 2.44.1 2.41-1.156-.17-8.06-2.68-14.696-7.98-20.388 5.45-.235 10.44-1.832 11.76-7.972.15-.727-.19-1.595-1.07-1.623-9.04-.259-17.48-3.073-24.64-8.56-1.03-.789-1.88-1.618-2.75-2.295.48-.668.89-1.368 1.25-2.087 7.23-8.767 21.2-23.349 13.55-33.924-7.29-10.079-26.09-10.6-36.73-6.722-.24.088-.29.279-.23.46-2.56 1.19-3.2 3.273-1.93 8.488 2.33 9.488 2.83 19.078 1.51 28.696a38.37 38.37 0 00-.92-.009c-2.39-.003-4.56-.208-6.85-.964-4.14-1.357-7.59-3.907-10.99-6.525-.72-.553-1.67-.064-1.99.659-1.51 3.466-1.88 7.272-.25 10.586l-14.15.297c-1.63.034-2.41 1.618-1.51 2.923a23.32 23.32 0 003.6 4.135c-11.2 8.078-12.18 21.948-14.39 34.953-1.91 11.172-5.85 20.584-16.84 25.591-8.97 4.091-19.04 4.177-28.69 4.865-15.43 1.101-29.38 4.842-40.19 16.521-9.12 9.869-13.81 23.023-12.59 36.335 1.31 14.314 9 27.141 20.61 35.568 11.86 8.606 29.38 17.276 44.4 17.001 16.3-.296 33.21-8.055 47.85-14.452 7.48-3.269 15.14-6.648 21.77-11.454 7.46-5.391 13.03-12.866 18.52-20.103zm-26.4-140.222c3.37 2.763 7.19 5.094 11.43 6.255 2 .547 4.88 1.284 7.16.794-.03.185-.05.373-.09.559-6.33.135-12.66.264-18.98.397-.39-2.749-.46-5.408.48-8.005zm-10.75 13.442a20.334 20.334 0 01-1.85-1.668l32.92-.827c1.17-.028 1.77-.995 1.78-1.893.21-.268.37-.595.44-1.012.96-6.808 1.16-13.693.22-20.504-.49-3.499-1.27-6.955-2.27-10.347-.04-.144-.1-.306-.17-.472a20.102 20.102 0 004.12 4.175c7.66 5.684 20.01 6.702 26.62-1.175.22-.27-.14-.555-.4-.465-6.02 2.011-12.28 4.109-18.61 2.093-2.96-.936-5.51-2.412-7.76-4.495-.85-.777-2.33-1.97-2.8-3.083-.65-1.546.26-4.678 1.69-6.584 4.12-.323 8.25-.546 12.37-.052 4.94.591 15.03 2.488 17.8 7.235 5.77 9.862-6.7 23.247-13.78 31.119-2.2 1.802-4.22 3.942-6.31 5.753-1.54 1.337-3.36 3.323-5.21 4.204-1.64.777-3.28.495-5.06.27-.07-.01-.13.061-.11.125.95 4.286 5.61 3.136 8.52 1.733 3.24-1.557 6.79-4 9.33-7.038 3.92 2.456 8.43 7.307 11.56 8.719a38.647 38.647 0 007.47 2.479c1.98.453 3.97.743 5.99.871-2.95 3.806-6.48 5.325-10.6 4.56-1.06-.055-2.04 1.371-1.14 2.201 5.37 4.988 8.41 10.886 9.04 17.982-4.88-2.841-11.48-6.485-16.45-5.668-4.68.768-10.06 6.354-14.12 9.925-1.63-3.565-3.27-7.135-4.9-10.701-.3-.673-1.24-1.256-2.01-1.032-3.39.999-9.18 4.022-12.68 3.74-8.66-.694-3.66-10.837.47-14.619 1.52-1.392-.1-4.329-2.07-3.179a95.22 95.22 0 01-18.23 8.244c.72-5.462 3.11-9.77 7.61-13.645 1.2-1.02.56-3.089-1.03-3.191-2.97-.198-5.51-.883-7.75-2.054-.3-1.109-1.43-2.029-2.64-1.724zm1 149.499c-14.03 6.581-29.55 13.615-44.94 16.18-15.34 2.559-32.31-5.066-45.22-12.825-13.61-8.181-22.16-22.459-21.58-38.452.59-16.124 11.35-31.39 26.46-37.556 13.52-5.517 28.37-3.211 42.37-6.355 11.9-2.665 22.06-9.005 26.59-20.662 5.83-14.987 2.06-34.184 15.97-45.055 1.75.941 3.64 1.631 5.69 2.07-4.14 4.518-6.29 9.805-6.52 16.271-.04 1.076.98 2.337 2.2 1.975 5.05-1.504 9.86-3.366 14.55-5.582-2.05 4.614-2.05 9.775.18 15.03.31.715 1.34 1.341 2.15 1.095 3.16-.974 11.32-5.158 14.45-4.452 4.8 1.076 5.7 6.537 7.62 10.578.5 1.065 1.86 1.297 2.76.585 3.12-2.472 6.55-6.212 10.1-8.001 4.46-2.253 8.39-1.988 12.18-.667 2.35 5.76.41 16.159-.5 21.628-1.2 7.21-3.23 14.319-5.82 21.169-5.42 14.317-13.69 27.5-22.66 39.896-10.2 14.094-19.97 25.602-36.03 33.13z" fill="#212321"/><path d="M1632.66 457.627c8.22-15.189 15.63-35.063 16.34-52.38.03-.701-1.01-.971-1.25-.256-5.26 15.959-8.9 32.601-16.8 47.603-7.01 13.31-16.83 24.937-28.28 34.733-11.42 9.781-24.66 17.629-38.91 22.604-18.18 6.339-34.06 2.681-49.94-7.26-1.01-.631-2.2.633-1.42 1.569 22.58 26.922 62.48 9.92 85.75-7.105 14.27-10.436 26.13-24.026 34.51-39.508zM1535.48 438.835c-13.34-9.381-31.45 1.323-41.07 11.017-.52.525 0 1.523.74 1.144 6.59-3.286 12.84-7.314 19.88-9.612 6.75-2.203 13.34-1.17 20.24-1.591.49-.028.55-.716.21-.958zM1508.98 452.227c.08-.185-.05-.409-.23-.47-2.13-.744-4.61.897-6.34 2.06-2.49 1.667-4.5 3.404-5.7 6.178-.27.636.54 1.427 1.17 1.045 2.22-1.344 4.02-3.102 6.11-4.628 1.66-1.231 4.15-2.228 4.99-4.185zM1586.57 385.535c-.21-.538-1.12-.367-1.12.206-.06 4.261.08 8.21-.76 12.425-.51 2.552-1.22 5.272-2.55 7.544-1.06 1.808-2.5 3.115-3.27 5.072-.22.553.39.957.88.781 8.78-3.103 9.58-18.815 6.82-26.028zM1589.03 405.774c0-.121-.15-.239-.26-.135-1.14 1.122-2.05 2.447-3.11 3.651-.92 1.035-2 2.012-2.18 3.431-.06.498.43.846.88.787 2.93-.376 4.76-5.21 4.67-7.734z" fill="#212321"/><g clip-path="url(#prefix__clip2)"><path d="M1472.4 108.057c-1.43-.068-15.46 13.889-10.14 25.11.48 1.016-.63 1.922-.73 2.499-3.15 18.06-19.53 35.501-25.37 40.919-4.16 3.856-52.18 17.264-57.08 38.984-4.62 20.508 4.11 35.283 22.73 58.383 2.73 3.391 9.13 20.125 13.72 20.899 7.16 1.207 27.16-10.699 32.86-13.426 11.87-5.688 41.51-15.769 40.99-37.655-.68-28.854-21.95-50.098-24.08-53.606-6.51-10.711 1.96-42.969 3.42-46.854 1.8-4.789 11.24-11.728 11.04-11.997-.44-.583-3.62 1.349-6.26 3.104 1.92-4.261 1.28-12.966 1.03-12.213-.76 2.251-1.19 3.785-1.52 4.397-.12.227-2.13 3.537-2.41 3.521-.13-.008-.44-.051-.07-1.845.34-1.677.53-5.088 1.08-7.192.23-.839 1-1.537.93-1.532-3.23.126-5.65 11.975-5.73 11.678-3.61-13.949 6.48-23.134 5.59-23.174z" fill="#8DC63F"/><path d="M1486.77 238.916c-.33-17.695-10.16-28.664-20.9-42.765-16.78-22.007-5.7-44.691 6.66-60.047.22-.276-.21-.714-.49-.528a44.68 44.68 0 00-6.28 5.102c1.54-5.086 2.03-10.465.21-16.006-.18-.546-.81-.353-.88.033-.09.514-.16 1.028-.24 1.543-1.23 1.9-1.34 4.553-2.12 6.796-.9 2.58-2.13 4.992-3.5 7.286.25-1.363.4-2.792.54-4.305.47-5.342 1.1-9.906 3.83-14.209.04-.066-.04-.201-.12-.161-.08.039-.14.089-.21.128l.3-.309c.18-.183-.13-.589-.36-.481-4.71 2.26-8.06 7.385-9.4 13.077-.63-8.476-1.62-17.002 3.62-23.684.35-.321.68-.643 1.05-.957.28-.238-.03-.885-.41-.704-7.71 3.704-11 12.719-11.49 22.179-.31-.929-.65-1.858-1.06-2.783-.23-.527-.99-.399-.87.156 9.99 46.08-51.83 42.152-70.32 67.786-20.89 28.961 13.72 65.542 23.3 96.855.36 1.177 2.3 1.653 2.21.217-.03-.579-.11-1.154-.16-1.729.66-2.953.69-6.276.36-9.662.37 1.376.68 2.761.9 4.12.39 2.434.43 5.132 1.6 7.461.18.346.68.552.88.216.35-.59.55-1.263.68-1.964.03-.015.06-.004.07-.022.16-.133.29-.29.44-.429 1.91-.587 3.62-1.592 5.18-2.795-.14.554-.26 1.129-.36 1.724-1.16 2.498-1.46 4.652-.87 7.638.1.536.92.936 1.18.447 1.1-2.063 1.83-4.013 2.62-6.27.11-.297.24-.628.38-.965.09-.067.18-.107.27-.201 12.6-14.484 35.98-7.78 52.24-15.594 13.22-6.354 21.82-19.861 21.52-36.194zm-18.66 23.475c2.72-4.423 4.3-9.798 3.9-14.903-.04-.495-.77-.613-.9-.215-1.39 4.326-2.05 8.703-4.21 12.648-1.64 3.003-3.73 5.469-5.87 7.963a34.367 34.367 0 01-6.81 3.011c-11.99 3.823-25.96 2.894-36.01 9.294 3.47-3.366 7.81-5.877 13.41-7.86 6.79-2.407 12.73-4.699 16.75-10.904.05-.078-.06-.222-.14-.15-2.56 2.394-5.69 4.199-9.04 5.767 15.26-11.665 17.73-39.427 4.97-58.325-.31-.456-.87-.11-.69.353 4.67 11.715 7.82 22.726 5.89 34.39-1.83 11.042-7.65 18.277-14.58 25.493-7.68 3.12-15.77 5.729-20.78 11.341-1.8.96-3.15 2.838-4.66 4.126-.23.198-.47.389-.7.585.96-2.156 1.73-4.448 2.52-6.626 1.96-5.365 4.09-10.857 4.87-16.741.01-.091-.13-.162-.17-.086-2.57 4.564-4.31 9.705-6.6 14.466-1.63 3.394-3.78 6.688-5.12 10.316.17-3.577.13-7.208.64-10.72.84-5.861 3.08-10.973 4.38-16.611.09-.396-.41-.773-.67-.451-1.46 1.834-2.73 4.188-3.76 6.816-3.92-25.443 1.43-45.905 12.98-65.926.23-.394-.32-.872-.62-.537-14.42 16.283-18.15 43.286-12.69 67.306-1.71 4.724-2.66 10.29-2.51 15.619a32.902 32.902 0 00-2.33-3.921c-.45-2.699-1.06-5.369-1.72-7.86-2.13-7.934-7.21-15.131-8.68-23.127-.12-.645-1.13-.78-1.11-.108.19 6.724 3.22 12.582 5.64 19.061 1.3 3.506 1.94 7.009 2.43 10.505-3.94-10.84-10.19-21.237-15.1-31.873-4.48-9.675-8.18-20.329-7.04-30.294 1.37-11.981 9.93-20.165 19.18-25.527 2.18-1.267 4.45-2.406 6.75-3.484-11.85 14.165-16.1 34.961-11.71 56.485.06.312.5.298.45-.016-3.93-23.927 2.9-44.577 16.85-58.95 11.65-4.921 23.76-9.025 32.74-18.13 6.13-6.204 10.28-15.303 9.9-25.027.65-6.658.87-12.928 2.65-18.545-1.19 9.882 2.31 22.894.28 31.234-.08.324.41.728.58.398 2.33-4.436 2.64-9.432 2.42-14.566.46-2.72 1.12-5.341 2.29-7.77.92-1.928 2.13-3.498 3.46-4.964-2.99 5.418-2.32 14.291-3.62 19.903-.12.48.52.99.82.565.22-.302.41-.609.6-.921.14.031.28 0 .4-.119 2.4-2.33 4.24-4.911 5.67-7.983-.34 2.534-.86 5.031-1.83 7.449-.25.62-.52 1.214-.8 1.801-6.14 8.215-9.66 18.707-8.72 30.157.61 7.567 3.19 14.656 7.2 21.572 2.45 4.222 5.45 8.164 8.26 12.194.29 1.024.61 2.046.94 3.057-1.18-2.037-2.51-4.005-4.01-5.834-4.21-5.158-12.92-9.805-12.95-16.86 0-.1-.15-.172-.18-.066-1.97 7.361 6.04 12.006 10.26 17.585 7.95 10.49 9.04 21.669 9.78 33.406.05.765.96 1.137 1.27.474 3.19-6.881 1.87-15.525-1.45-23.318-.24-.568-.52-1.123-.79-1.684 0-.988-.14-2.006-.37-3.033 1.74 2.711 3.33 5.499 4.52 8.485 6.22 15.646 2.67 30.689-6.71 40.21z" fill="#212321"/></g><g clip-path="url(#prefix__clip3)"><path d="M461.572 374.39c-1.021.765-2.183 18.46 8.253 23.255.943.435.731 1.698 1.01 2.158 8.778 14.368 8.11 35.829 7.389 42.923-.514 5.047-25.3 41.678-15.507 59.592 9.248 16.913 24.176 22.242 50.918 27.753 3.923.81 18.441 8.829 22.053 6.761 5.635-3.229 12.132-22.889 14.386-28.027 4.695-10.713 18.896-34.576 5.292-49.527-17.933-19.714-45.366-22.426-48.951-23.659-10.949-3.757-24.67-31.046-26.024-34.579-1.668-4.358.601-14.557.301-14.63-.651-.161-1.665 2.997-2.409 5.718-1.265-4.059-6.973-9.759-6.69-9.091.846 1.997 1.476 3.313 1.621 3.925.056.227.685 3.673.484 3.82-.097.071-.333.216-1.166-1.244-.78-1.364-2.72-3.844-3.612-5.626-.356-.71-.25-1.634-.291-1.595-2.141 1.927 3.378 11.553 3.145 11.391-10.923-7.661-9.572-19.793-10.202-19.318z" fill="#FFC737"/><path d="M550.642 457.378c-10.94-12.138-24.313-14.194-40.213-17.909-24.817-5.797-30.962-27.892-31.788-45.615-.014-.319-.575-.379-.654-.09a38.886 38.886 0 00-1.218 7.126c-2.018-4.423-4.945-8.443-9.542-11.273-.454-.278-.768.214-.583.524.244.413.51.809.769 1.211.307 2.023 1.835 3.936 2.659 5.941.948 2.307 1.567 4.685 2.015 7.064-.652-1.094-1.416-2.173-2.241-3.303-2.906-3.993-5.241-7.528-5.976-12.076-.009-.071-.144-.121-.179-.044-.026.069-.039.139-.065.207l.021-.388c.01-.227-.445-.337-.538-.13-1.859 4.251-1.057 9.729 1.474 14.453-5.565-5.544-11.404-10.921-11.855-18.557.04-.419.073-.832.137-1.262.05-.325-.56-.596-.709-.255-3.036 6.958.164 15.111 5.554 21.98a32 32 0 00-2.407-1.34c-.477-.236-.92.285-.504.605 34.74 26.423-9.995 58.819-7.145 87.183 3.22 32.046 49.08 37.86 74.6 54.228.959.616 2.574-.154 1.645-1.105-.373-.383-.771-.743-1.155-1.114-1.337-2.431-3.33-4.761-5.601-6.936a40.389 40.389 0 013.11 2.36c1.738 1.475 3.398 3.333 5.611 4.289.331.14.804-.006.738-.353-.119-.61-.39-1.191-.725-1.753.007-.024.034-.034.035-.056.025-.18.021-.365.037-.545.956-1.497 1.519-3.168 1.861-4.893.24.464.506.932.798 1.403.716 2.401 1.817 4.07 4.025 5.818.396.314 1.197.129 1.079-.359-.492-2.064-1.177-3.834-1.996-5.86-.107-.268-.22-.571-.329-.885.021-.097.063-.18.063-.292-.129-17.256 19.949-25.873 26.358-40.556 5.209-11.937 2.93-26.238-7.166-37.443zm1.428 26.956c-.815-4.626-2.991-9.266-6.353-12.596-.327-.322-.898.01-.747.362 1.669 3.801 3.862 7.229 4.772 11.203.694 3.025.757 5.929.796 8.886a29.33 29.33 0 01-2.839 5.964c-5.904 9.48-16.036 16.77-19.052 26.943.343-4.319 1.797-8.535 4.43-13.095 3.198-5.538 5.882-10.512 4.88-17.119-.014-.082-.178-.118-.188-.025-.304 3.123-1.357 6.16-2.701 9.155 3.393-16.798-11.72-37.542-31.904-43.454-.487-.143-.667.421-.26.638 10.29 5.508 19.118 11.385 24.856 20.608 5.43 8.732 5.818 17.084 5.44 26.048-3.369 6.535-7.339 12.954-7.371 19.709-.65 1.688-.442 3.768-.695 5.521-.037.268-.084.537-.127.807-.648-2.048-1.504-4.085-2.281-6.05-1.911-4.847-3.771-9.888-6.802-14.426-.047-.071-.186-.042-.17.037 1.004 4.638 2.924 9.208 4.239 13.825.934 3.293 1.459 6.806 2.738 10.095-2.048-2.589-4.278-5.092-6.056-7.827-2.969-4.563-4.529-9.397-7.055-14.061-.176-.328-.746-.308-.727.063.105 2.111.663 4.47 1.547 6.887-18.093-15.493-26.811-32.79-31.016-53.301-.082-.405-.749-.425-.749-.024-.026 19.541 13.767 40.47 32.052 54.097 1.687 4.264 4.408 8.68 7.732 12.309a32.12 32.12 0 00-3.969-1.407c-1.939-1.627-3.976-3.138-5.94-4.495-6.26-4.319-14.096-6.447-19.948-11.178-.472-.381-1.242.095-.824.554 4.199 4.577 9.824 6.934 15.403 10.074 3.017 1.7 5.573 3.779 8.029 5.933-9.263-5.312-19.84-9.002-29.648-13.617-8.923-4.197-17.91-9.514-23.161-17.103-6.313-9.126-5.403-19.691-2.313-28.682.73-2.124 1.593-4.205 2.515-6.262.455 16.603 10.134 33.503 26.172 46.003.233.18.527-.081.302-.27-17.182-14.431-25-32.7-24.144-50.64 5.002-10.047 10.814-19.788 11.461-31.239.439-7.801-2.224-16.499-8.369-23.059-3.591-5.004-7.235-9.497-9.41-14.426 5.167 7.56 15.441 14.637 19.098 21.601.142.271.718.277.64-.054-1.092-4.412-3.906-8.067-7.161-11.521-1.331-2.156-2.464-4.359-3.136-6.712-.533-1.87-.659-3.647-.637-5.423 1.236 5.47 7.065 11.271 9.57 15.92.214.399.957.393.909-.076a10.712 10.712 0 00-.152-.978.37.37 0 00.206-.314c.233-2.986-.07-5.829-.948-8.783 1.297 1.962 2.457 3.994 3.256 6.228.205.573.38 1.141.54 1.712.763 9.214 4.709 18.518 12.279 25.965 5.003 4.921 11.061 8.395 17.999 10.931 4.234 1.548 8.672 2.593 13.042 3.799.817.55 1.652 1.082 2.495 1.595a42.408 42.408 0 00-6.281-1.783c-6.007-1.2-14.79.513-19.081-4.384-.062-.069-.207-.034-.165.057 3.11 6.244 11.408 4.93 17.68 6.415 11.797 2.79 19.313 9.957 26.924 17.714.494.507 1.348.244 1.158-.393-1.979-6.607-8.117-11.877-15.112-15.418-.508-.259-1.036-.487-1.558-.725a14.04 14.04 0 00-2.094-1.9c2.837.897 5.61 1.939 8.232 3.344 13.734 7.363 20.41 19.859 19.752 31.818z" fill="#212321"/></g><defs><clipPath id="prefix__clip0"><path fill="#fff" transform="scale(1 -1) rotate(-72.322 587.851 -1103.978)" d="M0 0h166.879v199.202H0z"/></clipPath><clipPath id="prefix__clip1"><path fill="#fff" transform="scale(1 -1) rotate(-42.659 576.834 -1947.256)" d="M0 0h105.831v124.337H0z"/></clipPath><clipPath id="prefix__clip2"><path fill="#fff" transform="rotate(-16.297 1217.134 -4612.335)" d="M0 0h146.104v153.793H0z"/></clipPath><clipPath id="prefix__clip3"><path fill="#fff" transform="rotate(-56.643 647.705 -132.473)" d="M0 0h129.613v142.396H0z"/></clipPath></defs></svg>