<svg viewBox="0 0 1920 798" fill="none" xmlns="http://www.w3.org/2000/svg">
<g clip-path="url(#clip0)">
<path d="M1596.83 184.182C1612.12 172.997 1632.57 161.47 1651.29 157.924C1651.36 157.886 1651.41 157.843 1651.46 157.8C1653.39 156.589 1655.55 159.304 1654.03 161.037C1639.98 177.129 1628.7 192.791 1627.23 215.501C1626.16 232.13 1631.32 249.25 1627.09 265.601C1621.99 285.363 1598.5 314.018 1576.11 314.596C1575.76 315.364 1575.39 316.128 1575.02 316.892C1575 317.327 1574.82 317.684 1574.53 317.933C1564.83 337.785 1550.51 355.936 1529.56 361.957C1527.62 362.514 1526.3 359.656 1528.06 358.565C1547.18 346.574 1560.09 331.27 1569.48 312.959C1553.54 285.016 1548.49 250.409 1563.53 221.518C1571.42 206.366 1583.36 194.027 1596.83 184.182Z" fill="#8DC63F"/>
</g>
<g clip-path="url(#clip1)">
<path d="M1538.31 69.3105C1543.1 58.4814 1550.59 45.8804 1559.67 38.1886C1559.69 38.1486 1559.71 38.1085 1559.72 38.0685C1560.39 36.8115 1562.42 37.6406 1562.15 39.0563C1559.57 52.2013 1558.38 64.259 1564.75 77.1721C1569.43 86.6264 1577.64 94.4408 1580.51 104.712C1583.97 117.124 1580.23 140.059 1568.22 147.247C1568.27 147.775 1568.31 148.307 1568.35 148.839C1568.48 149.084 1568.49 149.337 1568.41 149.563C1569.4 163.433 1567.34 177.79 1557.83 187.522C1556.95 188.423 1555.33 187.26 1555.94 186.123C1562.57 173.672 1564.76 161.314 1564.09 148.382C1546.58 137.938 1532.9 120.493 1531.96 100.022C1531.48 89.2832 1534.08 78.8475 1538.31 69.3105Z" fill="#8DC63F"/>
</g>
<g>
<path d="M1441.52 500.712C1438.37 488.858 1429.95 478.045 1418.91 472.545C1404.67 465.457 1388.13 468.804 1372.77 465.985C1378.16 462.719 1384.11 460.105 1389.5 457.668C1396.42 454.533 1405.24 452.343 1409.94 445.795C1418.35 434.094 1407.23 422.439 1396.39 417.524C1374.94 407.797 1355.69 427.746 1345.96 449.753C1345.74 418.895 1309.88 407.092 1283.75 412.998C1244.59 421.855 1217.08 454.108 1198.65 487.777C1189.92 503.717 1182.2 520.552 1178.81 538.511C1175.23 557.423 1180.57 573.925 1181.01 592.698C1181.33 606.486 1180.14 621.878 1192.28 631.511C1197.13 635.355 1203.02 636.73 1208.94 637.965C1213.82 643.77 1222.22 644.973 1230.4 647.325C1233.76 652.153 1237.1 656.915 1240.06 662.116C1241.64 664.903 1242.63 667.803 1245.07 670.038C1249.93 674.475 1256.59 674.56 1262.67 673.147C1275.93 676.694 1291.58 675.823 1301.4 672.368C1338.56 659.3 1371.48 624.831 1396.18 595.504C1410.36 578.677 1423.34 560.581 1433.68 541.133C1440.33 528.63 1445.32 514.95 1441.52 500.712Z" fill="#FFC737"/>
<path d="M1394.78 576.525C1408.9 559.642 1421.81 541.502 1432.08 522.017C1438.68 509.488 1443.61 495.801 1439.77 481.572C1436.57 469.728 1428.11 458.944 1417.04 453.486C1402.77 446.448 1386.24 449.86 1370.88 447.1C1376.26 443.813 1382.2 441.18 1387.57 438.722C1394.48 435.568 1403.3 433.338 1407.97 426.774C1416.33 415.041 1405.17 403.427 1394.32 398.553C1372.83 388.907 1353.65 408.926 1344.01 430.97C1343.68 400.106 1307.77 388.437 1281.67 394.434C1242.54 403.439 1215.15 435.791 1196.85 469.529C1188.18 485.502 1180.53 502.365 1177.2 520.338C1173.7 539.26 1179.09 555.742 1179.6 574.511C1179.98 588.298 1178.84 603.697 1191.02 613.286C1195.88 617.112 1201.78 618.467 1207.7 619.679C1212.6 625.468 1221 626.637 1229.19 628.958C1232.57 633.776 1235.92 638.524 1238.9 643.714C1240.5 646.494 1241.49 649.391 1243.95 651.618C1248.83 656.035 1255.48 656.098 1261.56 654.662C1274.83 658.159 1290.48 657.234 1300.29 653.74C1337.39 640.526 1370.18 605.94 1394.78 576.525ZM1388.28 404.627C1392.43 404.741 1395.86 406.252 1398.57 409.163C1403.2 411.266 1403.51 414.689 1399.49 419.433C1396.75 428.561 1397.03 427.202 1389.53 430.388C1375.2 436.467 1343.19 448.584 1347.29 469.064C1344.33 467.673 1342.03 465.415 1339.86 462.53C1339.92 462.452 1339.98 462.378 1340.02 462.292C1346.61 446.894 1348.5 430.922 1359.91 417.6C1367.5 408.734 1376.42 401.39 1388.28 404.627ZM1323.05 628.176C1310.42 637.127 1295.34 646.52 1279.27 646.955C1290.99 639.508 1300.78 628.126 1304.01 615.452C1304.44 613.76 1302.46 612.285 1301.06 613.539C1289.07 624.251 1279.09 637.44 1264.09 644.396C1264.08 644.399 1264.08 644.401 1264.06 644.409C1258.78 642.222 1254.5 638.786 1250.33 634.617C1251.41 634.669 1252.47 634.693 1253.53 634.662C1269.43 634.244 1282.19 624.088 1292.81 613.227C1318.4 587.056 1346.69 550.794 1354.46 514.333C1354.52 514.084 1354.16 513.855 1354.02 514.121C1341.08 538.11 1326.61 561.196 1309.53 582.488C1300.55 593.676 1291.01 605.822 1279.88 615.084C1271.87 621.753 1262.63 627.381 1251.79 627.158C1248.3 627.083 1245.39 626.294 1242.67 625.164C1238.15 621.018 1232.72 617.707 1227.35 615.312C1224.12 613.872 1220.85 613.029 1217.55 612.267C1214.61 608.718 1212.58 604.267 1212.4 600.139C1212.07 592.158 1214.73 583.292 1215.64 575.328C1216.87 564.641 1218.22 553.998 1218.87 543.255C1218.88 542.977 1218.46 542.895 1218.38 543.166C1214.33 556.174 1210.96 569.518 1207.8 582.784C1205.93 590.646 1202.98 599.869 1203.57 608.12C1192.82 603.104 1189.55 594.472 1189.23 582.003C1189.11 576.92 1188.6 571.89 1188 566.884C1188.37 564.657 1188.7 562.646 1188.88 561.073C1190.19 550.33 1192.51 539.637 1195.66 529.284C1201.65 509.529 1211.95 492.265 1222.51 474.716C1223.38 473.266 1221.41 471.366 1220.14 472.698C1202.55 491.142 1191.53 516.47 1186.24 541.211C1185.96 542.538 1185.75 543.899 1185.49 545.236C1185.32 543.005 1185.19 540.77 1185.14 538.53C1184.84 523.061 1189.53 507.705 1195.6 493.641C1209.01 462.604 1229.04 430.651 1259.01 413.332C1272.41 405.596 1288.43 400.03 1304.13 401.782C1326.1 404.239 1330.6 420.241 1342.3 435.163C1340.1 440.979 1338.59 446.801 1337.89 452.161C1336.24 445.19 1333.47 438.325 1328.26 434.96C1327.24 427.956 1327.99 421.444 1319.8 417.876C1310.34 413.753 1298.65 420.468 1290.79 424.911C1266.21 438.789 1246.55 461.999 1240.86 489.941C1240.41 492.131 1243.24 493.053 1244.17 491.011C1253.17 471.062 1264.87 452.614 1282.56 439.223C1288.83 434.469 1303.02 423.913 1311.81 424.171C1318.65 424.366 1320.64 428.819 1322.82 433.307C1321.38 433.806 1320.5 435.574 1321.77 436.961C1323.91 439.295 1325.68 441.539 1327.21 443.901C1322.33 438.558 1316.33 435.415 1307.85 437.286C1305.7 437.762 1305.46 440.896 1307.62 441.59C1325.32 447.246 1326.19 469.05 1341.84 477.075C1356.15 484.416 1372.2 472.038 1386.63 470.881C1388.19 470.757 1387.85 468.425 1386.44 468.271C1377.45 467.286 1370.53 468.221 1361.87 469.914C1359.68 470.344 1357.72 470.562 1355.94 470.611C1358.2 469.253 1360.4 467.734 1362.67 466.675C1368.22 464.071 1374.36 462.292 1380.31 460.79C1380.84 460.655 1381.18 460.345 1381.38 459.973C1390.62 460.817 1399.39 465.405 1403.86 474.088C1410.69 487.328 1404.64 502.631 1397.5 514.119C1386.39 532.009 1371.29 547.15 1359.91 564.878C1358.75 566.696 1361.34 569.096 1362.91 567.427C1375.62 554.003 1387.23 538.928 1398.1 523.997C1406.18 512.878 1412.95 500.075 1412.03 485.883C1410.86 467.873 1395.49 455.506 1379.14 457.438C1372.36 456.714 1366.08 458.051 1360.04 461.417C1358.49 462.283 1356.82 463.305 1355.24 464.472C1357.21 458.552 1361.31 453.955 1366.35 450.175C1386.88 462.395 1414.65 449.651 1428.13 477.009C1441.7 504.587 1408.5 541.52 1392.46 561.788C1372.63 586.848 1349.17 609.645 1323.05 628.176Z" fill="#212321"/>
<path d="M1247.27 532.543C1252.29 521.287 1254.27 509.401 1258.49 497.912C1263.67 483.802 1273.57 474.291 1282.34 462.54C1283.07 461.571 1281.79 460.159 1280.75 460.762C1255.18 475.515 1245.83 503.922 1243.88 531.916C1243.74 534.006 1246.51 534.244 1247.27 532.543Z" fill="#212321"/>
</g>
<g filter="url(#filter0_d)">
<path d="M367.289 358.03C350.677 351.328 329.221 345.387 311.139 346.121C311.072 346.101 311.013 346.074 310.955 346.047C308.9 345.379 307.517 348.213 309.303 349.427C325.875 360.704 339.789 372.173 346.21 391.872C350.907 406.298 349.968 422.437 357.521 435.967C366.646 452.319 394.734 472.717 415.539 468.615C416.033 469.218 416.542 469.816 417.052 470.413C417.168 470.792 417.421 471.068 417.743 471.228C431.127 486.714 448.403 499.75 469.091 500.738C471.007 500.829 471.588 498.04 469.727 497.44C449.386 490.82 434.055 480 421.295 465.807C429.78 437.914 426.717 406.397 406.38 384.051C395.705 372.334 381.926 363.926 367.289 358.03Z" fill="#8DC63F"/>
<path d="M383.889 351.277C367.277 344.575 345.821 338.635 327.739 339.369C327.672 339.349 327.613 339.322 327.555 339.294C325.5 338.626 324.118 341.461 325.903 342.675C342.475 353.952 356.389 365.421 362.81 385.12C367.507 399.546 366.568 415.685 374.121 429.215C383.247 445.567 411.334 465.965 432.139 461.863C432.633 462.466 433.143 463.064 433.652 463.661C433.768 464.04 434.021 464.315 434.343 464.476C447.727 479.969 465.003 492.998 485.691 493.986C487.607 494.077 488.188 491.288 486.327 490.688C465.986 484.068 450.655 473.247 437.896 459.055C446.38 431.162 443.317 399.645 422.98 377.299C412.306 365.582 398.525 357.181 383.889 351.277ZM415.251 378.553C436.337 399.928 435.294 427.149 433.982 454.523C431.204 451.149 428.555 447.581 425.984 443.883C428.905 433.316 427.345 422.238 423.665 411.855C424.359 410.608 424.817 409.162 425.215 407.915C425.843 405.931 426.475 403.485 425.326 401.586C425.109 401.238 424.635 401.172 424.381 401.523C423.252 403.1 423.243 405.237 422.922 407.093C422.819 407.652 422.671 408.208 422.5 408.761C420.352 403.38 417.685 398.225 414.828 393.478C414.403 392.774 413.263 393.081 413.418 393.954C415.02 403.055 418.567 411.162 421.343 419.907C423.34 426.19 422.583 432.728 422.821 439.166C420.702 435.925 418.627 432.604 416.608 429.144C410.517 418.708 404.761 407.851 398.306 397.516C399.089 392.552 397.874 386.984 396.614 382.312C396.555 382.089 396.488 381.865 396.429 381.641C397.45 379.981 397.86 377.564 398.159 375.91C398.654 373.159 398.515 370.664 396.969 368.297C396.724 367.916 395.951 367.782 395.839 368.37C395.346 370.788 395.423 373.098 395.314 375.56C395.29 376.072 395.199 376.586 395.091 377.107C393.781 373.103 392.023 369.111 389.208 366.233C388.678 365.695 387.562 366.087 387.788 366.927C389.26 372.408 392.324 377.329 393.815 382.872C394.735 386.288 395.127 389.875 395.683 393.399C388.541 382.491 380.424 372.326 370.011 364.096C369.703 363.853 369.334 364.317 369.563 364.598C384.813 383.163 395.771 404.049 407.57 424.56C399.889 420.123 394.816 413.117 388.281 406.772C387.538 406.051 386.19 406.796 386.707 407.809C388.32 411.012 390.311 414.138 392.634 416.979C391.909 416.721 391.202 416.433 390.529 416.081C388.192 414.832 386.005 412.493 383.446 411.87C383.386 411.858 383.337 411.907 383.363 411.962C384.505 414.669 388.28 417.203 390.709 418.738C392.356 419.776 394.381 420.827 396.388 421.008C400.222 424.582 404.742 427.323 409.869 428.539C413.947 435.538 418.166 442.48 422.732 449.244C424.77 452.26 426.958 455.287 429.278 458.286C416.208 455.793 405.217 451.123 393.939 442.691C377.552 430.455 374.417 415.663 371.126 396.773C367.554 376.269 356.14 354.684 337.589 343.855C348.815 347.229 360.767 349.117 371.769 352.943C387.849 358.532 403.187 366.324 415.251 378.553Z" fill="#212321"/>
</g>
<g clip-path="url(#clip2)">
<path d="M1264.02 638.099C1264.84 637.555 1265.71 636.96 1266.69 636.036C1271.26 631.802 1275.73 628.98 1279.76 624.094C1281.13 622.468 1279.38 619.86 1277.37 620.297C1265.33 623.069 1253.83 623.227 1241.63 622.955C1244.68 617.095 1247.08 610.956 1248.44 605.311C1251.06 594.566 1247.41 589.459 1237.27 585.662C1230.52 583.111 1222.46 577.953 1219.46 586.858C1216.95 594.186 1216.03 602.926 1214.56 610.526C1213.96 613.836 1213.31 617.152 1212.76 620.512C1203.88 609.165 1193.8 600.698 1180.89 593.857C1179.26 592.99 1176.92 593.585 1176.81 595.755C1176.43 604.66 1178.44 612.532 1182.75 619.101C1169.95 614.051 1157.2 613.943 1145.33 617.367C1127.79 592.718 1095.38 571.872 1069.39 590.712C1069.5 589.895 1069.61 588.971 1069.61 587.782C1069.44 582.352 1070.2 577.846 1069.39 572.416C1069.12 570.568 1066.34 570.188 1065.52 571.764C1060.35 581.156 1053.76 588.756 1046.51 596.464C1044.49 591.091 1041.82 585.984 1038.94 581.807C1033.44 573.884 1027.99 573.283 1019.66 577.624C1014.09 580.554 1006.02 582.776 1010.11 589.889C1013.43 595.749 1018.56 601.451 1022.7 606.773C1024.49 609.108 1026.29 611.444 1028.2 613.722C1015.67 612.905 1004.23 614.538 992.299 618.937C990.825 619.481 989.847 621.322 991.206 622.683C996.763 628.113 1003.08 631.372 1009.89 632.403C975.896 649.446 974.048 694.935 993.55 725.666C1018.12 764.212 1061.21 775.502 1100.48 754.599C1111.87 771.534 1129.57 784.672 1152.39 791.735C1202.4 807.151 1264.01 794.886 1290.65 746.297C1308.47 713.718 1309.23 647.813 1264.02 638.099Z" fill="#FD2A53"/>
<path d="M1255.94 624.328C1256.76 623.784 1257.63 623.189 1258.61 622.265C1263.19 618.031 1267.65 615.209 1271.69 610.323C1273.05 608.697 1271.31 606.089 1269.29 606.526C1257.25 609.298 1245.76 609.456 1233.56 609.184C1236.61 603.324 1239.01 597.185 1240.37 591.54C1242.98 580.795 1239.33 575.688 1229.2 571.891C1222.44 569.34 1214.38 564.182 1211.38 573.087C1208.88 580.415 1207.96 589.155 1206.48 596.755C1205.89 600.065 1205.23 603.381 1204.69 606.741C1195.81 595.394 1185.73 586.927 1172.82 580.086C1171.19 579.219 1168.84 579.814 1168.74 581.984C1168.36 590.889 1170.37 598.761 1174.67 605.33C1161.87 600.28 1149.13 600.172 1137.25 603.596C1119.71 578.94 1087.29 558.094 1061.31 576.934C1061.42 576.118 1061.53 575.194 1061.53 574.004C1061.36 568.574 1062.12 564.069 1061.31 558.639C1061.04 556.791 1058.26 556.411 1057.44 557.987C1052.27 567.378 1045.67 574.979 1038.43 582.687C1036.42 577.314 1033.74 572.207 1030.86 568.03C1025.35 560.101 1019.91 559.506 1011.57 563.847C1006.02 566.777 997.953 569.005 1002.04 576.118C1005.36 581.978 1010.49 587.68 1014.63 593.002C1016.43 595.337 1018.22 597.673 1020.13 599.951C1007.6 599.134 996.162 600.767 984.23 605.165C982.757 605.71 981.779 607.551 983.138 608.912C988.694 614.342 995.013 617.601 1001.82 618.632C967.827 635.681 965.973 681.17 985.474 711.901C1010.04 750.448 1053.13 761.738 1092.41 740.835C1103.79 757.77 1121.5 770.908 1144.32 777.97C1194.33 793.386 1255.94 781.122 1282.58 732.532C1300.4 699.947 1301.16 634.042 1255.94 624.328ZM1173.96 586.598C1185.02 593.11 1194.18 601.255 1202.08 611.677C1202.62 612.437 1203.28 612.652 1203.98 612.652C1203.71 615.202 1203.6 617.81 1203.76 620.36C1203.82 620.797 1204.36 620.74 1204.53 620.417C1208.18 613.253 1209.7 605.001 1211.44 597.128C1212.8 590.667 1213.4 574.055 1220.32 573.84C1227.73 573.625 1235.3 582.472 1235.63 589.148C1233.56 588.496 1231.43 588.06 1229.42 587.142C1226.75 585.946 1224.52 584.212 1221.96 582.959C1221.2 582.579 1220.65 583.503 1220.92 584.098C1223.32 588.389 1229.58 592.566 1234.87 593.382C1234.05 595.932 1232.69 598.647 1231.76 600.653C1227.56 610.152 1221.03 617.101 1215.42 625.682C1214.27 627.473 1216.45 629.429 1218.14 628.182C1223.7 624.164 1228.49 618.139 1232.3 611.513C1242.49 614.171 1252.52 614.171 1262.75 612.652C1257.85 616.943 1252.46 619.816 1245.81 621.993C1244.45 622.43 1243.95 624.328 1244.5 625.524C1247.99 632.852 1252.13 638.225 1258.12 642.896C1248.15 646.478 1238.13 643.712 1231.05 634.972C1229.91 633.561 1227.24 633.454 1226.26 635.137C1222.39 641.814 1218.25 647.566 1213.29 653.053C1213.73 648.49 1214.11 643.984 1214.49 639.428C1214.71 637.042 1211.66 635.409 1209.8 637.042C1201.03 644.535 1191.72 648.661 1180.82 650.123C1183.93 641.706 1188.99 635.574 1196.94 630.416C1199.45 628.79 1197.05 625.638 1194.77 625.803C1184.14 626.454 1173.68 627.106 1164.32 621.619C1172.81 621.455 1180.93 620.316 1189.43 617.981C1191.39 617.436 1192.54 614.563 1190.47 613.26C1180.01 606.899 1174.56 597.995 1173.96 586.598ZM989.126 608.203C999.801 604.786 1010.42 603.59 1021.81 604.514C1022.63 604.621 1023.17 604.299 1023.55 603.862C1025.07 605.488 1026.71 607.064 1028.45 608.475C1028.78 608.69 1029.05 608.311 1028.94 608.039C1026.38 601.47 1021.86 595.717 1017.72 590.072C1014.34 585.402 1003.83 575.415 1007.7 570.802C1011.84 565.859 1022.03 566.024 1026.55 569.72C1024.92 570.694 1023.44 571.834 1021.65 572.599C1019.36 573.631 1016.91 574.118 1014.56 574.985C1013.91 575.257 1014.24 576.181 1014.73 576.339C1018.93 577.263 1025.3 575.637 1028.89 572.65C1030.09 574.713 1031.02 577.156 1031.83 578.896C1035.59 587.148 1036.35 595.401 1038.7 603.976C1039.18 605.824 1041.74 605.552 1041.91 603.704C1042.46 597.73 1041.36 591.161 1039.24 584.864C1046.87 579.763 1052.7 573.245 1057.6 565.752C1057.6 571.454 1056.35 576.612 1053.9 582.2C1053.41 583.339 1054.39 584.699 1055.42 585.022C1062.23 587.028 1068.17 587.465 1074.71 586.326C1071.22 594.85 1063.65 599.736 1053.79 599.248C1052.21 599.191 1050.63 600.824 1051.17 602.451C1053.24 608.804 1054.6 614.829 1055.31 621.233C1052.59 618.354 1049.87 615.481 1047.14 612.601C1045.67 611.026 1042.84 612.057 1042.84 614.228C1042.62 624.214 1039.95 632.631 1034.56 640.561C1030.9 633.669 1029.82 626.878 1031.07 618.734C1031.45 616.126 1028.02 615.854 1026.76 617.43C1021.04 624.708 1015.38 631.872 1006.44 634.751C1011.24 629.157 1015.16 623.24 1018.59 616.348C1019.35 614.772 1018.15 612.386 1016.14 612.981C1005.91 616.019 996.918 614.443 989.126 608.203ZM999.699 718.894C972.895 690.34 966.9 634.371 1011.57 619.658C1007.92 625.847 1003.73 631.384 998.499 636.65C997.248 637.896 997.902 640.719 999.972 640.561C1011.47 639.637 1018.98 633.612 1025.96 625.632C1026.01 632.852 1028.08 639.257 1032.33 645.883C1033.37 647.459 1035.27 647.402 1036.37 645.99C1042.52 638.067 1046.01 629.707 1047.26 620.202C1050.42 623.676 1053.53 627.151 1056.69 630.625C1058.21 632.251 1061.48 631.169 1061.42 628.834C1061.04 620.309 1059.63 612.437 1057.18 604.349C1068.94 603.425 1077.93 595.774 1080.6 583.775C1080.98 582.092 1079.62 580.193 1077.71 580.738C1074.44 581.605 1068.12 583.775 1064.97 582.421C1063.44 581.769 1062.52 581.225 1061.92 580.681C1086.98 569.283 1113.62 584.864 1127.83 607.064C1124.67 608.532 1121.57 610.266 1118.58 612.222C1112.09 600.767 1102.73 591.591 1090.63 586.978C1090.57 586.978 1090.52 587.085 1090.57 587.142C1099.94 596.046 1108.22 605.058 1114.11 615.373C1099.07 626.771 1087.42 643.984 1082.07 662.659C1075.16 686.872 1076.9 709.889 1085.88 729.216C1056.84 745.55 1024.26 745.062 999.699 718.894ZM1264.17 734.367C1235.08 764.984 1193.31 774.648 1152.61 764.168C1132.01 758.903 1114.47 748.859 1102.66 734.582C1099.77 731.108 1097.21 727.362 1095.03 723.343C1088.44 711.18 1085.33 696.745 1086.86 680.183C1088.87 658.249 1100.36 635.561 1117.09 621.278C1118.51 620.082 1119.98 618.943 1121.45 617.911C1124.44 615.683 1127.55 613.785 1130.76 612.209C1133.87 610.69 1137.14 609.444 1140.46 608.52C1153.1 605.045 1166.99 606.292 1181.26 614.437C1173.14 616.063 1165.14 616.772 1156.64 616.285C1154.57 616.177 1152.66 618.943 1154.4 620.575C1163.99 629.644 1174.89 631.486 1187.09 631.327C1180.94 636.865 1177.01 643.541 1174.56 652.281C1174.01 654.287 1175.49 655.92 1177.56 655.755C1189.05 654.939 1198.91 651.521 1208.06 645.389C1207.47 650.711 1206.86 656.027 1206.32 661.349C1205.99 663.9 1209.48 665.912 1211.44 664.007C1218.47 657.223 1224.18 650.003 1229.25 641.75C1239 651.091 1252.45 652.933 1264.82 645.984C1266.51 645.009 1267.11 642.453 1265.26 641.206C1261.99 639.086 1255.29 635.346 1254.09 631.65C1253.44 629.802 1253.22 628.612 1253.22 627.739C1293.7 645.446 1291.14 706.028 1264.17 734.367Z" fill="#212321"/>
<path d="M1115.29 680.62C1115.73 679.753 1116.11 678.829 1116.54 677.905C1116.54 677.848 1116.54 677.848 1116.54 677.797V677.741C1116.54 677.525 1116.33 677.418 1116.1 677.525C1107.88 681 1104.55 691.1 1106.3 699.51C1106.57 700.814 1106.95 702.118 1107.5 703.314C1107.5 703.371 1107.56 703.421 1107.56 703.478C1108.04 704.674 1110.22 704.402 1110.17 702.991C1110.17 702.339 1110.11 701.687 1110.17 701.036C1110.23 694.087 1112.03 688.277 1114.64 682.088C1114.85 681.601 1115.07 681.114 1115.29 680.62Z" fill="#212321"/>
<path d="M1269.73 657.059C1269.67 656.952 1269.56 656.952 1269.56 657.059C1268.59 684.309 1264.66 708.687 1244.51 728.938C1226.69 746.961 1205.88 749.841 1183.06 756.947C1181.16 757.542 1181.1 760.15 1183.23 760.479C1233.67 767.864 1288.14 705.162 1269.73 657.059Z" fill="#212321"/>
<path d="M1118.72 700.599C1118.61 699.839 1118.39 699.08 1118.07 698.371C1117.74 697.612 1116.87 697.504 1116.27 697.934C1113.93 699.561 1113.22 703.529 1113.27 706.187C1113.27 706.516 1113.27 706.782 1113.33 707.111C1113.49 709.933 1113.98 712.813 1116.05 714.983C1117.09 716.072 1118.78 715.528 1118.99 714.009C1119.43 711.294 1118.78 708.471 1118.78 705.706C1118.78 704.073 1118.94 702.282 1118.72 700.599Z" fill="#212321"/>
<path d="M1015.43 698.352C1015.34 698.137 1015.03 698.207 1014.96 698.403C1012.06 706.991 1018.8 716.388 1026.89 719.008C1027.97 719.356 1029.06 717.818 1028.11 717.027C1021.77 711.756 1018.63 705.731 1015.43 698.352Z" fill="#212321"/>
<path d="M1034.88 713.028C1033.35 711.68 1031.68 709.807 1029.68 709.212C1029 709.009 1028.43 709.515 1028.36 710.161C1028.06 712.629 1030.22 715.35 1032.01 716.85C1034.11 718.597 1036.47 720.274 1039.33 720.16C1040.64 720.109 1041.27 718.698 1040.43 717.698C1038.9 715.831 1036.69 714.61 1034.88 713.028Z" fill="#212321"/>
</g>

<g>
<path d="M92.0981 146.011C69.788 132.974 40.406 120.011 14.4435 117.28C14.3523 117.237 14.2741 117.186 14.1959 117.135C11.4036 115.753 8.83745 119.509 11.1317 121.615C32.4289 141.174 49.8917 160.452 54.9392 189.91C58.6291 211.481 53.9158 234.32 61.8684 255.21C71.4766 280.456 107.303 315.439 137.855 313.932C138.434 314.897 139.037 315.856 139.639 316.815C139.726 317.38 140.029 317.826 140.455 318.122C156.322 343.023 178.256 365.24 207.578 370.973C210.292 371.503 211.705 367.644 209.174 366.398C181.524 352.699 161.905 334.051 146.658 311.127C164.598 273.09 166.811 227.465 142.455 191.32C129.667 172.366 111.757 157.486 92.0981 146.011Z" fill="#8DC63F"/>
<path d="M112.375 141.378C90.0648 128.341 60.6828 115.379 34.7203 112.647C34.6291 112.604 34.5509 112.553 34.4727 112.502C31.6804 111.12 29.1143 114.876 31.4085 116.983C52.7057 136.541 70.1685 155.819 75.216 185.277C78.906 206.848 74.1926 229.688 82.1452 250.577C91.7534 275.823 127.58 310.807 158.132 309.299C158.711 310.264 159.313 311.223 159.916 312.182C160.002 312.747 160.305 313.194 160.732 313.49C176.597 338.401 198.533 360.607 227.854 366.341C230.569 366.871 231.982 363.012 229.45 361.765C201.801 348.066 182.181 329.419 166.935 306.495C184.874 268.457 187.088 222.832 162.731 186.687C149.944 167.733 132.031 152.864 112.375 141.378ZM151.437 186.863C177.066 221.778 169.89 260.412 162.296 299.209C159.037 293.813 156.001 288.167 153.104 282.351C159.482 267.879 159.569 251.742 156.488 236.153C157.739 234.518 158.695 232.55 159.523 230.854C160.834 228.152 162.247 224.794 161.004 221.843C160.767 221.3 160.105 221.107 159.669 221.555C157.728 223.57 157.269 226.619 156.422 229.201C156.158 229.977 155.831 230.739 155.471 231.494C153.53 223.365 150.801 215.449 147.715 208.077C147.255 206.982 145.564 207.183 145.602 208.461C145.988 221.786 149.355 234.099 151.491 247.16C153.028 256.546 150.582 265.718 149.576 274.958C147.228 269.889 144.961 264.715 142.802 259.355C136.289 243.186 130.343 226.488 123.288 210.388C125.444 203.466 124.873 195.265 124.052 188.334C124.014 188.002 123.966 187.668 123.928 187.337C125.733 185.18 126.822 181.817 127.595 179.518C128.876 175.696 129.199 172.105 127.486 168.403C127.217 167.808 126.142 167.456 125.858 168.272C124.649 171.62 124.277 174.933 123.607 178.424C123.466 179.15 123.228 179.865 122.966 180.585C121.933 174.597 120.257 168.532 116.841 163.836C116.198 162.957 114.523 163.283 114.669 164.53C115.625 172.661 118.97 180.325 119.939 188.548C120.539 193.615 120.348 198.817 120.405 203.963C112.491 186.902 103.03 170.697 89.8883 156.774C89.4987 156.363 88.8751 156.947 89.1439 157.397C107.03 187.081 118.306 219.182 130.86 250.923C120.824 242.984 115.048 231.925 107.046 221.503C106.136 220.319 104.057 221.101 104.582 222.655C106.215 227.564 108.404 232.441 111.127 236.982C110.146 236.461 109.196 235.903 108.31 235.259C105.235 232.989 102.603 229.193 99.0803 227.769C98.9974 227.739 98.9168 227.799 98.9428 227.883C100.006 231.985 104.865 236.392 108.012 239.09C110.145 240.915 112.816 242.839 115.643 243.516C120.368 249.419 126.246 254.276 133.31 257.084C137.668 267.925 142.239 278.715 147.343 289.323C149.621 294.053 152.111 298.831 154.795 303.597C136.663 297.308 121.951 288.345 107.615 273.954C86.7843 253.064 85.4004 231.296 84.6511 203.648C83.8378 173.635 72.0567 140.441 47.842 121.109C63.1589 128.271 79.8241 133.463 94.7272 141.222C116.511 152.56 136.774 166.887 151.437 186.863Z" fill="#212321"/>
</g>
<g>
<path d="M1915.28 102.202C1889.66 108.152 1864.43 115.646 1839.84 124.931C1846.61 118.224 1852.66 111.02 1857.91 102.881C1858.82 101.467 1857.55 99.6365 1855.88 100.262C1840.55 105.988 1826.31 113.63 1813.05 123.015C1823.59 107.127 1832.94 90.6682 1837.96 72.0729C1838.4 70.4517 1836.14 69.9769 1835.25 70.9544C1820.85 86.7757 1806.4 102.559 1791.96 118.337C1788.32 86.243 1803.32 55.3267 1800.32 23.12C1800.2 21.7845 1798.69 21.4039 1797.69 22.0349C1781.02 32.6263 1775.58 51.1242 1771.13 69.2448C1765.62 91.726 1760.63 114.433 1757.63 137.389C1751.9 134.734 1745.64 133.026 1739.47 134.942C1730.77 137.649 1725.98 147.083 1718.93 152.229C1711.51 157.642 1703.53 161.503 1697.66 168.804C1690.69 177.459 1686.58 187.925 1679.35 196.443C1670.66 206.678 1659.69 214.639 1649.46 223.227C1639.99 231.178 1631.49 240.101 1623.58 249.581C1606.89 269.583 1580.21 314.871 1580.42 314.602C1579.95 317.018 1580.15 319.476 1581.56 321.818C1584.56 326.77 1590.19 326.546 1594.92 324.484C1602.85 321.021 1609.62 313.498 1616.04 307.919C1626.07 299.2 1636.24 290.847 1648.53 285.419C1659.34 280.64 1671.09 278.379 1681.78 273.28C1691.57 268.615 1700.46 262.246 1709.02 255.68C1718.35 248.542 1727.36 240.91 1737.35 234.69C1747.83 228.174 1759.33 225.115 1770.52 220.22C1786.61 213.18 1798 199.913 1796.1 181.695C1844.41 170.651 1886.1 145.298 1918.4 107.607C1920.2 105.505 1918.13 101.536 1915.28 102.202Z" fill="#FD7F06"/>
<path d="M1911.14 91.8579C1885.52 97.8075 1860.29 105.302 1835.71 114.587C1842.48 107.88 1848.53 100.676 1853.78 92.5373C1854.69 91.1225 1853.41 89.2926 1851.74 89.9185C1836.41 95.6441 1822.17 103.292 1808.92 112.671C1819.45 96.7832 1828.8 80.3242 1833.83 61.7289C1834.27 60.1078 1832 59.633 1831.11 60.6104C1816.71 76.4317 1802.27 92.2153 1787.82 107.993C1784.18 75.899 1799.18 44.9827 1796.19 12.776C1796.07 11.4405 1794.55 11.0599 1793.56 11.691C1776.89 22.2823 1771.45 40.7802 1767 58.9008C1761.48 81.382 1756.5 104.089 1753.49 127.045C1747.76 124.39 1741.51 122.682 1735.33 124.598C1726.63 127.305 1721.85 136.739 1714.79 141.885C1707.37 147.298 1699.39 151.159 1693.52 158.46C1686.56 167.115 1682.45 177.581 1675.21 186.1C1666.52 196.334 1655.55 204.295 1645.33 212.883C1635.85 220.834 1627.35 229.757 1619.44 239.237C1602.76 259.239 1576.08 304.526 1576.29 304.258C1575.82 306.674 1576.01 309.132 1577.43 311.474C1580.42 316.426 1586.06 316.202 1590.79 314.14C1598.71 310.677 1605.48 303.154 1611.9 297.575C1621.93 288.856 1632.1 280.503 1644.39 275.075C1655.21 270.296 1666.96 268.035 1677.65 262.936C1687.44 258.271 1696.32 251.902 1704.89 245.336C1714.21 238.198 1723.22 230.566 1733.21 224.346C1743.69 217.83 1755.19 214.771 1766.38 209.876C1782.47 202.836 1793.86 189.569 1791.97 171.352C1840.27 160.307 1881.96 134.954 1914.26 97.2629C1916.07 95.1601 1913.99 91.198 1911.14 91.8579ZM1779.87 181.51C1779.71 180.837 1779.55 180.206 1779.39 179.654C1777.85 174.285 1774.66 169.141 1769.67 166.406C1769.47 166.299 1769.27 166.585 1769.41 166.747C1773.02 171.106 1776.04 175.385 1776.97 181.087C1777.4 183.708 1776.7 186.492 1776.46 189.133C1775.68 190.292 1774.83 191.435 1773.82 192.533C1767 199.91 1757.22 204.023 1747.51 208.094C1748.03 206.162 1747.96 203.849 1747.95 202.201C1747.92 198.758 1747.8 193.132 1744.77 190.872C1744.18 190.43 1743.38 190.806 1743.26 191.501C1742.64 194.845 1744.72 198.505 1744.86 201.971C1744.96 204.191 1744.1 207.051 1744.49 209.368C1739.23 211.592 1734.09 213.901 1729.54 216.815C1725.37 219.479 1721.42 222.412 1717.54 225.458C1718.96 218.512 1716.23 209.297 1712.14 205.416C1711.91 205.202 1711.58 205.466 1711.6 205.723C1712.13 211.75 1717.11 220.963 1714.9 227.578C1712.62 229.419 1710.37 231.288 1708.12 233.168C1710.36 218.151 1696.75 197.605 1682.13 195.911C1681.39 195.822 1681.05 196.744 1681.6 197.203C1687.51 202.232 1694.07 205.063 1698.67 211.693C1703.77 219.076 1704.13 226.902 1705.81 235.098C1704.01 236.594 1702.21 238.086 1700.4 239.566C1700.42 237.655 1700.24 235.745 1699.79 233.838C1699.18 231.264 1698.46 228.139 1695.97 226.834C1695.48 226.576 1695.04 227.084 1695.05 227.537C1695.08 230.06 1696.93 232.383 1697.6 234.83C1698.18 236.947 1698.4 239.071 1698.36 241.22C1694.47 244.346 1690.52 247.388 1686.39 250.182C1685.77 250.6 1685.12 250.985 1684.5 251.386C1684.62 250.92 1684.74 250.461 1684.85 250.021C1685.74 246.499 1686.17 243.018 1685.45 239.446C1685.33 238.848 1684.43 238.786 1684.34 239.442C1683.88 242.782 1683.62 246.179 1682.68 249.44C1682.3 250.76 1681.67 252.067 1681.12 253.385C1674.1 257.278 1666.59 260.01 1659.08 262.724C1659.01 262.253 1658.93 261.778 1658.81 261.319C1658.12 258.65 1656.31 255.048 1653.04 255.598C1652.59 255.673 1652.36 256.096 1652.5 256.516C1653.22 258.577 1655.06 259.79 1655.8 261.85C1656.03 262.491 1656.14 263.132 1656.2 263.773C1647.85 266.813 1639.58 270.02 1632.09 274.969C1623.84 280.417 1616.52 287.487 1609.23 294.126C1605.74 297.302 1602.28 300.507 1598.68 303.555C1596.92 305.042 1595.1 306.656 1593.22 308.01C1591.92 308.853 1590.62 309.697 1589.32 310.54C1581.57 306.365 1579.45 301.803 1582.93 296.826C1583.17 296.337 1583.06 295.87 1582.8 295.497C1589.39 286.318 1595.64 276.882 1602.34 267.759C1602.52 267.838 1602.72 267.896 1602.97 267.871C1609.62 267.321 1613.99 271.242 1617.82 276.08C1618.31 276.696 1619.29 276.261 1619.22 275.506C1618.62 268.549 1610.63 264.641 1604.18 265.309C1605.42 263.662 1606.63 261.994 1607.9 260.374C1613.35 253.461 1619.1 246.873 1625.11 240.538C1626.17 241.248 1627.04 241.179 1628.44 241.384C1630.67 241.711 1632.92 242.302 1634.93 243.328C1639.74 245.784 1641.21 250.23 1644.6 253.946C1645 254.384 1645.83 254.258 1645.9 253.599C1646.45 248.347 1641.54 243.628 1637.29 241.255C1634.86 239.903 1630 237.917 1626.74 238.852C1630.76 234.679 1634.87 230.595 1639.14 226.663C1645.41 227.469 1651.16 228.701 1656.24 233.233C1663.56 239.766 1663.76 247.668 1664.93 256.549C1665.09 257.79 1666.93 258.096 1667.4 256.877C1673.24 241.645 1657.89 224.409 1642.39 223.698C1644.19 222.085 1646.02 220.495 1647.87 218.926C1649.3 217.707 1650.76 216.504 1652.21 215.308C1654.2 215.309 1659.19 215.124 1659.93 215.244C1664.29 215.919 1668.27 217.776 1671.55 220.712C1677.61 226.137 1678.82 233.376 1679.55 241.05C1679.61 241.691 1680.64 241.867 1680.84 241.224C1685.93 225.166 1670.25 212.122 1655.31 212.774C1665.61 204.384 1676.04 196.024 1683.92 185.266C1685.43 185.646 1686.96 185.415 1688.64 185.495C1691.91 185.652 1695.07 186.327 1698.05 187.727C1701.13 189.184 1703.79 191.384 1706.08 193.887C1707.94 195.925 1709.17 198.407 1711.31 200.144C1711.74 200.488 1712.54 200.215 1712.56 199.627C1712.83 192.989 1705.52 187.319 1700.03 184.883C1696.67 183.387 1690.06 181.443 1685.66 182.741C1688.87 177.93 1691.57 172.807 1694.69 167.934C1695.94 168.051 1697.12 167.926 1698.8 168.121C1703.67 168.686 1708.23 171.046 1711.63 174.495C1718.09 181.059 1718.61 189.873 1721.88 197.958C1722.18 198.69 1723.1 198.422 1723.27 197.777C1725.97 187.808 1720.82 175.989 1712.7 169.827C1709.12 167.108 1702.14 163.799 1696.86 164.695C1700.21 160.191 1704.17 156.913 1708.46 153.874C1708.71 153.848 1708.98 153.827 1709.26 153.811C1711.44 153.703 1713.66 154.212 1715.67 155.02C1719.47 156.538 1721.98 159.575 1724.98 162.163C1725.48 162.585 1726.45 162.754 1727.03 162.424C1727.38 162.226 1727.67 162.094 1727.89 161.764C1728.39 161.019 1728.48 159.983 1727.87 159.251C1724.83 155.549 1720.42 152.255 1715.74 150.971C1715.07 150.789 1714.23 150.637 1713.32 150.553C1714.64 149.666 1715.97 148.772 1717.32 147.833C1717.33 147.82 1717.35 147.806 1717.37 147.791C1725.37 148.486 1732.48 151.129 1737.91 157.789C1744.3 165.63 1745.1 175.605 1749.25 184.461C1749.97 186.014 1752.28 185.753 1752.57 184.033C1755.24 167.975 1741.34 142.937 1723.57 142.157C1727.37 138.121 1730.96 133.762 1735.65 131.559C1746.06 126.675 1758.65 137.57 1766.02 144.514C1775.86 153.798 1783.22 168.491 1779.87 181.51ZM1790.41 163.742C1789.57 161.058 1788.45 158.493 1787.1 156.047C1796.75 154.684 1806.41 151.399 1815.34 147.992C1825.84 143.988 1838.56 139.883 1846.79 132.02C1847.57 131.283 1847.2 129.538 1845.88 129.838C1835.23 132.257 1825.39 138.637 1815.18 142.581C1805.38 146.377 1795.05 149.137 1785.27 153.002C1783.62 150.449 1781.68 148.062 1779.59 145.793C1782.51 143.816 1785.01 140.676 1787.5 138.374C1790.77 135.346 1794.2 132.561 1797.26 129.319C1797.71 128.845 1797.04 127.993 1796.46 128.299C1792.26 130.525 1788.63 133.583 1785.22 136.879C1782.95 139.063 1780.04 141.645 1778.4 144.534C1777.29 143.4 1776.15 142.287 1774.97 141.221C1785.48 126.024 1796.99 112.165 1808.72 97.7764C1809.04 97.382 1808.49 96.8448 1808.09 97.1567C1793.93 108.325 1782.12 123.888 1773.53 139.938C1769.86 136.812 1765.89 134.042 1761.84 131.6C1764.38 117.236 1765.01 102.616 1768.28 88.2989C1772.05 71.7809 1777.73 56.1359 1783.74 40.331C1784 39.6523 1783.04 39.2715 1782.71 39.9023C1775.18 54.4633 1769.93 70.3798 1766.25 86.3203C1762.99 100.479 1759.66 116.113 1760.62 130.864C1760.28 130.669 1759.94 130.449 1759.61 130.258C1758.27 129.492 1756.88 128.725 1755.44 128.004C1759.42 108.8 1763.03 89.5251 1767.53 70.4316C1772.14 50.918 1776.12 28.6132 1793.1 16.0149C1795.16 48.2788 1780.12 79.3148 1785.18 111.665C1785.39 113.04 1787.01 113.355 1787.9 112.391C1801.53 97.4381 1815.17 82.4961 1828.84 67.5756C1822.56 86.0966 1812.08 102.584 1800.91 118.681C1799.88 120.174 1801.72 122.129 1803.23 120.957C1816.98 110.258 1831.84 101.763 1847.88 95.1628C1841.93 103.722 1835.07 111.448 1826.87 118.075C1825.28 119.352 1826.76 121.736 1828.63 121.084C1852.55 112.789 1876.81 105.9 1901.54 100.685C1871.06 130.768 1831.82 152.951 1790.41 163.742Z" fill="#212321"/>
</g>
<g>
<path d="M1677.13 370.426C1668.09 370.167 1659.64 367.353 1652.48 361.865C1651.45 361.076 1650.6 360.247 1649.74 359.571C1650.21 358.902 1650.63 358.202 1650.99 357.483C1658.21 348.716 1672.19 334.134 1664.53 323.559C1657.24 313.48 1638.45 312.959 1627.8 316.838C1627.57 316.925 1627.52 317.116 1627.58 317.297C1625.02 318.487 1624.38 320.571 1625.65 325.785C1627.97 335.275 1628.47 344.863 1627.16 354.481C1626.9 354.474 1626.62 354.473 1626.24 354.472C1623.84 354.469 1621.68 354.264 1619.38 353.509C1615.24 352.151 1611.79 349.601 1608.39 346.983C1607.68 346.43 1606.72 346.92 1606.4 347.642C1604.9 351.108 1604.53 354.914 1606.16 358.228C1601.44 358.327 1596.72 358.426 1592 358.525C1590.37 358.56 1589.59 360.143 1590.49 361.449C1591.59 363.043 1592.79 364.403 1594.09 365.583C1582.9 373.661 1581.92 387.532 1579.7 400.536C1577.8 411.708 1573.86 421.12 1562.87 426.127C1553.89 430.219 1543.82 430.305 1534.18 430.992C1518.75 432.093 1504.8 435.835 1493.98 447.514C1484.86 457.378 1480.17 470.536 1481.39 483.848C1482.71 498.162 1490.4 510.989 1502.01 519.416C1513.87 528.023 1531.38 536.692 1546.41 536.417C1562.7 536.121 1579.61 528.362 1594.26 521.965C1601.73 518.696 1609.39 515.318 1616.03 510.511C1623.47 505.117 1629.04 497.641 1634.53 490.405C1646.46 474.675 1657.37 457.937 1663.56 439.125C1666.14 431.281 1667.8 423.055 1668.28 414.825C1668.55 410.079 1669.08 404.032 1667.51 399.124C1669 399.882 1670.48 400.722 1671.99 401.561C1672.9 402.063 1674.43 401.661 1674.4 400.405C1674.23 392.346 1671.73 385.709 1666.43 380.018C1671.87 379.782 1676.86 378.185 1678.18 372.045C1678.35 371.32 1678.01 370.451 1677.13 370.426Z" fill="#FD2A53"/>
<path d="M1627.39 485.802C1639.32 470.072 1650.23 453.334 1656.42 434.522C1659 426.678 1660.66 418.452 1661.14 410.222C1661.41 405.476 1661.94 399.428 1660.37 394.521C1661.86 395.279 1663.34 396.119 1664.85 396.958C1665.76 397.459 1667.29 397.058 1667.26 395.802C1667.09 387.742 1664.58 381.106 1659.28 375.414C1664.73 375.179 1669.72 373.582 1671.04 367.442C1671.19 366.715 1670.85 365.847 1669.97 365.819C1660.93 365.56 1652.49 362.746 1645.33 357.259C1644.3 356.47 1643.45 355.641 1642.58 354.964C1643.06 354.296 1643.47 353.596 1643.83 352.877C1651.06 344.11 1665.03 329.528 1657.38 318.953C1650.09 308.874 1631.29 308.353 1620.65 312.231C1620.41 312.319 1620.36 312.51 1620.42 312.691C1617.86 313.881 1617.22 315.964 1618.49 321.179C1620.82 330.667 1621.32 340.257 1620 349.875C1619.75 349.868 1619.46 349.867 1619.08 349.866C1616.69 349.863 1614.52 349.658 1612.23 348.902C1608.09 347.545 1604.64 344.995 1601.24 342.377C1600.52 341.824 1599.57 342.313 1599.25 343.036C1597.74 346.502 1597.37 350.308 1599 353.622C1594.28 353.721 1589.57 353.82 1584.85 353.919C1583.22 353.953 1582.44 355.537 1583.34 356.842C1584.43 358.437 1585.64 359.797 1586.94 360.977C1575.74 369.055 1574.76 382.925 1572.55 395.93C1570.64 407.102 1566.7 416.514 1555.71 421.521C1546.74 425.612 1536.67 425.698 1527.02 426.386C1511.59 427.487 1497.64 431.228 1486.83 442.907C1477.71 452.776 1473.02 465.93 1474.24 479.242C1475.55 493.556 1483.24 506.383 1494.85 514.81C1506.71 523.416 1524.23 532.086 1539.25 531.811C1555.55 531.515 1572.46 523.756 1587.1 517.359C1594.58 514.09 1602.24 510.711 1608.87 505.905C1616.33 500.514 1621.9 493.039 1627.39 485.802ZM1600.99 345.58C1604.36 348.343 1608.18 350.674 1612.42 351.835C1614.42 352.382 1617.3 353.119 1619.58 352.629C1619.55 352.814 1619.53 353.002 1619.49 353.188C1613.16 353.323 1606.83 353.452 1600.51 353.585C1600.12 350.836 1600.05 348.177 1600.99 345.58ZM1590.24 359.022C1589.61 358.51 1588.98 357.967 1588.39 357.354C1599.37 357.078 1610.34 356.802 1621.31 356.527C1622.48 356.499 1623.08 355.532 1623.09 354.634C1623.3 354.366 1623.46 354.039 1623.53 353.622C1624.49 346.814 1624.69 339.929 1623.75 333.118C1623.26 329.619 1622.48 326.163 1621.48 322.771C1621.44 322.627 1621.38 322.465 1621.31 322.299C1622.44 323.851 1623.88 325.313 1625.43 326.474C1633.09 332.158 1645.44 333.176 1652.05 325.299C1652.27 325.029 1651.91 324.744 1651.65 324.834C1645.63 326.845 1639.37 328.943 1633.04 326.927C1630.08 325.991 1627.53 324.515 1625.28 322.432C1624.43 321.655 1622.95 320.462 1622.48 319.349C1621.83 317.803 1622.74 314.671 1624.17 312.765C1628.29 312.442 1632.42 312.219 1636.54 312.713C1641.48 313.304 1651.57 315.201 1654.34 319.948C1660.11 329.81 1647.64 343.195 1640.56 351.067C1638.36 352.869 1636.34 355.009 1634.25 356.82C1632.71 358.157 1630.89 360.143 1629.04 361.024C1627.4 361.801 1625.76 361.519 1623.98 361.294C1623.91 361.284 1623.85 361.355 1623.87 361.419C1624.82 365.705 1629.48 364.555 1632.39 363.152C1635.63 361.595 1639.18 359.152 1641.72 356.114C1645.64 358.57 1650.15 363.421 1653.28 364.833C1655.69 365.919 1658.17 366.734 1660.75 367.312C1662.73 367.765 1664.72 368.055 1666.74 368.183C1663.79 371.989 1660.26 373.508 1656.14 372.743C1655.08 372.688 1654.1 374.114 1655 374.944C1660.37 379.932 1663.41 385.83 1664.04 392.926C1659.16 390.085 1652.56 386.441 1647.59 387.258C1642.91 388.026 1637.53 393.612 1633.47 397.183C1631.84 393.618 1630.2 390.048 1628.57 386.482C1628.27 385.809 1627.33 385.226 1626.56 385.45C1623.17 386.449 1617.38 389.472 1613.88 389.19C1605.22 388.496 1610.22 378.353 1614.35 374.571C1615.87 373.179 1614.25 370.242 1612.28 371.392C1606.43 374.813 1600.44 377.513 1594.05 379.636C1594.77 374.174 1597.16 369.866 1601.66 365.991C1602.86 364.971 1602.22 362.902 1600.63 362.8C1597.66 362.602 1595.12 361.917 1592.88 360.746C1592.58 359.637 1591.45 358.717 1590.24 359.022ZM1591.24 508.521C1577.21 515.102 1561.69 522.136 1546.3 524.701C1530.96 527.26 1513.99 519.635 1501.08 511.876C1487.47 503.695 1478.92 489.417 1479.5 473.424C1480.09 457.3 1490.85 442.034 1505.96 435.868C1519.48 430.351 1534.33 432.657 1548.33 429.513C1560.23 426.848 1570.39 420.508 1574.92 408.851C1580.75 393.864 1576.98 374.667 1590.89 363.796C1592.64 364.737 1594.53 365.427 1596.58 365.866C1592.44 370.384 1590.29 375.671 1590.06 382.137C1590.02 383.213 1591.04 384.474 1592.26 384.112C1597.31 382.608 1602.12 380.746 1606.81 378.53C1604.76 383.144 1604.76 388.305 1606.99 393.56C1607.3 394.275 1608.33 394.901 1609.14 394.655C1612.3 393.681 1620.46 389.497 1623.59 390.203C1628.39 391.279 1629.29 396.74 1631.21 400.781C1631.71 401.846 1633.07 402.078 1633.97 401.366C1637.09 398.894 1640.52 395.154 1644.07 393.365C1648.53 391.112 1652.46 391.377 1656.25 392.698C1658.6 398.458 1656.66 408.857 1655.75 414.326C1654.55 421.536 1652.52 428.645 1649.93 435.495C1644.51 449.812 1636.24 462.995 1627.27 475.391C1617.07 489.485 1607.3 500.993 1591.24 508.521Z" fill="#212321"/>
<path d="M1632.66 457.627C1640.88 442.438 1648.29 422.564 1649 405.247C1649.03 404.546 1647.99 404.276 1647.75 404.991C1642.49 420.95 1638.85 437.592 1630.95 452.594C1623.94 465.904 1614.12 477.531 1602.67 487.327C1591.25 497.108 1578.01 504.956 1563.76 509.931C1545.58 516.27 1529.7 512.612 1513.82 502.671C1512.81 502.04 1511.62 503.304 1512.4 504.24C1534.98 531.162 1574.88 514.16 1598.15 497.135C1612.42 486.699 1624.28 473.109 1632.66 457.627Z" fill="#212321"/>
<path d="M1535.48 438.835C1522.14 429.454 1504.03 440.158 1494.41 449.852C1493.89 450.377 1494.41 451.375 1495.15 450.996C1501.74 447.71 1507.99 443.682 1515.03 441.384C1521.78 439.181 1528.37 440.214 1535.27 439.793C1535.76 439.765 1535.82 439.077 1535.48 438.835Z" fill="#212321"/>
<path d="M1508.98 452.227C1509.06 452.042 1508.93 451.818 1508.75 451.757C1506.62 451.013 1504.14 452.654 1502.41 453.817C1499.92 455.484 1497.91 457.221 1496.71 459.995C1496.44 460.631 1497.25 461.422 1497.88 461.04C1500.1 459.696 1501.9 457.938 1503.99 456.412C1505.65 455.181 1508.14 454.184 1508.98 452.227Z" fill="#212321"/>
<path d="M1586.57 385.535C1586.36 384.997 1585.45 385.168 1585.45 385.741C1585.39 390.002 1585.53 393.951 1584.69 398.166C1584.18 400.718 1583.47 403.438 1582.14 405.71C1581.08 407.518 1579.64 408.825 1578.87 410.782C1578.65 411.335 1579.26 411.739 1579.75 411.563C1588.53 408.46 1589.33 392.748 1586.57 385.535Z" fill="#212321"/>
<path d="M1589.03 405.774C1589.03 405.653 1588.88 405.535 1588.77 405.639C1587.63 406.761 1586.72 408.086 1585.66 409.29C1584.74 410.325 1583.66 411.302 1583.48 412.721C1583.42 413.219 1583.91 413.567 1584.36 413.508C1587.29 413.132 1589.12 408.298 1589.03 405.774Z" fill="#212321"/>
</g>
<g clip-path="url(#clip3)">
<path d="M1472.4 108.057C1470.97 107.989 1456.94 121.946 1462.26 133.167C1462.74 134.183 1461.63 135.089 1461.53 135.666C1458.38 153.726 1442 171.167 1436.16 176.585C1432 180.441 1383.98 193.849 1379.08 215.569C1374.46 236.077 1383.19 250.852 1401.81 273.952C1404.54 277.343 1410.94 294.077 1415.53 294.851C1422.69 296.058 1442.69 284.152 1448.39 281.425C1460.26 275.737 1489.9 265.656 1489.38 243.77C1488.7 214.916 1467.43 193.672 1465.3 190.164C1458.79 179.453 1467.26 147.195 1468.72 143.31C1470.52 138.521 1479.96 131.582 1479.76 131.313C1479.32 130.73 1476.14 132.662 1473.5 134.417C1475.42 130.156 1474.78 121.451 1474.53 122.204C1473.77 124.455 1473.34 125.989 1473.01 126.601C1472.89 126.828 1470.88 130.138 1470.6 130.122C1470.47 130.114 1470.16 130.071 1470.53 128.277C1470.87 126.6 1471.06 123.189 1471.61 121.085C1471.84 120.246 1472.61 119.548 1472.54 119.553C1469.31 119.679 1466.89 131.528 1466.81 131.231C1463.2 117.282 1473.29 108.097 1472.4 108.057Z" fill="#8DC63F"/>
<path d="M1486.77 238.916C1486.44 221.221 1476.61 210.252 1465.87 196.151C1449.09 174.144 1460.17 151.46 1472.53 136.104C1472.75 135.828 1472.32 135.39 1472.04 135.576C1469.81 137.073 1467.7 138.786 1465.76 140.678C1467.3 135.592 1467.79 130.213 1465.97 124.672C1465.79 124.126 1465.16 124.319 1465.09 124.705C1465 125.219 1464.93 125.733 1464.85 126.248C1463.62 128.148 1463.51 130.801 1462.73 133.044C1461.83 135.624 1460.6 138.036 1459.23 140.33C1459.48 138.967 1459.63 137.538 1459.77 136.025C1460.24 130.683 1460.87 126.119 1463.6 121.816C1463.64 121.75 1463.56 121.615 1463.48 121.655C1463.4 121.694 1463.34 121.744 1463.27 121.783C1463.37 121.679 1463.47 121.578 1463.57 121.474C1463.75 121.291 1463.44 120.885 1463.21 120.993C1458.5 123.253 1455.15 128.378 1453.81 134.07C1453.18 125.594 1452.19 117.068 1457.43 110.386C1457.78 110.065 1458.11 109.743 1458.48 109.429C1458.76 109.191 1458.45 108.544 1458.07 108.725C1450.36 112.429 1447.07 121.444 1446.58 130.904C1446.27 129.975 1445.93 129.046 1445.52 128.121C1445.29 127.594 1444.53 127.722 1444.65 128.277C1454.64 174.357 1392.82 170.429 1374.33 196.063C1353.44 225.024 1388.05 261.605 1397.63 292.918C1397.99 294.095 1399.93 294.571 1399.84 293.135C1399.81 292.556 1399.73 291.981 1399.68 291.406C1400.34 288.453 1400.37 285.13 1400.04 281.744C1400.41 283.12 1400.72 284.505 1400.94 285.864C1401.33 288.298 1401.37 290.996 1402.54 293.325C1402.72 293.671 1403.22 293.877 1403.42 293.541C1403.77 292.951 1403.97 292.278 1404.1 291.577C1404.13 291.562 1404.16 291.573 1404.17 291.555C1404.33 291.422 1404.46 291.265 1404.61 291.126C1406.52 290.539 1408.23 289.534 1409.79 288.331C1409.65 288.885 1409.53 289.46 1409.43 290.055C1408.27 292.553 1407.97 294.707 1408.56 297.693C1408.66 298.229 1409.48 298.629 1409.74 298.14C1410.84 296.077 1411.57 294.127 1412.36 291.87C1412.47 291.573 1412.6 291.242 1412.74 290.905C1412.83 290.838 1412.92 290.798 1413.01 290.704C1425.61 276.22 1448.99 282.924 1465.25 275.11C1478.47 268.756 1487.07 255.249 1486.77 238.916ZM1468.11 262.391C1470.83 257.968 1472.41 252.593 1472.01 247.488C1471.97 246.993 1471.24 246.875 1471.11 247.273C1469.72 251.599 1469.06 255.976 1466.9 259.921C1465.26 262.924 1463.17 265.39 1461.03 267.884C1458.91 269.11 1456.64 270.126 1454.22 270.895C1442.23 274.718 1428.26 273.789 1418.21 280.189C1421.68 276.823 1426.02 274.312 1431.62 272.329C1438.41 269.922 1444.35 267.63 1448.37 261.425C1448.42 261.347 1448.31 261.203 1448.23 261.275C1445.67 263.669 1442.54 265.474 1439.19 267.042C1454.45 255.377 1456.92 227.615 1444.16 208.717C1443.85 208.261 1443.29 208.607 1443.47 209.07C1448.14 220.785 1451.29 231.796 1449.36 243.46C1447.53 254.502 1441.71 261.737 1434.78 268.953C1427.1 272.073 1419.01 274.682 1414 280.294C1412.2 281.254 1410.85 283.132 1409.34 284.42C1409.11 284.618 1408.87 284.809 1408.64 285.005C1409.6 282.849 1410.37 280.557 1411.16 278.379C1413.12 273.014 1415.25 267.522 1416.03 261.638C1416.04 261.547 1415.9 261.476 1415.86 261.552C1413.29 266.116 1411.55 271.257 1409.26 276.018C1407.63 279.412 1405.48 282.706 1404.14 286.334C1404.31 282.757 1404.27 279.126 1404.78 275.614C1405.62 269.753 1407.86 264.641 1409.16 259.003C1409.25 258.607 1408.75 258.23 1408.49 258.552C1407.03 260.386 1405.76 262.74 1404.73 265.368C1400.81 239.925 1406.16 219.463 1417.71 199.442C1417.94 199.048 1417.39 198.57 1417.09 198.905C1402.67 215.188 1398.94 242.191 1404.4 266.211C1402.69 270.935 1401.74 276.501 1401.89 281.83C1401.17 280.403 1400.36 279.058 1399.56 277.909C1399.11 275.21 1398.5 272.54 1397.84 270.049C1395.71 262.115 1390.63 254.918 1389.16 246.922C1389.04 246.277 1388.03 246.142 1388.05 246.814C1388.24 253.538 1391.27 259.396 1393.69 265.875C1394.99 269.381 1395.63 272.884 1396.12 276.38C1392.18 265.54 1385.93 255.143 1381.02 244.507C1376.54 234.832 1372.84 224.178 1373.98 214.213C1375.35 202.232 1383.91 194.048 1393.16 188.686C1395.34 187.419 1397.61 186.28 1399.91 185.202C1388.06 199.367 1383.81 220.163 1388.2 241.687C1388.26 241.999 1388.7 241.985 1388.65 241.671C1384.72 217.744 1391.55 197.094 1405.5 182.721C1417.15 177.8 1429.26 173.696 1438.24 164.591C1444.37 158.387 1448.52 149.288 1448.14 139.564C1448.79 132.906 1449.01 126.636 1450.79 121.019C1449.6 130.901 1453.1 143.913 1451.07 152.253C1450.99 152.577 1451.48 152.981 1451.65 152.651C1453.98 148.215 1454.29 143.219 1454.07 138.085C1454.53 135.365 1455.19 132.744 1456.36 130.315C1457.28 128.387 1458.49 126.817 1459.82 125.351C1456.83 130.769 1457.5 139.642 1456.2 145.254C1456.08 145.734 1456.72 146.244 1457.02 145.819C1457.24 145.517 1457.43 145.21 1457.62 144.898C1457.76 144.929 1457.9 144.898 1458.02 144.779C1460.42 142.449 1462.26 139.868 1463.69 136.796C1463.35 139.33 1462.83 141.827 1461.86 144.245C1461.61 144.865 1461.34 145.459 1461.06 146.046C1454.92 154.261 1451.4 164.753 1452.34 176.203C1452.95 183.77 1455.53 190.859 1459.54 197.775C1461.99 201.997 1464.99 205.939 1467.8 209.969C1468.09 210.993 1468.41 212.015 1468.74 213.026C1467.56 210.989 1466.23 209.021 1464.73 207.192C1460.52 202.034 1451.81 197.387 1451.78 190.332C1451.78 190.232 1451.63 190.16 1451.6 190.266C1449.63 197.627 1457.64 202.272 1461.86 207.851C1469.81 218.341 1470.9 229.52 1471.64 241.257C1471.69 242.022 1472.6 242.394 1472.91 241.731C1476.1 234.85 1474.78 226.206 1471.46 218.413C1471.22 217.845 1470.94 217.29 1470.67 216.729C1470.67 215.741 1470.53 214.723 1470.3 213.696C1472.04 216.407 1473.63 219.195 1474.82 222.181C1481.04 237.827 1477.49 252.87 1468.11 262.391Z" fill="#212321"/>
</g>
<g clip-path="url(#clip4)">
<path d="M461.572 374.39C460.551 375.155 459.389 392.85 469.825 397.645C470.768 398.08 470.556 399.343 470.835 399.803C479.613 414.171 478.945 435.632 478.224 442.726C477.71 447.773 452.924 484.404 462.717 502.318C471.965 519.231 486.893 524.56 513.635 530.071C517.558 530.881 532.076 538.9 535.688 536.832C541.323 533.603 547.82 513.943 550.074 508.805C554.769 498.092 568.97 474.229 555.366 459.278C537.433 439.564 510 436.852 506.415 435.619C495.466 431.862 481.745 404.573 480.391 401.04C478.723 396.682 480.992 386.483 480.692 386.41C480.041 386.249 479.027 389.407 478.283 392.128C477.018 388.069 471.31 382.369 471.593 383.037C472.439 385.034 473.069 386.35 473.214 386.962C473.27 387.189 473.899 390.635 473.698 390.782C473.601 390.853 473.365 390.998 472.532 389.538C471.752 388.174 469.812 385.694 468.92 383.912C468.564 383.202 468.67 382.278 468.629 382.317C466.488 384.244 472.007 393.87 471.774 393.708C460.851 386.047 462.202 373.915 461.572 374.39Z" fill="#FFC737"/>
<path d="M550.642 457.378C539.702 445.24 526.329 443.184 510.429 439.469C485.612 433.672 479.467 411.577 478.641 393.854C478.627 393.535 478.066 393.475 477.987 393.764C477.362 396.076 476.958 398.464 476.769 400.89C474.751 396.467 471.824 392.447 467.227 389.617C466.773 389.339 466.459 389.831 466.644 390.141C466.888 390.554 467.154 390.95 467.413 391.352C467.72 393.375 469.248 395.288 470.072 397.293C471.02 399.6 471.639 401.978 472.087 404.357C471.435 403.263 470.671 402.184 469.846 401.054C466.94 397.061 464.605 393.526 463.87 388.978C463.861 388.907 463.726 388.857 463.691 388.934C463.665 389.003 463.652 389.073 463.626 389.141C463.634 389.01 463.64 388.884 463.647 388.753C463.657 388.526 463.202 388.416 463.109 388.623C461.25 392.874 462.052 398.352 464.583 403.076C459.018 397.532 453.179 392.155 452.728 384.519C452.768 384.1 452.801 383.687 452.865 383.257C452.915 382.932 452.305 382.661 452.156 383.002C449.12 389.96 452.32 398.113 457.71 404.982C456.936 404.51 456.139 404.058 455.303 403.642C454.826 403.406 454.383 403.927 454.799 404.247C489.539 430.67 444.804 463.066 447.654 491.43C450.874 523.476 496.734 529.29 522.254 545.658C523.213 546.274 524.828 545.504 523.899 544.553C523.526 544.17 523.128 543.81 522.744 543.439C521.407 541.008 519.414 538.678 517.143 536.503C518.227 537.254 519.281 538.039 520.253 538.863C521.991 540.338 523.651 542.196 525.864 543.152C526.195 543.292 526.668 543.146 526.602 542.799C526.483 542.189 526.212 541.608 525.877 541.046C525.884 541.022 525.911 541.012 525.912 540.99C525.937 540.81 525.933 540.625 525.949 540.445C526.905 538.948 527.468 537.277 527.81 535.552C528.05 536.016 528.316 536.484 528.608 536.955C529.324 539.356 530.425 541.025 532.633 542.773C533.029 543.087 533.83 542.902 533.712 542.414C533.22 540.35 532.535 538.58 531.716 536.554C531.609 536.286 531.496 535.983 531.387 535.669C531.408 535.572 531.45 535.489 531.45 535.377C531.321 518.121 551.399 509.504 557.808 494.821C563.017 482.884 560.738 468.583 550.642 457.378ZM552.07 484.334C551.255 479.708 549.079 475.068 545.717 471.738C545.39 471.416 544.819 471.748 544.97 472.1C546.639 475.901 548.832 479.329 549.742 483.303C550.436 486.328 550.499 489.232 550.538 492.189C549.829 494.247 548.887 496.246 547.699 498.153C541.795 507.633 531.663 514.923 528.647 525.096C528.99 520.777 530.444 516.561 533.077 512.001C536.275 506.463 538.959 501.489 537.957 494.882C537.943 494.8 537.779 494.764 537.769 494.857C537.465 497.98 536.412 501.017 535.068 504.012C538.461 487.214 523.348 466.47 503.164 460.558C502.677 460.415 502.497 460.979 502.904 461.196C513.194 466.704 522.022 472.581 527.76 481.804C533.19 490.536 533.578 498.888 533.2 507.852C529.831 514.387 525.861 520.806 525.829 527.561C525.179 529.249 525.387 531.329 525.134 533.082C525.097 533.35 525.05 533.619 525.007 533.889C524.359 531.841 523.503 529.804 522.726 527.839C520.815 522.992 518.955 517.951 515.924 513.413C515.877 513.342 515.738 513.371 515.754 513.45C516.758 518.088 518.678 522.658 519.993 527.275C520.927 530.568 521.452 534.081 522.731 537.37C520.683 534.781 518.453 532.278 516.675 529.543C513.706 524.98 512.146 520.146 509.62 515.482C509.444 515.154 508.874 515.174 508.893 515.545C508.998 517.656 509.556 520.015 510.44 522.432C492.347 506.939 483.629 489.642 479.424 469.131C479.342 468.726 478.675 468.706 478.675 469.107C478.649 488.648 492.442 509.577 510.727 523.204C512.414 527.468 515.135 531.884 518.459 535.513C517.101 534.93 515.733 534.453 514.49 534.106C512.551 532.479 510.514 530.968 508.55 529.611C502.29 525.292 494.454 523.164 488.602 518.433C488.13 518.052 487.36 518.528 487.778 518.987C491.977 523.564 497.602 525.921 503.181 529.061C506.198 530.761 508.754 532.84 511.21 534.994C501.947 529.682 491.37 525.992 481.562 521.377C472.639 517.18 463.652 511.863 458.401 504.274C452.088 495.148 452.998 484.583 456.088 475.592C456.818 473.468 457.681 471.387 458.603 469.33C459.058 485.933 468.737 502.833 484.775 515.333C485.008 515.513 485.302 515.252 485.077 515.063C467.895 500.632 460.077 482.363 460.933 464.423C465.935 454.376 471.747 444.635 472.394 433.184C472.833 425.383 470.17 416.685 464.025 410.125C460.434 405.121 456.79 400.628 454.615 395.699C459.782 403.259 470.056 410.336 473.713 417.3C473.855 417.571 474.431 417.577 474.353 417.246C473.261 412.834 470.447 409.179 467.192 405.725C465.861 403.569 464.728 401.366 464.056 399.013C463.523 397.143 463.397 395.366 463.419 393.59C464.655 399.06 470.484 404.861 472.989 409.51C473.203 409.909 473.946 409.903 473.898 409.434C473.863 409.101 473.81 408.777 473.746 408.456C473.86 408.398 473.938 408.296 473.952 408.142C474.185 405.156 473.882 402.313 473.004 399.359C474.301 401.321 475.461 403.353 476.26 405.587C476.465 406.16 476.64 406.728 476.8 407.299C477.563 416.513 481.509 425.817 489.079 433.264C494.082 438.185 500.14 441.659 507.078 444.195C511.312 445.743 515.75 446.788 520.12 447.994C520.937 448.544 521.772 449.076 522.615 449.589C520.572 448.843 518.468 448.229 516.334 447.806C510.327 446.606 501.544 448.319 497.253 443.422C497.191 443.353 497.046 443.388 497.088 443.479C500.198 449.723 508.496 448.409 514.768 449.894C526.565 452.684 534.081 459.851 541.692 467.608C542.186 468.115 543.04 467.852 542.85 467.215C540.871 460.608 534.733 455.338 527.738 451.797C527.23 451.538 526.702 451.31 526.18 451.072C525.576 450.388 524.864 449.757 524.086 449.172C526.923 450.069 529.696 451.111 532.318 452.516C546.052 459.879 552.728 472.375 552.07 484.334Z" fill="#212321"/>
</g>
<defs>
<filter id="filter0_d" x="293.957" y="337.443" width="208.075" height="172.64" filterUnits="userSpaceOnUse" color-interpolation-filters="sRGB">
<feFlood flood-opacity="0" result="BackgroundImageFix"/>
<feColorMatrix in="SourceAlpha" type="matrix" values="0 0 0 0 0 0 0 0 0 0 0 0 0 0 0 0 0 0 127 0" result="hardAlpha"/>
<feOffset dy="4"/>
<feGaussianBlur stdDeviation="2"/>
<feComposite in2="hardAlpha" operator="out"/>
<feColorMatrix type="matrix" values="0 0 0 0 0 0 0 0 0 0 0 0 0 0 0 0 0 0 0.25 0"/>
<feBlend mode="normal" in2="BackgroundImageFix" result="effect1_dropShadow"/>
<feBlend mode="normal" in="SourceGraphic" in2="effect1_dropShadow" result="shape"/>
</filter>
<clipPath id="clip0">
<rect width="166.879" height="199.202" fill="white" transform="matrix(0.303674 0.952776 0.952776 -0.303674 1461.18 208.638)"/>
</clipPath>
<clipPath id="clip1">
<rect width="105.831" height="124.337" fill="white" transform="matrix(0.735402 0.677631 0.677631 -0.735402 1472.15 124.359)"/>
</clipPath>
<clipPath id="clip2">
<rect width="329" height="241" fill="white" transform="translate(973 557)"/>
</clipPath>
<clipPath id="clip3">
<rect width="146.104" height="153.793" fill="white" transform="translate(1343.21 156.224) rotate(-16.2971)"/>
</clipPath>
<clipPath id="clip4">
<rect width="129.613" height="142.396" fill="white" transform="translate(402.208 481.369) rotate(-56.6427)"/>
</clipPath>
</defs>
</svg>
