<svg viewBox="0 0 1977 1187" fill="none" xmlns="http://www.w3.org/2000/svg">
<g clip-path="url(#clip0)">
<path d="M1438.48 489.718C1442.79 479.982 1449.53 468.652 1457.69 461.736C1457.71 461.7 1457.72 461.664 1457.74 461.628C1458.34 460.498 1460.16 461.243 1459.92 462.516C1457.6 474.335 1456.53 485.176 1462.26 496.787C1466.46 505.287 1473.85 512.313 1476.42 521.548C1479.54 532.708 1476.17 553.329 1465.37 559.792C1465.42 560.267 1465.46 560.745 1465.5 561.223C1465.61 561.444 1465.62 561.671 1465.55 561.874C1466.44 574.345 1464.58 587.253 1456.04 596.004C1455.24 596.814 1453.79 595.768 1454.33 594.746C1460.29 583.551 1462.27 572.44 1461.66 560.813C1445.92 551.422 1433.62 535.737 1432.78 517.331C1432.34 507.676 1434.68 498.293 1438.48 489.718Z" fill="#8DC63F"/>
</g>
<g>
<path d="M1324.87 937.875C1414.98 964.502 1509.66 912.889 1536.34 822.596C1563.02 732.303 1511.59 637.521 1421.48 610.895C1331.36 584.269 1236.68 635.881 1210.01 726.174C1183.33 816.467 1234.75 911.249 1324.87 937.875Z" fill="#FFC737"/>
<path d="M1415.9 593.013C1324.29 565.944 1228.04 618.415 1200.91 710.212C1173.79 802.009 1226.07 898.368 1317.68 925.436C1409.3 952.506 1505.56 900.035 1532.68 808.238C1559.8 716.441 1507.52 620.082 1415.9 593.013ZM1321.24 913.401C1233.76 887.552 1183.83 795.538 1209.73 707.883C1235.63 620.224 1327.55 570.119 1415.03 595.968C1502.52 621.817 1552.44 713.831 1526.54 801.49C1500.64 889.145 1408.73 939.25 1321.24 913.401Z" fill="#212321"/>
<path d="M1401.34 925.703C1406 924.833 1410.31 923.57 1414.64 921.586C1418.69 919.723 1422.54 917.437 1426.19 914.882C1433.92 909.483 1440.82 903.033 1446.91 895.836C1453.72 887.785 1459.59 878.981 1465.01 869.943C1470.51 860.761 1476 851.32 1479.97 841.351C1483.95 831.357 1485.2 821.016 1483 810.449C1480.91 800.493 1476.67 791.039 1471.97 782.078C1469.64 777.631 1467.16 773.259 1464.69 768.894C1462.21 764.52 1459.63 760.176 1456.46 756.263C1449.89 748.17 1439.86 743.081 1429.91 740.474C1419.51 737.751 1407.51 739.087 1400.61 748.202C1397.7 752.059 1395.88 757.323 1396.04 762.179C1396.21 767.251 1397.23 772.641 1399.92 776.971C1400.87 778.501 1402.92 777.558 1402.72 775.882C1401.79 768.222 1400.96 759.65 1405.57 752.881C1410.3 745.942 1419.77 745.326 1427.2 747.24C1435.97 749.502 1444.74 753.876 1450.61 760.916C1453.42 764.291 1455.64 768.123 1457.8 771.935C1460.07 775.923 1462.33 779.918 1464.49 783.966C1468.77 791.973 1472.65 800.233 1474.95 809.049C1477.4 818.439 1477.14 827.533 1473.99 836.735C1470.79 846.106 1465.72 854.83 1460.96 863.475C1456.32 871.895 1451.32 880.108 1445.51 887.777C1433.84 903.18 1418.72 915.587 1400.53 922.437C1398.55 923.182 1399.16 926.108 1401.34 925.703Z" fill="#212321"/>
<path d="M1394.42 789.991C1396.58 788.813 1398.69 787.666 1400.44 785.909C1402.22 784.12 1403.87 782.155 1405.12 779.953C1406.44 777.612 1407.6 775.04 1407.55 772.293C1407.51 769.873 1406.47 767.036 1404.23 765.869C1401.99 764.703 1398.23 766.503 1399.31 769.452C1401.29 774.891 1401.42 780.884 1404.09 786.109C1405.26 788.397 1406.88 790.494 1407.79 792.91C1408.69 795.3 1408.83 797.807 1408.5 800.317C1410.45 800.096 1412.4 799.877 1414.36 799.656C1412.71 791.521 1405.27 785.41 1397.02 785.223C1397.84 786.742 1398.67 788.261 1399.49 789.78C1400.72 788.119 1402.41 786.751 1404.33 785.984C1403.84 786.104 1403.35 786.225 1402.87 786.343C1402.99 786.337 1403.12 786.328 1403.24 786.323C1402.74 786.175 1402.24 786.027 1401.73 785.879C1401.84 785.936 1401.95 785.991 1402.05 786.048C1401.71 785.681 1401.36 785.319 1401.02 784.952C1400.94 784.484 1400.91 784.516 1400.92 785.048C1400.96 785.441 1401 785.834 1401.05 786.224C1401.2 786.921 1401.57 787.566 1402.06 788.071C1403.14 789.181 1404.85 789.518 1406.18 788.634C1408.32 787.214 1407.78 783.695 1404.96 783.618C1404.85 783.618 1404.75 783.612 1404.64 783.611C1405.29 783.903 1405.95 784.191 1406.61 784.484C1406.77 785.299 1406.84 785.378 1406.83 784.732C1406.83 784.331 1406.8 783.935 1406.74 783.538C1406.6 782.804 1406.28 782.07 1405.76 781.519C1404.64 780.325 1402.95 780.205 1401.51 780.799C1398.62 781.997 1396.29 784.164 1394.43 786.635C1393.01 788.517 1394.8 791.13 1396.9 791.192C1402.55 791.361 1407.44 795.586 1408.58 801.087C1408.88 802.523 1410.39 803.486 1411.79 803.308C1413.36 803.108 1414.25 801.944 1414.44 800.426C1415.16 794.715 1413.13 789.958 1410.27 785.169C1408.84 782.771 1407.96 780.395 1407.3 777.68C1406.6 774.793 1405.77 771.711 1405.77 768.727C1403.71 769.232 1401.65 769.737 1399.6 770.239C1400.33 771.404 1400.86 771.959 1400.59 773.373C1400.25 775.138 1399.27 776.799 1398.47 778.378C1397.67 779.947 1396.84 781.479 1395.83 782.93C1394.75 784.492 1393.91 786.151 1392.69 787.618C1391.69 788.826 1392.82 790.856 1394.42 789.991Z" fill="#212321"/>
<path d="M1455.26 758.179C1450.99 752.453 1447.49 745.994 1447.51 738.654C1447.52 734.896 1448.13 731.029 1450.19 727.81C1451.9 725.119 1455.16 723.457 1458.29 723.171C1465.45 722.511 1471.36 728.638 1472.39 735.459C1472.93 739.052 1472.28 742.942 1470.73 746.219C1468.95 749.967 1465.99 752.809 1463.18 755.77C1459.9 759.222 1456.8 763.672 1456.28 768.536C1455.73 773.604 1456.36 778.987 1458.41 783.641C1459.01 785.007 1460.98 784.299 1461.06 782.989C1461.21 780.329 1460.83 777.75 1460.89 775.098C1460.94 772.448 1461.57 770.272 1462.89 767.995C1465.13 764.124 1469.2 761.305 1472.31 758.138C1479.47 750.824 1483.13 740.123 1479.6 730.159C1476.28 720.76 1467.08 714.056 1456.95 715.559C1452.42 716.233 1448.19 718.631 1445.31 722.207C1442.25 726.018 1440.99 731.095 1440.8 735.912C1440.6 740.804 1441.81 745.76 1443.93 750.148C1446.07 754.567 1449.03 758.212 1453.45 760.396C1454.95 761.141 1456.25 759.505 1455.26 758.179Z" fill="#212321"/>
<path d="M1446.12 735.632C1446.02 730.823 1445.34 726.1 1444.82 721.312C1444.32 716.629 1445.39 712.306 1447.29 708.039C1450.33 701.215 1455.17 694.869 1462.34 692.139C1465.76 690.832 1465.26 686.436 1461.64 685.898C1458.51 685.435 1456.5 689.045 1457.38 691.716C1458.4 694.815 1462.01 695.263 1464.77 694.803C1470.86 693.783 1474.98 688.723 1477.06 683.201C1478.12 680.36 1478.27 677.135 1475.84 674.958C1473.43 672.813 1469.83 673.114 1467.13 674.508C1462.68 676.805 1457.24 685.798 1463.27 689.362C1466.7 691.389 1470.35 688.634 1472.39 685.962C1474.56 683.11 1475.05 678.829 1472.24 676.196C1471.04 675.073 1469.45 674.777 1467.96 675.512C1463.69 677.625 1461.08 681.844 1460.76 686.556C1460.61 688.73 1463.01 690.731 1465.13 690.05C1468.35 689.015 1469.53 686.605 1471.02 683.817C1472.34 681.349 1474.78 680.197 1477.5 679.901C1480.28 679.6 1483.68 679.841 1486.36 680.638C1486.75 680.752 1487.12 680.829 1487.41 681.125C1487.1 680.806 1487.42 681.072 1487.44 681.517C1487.46 681.816 1487.43 682.126 1487.4 682.424C1487.33 683.067 1487.15 683.665 1486.99 684.289C1486.95 684.44 1486.84 684.827 1486.83 684.667C1486.87 684.599 1486.93 684.574 1487 684.595C1487.69 684.56 1488.07 685.1 1488.14 686.218C1487.8 686.541 1487.45 686.867 1487.11 687.19C1486.33 687.385 1485.74 687.107 1485.33 686.351C1485.34 685.869 1485.36 685.389 1485.37 684.908C1485.34 685.014 1485.32 685.121 1485.3 685.224C1484.74 687.75 1487.76 690.066 1489.82 688.014C1493.77 684.077 1491.72 677.914 1488.07 674.56C1484.24 671.05 1478.75 670.001 1473.73 670.709C1468.41 671.457 1463.39 674.625 1460.14 678.861C1456.78 683.242 1456.27 690.119 1461.47 693.325C1464.78 695.366 1467.61 690.535 1464.61 688.266C1462.2 686.446 1464.55 682.857 1466.02 681.352C1468.34 678.965 1471.36 677.233 1474.66 676.699C1477.32 676.267 1480.3 676.646 1482.64 678.02C1484.06 678.852 1488.03 682.053 1486.05 683.99C1487.56 684.92 1489.07 685.851 1490.58 686.781C1491.85 681.236 1483.1 679.746 1482.58 685.424C1482.35 688 1484.05 690.233 1486.57 690.745C1489.25 691.289 1491.89 689.695 1493.18 687.378C1494.41 685.159 1494.83 681.951 1494.2 679.483C1493.48 676.671 1491.31 674.806 1488.6 673.976C1486.23 673.249 1483.52 673.038 1481.05 672.892C1478.5 672.739 1475.8 672.877 1473.35 673.668C1470.62 674.553 1468.16 676.016 1466.34 678.267C1465.55 679.244 1464.99 680.292 1464.43 681.408C1464.22 681.816 1463.54 683.156 1463.44 683.186C1464.9 684.351 1466.36 685.516 1467.81 686.681C1467.99 684.45 1469.39 682.72 1471.35 681.749C1469.92 681.521 1468.49 681.292 1467.07 681.064C1467.89 681.833 1467.06 681.122 1467.15 680.962C1466.85 681.528 1466.59 681.951 1466.14 682.429C1465.43 683.195 1465.33 682.773 1466.69 683.674C1468.22 684.689 1467.61 684.528 1468.15 683.34C1468.56 682.432 1469.22 681.546 1470.05 680.976C1470.38 680.749 1470.78 680.63 1471.12 680.471C1471.31 680.361 1471.52 680.344 1471.76 680.425C1471.34 680.378 1471.07 680.131 1470.93 679.691C1470.87 679.69 1470.12 682.094 1470 682.403C1469.47 683.756 1468.76 685.105 1467.82 686.223C1467.07 687.108 1466.14 687.879 1465.13 688.426C1464.56 688.729 1463.99 688.973 1463.35 689.052C1463.08 689.082 1462.81 689.088 1462.54 689.072C1462.25 689.047 1462.23 688.999 1462.48 688.933C1462.72 689.379 1462.96 689.821 1463.2 690.267C1462.79 690.863 1462.39 691.459 1461.98 692.051C1461.44 692.036 1460.89 692.026 1460.34 692.012C1460.45 692.041 1460.57 692.074 1460.68 692.104C1460.73 690.067 1460.77 688.03 1460.82 685.993C1451.77 688.268 1445.36 696.36 1441.62 704.512C1439.23 709.707 1437.59 714.967 1438.26 720.732C1438.9 726.212 1440.44 731.563 1443.15 736.367C1443.9 737.686 1446.15 737.255 1446.12 735.632Z" fill="#212321"/>
<path d="M1483.42 674.987C1482.17 674.663 1481.36 674.363 1480.04 674.599C1478.8 674.819 1477.62 675.232 1476.56 675.916C1474.11 677.489 1472.33 680.116 1471.24 682.77C1470.39 684.839 1470.23 687.945 1468.72 689.67C1467.13 691.496 1464.21 689.838 1462.51 688.961C1462.09 690.367 1461.68 691.77 1461.26 693.176C1463.9 693.509 1466.54 694.016 1469.17 693.327C1472.03 692.581 1473.99 690.622 1475.22 687.986C1476.44 685.332 1477.38 682.552 1480.17 681.143C1483.04 679.691 1485.42 680.903 1487.83 682.556C1489.67 683.813 1491.7 681.542 1490.82 679.733C1489.39 676.798 1485.84 675.438 1482.72 675.514C1479.5 675.595 1476.43 677.147 1474.31 679.544C1473.26 680.735 1472.5 682.031 1471.87 683.489C1471.24 684.953 1470.84 686.789 1469.65 687.923C1467.75 689.717 1464.24 689.248 1461.95 688.714C1459.49 688.142 1457.89 691.393 1460.1 692.837C1462.37 694.314 1464.86 695.635 1467.65 695.39C1470.6 695.131 1472.69 693.142 1473.83 690.514C1474.98 687.891 1475.31 684.986 1476.73 682.466C1477.46 681.168 1478.4 680.09 1479.57 679.169C1480.61 678.358 1482.1 677.368 1483.37 677.022C1484.34 676.759 1484.46 675.257 1483.42 674.987Z" fill="#212321"/>
<path d="M1450.03 753.125C1449.86 749.834 1447.39 746.819 1445.63 744.177C1443.74 741.333 1441.7 738.592 1439.73 735.801C1436.06 730.587 1432.46 725.277 1429.67 719.526C1427.06 714.136 1425.19 708.233 1424.94 702.212C1424.75 697.377 1425.19 690.382 1429.15 686.944C1430.18 686.049 1431.43 685.713 1432.77 685.59C1434.15 685.463 1436.31 685.191 1437.58 685.917C1438.38 686.378 1438.74 687.305 1438.9 688.165C1439.04 688.941 1439.02 689.751 1438.99 690.535C1438.96 691.324 1439.19 692.437 1438.96 693.168C1438.42 694.903 1440.72 696.402 1442.03 695.059C1442.68 694.392 1443.47 694.081 1444.06 693.305C1444.65 692.529 1445.12 691.551 1445.39 690.611C1445.94 688.759 1445.77 686.823 1445.11 685.039C1443.63 681.03 1440.1 678.885 1435.91 678.763C1432.15 678.652 1428.29 679.253 1425.29 681.667C1422.57 683.862 1420.98 687.236 1420 690.521C1415.47 705.63 1422.22 721.055 1430.52 733.448C1432.99 737.124 1435.66 740.666 1438.28 744.228C1439.76 746.231 1441.3 748.188 1442.86 750.129C1444.25 751.865 1445.93 753.776 1448.04 754.582C1448.94 754.925 1450.08 754.082 1450.03 753.125Z" fill="#212321"/>
<path d="M1422.72 697.116C1424.49 693.558 1425.93 690.094 1426.85 686.21C1427.65 682.803 1428.17 679.065 1426 676.036C1424.06 673.333 1420.28 671.872 1417.21 673.615C1414.19 675.33 1411.69 679.726 1412.46 683.184C1412.68 684.204 1413.86 684.647 1414.74 684.193C1415.77 683.668 1416.8 682.763 1417.54 681.898C1418.26 681.066 1418.9 679.638 1419.81 679.05C1421.14 678.204 1422.04 680.185 1422.25 681.305C1422.69 683.663 1422.22 686.224 1422 688.585C1421.75 691.271 1421.54 693.995 1421.18 696.664C1421.07 697.466 1422.37 697.833 1422.72 697.116Z" fill="#212321"/>
<path d="M1425.23 684.899C1426.22 684.041 1427.56 683.596 1428.65 682.866C1429.53 682.276 1430.41 681.644 1431.26 681.001C1433.22 679.516 1435.03 677.926 1436.57 676.007C1439.21 672.709 1441.84 666.954 1438.48 663.204C1434.74 659.051 1429.46 662.491 1427.5 666.504C1426.38 668.803 1425.76 671.301 1425.83 673.868C1425.86 674.947 1426.26 676.431 1425.93 677.479C1425.76 678.005 1425.18 678.685 1424.83 679.118C1422.93 681.443 1425.86 684.261 1428.24 683.833C1432.23 683.118 1433.15 678.738 1432.92 675.308C1432.81 673.541 1432.77 671.892 1433.44 670.219C1433.65 669.69 1433.95 669.203 1434.21 668.707C1434.27 668.599 1434.63 668.403 1434.62 668.268C1434.64 668.515 1433.08 667.615 1433.23 667.539C1433.02 667.649 1433.37 667.142 1433.23 667.757C1433.2 667.877 1433.21 668.114 1433.2 668.228C1433.13 668.875 1432.78 669.628 1432.51 670.22C1431.76 671.836 1430.63 673.266 1429.53 674.65C1428.47 675.973 1427.32 677.205 1426.28 678.54C1425 680.178 1424.54 681.799 1423.67 683.62C1423.18 684.627 1424.31 685.695 1425.23 684.899Z" fill="#212321"/>
<path d="M1412.97 741.532C1410.06 742.038 1408.16 744.123 1406.67 746.555C1405.03 749.22 1403.35 752.684 1404.07 755.876C1404.82 759.21 1407.94 761.179 1411.26 760.563C1414.24 760.012 1417.25 757.972 1419.75 756.347C1422.59 754.506 1425.11 752.283 1426.31 749.029C1427.3 746.358 1427.26 743.228 1426.31 740.555C1425.25 737.594 1423.49 735.109 1420.98 733.216C1418.36 731.243 1415.17 730.333 1412.35 728.713C1409.77 727.232 1407.34 725.378 1406.01 722.636C1404.55 719.624 1405.47 716.812 1406.4 713.854C1406.81 712.548 1405.31 711.305 1404.11 711.996C1399.97 714.38 1399.53 720.317 1400.6 724.457C1401.86 729.36 1405.63 733.342 1409.94 735.786C1413.82 737.989 1418.82 739.17 1419.58 744.283C1420.24 748.724 1415.21 751.098 1411.96 752.978C1411.39 753.308 1410.69 753.587 1410.17 753.988C1409.55 754.454 1409.87 753.927 1410.03 754.33C1409.64 753.342 1410.36 751.98 1410.71 751.063C1411.61 748.628 1412.58 746.042 1414.37 744.101C1415.41 742.976 1414.48 741.269 1412.97 741.532Z" fill="#212321"/>
<path d="M1477.76 815.033C1481.37 820.22 1482.25 825.927 1480.52 832.038C1479.36 836.146 1476.48 845.319 1470.53 844.009C1468.03 843.458 1466.66 840.681 1466.18 838.393C1465.51 835.19 1466.06 831.783 1466.39 828.567C1467.1 821.73 1468.82 814.11 1465.97 807.559C1463.22 801.269 1454.66 797.369 1449.57 803.506C1448.83 804.406 1448.57 805.526 1449.3 806.536C1449.91 807.388 1451.31 807.875 1452.26 807.221C1454.21 805.875 1457.06 806.743 1458.54 808.412C1460.61 810.738 1460.83 814.001 1460.71 816.976C1460.38 824.531 1458 832.503 1459.59 840.026C1461.06 846.965 1467.61 852.755 1474.91 850.287C1482.12 847.849 1485.55 839.868 1486.85 832.902C1488.16 825.886 1487.06 816.001 1479.18 813.276C1478.25 812.947 1477.15 814.153 1477.76 815.033Z" fill="#212321"/>
<path d="M1465.64 827.273C1467.44 820.75 1468.72 814.038 1471.56 807.837C1474.42 801.582 1478.32 795.848 1483.16 790.963C1487.64 786.449 1492.92 782.675 1499.28 781.529C1504.64 780.563 1510.65 782.107 1513.92 786.688C1515.55 788.962 1516.42 791.882 1515.78 794.652C1514.89 798.513 1512.14 801.662 1510.62 805.272C1509.99 806.781 1511.78 808.634 1513.31 808.086C1521.36 805.188 1525.48 795.565 1522.85 787.558C1520.26 779.698 1513.32 774.847 1505.29 773.855C1488.62 771.798 1474.29 786.906 1467.42 800.502C1463.36 808.519 1460.35 818.347 1463.08 827.213C1463.45 828.424 1465.27 828.605 1465.64 827.273Z" fill="#212321"/>
<path d="M1484.52 784.135C1485.34 788.347 1488.71 792.481 1492.57 794.306C1496.91 796.357 1501.27 794.789 1504.58 791.603C1507.61 788.687 1509.46 784.299 1508.16 780.13C1506.92 776.16 1501.74 772.113 1498.17 776.066C1497.59 776.715 1497.09 777.693 1497.42 778.596C1497.8 779.644 1498.37 780.039 1499.19 780.412C1499.78 780.681 1500.85 780.97 1501.3 781.469C1502.81 783.09 1500.82 785.753 1499.69 786.829C1497.87 788.571 1496.46 789.205 1494.21 787.79C1491.68 786.197 1489.86 783.713 1487.3 782.118C1485.88 781.229 1484.22 782.579 1484.52 784.135Z" fill="#212321"/>
<path d="M1488.85 784.015C1489.08 782.354 1489.32 780.732 1489.39 779.054C1489.46 777.293 1489.56 775.499 1490.29 773.858C1491.48 771.149 1494.02 769.969 1496.65 769.003C1503.31 766.561 1510.41 765.136 1516.49 761.292C1521.97 757.826 1526.8 752.593 1527.99 746.007C1529.1 739.862 1527.29 732.853 1521.75 729.367C1518.96 727.606 1515.48 726.867 1512.24 727.455C1510.85 727.707 1509.4 728.163 1508.2 728.917C1507.35 729.454 1506.52 730.091 1506.18 731.086C1506.08 731.411 1506.08 731.737 1505.99 732.067C1506.22 731.203 1505.86 732.212 1505.73 732.512C1505.08 734.079 1507.02 735.048 1508.24 734.545C1508.16 734.527 1508.07 734.51 1507.99 734.495C1507.52 734.406 1507.65 734.421 1508.38 734.546C1508.64 734.551 1508.81 734.577 1509.09 734.541C1509.65 734.465 1510.12 734.198 1510.64 734.016C1511.73 733.642 1512.68 733.548 1513.82 733.665C1515.7 733.856 1517.42 734.541 1518.71 735.953C1521.78 739.305 1521.35 744.734 1519.16 748.424C1516.31 753.224 1511.17 756.091 1506.08 757.971C1500.25 760.121 1493.5 761.444 1488.5 765.309C1482.49 769.949 1482.73 778.532 1485.73 784.774C1486.52 786.438 1488.65 785.503 1488.85 784.015Z" fill="#212321"/>
<path d="M1210.41 810.188C1211.39 808.853 1211.05 807.277 1210.71 805.758C1210.32 803.968 1209.83 802.199 1209.47 800.401C1208.76 796.857 1208.11 793.326 1207.77 789.726C1207.11 782.691 1207.26 775.454 1208.52 768.49C1210.84 755.709 1216.82 741.818 1228.81 735.409C1231.72 733.853 1235.25 732.647 1238.57 733.381C1240.06 733.711 1240.35 734.164 1240.6 735.294C1241.02 737.188 1240.8 738.974 1241.92 740.711C1243.36 742.924 1246.11 742.945 1247.68 740.877C1250.19 737.568 1248.89 731.62 1246.3 728.663C1243.26 725.197 1238.2 724.672 1233.89 725.235C1225.62 726.312 1218.37 732.046 1213.26 738.347C1202.86 751.173 1199.15 769.166 1200.67 785.346C1201.12 790.119 1202 794.797 1203.32 799.404C1203.95 801.583 1204.76 803.703 1205.62 805.794C1206.39 807.648 1207.28 810.145 1209.49 810.548C1209.87 810.608 1210.18 810.506 1210.41 810.188Z" fill="#212321"/>
<path d="M1204.81 780.973C1205.98 778.158 1207.53 775.467 1208.79 772.673C1209.93 770.13 1211.21 767.626 1212.71 765.273C1214.16 763.016 1215.96 760.864 1218.12 759.255C1219.63 758.121 1222.2 756.84 1224.11 757.22C1228.56 758.1 1230.12 752.347 1226.08 750.562C1218.68 747.294 1211.33 753.767 1207.53 759.617C1205.57 762.636 1204.18 765.987 1203.17 769.436C1202.1 773.097 1201.98 776.722 1201.48 780.46C1201.2 782.516 1204.13 782.586 1204.81 780.973Z" fill="#212321"/>
<path d="M1297.97 721.73L1293.16 737.999L1359.35 757.553L1354.74 773.143L1288.56 753.588L1276.24 795.275L1254.37 788.812L1266.68 747.125L1255.41 743.793L1260.01 728.204L1271.29 731.536L1276.1 715.267L1264.82 711.936L1270.43 692.956L1281.7 696.288L1303.3 623.195L1355.05 638.486C1369.86 642.862 1380.62 647.678 1387.32 652.931C1394.11 658.134 1398.69 665.178 1401.05 674.066C1403.41 682.953 1403.25 691.952 1400.56 701.065C1397.84 710.253 1393.9 717.359 1388.74 722.384C1383.58 727.409 1377.66 730.885 1371.01 732.805C1364.35 734.729 1357.18 735.336 1349.51 734.62C1341.83 733.907 1334.12 732.408 1326.38 730.122L1297.97 721.727L1297.97 721.73ZM1331.99 711.145C1337.02 712.633 1341.95 713.657 1346.77 714.223C1351.59 714.788 1356.04 714.524 1360.12 713.437C1364.2 712.353 1367.79 710.316 1370.87 707.341C1373.96 704.362 1376.34 700.05 1378 694.401C1379.45 689.508 1379.75 685.09 1378.91 681.16C1378.08 677.226 1376.37 673.714 1373.81 670.623C1371.25 667.531 1367.98 664.864 1363.98 662.619C1359.98 660.376 1355.51 658.519 1350.54 657.053L1319.76 647.958L1303.58 702.75L1331.99 711.145V711.145Z" fill="#212321"/>
</g>
<g>
<path d="M355.337 661.51C340.401 655.484 321.11 650.143 304.852 650.802C304.792 650.784 304.739 650.76 304.686 650.735C302.839 650.135 301.596 652.683 303.201 653.775C318.101 663.914 330.612 674.226 336.385 691.938C340.608 704.908 339.764 719.419 346.554 731.584C354.759 746.286 380.013 764.626 398.719 760.938C399.163 761.481 399.622 762.018 400.08 762.555C400.184 762.895 400.411 763.143 400.701 763.287C412.735 777.211 428.268 788.932 446.869 789.821C448.591 789.903 449.114 787.395 447.44 786.855C429.151 780.903 415.368 771.174 403.895 758.413C411.524 733.335 408.769 704.997 390.484 684.906C380.887 674.371 368.497 666.811 355.337 661.51Z" fill="#8DC63F"/>
<path d="M370.263 655.438C355.326 649.413 336.035 644.072 319.777 644.731C319.717 644.713 319.664 644.689 319.611 644.664C317.764 644.064 316.521 646.612 318.126 647.704C333.027 657.843 345.537 668.155 351.31 685.867C355.533 698.837 354.689 713.348 361.48 725.513C369.685 740.215 394.939 758.555 413.644 754.867C414.089 755.41 414.547 755.947 415.005 756.484C415.109 756.824 415.337 757.072 415.626 757.216C427.66 771.147 443.193 782.861 461.794 783.75C463.516 783.832 464.039 781.324 462.366 780.784C444.077 774.832 430.293 765.103 418.82 752.342C426.449 727.264 423.695 698.926 405.41 678.835C395.812 668.3 383.422 660.747 370.263 655.438ZM398.46 679.963C417.419 699.181 416.481 723.656 415.301 748.268C412.804 745.235 410.422 742.027 408.111 738.702C410.737 729.201 409.334 719.24 406.026 709.905C406.65 708.784 407.062 707.483 407.419 706.362C407.983 704.578 408.552 702.379 407.519 700.672C407.324 700.358 406.898 700.299 406.669 700.615C405.654 702.033 405.646 703.954 405.357 705.623C405.265 706.126 405.132 706.625 404.978 707.123C403.047 702.285 400.649 697.649 398.08 693.381C397.698 692.748 396.673 693.024 396.812 693.809C398.253 701.993 401.442 709.282 403.938 717.144C405.734 722.794 405.053 728.672 405.267 734.46C403.361 731.546 401.496 728.56 399.68 725.449C394.204 716.066 389.029 706.305 383.225 697.013C383.929 692.549 382.836 687.543 381.704 683.342C381.651 683.141 381.591 682.94 381.538 682.739C382.456 681.246 382.824 679.073 383.093 677.586C383.538 675.113 383.413 672.869 382.022 670.741C381.802 670.398 381.108 670.278 381.006 670.807C380.563 672.981 380.632 675.058 380.534 677.271C380.514 677.731 380.431 678.194 380.334 678.662C379.157 675.062 377.575 671.473 375.044 668.885C374.569 668.401 373.565 668.754 373.768 669.509C375.092 674.437 377.847 678.862 379.187 683.846C380.015 686.917 380.366 690.142 380.866 693.311C374.445 683.503 367.147 674.363 357.785 666.963C357.507 666.746 357.176 667.162 357.382 667.415C371.093 684.107 380.946 702.886 391.554 721.328C384.648 717.338 380.087 711.039 374.211 705.334C373.543 704.686 372.331 705.356 372.796 706.267C374.246 709.147 376.036 711.957 378.126 714.512C377.474 714.279 376.837 714.021 376.233 713.704C374.131 712.582 372.165 710.478 369.864 709.918C369.811 709.907 369.766 709.951 369.79 710.001C370.816 712.434 374.21 714.713 376.395 716.093C377.875 717.026 379.696 717.971 381.501 718.134C384.948 721.347 389.011 723.812 393.622 724.906C397.288 731.199 401.081 737.44 405.187 743.521C407.019 746.233 408.986 748.955 411.072 751.652C399.321 749.41 389.439 745.211 379.298 737.63C364.565 726.628 361.746 713.328 358.787 696.345C355.576 677.909 345.313 658.501 328.634 648.765C338.727 651.799 349.473 653.496 359.365 656.936C373.823 661.961 387.613 668.967 398.46 679.963Z" fill="#212321"/>
<path d="M113.376 460.081C93.3166 448.359 66.8988 436.704 43.5556 434.248C43.4736 434.21 43.4033 434.164 43.333 434.118C40.8224 432.875 38.5151 436.253 40.5779 438.146C59.7265 455.731 75.4275 473.065 79.9658 499.551C83.2835 518.945 79.0456 539.481 86.1959 558.263C94.8348 580.962 127.047 612.416 154.516 611.061C155.037 611.928 155.579 612.791 156.121 613.653C156.198 614.161 156.471 614.562 156.854 614.828C171.121 637.216 190.841 657.192 217.205 662.347C219.646 662.824 220.916 659.354 218.64 658.234C193.78 645.917 176.14 629.15 162.432 608.539C178.561 574.339 180.552 533.317 158.652 500.819C147.155 483.777 131.051 470.398 113.376 460.081Z" fill="#8DC63F"/>
<path d="M131.607 455.915C111.548 444.193 85.1302 432.539 61.787 430.083C61.705 430.044 61.6347 429.998 61.5644 429.953C59.0538 428.709 56.7465 432.087 58.8093 433.981C77.9579 451.566 93.659 468.899 98.1972 495.385C101.515 514.78 97.2771 535.315 104.427 554.097C113.066 576.796 145.279 608.251 172.748 606.895C173.268 607.763 173.81 608.625 174.352 609.487C174.43 609.995 174.702 610.397 175.086 610.663C189.35 633.061 209.073 653.027 235.436 658.182C237.877 658.659 239.148 655.189 236.871 654.068C212.012 641.751 194.371 624.985 180.663 604.374C196.793 570.173 198.783 529.151 176.883 496.653C165.386 479.611 149.281 466.242 131.607 455.915ZM166.729 496.811C189.772 528.204 183.32 562.94 176.492 597.823C173.561 592.971 170.832 587.895 168.228 582.666C173.962 569.654 174.041 555.145 171.27 541.129C172.395 539.659 173.254 537.889 173.999 536.364C175.177 533.935 176.448 530.916 175.33 528.262C175.117 527.774 174.522 527.601 174.13 528.003C172.385 529.815 171.972 532.556 171.21 534.878C170.973 535.576 170.679 536.261 170.356 536.939C168.61 529.63 166.157 522.513 163.382 515.885C162.968 514.901 161.448 515.081 161.483 516.23C161.829 528.211 164.857 539.282 166.777 551.025C168.159 559.464 165.959 567.711 165.055 576.018C162.945 571.461 160.905 566.809 158.965 561.989C153.109 547.452 147.763 532.439 141.42 517.963C143.358 511.739 142.845 504.366 142.106 498.133C142.072 497.835 142.029 497.535 141.995 497.237C143.617 495.298 144.597 492.274 145.292 490.207C146.444 486.771 146.734 483.542 145.194 480.214C144.952 479.679 143.985 479.362 143.73 480.096C142.643 483.106 142.308 486.085 141.706 489.224C141.58 489.876 141.365 490.519 141.13 491.167C140.201 485.783 138.694 480.329 135.622 476.107C135.044 475.317 133.539 475.61 133.67 476.731C134.53 484.042 137.537 490.933 138.408 498.326C138.948 502.882 138.776 507.559 138.827 512.186C131.712 496.846 123.205 482.276 111.389 469.757C111.039 469.389 110.478 469.914 110.72 470.318C126.802 497.008 136.94 525.869 148.228 554.408C139.204 547.271 134.011 537.327 126.816 527.957C125.998 526.892 124.129 527.595 124.601 528.992C126.069 533.406 128.037 537.791 130.485 541.874C129.603 541.406 128.749 540.904 127.952 540.325C125.188 538.284 122.821 534.871 119.654 533.591C119.579 533.564 119.507 533.618 119.53 533.693C120.486 537.381 124.855 541.343 127.684 543.769C129.602 545.41 132.004 547.14 134.546 547.749C138.794 553.056 144.079 557.423 150.43 559.947C154.348 569.695 158.458 579.396 163.048 588.934C165.095 593.187 167.335 597.483 169.748 601.768C153.445 596.114 140.217 588.055 127.328 575.116C108.598 556.333 107.354 536.762 106.68 511.902C105.949 484.918 95.3567 455.073 73.5849 437.691C87.3565 444.13 102.34 448.798 115.74 455.775C135.326 465.969 153.545 478.851 166.729 496.811Z" fill="#212321"/>
</g>
<g clip-path="url(#clip1)">
<path d="M445.375 698.152C444.457 698.841 443.412 714.75 452.795 719.061C453.643 719.452 453.452 720.588 453.703 721.002C461.596 733.921 460.995 753.216 460.346 759.594C459.885 764.133 437.6 797.068 446.405 813.174C454.719 828.381 468.141 833.173 492.185 838.128C495.712 838.856 508.765 846.066 512.013 844.206C517.08 841.304 522.922 823.627 524.948 819.007C529.169 809.375 541.938 787.92 529.706 774.477C513.582 756.751 488.917 754.313 485.694 753.205C475.849 749.827 463.513 725.291 462.295 722.114C460.796 718.196 462.836 709.025 462.565 708.96C461.981 708.816 461.069 711.655 460.4 714.101C459.262 710.452 454.13 705.327 454.384 705.927C455.145 707.723 455.712 708.906 455.842 709.457C455.892 709.661 456.458 712.759 456.278 712.891C456.19 712.955 455.978 713.085 455.228 711.772C454.527 710.546 452.784 708.317 451.981 706.715C451.661 706.076 451.756 705.245 451.72 705.28C449.795 707.013 454.757 715.667 454.547 715.522C444.726 708.634 445.941 697.726 445.375 698.152Z" fill="#FFC737"/>
<path d="M525.459 772.768C515.623 761.855 503.598 760.006 489.302 756.666C466.99 751.454 461.464 731.588 460.721 715.653C460.709 715.367 460.205 715.312 460.133 715.572C459.572 717.651 459.209 719.798 459.038 721.979C457.224 718.002 454.592 714.388 450.459 711.844C450.051 711.594 449.768 712.036 449.935 712.314C450.155 712.686 450.394 713.042 450.627 713.403C450.902 715.222 452.276 716.942 453.017 718.745C453.869 720.82 454.426 722.958 454.828 725.096C454.243 724.113 453.556 723.143 452.814 722.127C450.201 718.537 448.102 715.358 447.441 711.269C447.432 711.205 447.311 711.16 447.28 711.23C447.256 711.291 447.244 711.354 447.221 711.415C447.228 711.298 447.234 711.184 447.24 711.067C447.249 710.862 446.84 710.764 446.756 710.95C445.085 714.772 445.806 719.697 448.082 723.945C443.078 718.96 437.828 714.125 437.422 707.26C437.459 706.883 437.489 706.512 437.546 706.125C437.59 705.833 437.042 705.589 436.908 705.896C434.178 712.152 437.056 719.482 441.902 725.658C441.206 725.234 440.49 724.828 439.738 724.453C439.309 724.241 438.911 724.71 439.285 724.997C470.52 748.755 430.298 777.883 432.861 803.385C435.756 832.198 476.989 837.425 499.934 852.142C500.796 852.696 502.249 852.004 501.414 851.149C501.078 850.804 500.72 850.48 500.375 850.147C499.173 847.961 497.381 845.866 495.339 843.911C496.313 844.585 497.261 845.292 498.135 846.032C499.698 847.359 501.19 849.029 503.181 849.888C503.478 850.015 503.903 849.884 503.844 849.571C503.737 849.023 503.493 848.501 503.192 847.995C503.198 847.973 503.222 847.965 503.223 847.945C503.246 847.783 503.242 847.617 503.257 847.455C504.117 846.109 504.623 844.606 504.93 843.055C505.145 843.473 505.385 843.894 505.648 844.317C506.291 846.476 507.281 847.977 509.267 849.548C509.623 849.83 510.343 849.664 510.236 849.225C509.794 847.369 509.179 845.778 508.441 843.957C508.346 843.716 508.244 843.443 508.146 843.161C508.165 843.073 508.203 842.999 508.202 842.898C508.086 827.383 526.139 819.635 531.901 806.434C536.585 795.701 534.536 782.843 525.459 772.768ZM526.743 797.005C526.01 792.845 524.054 788.674 521.03 785.68C520.736 785.39 520.223 785.689 520.359 786.005C521.86 789.422 523.831 792.505 524.65 796.078C525.273 798.797 525.33 801.409 525.365 804.067C524.727 805.918 523.88 807.715 522.812 809.43C517.504 817.953 508.395 824.508 505.683 833.655C505.991 829.772 507.298 825.981 509.665 821.88C512.541 816.901 514.954 812.429 514.053 806.489C514.041 806.415 513.893 806.382 513.884 806.466C513.611 809.274 512.664 812.004 511.456 814.697C514.506 799.594 500.918 780.943 482.77 775.627C482.332 775.499 482.17 776.006 482.537 776.201C491.789 781.154 499.726 786.437 504.885 794.73C509.767 802.581 510.116 810.091 509.776 818.15C506.747 824.025 503.177 829.798 503.148 835.87C502.565 837.389 502.751 839.258 502.524 840.835C502.49 841.076 502.448 841.317 502.41 841.56C501.827 839.719 501.058 837.887 500.359 836.12C498.641 831.763 496.968 827.23 494.243 823.15C494.201 823.086 494.076 823.113 494.09 823.183C494.993 827.354 496.719 831.462 497.902 835.614C498.741 838.575 499.213 841.733 500.363 844.69C498.522 842.362 496.517 840.112 494.918 837.653C492.248 833.55 490.846 829.203 488.575 825.01C488.417 824.715 487.905 824.734 487.921 825.067C488.015 826.965 488.518 829.086 489.313 831.259C473.045 817.329 465.206 801.778 461.425 783.335C461.351 782.972 460.752 782.953 460.752 783.314C460.729 800.884 473.13 819.701 489.57 831.953C491.087 835.787 493.533 839.757 496.523 843.021C495.302 842.496 494.071 842.067 492.954 841.756C491.21 840.293 489.379 838.934 487.613 837.714C481.984 833.831 474.939 831.918 469.677 827.664C469.253 827.321 468.56 827.749 468.937 828.162C472.712 832.277 477.77 834.397 482.786 837.219C485.499 838.748 487.796 840.617 490.005 842.554C481.676 837.778 472.167 834.46 463.348 830.311C455.325 826.537 447.245 821.757 442.524 814.933C436.847 806.728 437.665 797.229 440.444 789.145C441.1 787.235 441.876 785.364 442.705 783.514C443.114 798.442 451.817 813.638 466.236 824.876C466.447 825.038 466.71 824.804 466.508 824.633C451.059 811.659 444.031 795.232 444.8 779.102C449.297 770.069 454.523 761.311 455.105 751.015C455.499 744.001 453.105 736.181 447.58 730.283C444.352 725.784 441.075 721.744 439.12 717.312C443.765 724.109 453.003 730.473 456.291 736.734C456.418 736.978 456.936 736.982 456.866 736.685C455.884 732.718 453.354 729.432 450.427 726.326C449.231 724.388 448.212 722.407 447.608 720.291C447.128 718.61 447.015 717.012 447.035 715.416C448.147 720.334 453.388 725.549 455.639 729.73C455.832 730.088 456.5 730.083 456.457 729.661C456.426 729.361 456.378 729.07 456.32 728.782C456.423 728.73 456.493 728.638 456.506 728.499C456.715 725.815 456.443 723.259 455.653 720.603C456.819 722.367 457.862 724.193 458.581 726.202C458.765 726.718 458.922 727.229 459.066 727.741C459.753 736.026 463.3 744.392 470.107 751.087C474.605 755.511 480.051 758.635 486.29 760.915C490.097 762.307 494.087 763.247 498.016 764.331C498.751 764.826 499.501 765.304 500.259 765.765C498.422 765.094 496.53 764.542 494.611 764.162C489.21 763.083 481.314 764.623 477.456 760.22C477.4 760.158 477.269 760.189 477.308 760.271C480.104 765.886 487.564 764.705 493.204 766.039C503.811 768.548 510.568 774.992 517.411 781.966C517.855 782.422 518.624 782.186 518.453 781.613C516.673 775.673 511.155 770.934 504.865 767.751C504.408 767.518 503.934 767.313 503.465 767.098C502.921 766.484 502.281 765.917 501.582 765.39C504.133 766.197 506.625 767.133 508.983 768.397C521.332 775.017 527.334 786.252 526.743 797.005Z" fill="#212321"/>
</g>
<g>
<path d="M1578.98 404.398C1592.72 394.342 1611.11 383.978 1627.94 380.789C1628 380.755 1628.05 380.717 1628.1 380.678C1629.83 379.59 1631.77 382.03 1630.41 383.589C1617.77 398.057 1607.63 412.139 1606.31 432.558C1605.35 447.509 1609.99 462.902 1606.19 477.604C1601.59 495.372 1580.47 521.136 1560.34 521.656C1560.03 522.346 1559.7 523.033 1559.37 523.72C1559.35 524.111 1559.18 524.432 1558.92 524.656C1550.21 542.505 1537.33 558.825 1518.49 564.239C1516.75 564.74 1515.56 562.17 1517.14 561.188C1534.34 550.408 1545.94 536.648 1554.38 520.183C1540.05 495.059 1535.51 463.944 1549.03 437.968C1556.13 424.345 1566.87 413.251 1578.98 404.398Z" fill="#8DC63F"/>
</g>
<g>
<path d="M1956.35 389.891C1933.32 395.24 1910.64 401.979 1888.53 410.327C1894.62 404.296 1900.06 397.82 1904.78 390.502C1905.6 389.23 1904.45 387.584 1902.95 388.147C1889.17 393.295 1876.36 400.166 1864.44 408.604C1873.91 394.319 1882.32 379.521 1886.84 362.801C1887.23 361.344 1885.2 360.917 1884.4 361.796C1871.45 376.021 1858.46 390.212 1845.47 404.398C1842.2 375.542 1855.69 347.745 1853 318.787C1852.89 317.586 1851.53 317.244 1850.63 317.812C1835.65 327.334 1830.75 343.966 1826.75 360.259C1821.79 380.472 1817.31 400.888 1814.61 421.528C1809.46 419.141 1803.83 417.605 1798.28 419.328C1790.46 421.762 1786.16 430.244 1779.81 434.871C1773.14 439.738 1765.97 443.209 1760.69 449.773C1754.43 457.555 1750.73 466.965 1744.23 474.625C1736.42 483.827 1726.55 490.985 1717.36 498.706C1708.84 505.855 1701.2 513.877 1694.08 522.401C1679.08 540.386 1655.09 581.104 1655.28 580.862C1654.86 583.035 1655.04 585.245 1656.31 587.351C1659 591.803 1664.07 591.601 1668.32 589.747C1675.44 586.634 1681.53 579.87 1687.3 574.854C1696.32 567.014 1705.47 559.504 1716.52 554.624C1726.24 550.327 1736.8 548.294 1746.42 543.709C1755.22 539.515 1763.21 533.789 1770.91 527.885C1779.29 521.467 1787.39 514.605 1796.38 509.013C1805.8 503.154 1816.14 500.404 1826.2 496.003C1840.66 489.673 1850.91 477.744 1849.2 461.365C1892.63 451.434 1930.12 428.639 1959.16 394.75C1960.78 392.86 1958.92 389.292 1956.35 389.891Z" fill="#FD7F06"/>
<path d="M1952.63 380.591C1929.6 385.94 1906.92 392.678 1884.81 401.027C1890.9 394.996 1896.34 388.52 1901.06 381.202C1901.88 379.929 1900.73 378.284 1899.23 378.847C1885.45 383.995 1872.64 390.871 1860.73 399.304C1870.19 385.019 1878.6 370.221 1883.12 353.501C1883.52 352.044 1881.48 351.617 1880.68 352.496C1867.73 366.721 1854.74 380.912 1841.76 395.098C1838.48 366.242 1851.97 338.445 1849.28 309.487C1849.17 308.286 1847.81 307.944 1846.91 308.512C1831.93 318.034 1827.03 334.666 1823.03 350.959C1818.08 371.172 1813.59 391.587 1810.89 412.228C1805.74 409.841 1800.11 408.305 1794.56 410.028C1786.74 412.462 1782.44 420.944 1776.09 425.571C1769.42 430.438 1762.25 433.909 1756.97 440.473C1750.71 448.255 1747.01 457.665 1740.51 465.325C1732.7 474.527 1722.83 481.685 1713.64 489.406C1705.12 496.554 1697.48 504.577 1690.36 513.101C1675.36 531.085 1651.38 571.803 1651.56 571.562C1651.14 573.734 1651.31 575.945 1652.59 578.051C1655.28 582.503 1660.35 582.301 1664.6 580.447C1671.73 577.334 1677.81 570.569 1683.58 565.554C1692.6 557.714 1701.75 550.204 1712.8 545.324C1722.52 541.027 1733.08 538.994 1742.7 534.409C1751.5 530.215 1759.49 524.489 1767.19 518.585C1775.57 512.167 1783.67 505.305 1792.66 499.712C1802.08 493.854 1812.42 491.104 1822.48 486.703C1836.95 480.373 1847.19 468.444 1845.48 452.064C1888.91 442.134 1926.4 419.339 1955.44 385.45C1957.07 383.56 1955.2 379.997 1952.63 380.591ZM1834.61 461.198C1834.47 460.593 1834.32 460.026 1834.18 459.53C1832.79 454.702 1829.92 450.077 1825.44 447.618C1825.26 447.522 1825.08 447.779 1825.2 447.924C1828.44 451.843 1831.16 455.691 1832 460.817C1832.39 463.175 1831.76 465.677 1831.54 468.052C1830.84 469.094 1830.07 470.122 1829.16 471.109C1823.04 477.742 1814.24 481.44 1805.51 485.1C1805.98 483.363 1805.92 481.283 1805.9 479.801C1805.88 476.706 1805.77 471.648 1803.05 469.616C1802.52 469.218 1801.8 469.556 1801.69 470.181C1801.13 473.187 1803 476.478 1803.13 479.595C1803.22 481.591 1802.44 484.162 1802.8 486.246C1798.07 488.245 1793.44 490.321 1789.36 492.941C1785.61 495.336 1782.05 497.974 1778.57 500.713C1779.85 494.467 1777.39 486.182 1773.71 482.692C1773.51 482.5 1773.2 482.737 1773.23 482.968C1773.7 488.387 1778.18 496.671 1776.19 502.618C1774.14 504.274 1772.12 505.954 1770.1 507.645C1772.11 494.142 1759.87 475.669 1746.73 474.146C1746.06 474.066 1745.76 474.895 1746.25 475.308C1751.57 479.829 1757.47 482.375 1761.6 488.336C1766.18 494.974 1766.5 502.011 1768.02 509.379C1766.4 510.725 1764.78 512.066 1763.15 513.397C1763.17 511.678 1763.01 509.961 1762.6 508.247C1762.05 505.933 1761.41 503.123 1759.17 501.95C1758.73 501.717 1758.34 502.174 1758.34 502.582C1758.37 504.85 1760.04 506.938 1760.64 509.138C1761.16 511.042 1761.35 512.952 1761.32 514.884C1757.83 517.695 1754.27 520.43 1750.55 522.942C1750 523.318 1749.42 523.664 1748.86 524.024C1748.97 523.606 1749.07 523.193 1749.17 522.797C1749.98 519.631 1750.36 516.5 1749.72 513.289C1749.61 512.751 1748.8 512.696 1748.72 513.286C1748.3 516.288 1748.07 519.343 1747.22 522.275C1746.88 523.461 1746.32 524.636 1745.82 525.822C1739.5 529.322 1732.75 531.779 1726 534.219C1725.94 533.795 1725.87 533.368 1725.76 532.955C1725.14 530.556 1723.52 527.317 1720.57 527.812C1720.17 527.879 1719.96 528.259 1720.09 528.637C1720.74 530.49 1722.39 531.581 1723.05 533.432C1723.26 534.009 1723.36 534.586 1723.42 535.162C1715.91 537.895 1708.47 540.779 1701.73 545.228C1694.31 550.126 1687.73 556.484 1681.18 562.453C1678.05 565.308 1674.93 568.189 1671.7 570.931C1670.12 572.268 1668.48 573.719 1666.79 574.936C1665.62 575.694 1664.45 576.453 1663.28 577.211C1656.31 573.457 1654.4 569.355 1657.53 564.88C1657.75 564.44 1657.65 564.021 1657.42 563.686C1663.35 555.432 1668.97 546.949 1674.99 538.746C1675.15 538.817 1675.33 538.869 1675.55 538.847C1681.54 538.352 1685.46 541.878 1688.91 546.228C1689.35 546.781 1690.22 546.389 1690.16 545.711C1689.63 539.456 1682.44 535.942 1676.65 536.542C1677.76 535.062 1678.85 533.562 1679.99 532.106C1684.88 525.89 1690.06 519.967 1695.46 514.27C1696.41 514.909 1697.2 514.847 1698.46 515.031C1700.46 515.325 1702.48 515.857 1704.29 516.779C1708.62 518.987 1709.94 522.985 1712.99 526.326C1713.34 526.72 1714.09 526.607 1714.15 526.014C1714.64 521.292 1710.23 517.049 1706.41 514.916C1704.22 513.7 1699.85 511.914 1696.93 512.755C1700.54 509.003 1704.23 505.331 1708.08 501.796C1713.71 502.52 1718.88 503.628 1723.45 507.703C1730.03 513.577 1730.21 520.682 1731.27 528.667C1731.41 529.783 1733.07 530.057 1733.49 528.961C1738.73 515.266 1724.93 499.77 1710.99 499.13C1712.62 497.68 1714.26 496.25 1715.93 494.839C1717.21 493.743 1718.52 492.662 1719.83 491.586C1721.61 491.587 1726.1 491.421 1726.76 491.528C1730.69 492.136 1734.26 493.806 1737.21 496.445C1742.66 501.323 1743.75 507.832 1744.41 514.732C1744.46 515.308 1745.39 515.466 1745.57 514.888C1750.15 500.45 1736.04 488.721 1722.61 489.308C1731.88 481.765 1741.26 474.247 1748.34 464.575C1749.7 464.917 1751.07 464.709 1752.58 464.781C1755.52 464.922 1758.37 465.529 1761.04 466.788C1763.81 468.098 1766.2 470.076 1768.26 472.326C1769.93 474.158 1771.04 476.39 1772.97 477.952C1773.35 478.261 1774.07 478.016 1774.09 477.487C1774.33 471.519 1767.76 466.421 1762.82 464.23C1759.8 462.886 1753.86 461.138 1749.9 462.305C1752.79 457.979 1755.22 453.373 1758.02 448.991C1759.14 449.096 1760.21 448.985 1761.72 449.159C1766.09 449.668 1770.2 451.79 1773.25 454.891C1779.06 460.793 1779.53 468.717 1782.47 475.987C1782.74 476.644 1783.56 476.404 1783.72 475.824C1786.15 466.86 1781.51 456.234 1774.21 450.693C1770.99 448.249 1764.72 445.274 1759.97 446.08C1762.98 442.03 1766.54 439.082 1770.4 436.35C1770.62 436.327 1770.87 436.308 1771.12 436.294C1773.08 436.196 1775.08 436.654 1776.89 437.38C1780.3 438.745 1782.55 441.476 1785.26 443.803C1785.7 444.183 1786.57 444.334 1787.1 444.037C1787.41 443.86 1787.67 443.741 1787.87 443.444C1788.32 442.774 1788.4 441.843 1787.86 441.185C1785.12 437.856 1781.16 434.894 1776.94 433.74C1776.35 433.576 1775.59 433.44 1774.77 433.364C1775.96 432.567 1777.16 431.762 1778.37 430.919C1778.38 430.907 1778.4 430.894 1778.42 430.881C1785.6 431.505 1792 433.882 1796.88 439.871C1802.62 446.92 1803.35 455.889 1807.07 463.851C1807.72 465.248 1809.8 465.013 1810.06 463.466C1812.46 449.028 1799.96 426.517 1783.99 425.815C1787.4 422.187 1790.63 418.267 1794.85 416.286C1804.21 411.895 1815.53 421.691 1822.16 427.934C1831 436.282 1837.62 449.492 1834.61 461.198ZM1844.08 445.222C1843.33 442.809 1842.32 440.503 1841.11 438.304C1849.78 437.079 1858.47 434.124 1866.5 431.062C1875.94 427.461 1887.37 423.771 1894.78 416.701C1895.48 416.039 1895.15 414.469 1893.96 414.739C1884.38 416.914 1875.53 422.65 1866.35 426.197C1857.54 429.609 1848.26 432.091 1839.47 435.567C1837.98 433.27 1836.23 431.124 1834.35 429.085C1836.98 427.307 1839.23 424.484 1841.47 422.413C1844.4 419.691 1847.49 417.187 1850.24 414.272C1850.64 413.846 1850.04 413.08 1849.52 413.355C1845.75 415.357 1842.49 418.106 1839.42 421.07C1837.38 423.034 1834.76 425.355 1833.29 427.953C1832.29 426.933 1831.27 425.932 1830.2 424.974C1839.65 411.309 1850 398.849 1860.55 385.912C1860.84 385.557 1860.34 385.074 1859.98 385.355C1847.25 395.397 1836.63 409.389 1828.91 423.82C1825.61 421.009 1822.04 418.519 1818.4 416.324C1820.68 403.409 1821.24 390.263 1824.19 377.391C1827.58 362.539 1832.69 348.473 1838.09 334.262C1838.32 333.652 1837.45 333.31 1837.16 333.877C1830.39 346.969 1825.67 361.279 1822.36 375.612C1819.43 388.342 1816.44 402.398 1817.3 415.662C1817 415.486 1816.69 415.288 1816.39 415.117C1815.19 414.428 1813.93 413.738 1812.65 413.09C1816.22 395.824 1819.46 378.493 1823.52 361.326C1827.65 343.781 1831.24 323.727 1846.51 312.399C1848.36 341.408 1834.83 369.313 1839.38 398.4C1839.57 399.636 1841.03 399.919 1841.82 399.052C1854.08 385.608 1866.34 372.173 1878.63 358.758C1872.99 375.411 1863.57 390.234 1853.52 404.707C1852.59 406.05 1854.25 407.808 1855.61 406.754C1867.98 397.134 1881.34 389.497 1895.76 383.562C1890.41 391.258 1884.24 398.205 1876.86 404.163C1875.44 405.311 1876.76 407.455 1878.45 406.868C1899.96 399.41 1921.76 393.216 1944 388.527C1916.6 415.575 1881.32 435.52 1844.08 445.222Z" fill="#212321"/>
</g>
<g clip-path="url(#clip2)">
<path d="M1643.16 627.555C1641.87 627.495 1629.26 640.044 1634.04 650.133C1634.47 651.046 1633.47 651.861 1633.38 652.38C1630.55 668.618 1615.82 684.299 1610.57 689.171C1606.83 692.637 1563.66 704.693 1559.26 724.221C1555.1 742.66 1562.95 755.944 1579.69 776.715C1582.14 779.763 1587.9 794.809 1592.02 795.505C1598.46 796.59 1616.44 785.885 1621.57 783.433C1632.25 778.319 1658.89 769.255 1658.42 749.578C1657.81 723.634 1638.69 704.534 1636.78 701.379C1630.92 691.749 1638.54 662.745 1639.85 659.253C1641.46 654.946 1649.95 648.708 1649.77 648.466C1649.38 647.941 1646.52 649.678 1644.15 651.257C1645.87 647.425 1645.3 639.599 1645.07 640.275C1644.39 642.3 1644 643.679 1643.7 644.229C1643.6 644.433 1641.79 647.409 1641.54 647.395C1641.42 647.388 1641.15 647.349 1641.48 645.736C1641.79 644.228 1641.95 641.161 1642.45 639.269C1642.65 638.515 1643.34 637.888 1643.29 637.892C1640.38 638.005 1638.21 648.658 1638.14 648.392C1634.88 635.85 1643.95 627.592 1643.16 627.555Z" fill="#8DC63F"/>
<path d="M1656.08 745.213C1655.78 729.303 1646.95 719.441 1637.28 706.763C1622.2 686.976 1632.16 666.58 1643.27 652.773C1643.47 652.526 1643.09 652.131 1642.84 652.299C1640.83 653.645 1638.94 655.184 1637.18 656.886C1638.58 652.313 1639.01 647.477 1637.38 642.494C1637.22 642.004 1636.65 642.177 1636.59 642.524C1636.5 642.986 1636.44 643.449 1636.37 643.911C1635.26 645.62 1635.16 648.005 1634.46 650.022C1633.66 652.342 1632.55 654.511 1631.32 656.573C1631.54 655.348 1631.68 654.063 1631.8 652.702C1632.23 647.899 1632.79 643.795 1635.24 639.927C1635.28 639.867 1635.21 639.746 1635.13 639.782C1635.07 639.817 1635.01 639.862 1634.95 639.897C1635.04 639.804 1635.13 639.713 1635.22 639.62C1635.38 639.455 1635.11 639.09 1634.9 639.187C1630.66 641.219 1627.64 645.826 1626.44 650.944C1625.87 643.324 1624.99 635.658 1629.7 629.65C1630.01 629.361 1630.31 629.072 1630.64 628.789C1630.9 628.576 1630.61 627.993 1630.27 628.157C1623.34 631.486 1620.38 639.592 1619.94 648.098C1619.66 647.262 1619.35 646.428 1618.99 645.596C1618.79 645.122 1618.1 645.237 1618.21 645.736C1627.19 687.167 1571.61 683.635 1554.98 706.683C1536.2 732.722 1567.32 765.613 1575.93 793.766C1576.25 794.825 1578 795.253 1577.92 793.962C1577.89 793.442 1577.82 792.924 1577.77 792.407C1578.37 789.752 1578.39 786.765 1578.1 783.721C1578.43 784.958 1578.71 786.203 1578.91 787.425C1579.26 789.613 1579.29 792.039 1580.34 794.133C1580.5 794.444 1580.96 794.629 1581.14 794.327C1581.45 793.796 1581.63 793.192 1581.75 792.562C1581.77 792.547 1581.8 792.557 1581.81 792.541C1581.95 792.422 1582.07 792.28 1582.2 792.155C1583.92 791.628 1585.46 790.724 1586.86 789.643C1586.74 790.141 1586.63 790.657 1586.54 791.193C1585.5 793.439 1585.23 795.375 1585.76 798.06C1585.85 798.542 1586.58 798.902 1586.82 798.462C1587.81 796.608 1588.46 794.854 1589.18 792.825C1589.27 792.558 1589.39 792.26 1589.51 791.957C1589.59 791.897 1589.68 791.86 1589.76 791.776C1601.09 778.754 1622.11 784.781 1636.73 777.755C1648.61 772.043 1656.35 759.898 1656.08 745.213ZM1639.3 766.32C1641.75 762.343 1643.16 757.51 1642.81 752.92C1642.77 752.475 1642.12 752.369 1642 752.727C1640.75 756.616 1640.15 760.552 1638.21 764.098C1636.74 766.799 1634.86 769.016 1632.93 771.258C1631.03 772.361 1628.98 773.274 1626.81 773.966C1616.03 777.403 1603.47 776.568 1594.43 782.322C1597.56 779.296 1601.46 777.038 1606.49 775.255C1612.6 773.091 1617.94 771.03 1621.55 765.451C1621.6 765.381 1621.5 765.252 1621.43 765.316C1619.12 767.469 1616.31 769.092 1613.3 770.502C1627.02 760.013 1629.24 735.052 1617.77 718.06C1617.49 717.651 1616.98 717.962 1617.15 718.378C1621.34 728.911 1624.18 738.811 1622.44 749.298C1620.8 759.226 1615.56 765.732 1609.33 772.22C1602.43 775.025 1595.15 777.371 1590.65 782.417C1589.04 783.279 1587.82 784.968 1586.46 786.126C1586.25 786.304 1586.04 786.476 1585.83 786.652C1586.69 784.713 1587.39 782.653 1588.1 780.695C1589.85 775.871 1591.78 770.933 1592.47 765.643C1592.48 765.561 1592.36 765.497 1592.32 765.565C1590.01 769.669 1588.45 774.291 1586.39 778.572C1584.92 781.623 1582.99 784.585 1581.79 787.847C1581.94 784.631 1581.9 781.366 1582.36 778.209C1583.12 772.939 1585.13 768.343 1586.3 763.273C1586.38 762.918 1585.93 762.579 1585.7 762.868C1584.38 764.517 1583.24 766.634 1582.31 768.996C1578.79 746.12 1583.6 727.722 1593.99 709.721C1594.19 709.367 1593.7 708.937 1593.43 709.238C1580.46 723.879 1577.11 748.158 1582.02 769.754C1580.48 774.002 1579.63 779.006 1579.76 783.797C1579.11 782.515 1578.38 781.305 1577.67 780.272C1577.27 777.846 1576.71 775.444 1576.12 773.205C1574.2 766.071 1569.64 759.601 1568.31 752.411C1568.21 751.832 1567.3 751.71 1567.32 752.314C1567.49 758.36 1570.21 763.627 1572.39 769.452C1573.56 772.605 1574.13 775.754 1574.58 778.898C1571.03 769.151 1565.41 759.803 1560.99 750.24C1556.97 741.541 1553.64 731.961 1554.67 723.002C1555.9 712.23 1563.6 704.871 1571.91 700.05C1573.88 698.911 1575.91 697.887 1577.98 696.918C1567.32 709.654 1563.5 728.352 1567.45 747.705C1567.51 747.985 1567.9 747.972 1567.86 747.69C1564.32 726.177 1570.47 707.611 1583.01 694.687C1593.48 690.263 1604.37 686.573 1612.45 678.387C1617.95 672.808 1621.69 664.627 1621.35 655.884C1621.92 649.898 1622.12 644.26 1623.73 639.21C1622.66 648.095 1625.81 659.795 1623.98 667.293C1623.91 667.585 1624.34 667.947 1624.5 667.651C1626.59 663.662 1626.87 659.17 1626.68 654.554C1627.09 652.109 1627.69 649.752 1628.73 647.569C1629.57 645.835 1630.65 644.423 1631.84 643.105C1629.16 647.977 1629.76 655.954 1628.59 661C1628.49 661.432 1629.06 661.89 1629.33 661.508C1629.53 661.237 1629.7 660.96 1629.86 660.68C1629.99 660.708 1630.12 660.68 1630.23 660.573C1632.39 658.479 1634.04 656.158 1635.33 653.395C1635.02 655.674 1634.55 657.919 1633.68 660.093C1633.46 660.65 1633.22 661.185 1632.96 661.712C1627.44 669.098 1624.28 678.532 1625.12 688.827C1625.67 695.63 1627.99 702.004 1631.6 708.223C1633.8 712.018 1636.49 715.563 1639.02 719.186C1639.28 720.107 1639.57 721.026 1639.87 721.935C1638.81 720.103 1637.61 718.334 1636.26 716.689C1632.48 712.052 1624.64 707.873 1624.62 701.53C1624.62 701.44 1624.48 701.376 1624.45 701.471C1622.69 708.09 1629.89 712.266 1633.68 717.282C1640.83 726.714 1641.81 736.765 1642.47 747.318C1642.52 748.005 1643.34 748.34 1643.62 747.744C1646.49 741.557 1645.3 733.786 1642.31 726.778C1642.1 726.267 1641.85 725.769 1641.61 725.265C1641.6 724.376 1641.47 723.46 1641.27 722.537C1642.84 724.975 1644.26 727.481 1645.33 730.167C1650.92 744.233 1647.73 757.759 1639.3 766.32Z" fill="#212321"/>
</g>
<g>
<path d="M814.83 1019.88C815.567 1019.39 816.35 1018.86 817.229 1018.03C821.349 1014.22 825.365 1011.69 828.993 1007.3C830.221 1005.83 828.65 1003.49 826.839 1003.88C816.007 1006.37 805.666 1006.52 794.691 1006.27C797.433 1001.01 799.593 995.489 800.815 990.416C803.169 980.759 799.884 976.17 790.766 972.757C784.687 970.465 777.436 965.83 774.74 973.832C772.483 980.418 771.655 988.272 770.329 995.103C769.792 998.077 769.204 1001.06 768.712 1004.08C760.725 993.88 751.658 986.27 740.043 980.122C738.575 979.343 736.467 979.878 736.37 981.829C736.027 989.831 737.838 996.906 741.711 1002.81C730.194 998.271 718.727 998.174 708.043 1001.25C692.263 979.099 663.103 960.365 639.724 977.296C639.821 976.562 639.918 975.732 639.918 974.662C639.77 969.783 640.455 965.733 639.724 960.854C639.478 959.193 636.982 958.852 636.245 960.268C631.588 968.708 625.658 975.538 619.139 982.466C617.322 977.637 614.923 973.047 612.329 969.294C607.381 962.173 602.479 961.633 594.978 965.534C589.967 968.168 582.711 970.164 586.391 976.556C589.379 981.823 593.989 986.947 597.714 991.73C599.331 993.829 600.948 995.927 602.662 997.975C591.39 997.241 581.1 998.708 570.365 1002.66C569.039 1003.15 568.16 1004.81 569.382 1006.03C574.381 1010.91 580.066 1013.84 586.191 1014.76C555.608 1030.08 553.945 1070.96 571.49 1098.58C593.595 1133.22 632.36 1143.37 667.696 1124.58C677.94 1139.8 693.869 1151.61 714.402 1157.95C759.394 1171.81 814.824 1160.79 838.791 1117.12C854.823 1087.84 855.508 1028.61 814.83 1019.88Z" fill="#FD2A53"/>
<path d="M807.563 1007.51C808.3 1007.02 809.082 1006.48 809.962 1005.65C814.081 1001.85 818.098 999.312 821.726 994.921C822.954 993.459 821.383 991.116 819.572 991.509C808.74 994 798.399 994.142 787.423 993.897C790.166 988.631 792.325 983.114 793.548 978.041C795.902 968.384 792.617 963.794 783.498 960.382C777.419 958.09 770.169 953.455 767.473 961.457C765.216 968.043 764.387 975.897 763.062 982.727C762.525 985.702 761.936 988.682 761.445 991.702C753.458 981.505 744.391 973.895 732.776 967.747C731.308 966.968 729.199 967.502 729.102 969.453C728.76 977.455 730.571 984.53 734.444 990.434C722.926 985.895 711.46 985.799 700.776 988.875C684.99 966.718 655.83 947.984 632.451 964.915C632.548 964.181 632.645 963.351 632.645 962.282C632.497 957.402 633.182 953.352 632.451 948.473C632.205 946.812 629.709 946.471 628.972 947.887C624.315 956.327 618.385 963.157 611.866 970.085C610.055 965.256 607.65 960.666 605.056 956.913C600.102 949.786 595.2 949.252 587.705 953.153C582.706 955.787 575.45 957.789 579.129 964.181C582.117 969.448 586.728 974.572 590.453 979.355C592.07 981.453 593.686 983.552 595.4 985.6C584.128 984.866 573.839 986.333 563.103 990.286C561.778 990.775 560.898 992.43 562.121 993.653C567.12 998.532 572.804 1001.46 578.929 1002.39C548.346 1017.71 546.678 1058.59 564.223 1086.21C586.328 1120.85 625.092 1131 660.429 1112.21C670.673 1127.43 686.601 1139.24 707.135 1145.58C752.127 1159.44 807.557 1148.42 831.524 1104.75C847.555 1075.46 848.241 1016.24 807.563 1007.51ZM733.804 973.599C743.751 979.452 751.99 986.771 759.097 996.138C759.588 996.821 760.177 997.014 760.811 997.014C760.565 999.306 760.468 1001.65 760.617 1003.94C760.668 1004.33 761.154 1004.28 761.302 1003.99C764.587 997.554 765.959 990.138 767.524 983.063C768.747 977.256 769.289 962.327 775.511 962.134C782.179 961.94 788.989 969.891 789.286 975.891C787.423 975.305 785.509 974.913 783.698 974.088C781.299 973.013 779.288 971.455 776.985 970.329C776.3 969.988 775.808 970.818 776.054 971.353C778.208 975.209 783.847 978.962 788.6 979.696C787.863 981.988 786.641 984.428 785.807 986.231C782.03 994.767 776.151 1001.01 771.101 1008.72C770.072 1010.33 772.032 1012.09 773.552 1010.97C778.551 1007.36 782.864 1001.94 786.292 995.99C795.456 998.379 804.477 998.379 813.687 997.014C809.277 1000.87 804.426 1003.45 798.444 1005.41C797.222 1005.8 796.776 1007.51 797.267 1008.58C800.404 1015.17 804.129 1020 809.522 1024.19C800.552 1027.41 791.537 1024.93 785.167 1017.07C784.138 1015.8 781.739 1015.71 780.853 1017.22C777.374 1023.22 773.649 1028.39 769.187 1033.32C769.581 1029.22 769.924 1025.17 770.266 1021.08C770.461 1018.93 767.718 1017.47 766.05 1018.93C758.16 1025.67 749.779 1029.37 739.975 1030.69C742.768 1023.12 747.328 1017.61 754.481 1012.98C756.737 1011.52 754.578 1008.68 752.521 1008.83C742.963 1009.42 733.553 1010 725.126 1005.07C732.77 1004.93 740.072 1003.9 747.722 1001.8C749.487 1001.31 750.516 998.732 748.653 997.56C739.243 991.844 734.341 983.842 733.804 973.599ZM567.508 993.016C577.112 989.945 586.671 988.87 596.914 989.7C597.651 989.797 598.137 989.507 598.48 989.114C599.851 990.576 601.325 991.992 602.891 993.26C603.182 993.454 603.428 993.112 603.33 992.868C601.028 986.964 596.96 981.795 593.235 976.722C590.196 972.524 580.74 963.55 584.22 959.404C587.945 954.962 597.109 955.11 601.177 958.431C599.708 959.307 598.383 960.331 596.766 961.019C594.709 961.946 592.504 962.384 590.396 963.163C589.807 963.408 590.104 964.238 590.544 964.38C594.321 965.21 600.051 963.749 603.285 961.064C604.365 962.918 605.199 965.114 605.93 966.678C609.312 974.094 609.998 981.51 612.106 989.217C612.546 990.877 614.848 990.633 614.997 988.972C615.488 983.603 614.506 977.7 612.597 972.041C619.459 967.457 624.704 961.599 629.114 954.865C629.114 959.99 627.989 964.625 625.784 969.647C625.344 970.67 626.224 971.893 627.155 972.183C633.279 973.986 638.621 974.378 644.506 973.355C641.369 981.016 634.559 985.406 625.686 984.968C624.264 984.917 622.847 986.384 623.333 987.846C625.195 993.556 626.418 998.97 627.058 1004.73C624.607 1002.14 622.156 999.556 619.705 996.968C618.379 995.552 615.831 996.479 615.831 998.43C615.637 1007.4 613.232 1014.97 608.381 1022.1C605.096 1015.9 604.119 1009.8 605.244 1002.48C605.587 1000.14 602.502 999.892 601.371 1001.31C596.223 1007.85 591.127 1014.29 583.088 1016.87C587.402 1011.85 590.933 1006.53 594.018 1000.34C594.703 998.919 593.624 996.775 591.813 997.31C582.608 1000.04 574.518 998.623 567.508 993.016ZM577.021 1092.49C552.905 1066.83 547.512 1016.53 587.705 1003.31C584.42 1008.87 580.649 1013.85 575.941 1018.58C574.816 1019.7 575.404 1022.24 577.267 1022.1C587.608 1021.26 594.372 1015.85 600.645 1008.68C600.697 1015.17 602.559 1020.92 606.381 1026.88C607.313 1028.29 609.027 1028.24 610.009 1026.97C615.545 1019.85 618.682 1012.34 619.813 1003.8C622.653 1006.92 625.452 1010.04 628.292 1013.17C629.663 1014.63 632.605 1013.66 632.554 1011.56C632.211 1003.9 630.937 996.821 628.732 989.552C639.318 988.722 647.403 981.846 649.808 971.063C650.151 969.55 648.928 967.844 647.208 968.333C644.266 969.112 638.581 971.063 635.742 969.846C634.371 969.26 633.537 968.771 632.999 968.282C655.544 958.039 679.511 972.041 692.303 991.992C689.458 993.312 686.664 994.87 683.973 996.627C678.14 986.333 669.713 978.087 658.829 973.941C658.778 973.941 658.732 974.037 658.778 974.088C667.205 982.09 674.655 990.189 679.951 999.46C666.422 1009.7 655.938 1025.17 651.133 1041.96C644.912 1063.71 646.477 1084.4 654.561 1101.77C628.429 1116.45 599.12 1116.01 577.021 1092.49ZM814.967 1106.4C788.795 1133.91 751.207 1142.6 714.591 1133.18C696.062 1128.45 680.282 1119.42 669.65 1106.59C667.051 1103.47 664.748 1100.1 662.788 1096.49C656.858 1085.56 654.064 1072.59 655.435 1057.7C657.247 1037.99 667.588 1017.6 682.636 1004.77C683.91 1003.69 685.236 1002.67 686.556 1001.74C689.252 999.738 692.046 998.032 694.937 996.616C697.731 995.251 700.673 994.13 703.661 993.3C715.031 990.178 727.531 991.298 740.369 998.618C733.067 1000.08 725.863 1000.72 718.219 1000.28C716.356 1000.18 714.642 1002.67 716.207 1004.13C724.835 1012.28 734.638 1013.94 745.614 1013.8C740.078 1018.77 736.547 1024.77 734.341 1032.63C733.85 1034.43 735.176 1035.9 737.038 1035.75C747.379 1035.02 756.252 1031.95 764.485 1026.43C763.948 1031.22 763.405 1035.99 762.913 1040.78C762.622 1043.07 765.759 1044.88 767.518 1043.17C773.843 1037.07 778.985 1030.58 783.544 1023.16C792.32 1031.56 804.42 1033.21 815.55 1026.97C817.07 1026.09 817.607 1023.8 815.944 1022.68C813.002 1020.77 806.974 1017.41 805.894 1014.09C805.306 1012.43 805.112 1011.36 805.112 1010.57C841.528 1026.49 839.226 1080.93 814.967 1106.4Z" fill="#212321"/>
<path d="M681.02 1058.1C681.414 1057.32 681.757 1056.49 682.145 1055.66C682.145 1055.6 682.145 1055.6 682.145 1055.56V1055.51C682.145 1055.31 681.951 1055.22 681.751 1055.31C674.352 1058.44 671.359 1067.51 672.93 1075.07C673.175 1076.24 673.518 1077.42 674.01 1078.49C674.01 1078.54 674.061 1078.59 674.061 1078.64C674.501 1079.71 676.461 1079.47 676.415 1078.2C676.415 1077.61 676.363 1077.03 676.415 1076.44C676.466 1070.2 678.083 1064.98 680.431 1059.42C680.626 1058.98 680.826 1058.54 681.02 1058.1Z" fill="#212321"/>
<path d="M819.966 1036.92C819.914 1036.83 819.817 1036.83 819.817 1036.92C818.937 1061.41 815.407 1083.32 797.273 1101.52C781.247 1117.72 762.525 1120.3 741.991 1126.69C740.277 1127.23 740.226 1129.57 742.14 1129.86C787.52 1136.5 836.529 1080.15 819.966 1036.92Z" fill="#212321"/>
<path d="M684.105 1076.05C684.008 1075.37 683.808 1074.69 683.516 1074.05C683.225 1073.37 682.437 1073.27 681.9 1073.66C679.791 1075.12 679.157 1078.68 679.203 1081.07C679.203 1081.37 679.203 1081.61 679.254 1081.9C679.403 1084.44 679.843 1087.03 681.705 1088.98C682.637 1089.96 684.156 1089.47 684.351 1088.1C684.745 1085.66 684.156 1083.13 684.156 1080.64C684.156 1079.17 684.305 1077.56 684.105 1076.05Z" fill="#212321"/>
<path d="M591.178 1074.03C591.093 1073.84 590.813 1073.9 590.75 1074.08C588.144 1081.79 594.206 1090.24 601.491 1092.59C602.462 1092.91 603.439 1091.53 602.582 1090.81C596.88 1086.08 594.058 1080.66 591.178 1074.03Z" fill="#212321"/>
<path d="M608.678 1087.22C607.295 1086.01 605.793 1084.33 603.999 1083.79C603.388 1083.61 602.873 1084.06 602.805 1084.64C602.536 1086.86 604.479 1089.31 606.096 1090.66C607.981 1092.23 610.106 1093.73 612.677 1093.63C613.86 1093.58 614.42 1092.32 613.671 1091.42C612.289 1089.74 610.306 1088.64 608.678 1087.22Z" fill="#212321"/>
</g>
<g>
<path d="M1824.63 81.6318C1813.88 81.3237 1803.84 77.9773 1795.33 71.4518C1794.1 70.514 1793.09 69.5276 1792.06 68.7235C1792.63 67.9283 1793.12 67.0964 1793.55 66.2407C1802.14 55.8162 1818.76 38.4755 1809.66 25.9006C1800.99 13.9147 1778.64 13.2958 1765.98 17.9074C1765.7 18.0119 1765.64 18.2385 1765.71 18.4536C1762.66 19.8688 1761.9 22.3467 1763.42 28.5475C1766.18 39.8325 1766.78 51.2343 1765.21 62.6715C1764.91 62.6626 1764.57 62.6618 1764.11 62.6609C1761.27 62.6567 1758.69 62.4137 1755.97 61.5148C1751.04 59.9008 1746.94 56.8681 1742.9 53.7548C1742.05 53.0979 1740.91 53.6795 1740.53 54.5382C1738.74 58.6598 1738.3 63.1865 1740.24 67.1267C1734.63 67.2444 1729.02 67.362 1723.41 67.4797C1721.47 67.5213 1720.54 69.4043 1721.61 70.9567C1722.91 72.8529 1724.35 74.4701 1725.89 75.8735C1712.58 85.4794 1711.41 101.973 1708.78 117.438C1706.52 130.722 1701.83 141.915 1688.76 147.869C1678.09 152.734 1666.11 152.837 1654.65 153.654C1636.29 154.964 1619.71 159.413 1606.85 173.301C1596 185.031 1590.43 200.678 1591.88 216.508C1593.44 233.529 1602.58 248.783 1616.39 258.804C1630.49 269.038 1651.32 279.347 1669.19 279.021C1688.57 278.669 1708.67 269.442 1726.09 261.835C1734.98 257.948 1744.09 253.93 1751.97 248.214C1760.83 241.8 1767.46 232.91 1773.98 224.305C1788.17 205.6 1801.14 185.696 1808.5 163.325C1811.57 153.998 1813.54 144.216 1814.11 134.429C1814.44 128.786 1815.06 121.594 1813.2 115.759C1814.96 116.66 1816.73 117.658 1818.53 118.656C1819.61 119.253 1821.42 118.775 1821.39 117.281C1821.19 107.698 1818.21 99.8062 1811.91 93.038C1818.38 92.7579 1824.32 90.8589 1825.88 83.5571C1826.09 82.6951 1825.69 81.662 1824.63 81.6318Z" fill="#FD2A53"/>
<path d="M1765.49 218.831C1779.67 200.126 1792.65 180.222 1800.01 157.851C1803.08 148.524 1805.05 138.742 1805.62 128.955C1805.95 123.312 1806.57 116.12 1804.71 110.285C1806.47 111.186 1808.24 112.184 1810.03 113.182C1811.11 113.779 1812.93 113.301 1812.9 111.807C1812.7 102.224 1809.72 94.3321 1803.42 87.5639C1809.89 87.2838 1815.82 85.3848 1817.39 78.083C1817.57 77.2196 1817.17 76.1864 1816.12 76.1542C1805.37 75.8461 1795.33 72.4997 1786.82 65.9742C1785.59 65.0364 1784.58 64.05 1783.55 63.2459C1784.12 62.4507 1784.61 61.6188 1785.04 60.7631C1793.63 50.3386 1810.25 32.998 1801.15 20.423C1792.48 8.43711 1770.13 7.81825 1757.47 12.4298C1757.19 12.5343 1757.13 12.7609 1757.2 12.976C1754.15 14.3912 1753.39 16.8691 1754.91 23.0699C1757.68 34.3529 1758.27 45.7567 1756.7 57.1939C1756.4 57.185 1756.06 57.1842 1755.61 57.1833C1752.76 57.1792 1750.18 56.9361 1747.46 56.0372C1742.54 54.4233 1738.43 51.3905 1734.39 48.2772C1733.54 47.6203 1732.4 48.2019 1732.02 49.0606C1730.23 53.1822 1729.79 57.7089 1731.73 61.6491C1726.12 61.7668 1720.51 61.8845 1714.9 62.0021C1712.96 62.0437 1712.03 63.9267 1713.1 65.4791C1714.4 67.3753 1715.84 68.9925 1717.38 70.3959C1704.07 80.0018 1702.9 96.4956 1700.27 111.96C1698.01 125.245 1693.32 136.437 1680.25 142.392C1669.58 147.257 1657.6 147.359 1646.14 148.176C1627.79 149.486 1611.2 153.935 1598.34 167.823C1587.5 179.559 1581.92 195.201 1583.37 211.031C1584.93 228.052 1594.07 243.305 1607.88 253.326C1621.99 263.56 1642.81 273.87 1660.68 273.543C1680.06 273.191 1700.17 263.964 1717.58 256.357C1726.47 252.47 1735.58 248.452 1743.46 242.737C1752.34 236.326 1758.96 227.437 1765.49 218.831ZM1734.09 52.087C1738.1 55.3714 1742.64 58.1437 1747.68 59.5246C1750.06 60.1744 1753.49 61.0518 1756.2 60.4681C1756.16 60.6886 1756.14 60.9127 1756.1 61.1332C1748.57 61.294 1741.04 61.4472 1733.52 61.6059C1733.06 58.3363 1732.98 55.1748 1734.09 52.087ZM1721.31 68.071C1720.56 67.462 1719.81 66.8168 1719.12 66.0875C1732.17 65.7591 1745.22 65.4307 1758.26 65.1044C1759.65 65.0709 1760.36 63.9209 1760.37 62.8533C1760.63 62.5348 1760.82 62.1452 1760.89 61.6493C1762.04 53.5535 1762.27 45.3667 1761.16 37.2677C1760.58 33.1067 1759.65 28.9962 1758.46 24.9636C1758.41 24.7918 1758.34 24.5994 1758.26 24.4014C1759.6 26.2477 1761.31 27.9861 1763.16 29.3661C1772.26 36.1258 1786.96 37.3359 1794.81 27.9687C1795.08 27.6481 1794.65 27.3093 1794.33 27.4163C1787.17 29.8072 1779.74 32.3026 1772.2 29.9057C1768.69 28.7926 1765.66 27.0374 1762.97 24.5603C1761.97 23.6364 1760.21 22.2172 1759.65 20.8943C1758.87 19.0551 1759.95 15.3307 1761.66 13.0647C1766.56 12.6804 1771.47 12.4156 1776.37 13.0022C1782.24 13.7056 1794.24 15.9616 1797.54 21.6056C1804.4 33.3335 1789.56 49.2507 1781.15 58.6108C1778.53 60.7536 1776.13 63.2989 1773.65 65.4529C1771.81 67.042 1769.65 69.4038 1767.44 70.4522C1765.5 71.3754 1763.55 71.0398 1761.43 70.7729C1761.35 70.7608 1761.28 70.8453 1761.3 70.9209C1762.43 76.018 1767.98 74.6499 1771.43 72.9823C1775.28 71.1307 1779.51 68.2249 1782.53 64.6126C1787.19 67.5331 1792.56 73.3024 1796.28 74.9812C1799.14 76.2725 1802.09 77.242 1805.16 77.9292C1807.51 78.4677 1809.88 78.8123 1812.28 78.9651C1808.77 83.4909 1804.57 85.2964 1799.67 84.3875C1798.42 84.3223 1797.25 86.0173 1798.32 87.0048C1804.7 92.9356 1808.32 99.9497 1809.07 108.388C1803.27 105.01 1795.42 100.676 1789.51 101.647C1783.94 102.561 1777.54 109.203 1772.72 113.45C1770.78 109.21 1768.83 104.965 1766.89 100.725C1766.53 99.9247 1765.42 99.2318 1764.5 99.4973C1760.47 100.686 1753.58 104.281 1749.42 103.945C1739.13 103.12 1745.07 91.0582 1749.98 86.5613C1751.79 84.9063 1749.87 81.4132 1747.52 82.7803C1740.56 86.8482 1733.44 90.0595 1725.84 92.5839C1726.7 86.0887 1729.53 80.966 1734.9 76.3582C1736.32 75.1449 1735.56 72.6853 1733.66 72.5632C1730.13 72.3283 1727.12 71.5132 1724.46 70.1204C1724.09 68.8023 1722.75 67.7088 1721.31 68.071ZM1722.5 245.848C1705.82 253.673 1687.36 262.038 1669.06 265.088C1650.81 268.131 1630.64 259.064 1615.28 249.838C1599.1 240.109 1588.93 223.13 1589.62 204.112C1590.32 184.938 1603.12 166.785 1621.09 159.453C1637.17 152.892 1654.82 155.634 1671.48 151.895C1685.62 148.726 1697.71 141.188 1703.1 127.325C1710.02 109.503 1705.54 86.6754 1722.09 73.748C1724.16 74.8668 1726.42 75.6872 1728.86 76.2091C1723.93 81.5822 1721.37 87.8689 1721.1 95.5576C1721.05 96.8382 1722.26 98.3374 1723.72 97.9067C1729.72 96.1185 1735.44 93.9041 1741.01 91.269C1738.58 96.7556 1738.58 102.893 1741.23 109.142C1741.6 109.992 1742.82 110.736 1743.78 110.443C1747.54 109.285 1757.25 104.311 1760.97 105.15C1766.67 106.43 1767.75 112.923 1770.03 117.729C1770.62 118.995 1772.24 119.271 1773.31 118.425C1777.03 115.485 1781.1 111.038 1785.33 108.91C1790.63 106.231 1795.3 106.546 1799.8 108.117C1802.6 114.966 1800.3 127.332 1799.22 133.836C1797.79 142.41 1795.37 150.864 1792.29 159.009C1785.84 176.034 1776.02 191.71 1765.35 206.452C1753.22 223.211 1741.59 236.896 1722.5 245.848Z" fill="#212321"/>
<path d="M1771.75 185.327C1781.53 167.265 1790.34 143.631 1791.19 123.039C1791.22 122.206 1789.98 121.885 1789.7 122.735C1783.45 141.712 1779.11 161.502 1769.72 179.343C1761.38 195.169 1749.71 208.996 1736.09 220.645C1722.51 232.276 1706.76 241.608 1689.82 247.524C1668.2 255.063 1649.32 250.713 1630.44 238.891C1629.24 238.141 1627.82 239.644 1628.75 240.757C1655.59 272.772 1703.04 252.553 1730.71 232.308C1747.69 219.898 1761.79 203.737 1771.75 185.327Z" fill="#212321"/>
<path d="M1656.19 162.981C1640.33 151.825 1618.8 164.554 1607.36 176.082C1606.74 176.706 1607.35 177.893 1608.24 177.442C1616.07 173.534 1623.51 168.744 1631.87 166.012C1639.91 163.392 1647.74 164.62 1655.94 164.12C1656.53 164.087 1656.6 163.269 1656.19 162.981Z" fill="#212321"/>
<path d="M1624.67 178.906C1624.77 178.686 1624.62 178.419 1624.41 178.346C1621.87 177.462 1618.93 179.414 1616.87 180.796C1613.9 182.779 1611.52 184.844 1610.09 188.143C1609.76 188.899 1610.73 189.84 1611.48 189.386C1614.12 187.787 1616.26 185.697 1618.74 183.882C1620.72 182.418 1623.69 181.233 1624.67 178.906Z" fill="#212321"/>
<path d="M1716.94 99.5986C1716.7 98.9593 1715.62 99.1628 1715.61 99.8436C1715.54 104.911 1715.71 109.607 1714.71 114.619C1714.1 117.654 1713.26 120.888 1711.68 123.59C1710.42 125.74 1708.71 127.295 1707.79 129.621C1707.53 130.279 1708.25 130.76 1708.83 130.55C1719.28 126.86 1720.23 108.176 1716.94 99.5986Z" fill="#212321"/>
<path d="M1719.87 123.666C1719.87 123.522 1719.69 123.382 1719.56 123.505C1718.21 124.839 1717.13 126.415 1715.86 127.846C1714.77 129.077 1713.49 130.239 1713.28 131.926C1713.2 132.519 1713.78 132.933 1714.32 132.863C1717.81 132.416 1719.98 126.667 1719.87 123.666Z" fill="#212321"/>
</g>
<g>
<path d="M1863.57 1041.29C1861.49 1033.47 1855.94 1026.34 1848.66 1022.71C1839.26 1018.04 1828.36 1020.24 1818.23 1018.39C1821.78 1016.23 1825.71 1014.51 1829.26 1012.9C1833.83 1010.83 1839.64 1009.39 1842.74 1005.07C1848.28 997.355 1840.95 989.669 1833.81 986.428C1819.66 980.013 1806.96 993.169 1800.55 1007.68C1800.4 987.332 1776.75 979.548 1759.53 983.443C1733.7 989.284 1715.56 1010.55 1703.4 1032.76C1697.65 1043.27 1692.56 1054.37 1690.32 1066.21C1687.96 1078.69 1691.48 1089.57 1691.77 1101.95C1691.98 1111.04 1691.2 1121.19 1699.21 1127.54C1702.4 1130.08 1706.29 1130.98 1710.19 1131.8C1713.41 1135.63 1718.94 1136.42 1724.34 1137.97C1726.56 1141.16 1728.76 1144.3 1730.71 1147.73C1731.76 1149.56 1732.41 1151.48 1734.02 1152.95C1737.22 1155.88 1741.61 1155.93 1745.62 1155C1754.37 1157.34 1764.69 1156.76 1771.16 1154.49C1795.67 1145.87 1817.38 1123.14 1833.67 1103.8C1843.02 1092.7 1851.58 1080.77 1858.4 1067.94C1862.78 1059.7 1866.07 1050.68 1863.57 1041.29Z" fill="#FD7F06"/>
<path d="M1832.74 1091.28C1842.05 1080.15 1850.57 1068.19 1857.34 1055.34C1861.69 1047.07 1864.95 1038.05 1862.41 1028.67C1860.3 1020.85 1854.73 1013.74 1847.42 1010.14C1838.01 1005.5 1827.11 1007.75 1816.98 1005.93C1820.53 1003.76 1824.44 1002.03 1827.99 1000.41C1832.55 998.327 1838.36 996.857 1841.44 992.528C1846.95 984.791 1839.59 977.131 1832.44 973.918C1818.27 967.557 1805.62 980.758 1799.26 995.295C1799.04 974.942 1775.37 967.246 1758.16 971.201C1732.35 977.139 1714.29 998.474 1702.22 1020.72C1696.5 1031.26 1691.45 1042.38 1689.26 1054.23C1686.95 1066.71 1690.51 1077.58 1690.84 1089.95C1691.09 1099.05 1690.34 1109.2 1698.37 1115.52C1701.58 1118.05 1705.47 1118.94 1709.37 1119.74C1712.6 1123.56 1718.14 1124.33 1723.54 1125.86C1725.77 1129.04 1727.99 1132.17 1729.95 1135.59C1731 1137.42 1731.66 1139.33 1733.28 1140.8C1736.49 1143.72 1740.88 1143.76 1744.89 1142.81C1753.64 1145.12 1763.96 1144.51 1770.43 1142.2C1794.9 1133.49 1816.52 1110.68 1832.74 1091.28ZM1828.46 977.923C1831.19 977.998 1833.45 978.994 1835.25 980.915C1838.3 982.301 1838.5 984.558 1835.85 987.687C1834.04 993.706 1834.23 992.811 1829.28 994.912C1819.83 998.92 1798.72 1006.91 1801.43 1020.42C1799.47 1019.5 1797.96 1018.01 1796.53 1016.11C1796.56 1016.06 1796.6 1016.01 1796.63 1015.95C1800.98 1005.8 1802.22 995.264 1809.75 986.478C1814.75 980.632 1820.63 975.789 1828.46 977.923ZM1785.44 1125.34C1777.11 1131.25 1767.17 1137.44 1756.57 1137.73C1764.3 1132.82 1770.75 1125.31 1772.88 1116.95C1773.17 1115.84 1771.86 1114.86 1770.94 1115.69C1763.03 1122.76 1756.45 1131.45 1746.56 1136.04C1746.56 1136.04 1746.55 1136.04 1746.54 1136.05C1743.06 1134.61 1740.24 1132.34 1737.48 1129.59C1738.19 1129.63 1738.9 1129.64 1739.59 1129.62C1750.08 1129.35 1758.5 1122.65 1765.5 1115.49C1782.37 1098.23 1801.03 1074.31 1806.16 1050.27C1806.19 1050.11 1805.96 1049.95 1805.86 1050.13C1797.33 1065.95 1787.79 1081.17 1776.52 1095.21C1770.6 1102.59 1764.31 1110.6 1756.97 1116.71C1751.69 1121.11 1745.6 1124.82 1738.45 1124.67C1736.14 1124.62 1734.23 1124.1 1732.43 1123.36C1729.46 1120.62 1725.87 1118.44 1722.33 1116.86C1720.2 1115.91 1718.04 1115.35 1715.87 1114.85C1713.93 1112.51 1712.59 1109.58 1712.47 1106.85C1712.25 1101.59 1714.01 1095.75 1714.61 1090.49C1715.42 1083.45 1716.31 1076.43 1716.74 1069.34C1716.74 1069.16 1716.47 1069.11 1716.42 1069.28C1713.74 1077.86 1711.52 1086.66 1709.44 1095.41C1708.21 1100.59 1706.26 1106.68 1706.65 1112.12C1699.56 1108.81 1697.4 1103.12 1697.2 1094.89C1697.11 1091.54 1696.78 1088.23 1696.38 1084.92C1696.62 1083.46 1696.84 1082.13 1696.96 1081.09C1697.82 1074.01 1699.36 1066.96 1701.43 1060.13C1705.38 1047.1 1712.18 1035.72 1719.14 1024.14C1719.71 1023.19 1718.41 1021.93 1717.57 1022.81C1705.98 1034.98 1698.71 1051.68 1695.22 1067.99C1695.03 1068.87 1694.9 1069.77 1694.73 1070.65C1694.62 1069.18 1694.52 1067.7 1694.5 1066.23C1694.29 1056.03 1697.39 1045.9 1701.4 1036.62C1710.24 1016.16 1723.44 995.085 1743.21 983.664C1752.04 978.562 1762.61 974.891 1772.96 976.047C1787.45 977.667 1790.42 988.219 1798.14 998.06C1796.68 1001.9 1795.69 1005.73 1795.23 1009.27C1794.14 1004.67 1792.31 1000.15 1788.88 997.926C1788.2 993.307 1788.7 989.013 1783.3 986.66C1777.06 983.942 1769.35 988.37 1764.16 991.3C1747.95 1000.45 1734.99 1015.76 1731.24 1034.18C1730.94 1035.63 1732.81 1036.24 1733.42 1034.89C1739.36 1021.73 1747.07 1009.57 1758.74 1000.74C1762.88 997.602 1772.23 990.642 1778.03 990.811C1782.54 990.94 1783.85 993.877 1785.29 996.836C1784.34 997.166 1783.76 998.331 1784.6 999.246C1786.01 1000.79 1787.18 1002.26 1788.18 1003.82C1784.97 1000.3 1781.01 998.226 1775.42 999.46C1774 999.774 1773.84 1001.84 1775.27 1002.3C1786.94 1006.03 1787.51 1020.41 1797.83 1025.7C1807.27 1030.54 1817.85 1022.38 1827.37 1021.61C1828.4 1021.53 1828.17 1019.99 1827.24 1019.89C1821.31 1019.24 1816.75 1019.86 1811.04 1020.98C1809.6 1021.26 1808.31 1021.4 1807.13 1021.44C1808.62 1020.54 1810.07 1019.54 1811.57 1018.84C1815.23 1017.12 1819.28 1015.95 1823.2 1014.96C1823.55 1014.87 1823.78 1014.67 1823.91 1014.42C1830 1014.98 1835.78 1018 1838.73 1023.73C1843.24 1032.46 1839.25 1042.55 1834.54 1050.13C1827.21 1061.93 1817.26 1071.91 1809.75 1083.6C1808.98 1084.8 1810.69 1086.38 1811.73 1085.28C1820.11 1076.43 1827.77 1066.49 1834.93 1056.64C1840.26 1049.31 1844.73 1040.87 1844.12 1031.51C1843.35 1019.63 1833.21 1011.48 1822.43 1012.75C1817.96 1012.27 1813.82 1013.15 1809.83 1015.37C1808.81 1015.94 1807.71 1016.62 1806.67 1017.39C1807.97 1013.48 1810.67 1010.45 1814 1007.96C1827.54 1016.02 1845.85 1007.61 1854.73 1025.66C1863.69 1043.84 1841.79 1068.2 1831.22 1081.56C1818.14 1098.09 1802.67 1113.12 1785.44 1125.34Z" fill="#212321"/>
<path d="M1735.47 1062.28C1738.78 1054.86 1740.08 1047.02 1742.86 1039.44C1746.28 1030.14 1752.81 1023.86 1758.6 1016.11C1759.07 1015.48 1758.23 1014.54 1757.54 1014.94C1740.68 1024.67 1734.52 1043.4 1733.23 1061.86C1733.14 1063.24 1734.97 1063.4 1735.47 1062.28Z" fill="#212321"/>
</g>
<defs>
<clipPath id="clip0">
<rect width="95.1544" height="111.793" fill="white" transform="matrix(0.735402 0.677631 0.677631 -0.735402 1379 539.213)"/>
</clipPath>
<clipPath id="clip1">
<rect width="116.537" height="128.031" fill="white" transform="translate(392 794.338) rotate(-56.6427)"/>
</clipPath>
<clipPath id="clip2">
<rect width="131.364" height="138.278" fill="white" transform="translate(1527 670.863) rotate(-16.2971)"/>
</clipPath>
</defs>
</svg>
