<svg width="324" height="99" viewBox="0 0 324 99" fill="none" xmlns="http://www.w3.org/2000/svg">
<path d="M294.774 98.6669H8.74309C4.13425 98.6669 0.399414 94.8928 0.399414 90.2355V16.8904C0.399414 12.2331 4.13425 8.45898 8.74309 8.45898H294.777C297.948 8.45898 300.843 10.2751 302.251 13.1461L322.447 42.6872C323.523 44.8815 324.943 47.3196 320.369 57.0447L302.251 93.9822C300.843 96.8507 297.945 98.6669 294.774 98.6669Z" fill="#043E44"/>
<path d="M295.759 91.203H9.72819C5.11936 91.203 1.38452 87.4289 1.38452 82.7716V9.42653C1.38452 4.76922 5.11936 0.995117 9.72819 0.995117H295.762C298.933 0.995117 301.828 2.81127 303.236 5.68227L321.354 42.6198C322.43 44.8141 322.43 47.389 321.354 49.5808L303.236 86.5183C301.828 89.3868 298.93 91.203 295.759 91.203Z" fill="#1ECA59"/>
<path d="M317.203 58.0368L303.234 86.5156C301.826 89.3866 298.93 91.2027 295.759 91.2027H9.72573C5.11936 91.2027 1.38452 87.4286 1.38452 82.7713V53.5811C47.7511 65.0676 105.955 71.9043 169.154 71.9043C223.69 71.9043 274.505 66.8141 317.203 58.0368Z" fill="#32A458"/>
<path d="M295.759 92.1982H9.72788C4.58479 92.1982 0.399414 87.9688 0.399414 82.7716V9.42656C0.399414 4.22939 4.58479 0 9.72788 0H295.762C299.331 0 302.534 2.00772 304.12 5.23947L322.238 42.177C323.442 44.6325 323.442 47.5657 322.238 50.0237L304.12 86.9612C302.532 90.1905 299.329 92.1982 295.759 92.1982ZM9.72788 1.9903C5.67053 1.9903 2.369 5.32654 2.369 9.42656V82.7716C2.369 86.8717 5.67053 90.2079 9.72788 90.2079H295.762C298.578 90.2079 301.104 88.6231 302.355 86.0755L320.473 49.138C321.406 47.2348 321.406 44.9634 320.473 43.0602L302.355 6.12266C301.102 3.57508 298.576 1.9903 295.759 1.9903H9.72788Z" fill="#043E44"/>
<path d="M43.5661 11.1004C43.5661 13.7749 40.4774 19.7337 32.4661 19.7337C24.4548 19.7337 18.8994 17.4749 18.8994 14.8004C18.8994 12.1259 21.9856 7.40039 29.9994 7.40039C38.0132 7.40039 43.5661 8.42592 43.5661 11.1004Z" fill="white"/>
<path d="M16.6829 18.4548C16.6829 19.8903 14.0855 22.0224 12.5369 22.0224C10.9883 22.0224 9.73022 20.8581 9.73022 19.4226C9.73022 17.9871 12.0962 15.4121 13.6448 15.4121C15.1934 15.4121 16.6829 17.0193 16.6829 18.4548Z" fill="white"/>
</svg>
