<svg width="395" height="403" viewBox="0 0 395 403" fill="none" xmlns="http://www.w3.org/2000/svg">
<path d="M197.471 403C305.205 403 392.54 315.562 392.54 207.701C392.54 99.8407 305.205 12.4023 197.471 12.4023C89.7373 12.4023 2.40186 99.8407 2.40186 207.701C2.40186 315.562 89.7373 403 197.471 403Z" fill="#4A8E25"/>
<path d="M197.5 383.404C305.234 383.404 392.569 298.121 392.569 192.919C392.569 87.7167 305.234 2.43359 197.5 2.43359C89.7661 2.43359 2.43066 87.7167 2.43066 192.919C2.43066 298.121 89.7661 383.404 197.5 383.404Z" fill="#8DC63F"/>
<path d="M100.553 101.418C106.235 95.7285 106.729 86.9993 101.656 81.9203C96.5835 76.8413 87.8645 77.3359 82.182 83.0251C76.4996 88.7142 76.0055 97.4435 81.0785 102.522C86.1515 107.601 94.8706 107.107 100.553 101.418Z" fill="white"/>
<path d="M82.0291 122.157C85.3497 118.833 85.6391 113.732 82.6754 110.765C79.7117 107.798 74.6173 108.088 71.2967 111.412C67.9761 114.737 67.6867 119.837 70.6504 122.804C73.6141 125.771 78.7085 125.482 82.0291 122.157Z" fill="white"/>
<g opacity="0.7">
<path opacity="0.7" d="M392.54 193.045C392.54 298.243 305.205 383.53 197.471 383.53C89.7367 383.53 2.40186 298.243 2.40186 193.045C2.40186 178.837 3.99648 164.994 7.01557 151.672C26.365 236.978 104.288 300.784 197.471 300.784C290.654 300.784 368.577 236.978 387.926 151.672C390.946 164.994 392.54 178.837 392.54 193.045Z" fill="#7CAF2C"/>
</g>
<path d="M258.84 203.578C260.614 201.023 260.4 197.587 258.319 195.275C250.327 186.392 230.914 164.965 222.577 157.085C213.281 148.299 187.981 127.267 176.357 117.664C173.906 115.639 170.212 117.314 170.11 120.492C169.516 138.92 168.17 185.111 168.884 202.936C169.618 221.266 174.568 266.372 176.644 284.747C177.028 288.144 181.053 289.707 183.63 287.458C194.569 277.908 217.2 257.913 225.289 248.937C233.408 239.938 251.635 213.96 258.84 203.578Z" fill="white"/>
<path d="M197.5 385.838C170.848 385.838 144.989 380.741 120.642 370.685C97.1262 360.97 76.0023 347.069 57.8683 329.356C39.7246 311.639 25.4799 291.011 15.5281 268.032C5.22628 244.24 0 218.969 0 192.919C0 166.869 5.22628 141.597 15.5281 117.805C25.4799 94.8313 39.7246 74.1984 57.8683 56.4811C76.0072 38.7687 97.1262 24.8626 120.642 15.1522C144.989 5.09615 170.848 0 197.5 0C224.152 0 250.011 5.09615 274.358 15.1522C297.874 24.8675 318.993 38.7687 337.132 56.4811C355.275 74.1984 369.52 94.8264 379.472 117.805C389.779 141.597 395 166.869 395 192.919C395 218.969 389.774 244.24 379.472 268.032C369.52 291.006 355.275 311.639 337.132 329.356C318.993 347.069 297.874 360.975 274.358 370.685C250.011 380.741 224.156 385.838 197.5 385.838ZM197.5 4.86738C91.2776 4.86738 4.86166 89.2289 4.86166 192.919C4.86166 296.609 91.2776 380.97 197.5 380.97C303.722 380.97 390.138 296.609 390.138 192.919C390.138 89.2289 303.722 4.86738 197.5 4.86738Z" fill="#4A8E25"/>
</svg>
