<svg viewBox="0 0 396 404" fill="none" xmlns="http://www.w3.org/2000/svg">
<path d="M197.705 403.004C305.567 403.004 393.006 315.565 393.006 207.703C393.006 99.8415 305.567 12.4023 197.705 12.4023C89.8437 12.4023 2.40454 99.8415 2.40454 207.703C2.40454 315.565 89.8437 403.004 197.705 403.004Z" fill="#2A7200"/>
<path d="M196.98 384.542C304.842 384.542 392.281 299.258 392.281 194.055C392.281 88.8523 304.842 3.56836 196.98 3.56836C89.1183 3.56836 1.6792 88.8523 1.6792 194.055C1.6792 299.258 89.1183 384.542 196.98 384.542Z" fill="#4A8E25"/>
<path d="M100.672 101.42C106.362 95.7305 106.856 87.0012 101.777 81.9221C96.6983 76.8431 87.9689 77.3377 82.2797 83.0269C76.5905 88.7161 76.0959 97.4455 81.1749 102.525C86.2539 107.604 94.9833 107.109 100.672 101.42Z" fill="white"/>
<path d="M82.1266 122.159C85.4512 118.835 85.7409 113.734 82.7737 110.767C79.8065 107.8 74.706 108.089 71.3815 111.414C68.0569 114.739 67.7672 119.839 70.7344 122.806C73.7016 125.773 78.8021 125.484 82.1266 122.159Z" fill="white"/>
<path d="M392.627 191.213C392.627 296.413 305.188 381.7 197.326 381.7C89.4634 381.7 2.0249 296.413 2.0249 191.213C2.0249 177.005 3.62142 163.162 6.64409 149.84C26.0165 235.146 104.032 298.954 197.326 298.954C290.62 298.954 368.635 235.146 388.007 149.84C391.03 163.162 392.627 177.005 392.627 191.213Z" fill="#387F0E"/>
<path d="M259.147 203.579C260.923 201.024 260.709 197.587 258.626 195.275C250.624 186.392 231.188 164.966 222.841 157.085C213.534 148.3 188.204 127.268 176.566 117.664C174.113 115.639 170.414 117.314 170.311 120.492C169.718 138.92 168.369 185.112 169.085 202.937C169.82 221.267 174.775 266.374 176.853 284.748C177.238 288.146 181.268 289.708 183.848 287.46C194.799 277.91 217.457 257.914 225.557 248.939C233.685 239.939 251.933 213.961 259.147 203.579Z" fill="white"/>
<path d="M197.735 385.841C171.051 385.841 145.161 380.745 120.785 370.689C97.2415 360.974 76.0925 347.072 57.937 329.36C39.7718 311.642 25.5102 291.014 15.5466 268.035C5.23249 244.243 0 218.971 0 192.921C0 166.87 5.23249 141.598 15.5466 117.806C25.5102 94.8322 39.7718 74.1991 57.937 56.4817C76.0974 38.7691 97.2415 24.8628 120.785 15.1523C145.161 5.0962 171.051 0 197.735 0C224.418 0 250.308 5.0962 274.684 15.1523C298.228 24.8677 319.372 38.7691 337.532 56.4817C355.697 74.1991 369.959 94.8273 379.922 117.806C390.241 141.598 395.469 166.87 395.469 192.921C395.469 218.971 390.237 244.243 379.922 268.035C369.959 291.009 355.697 311.642 337.532 329.36C319.372 347.072 298.228 360.978 274.684 370.689C250.308 380.745 224.423 385.841 197.735 385.841ZM197.735 4.86743C91.386 4.86743 4.86743 89.2297 4.86743 192.921C4.86743 296.612 91.386 380.974 197.735 380.974C304.083 380.974 390.602 296.612 390.602 192.921C390.602 89.2297 304.083 4.86743 197.735 4.86743Z" fill="#2A7200"/>
</svg>
