<svg width="324" height="99" viewBox="0 0 324 99" fill="none" xmlns="http://www.w3.org/2000/svg">
<g clip-path="url(#clip0)">
<path d="M28.7579 98.6669H314.789C319.398 98.6669 323.133 94.8928 323.133 90.2355V16.8904C323.133 12.2331 319.398 8.45898 314.789 8.45898H28.7555C25.5845 8.45898 22.6891 10.2751 21.2809 13.1461L1.08524 42.6872C0.00933838 44.8815 -1.41125 47.3196 3.16315 57.0447L21.2809 93.9822C22.6891 96.8507 25.5869 98.6669 28.7579 98.6669Z" fill="#043E44"/>
<path d="M27.7729 91.203H313.804C318.413 91.203 322.148 87.4289 322.148 82.7716V9.42653C322.148 4.76922 318.413 0.995117 313.804 0.995117H27.7704C24.5994 0.995117 21.7041 2.81127 20.2958 5.68227L2.17807 42.6198C1.10217 44.8141 1.10217 47.389 2.17807 49.5808L20.2958 86.5183C21.7041 89.3868 24.6018 91.203 27.7729 91.203Z" fill="#3FAEC6"/>
<path d="M6.32895 58.0368L20.2982 86.5156C21.7065 89.3866 24.6018 91.2027 27.7729 91.2027H313.806C318.413 91.2027 322.148 87.4286 322.148 82.7713V53.5811C275.781 65.0676 217.577 71.9043 154.378 71.9043C99.8426 71.9043 49.0272 66.8141 6.32895 58.0368Z" fill="#19828D"/>
<path d="M27.7731 92.1982H313.804C318.947 92.1982 323.133 87.9688 323.133 82.7716V9.42656C323.133 4.22939 318.947 0 313.804 0H27.7707C24.2008 0 20.9978 2.00772 19.4122 5.23947L1.29449 42.177C0.0905762 44.6325 0.0905762 47.5657 1.29449 50.0237L19.4122 86.9612C21.0002 90.1905 24.2033 92.1982 27.7731 92.1982ZM313.804 1.9903C317.862 1.9903 321.163 5.32654 321.163 9.42656V82.7716C321.163 86.8717 317.862 90.2079 313.804 90.2079H27.7707C24.9542 90.2079 22.4282 88.6231 21.1775 86.0755L3.05972 49.138C2.12662 47.2348 2.12662 44.9634 3.05972 43.0602L21.1775 6.12266C22.4307 3.57508 24.9566 1.9903 27.7731 1.9903H313.804Z" fill="#043E44"/>
<path d="M25.9205 16.908C26.7761 19.4368 31.1222 21.1896 38.7101 18.5949C46.298 16.0002 51.9511 13.8231 51.0955 11.2943C50.24 8.76554 43.2009 3.84876 35.6107 6.44424C28.0204 9.03972 25.065 14.3793 25.9205 16.908Z" fill="white"/>
<path d="M20.8465 25.4665C20.8465 26.902 23.4439 29.0341 24.9924 29.0341C26.541 29.0341 27.7991 27.8698 27.7991 26.4343C27.7991 24.9988 25.4331 22.4238 23.8846 22.4238C22.336 22.4238 20.8465 24.031 20.8465 25.4665Z" fill="white"/>
</g>
<defs>
<clipPath id="clip0">
<rect width="323.133" height="98.6667" fill="white" transform="matrix(-1 0 0 1 323.133 0)"/>
</clipPath>
</defs>
</svg>
